%TF.GenerationSoftware,KiCad,Pcbnew,(6.0.7)*%
%TF.CreationDate,2022-09-11T22:15:23-05:00*%
%TF.ProjectId,PyKey60,50794b65-7936-4302-9e6b-696361645f70,1.1*%
%TF.SameCoordinates,Original*%
%TF.FileFunction,Soldermask,Bot*%
%TF.FilePolarity,Negative*%
%FSLAX46Y46*%
G04 Gerber Fmt 4.6, Leading zero omitted, Abs format (unit mm)*
G04 Created by KiCad (PCBNEW (6.0.7)) date 2022-09-11 22:15:23*
%MOMM*%
%LPD*%
G01*
G04 APERTURE LIST*
G04 Aperture macros list*
%AMRoundRect*
0 Rectangle with rounded corners*
0 $1 Rounding radius*
0 $2 $3 $4 $5 $6 $7 $8 $9 X,Y pos of 4 corners*
0 Add a 4 corners polygon primitive as box body*
4,1,4,$2,$3,$4,$5,$6,$7,$8,$9,$2,$3,0*
0 Add four circle primitives for the rounded corners*
1,1,$1+$1,$2,$3*
1,1,$1+$1,$4,$5*
1,1,$1+$1,$6,$7*
1,1,$1+$1,$8,$9*
0 Add four rect primitives between the rounded corners*
20,1,$1+$1,$2,$3,$4,$5,0*
20,1,$1+$1,$4,$5,$6,$7,0*
20,1,$1+$1,$6,$7,$8,$9,0*
20,1,$1+$1,$8,$9,$2,$3,0*%
G04 Aperture macros list end*
%ADD10C,4.000000*%
%ADD11C,1.750000*%
%ADD12C,3.000000*%
%ADD13R,2.550000X2.500000*%
%ADD14R,2.500000X1.100000*%
%ADD15C,3.050000*%
%ADD16C,7.000240*%
%ADD17O,7.000240X2.499360*%
%ADD18O,5.000000X2.500000*%
%ADD19C,5.001260*%
%ADD20R,0.900000X1.200000*%
%ADD21R,1.200000X0.900000*%
%ADD22C,0.650000*%
%ADD23R,0.600000X1.450000*%
%ADD24R,0.300000X1.450000*%
%ADD25O,1.000000X1.600000*%
%ADD26O,1.000000X2.100000*%
%ADD27RoundRect,0.200000X0.275000X-0.200000X0.275000X0.200000X-0.275000X0.200000X-0.275000X-0.200000X0*%
%ADD28RoundRect,0.050000X-0.050000X0.387500X-0.050000X-0.387500X0.050000X-0.387500X0.050000X0.387500X0*%
%ADD29RoundRect,0.050000X-0.387500X0.050000X-0.387500X-0.050000X0.387500X-0.050000X0.387500X0.050000X0*%
%ADD30RoundRect,0.144000X-1.456000X1.456000X-1.456000X-1.456000X1.456000X-1.456000X1.456000X1.456000X0*%
%ADD31R,0.650000X1.060000*%
%ADD32RoundRect,0.150000X0.650000X0.150000X-0.650000X0.150000X-0.650000X-0.150000X0.650000X-0.150000X0*%
%ADD33RoundRect,0.225000X0.225000X0.250000X-0.225000X0.250000X-0.225000X-0.250000X0.225000X-0.250000X0*%
%ADD34RoundRect,0.225000X-0.225000X-0.250000X0.225000X-0.250000X0.225000X0.250000X-0.225000X0.250000X0*%
%ADD35RoundRect,0.225000X0.250000X-0.225000X0.250000X0.225000X-0.250000X0.225000X-0.250000X-0.225000X0*%
%ADD36RoundRect,0.225000X-0.250000X0.225000X-0.250000X-0.225000X0.250000X-0.225000X0.250000X0.225000X0*%
%ADD37RoundRect,0.200000X-0.200000X-0.275000X0.200000X-0.275000X0.200000X0.275000X-0.200000X0.275000X0*%
%ADD38RoundRect,0.200000X0.200000X0.275000X-0.200000X0.275000X-0.200000X-0.275000X0.200000X-0.275000X0*%
%ADD39RoundRect,0.200000X-0.200000X-0.800000X0.200000X-0.800000X0.200000X0.800000X-0.200000X0.800000X0*%
%ADD40R,1.200000X1.400000*%
%ADD41R,1.000000X0.800000*%
%ADD42C,0.900000*%
%ADD43R,0.700000X1.500000*%
%ADD44R,1.700000X1.700000*%
%ADD45O,1.700000X1.700000*%
%ADD46RoundRect,0.218750X0.218750X0.256250X-0.218750X0.256250X-0.218750X-0.256250X0.218750X-0.256250X0*%
%ADD47R,2.000000X1.500000*%
%ADD48R,2.000000X3.800000*%
%ADD49R,2.200000X2.200000*%
G04 APERTURE END LIST*
D10*
%TO.C,U1*%
X71437500Y-73820000D03*
D11*
X66357500Y-73820000D03*
D12*
X68897500Y-78900000D03*
X75247500Y-76360000D03*
D11*
X76517500Y-73820000D03*
D13*
X78847500Y-76360000D03*
X65422500Y-78900000D03*
D14*
X68487500Y-67820000D03*
X68487500Y-69720000D03*
X74387500Y-67820000D03*
X74387500Y-69720000D03*
%TD*%
D12*
%TO.C,U2*%
X87947500Y-78900000D03*
D11*
X85407500Y-73820000D03*
D10*
X90487500Y-73820000D03*
D12*
X94297500Y-76360000D03*
D11*
X95567500Y-73820000D03*
D13*
X97897500Y-76360000D03*
X84472500Y-78900000D03*
D14*
X87537500Y-67820000D03*
X87537500Y-69720000D03*
X93437500Y-67820000D03*
X93437500Y-69720000D03*
%TD*%
D11*
%TO.C,U3*%
X114618000Y-73820000D03*
D12*
X113348000Y-76360000D03*
X106998000Y-78900000D03*
D11*
X104458000Y-73820000D03*
D10*
X109538000Y-73820000D03*
D13*
X116948000Y-76360000D03*
X103523000Y-78900000D03*
D14*
X106588000Y-67820000D03*
X106588000Y-69720000D03*
X112488000Y-67820000D03*
X112488000Y-69720000D03*
%TD*%
D11*
%TO.C,U4*%
X133668000Y-73820000D03*
D12*
X126048000Y-78900000D03*
D10*
X128588000Y-73820000D03*
D12*
X132398000Y-76360000D03*
D11*
X123508000Y-73820000D03*
D13*
X135998000Y-76360000D03*
X122573000Y-78900000D03*
D14*
X125638000Y-67820000D03*
X125638000Y-69720000D03*
X131538000Y-67820000D03*
X131538000Y-69720000D03*
%TD*%
D10*
%TO.C,U5*%
X147638000Y-73820000D03*
D12*
X151448000Y-76360000D03*
D11*
X142558000Y-73820000D03*
X152718000Y-73820000D03*
D12*
X145098000Y-78900000D03*
D13*
X155048000Y-76360000D03*
X141623000Y-78900000D03*
D14*
X144688000Y-67820000D03*
X144688000Y-69720000D03*
X150588000Y-67820000D03*
X150588000Y-69720000D03*
%TD*%
D11*
%TO.C,U6*%
X161608000Y-73820000D03*
D12*
X170498000Y-76360000D03*
D11*
X171768000Y-73820000D03*
D12*
X164148000Y-78900000D03*
D10*
X166688000Y-73820000D03*
D13*
X174098000Y-76360000D03*
X160673000Y-78900000D03*
D14*
X163738000Y-67820000D03*
X163738000Y-69720000D03*
X169638000Y-67820000D03*
X169638000Y-69720000D03*
%TD*%
D12*
%TO.C,U7*%
X189548000Y-76360000D03*
D10*
X185738000Y-73820000D03*
D11*
X190818000Y-73820000D03*
X180658000Y-73820000D03*
D12*
X183198000Y-78900000D03*
D13*
X193148000Y-76360000D03*
X179723000Y-78900000D03*
D14*
X182788000Y-67820000D03*
X182788000Y-69720000D03*
X188688000Y-67820000D03*
X188688000Y-69720000D03*
%TD*%
D11*
%TO.C,U8*%
X199708000Y-73820000D03*
D12*
X208598000Y-76360000D03*
D11*
X209868000Y-73820000D03*
D12*
X202248000Y-78900000D03*
D10*
X204788000Y-73820000D03*
D13*
X212198000Y-76360000D03*
X198773000Y-78900000D03*
D14*
X201838000Y-67820000D03*
X201838000Y-69720000D03*
X207738000Y-67820000D03*
X207738000Y-69720000D03*
%TD*%
D10*
%TO.C,U9*%
X223838000Y-73820000D03*
D11*
X228918000Y-73820000D03*
D12*
X227648000Y-76360000D03*
X221298000Y-78900000D03*
D11*
X218758000Y-73820000D03*
D13*
X231248000Y-76360000D03*
X217823000Y-78900000D03*
D14*
X220888000Y-67820000D03*
X220888000Y-69720000D03*
X226788000Y-67820000D03*
X226788000Y-69720000D03*
%TD*%
D12*
%TO.C,U10*%
X240348000Y-78900000D03*
X246698000Y-76360000D03*
D11*
X247968000Y-73820000D03*
D10*
X242888000Y-73820000D03*
D11*
X237808000Y-73820000D03*
D13*
X250298000Y-76360000D03*
X236873000Y-78900000D03*
D14*
X239938000Y-67820000D03*
X239938000Y-69720000D03*
X245838000Y-67820000D03*
X245838000Y-69720000D03*
%TD*%
D11*
%TO.C,U11*%
X256858000Y-73820000D03*
D12*
X259398000Y-78900000D03*
D11*
X267018000Y-73820000D03*
D10*
X261938000Y-73820000D03*
D12*
X265748000Y-76360000D03*
D13*
X269348000Y-76360000D03*
X255923000Y-78900000D03*
D14*
X258988000Y-67820000D03*
X258988000Y-69720000D03*
X264888000Y-67820000D03*
X264888000Y-69720000D03*
%TD*%
D11*
%TO.C,U12*%
X275908000Y-73820000D03*
D12*
X278448000Y-78900000D03*
D11*
X286068000Y-73820000D03*
D10*
X280988000Y-73820000D03*
D12*
X284798000Y-76360000D03*
D13*
X288398000Y-76360000D03*
X274973000Y-78900000D03*
D14*
X278038000Y-67820000D03*
X278038000Y-69720000D03*
X283938000Y-67820000D03*
X283938000Y-69720000D03*
%TD*%
D11*
%TO.C,U13*%
X294958000Y-73820000D03*
X305118000Y-73820000D03*
D10*
X300038000Y-73820000D03*
D12*
X303848000Y-76360000D03*
X297498000Y-78900000D03*
D13*
X307448000Y-76360000D03*
X294023000Y-78900000D03*
D14*
X297088000Y-67820000D03*
X297088000Y-69720000D03*
X302988000Y-67820000D03*
X302988000Y-69720000D03*
%TD*%
D15*
%TO.C,U14*%
X340551000Y-66820000D03*
D10*
X328613000Y-73820000D03*
X340551000Y-82060000D03*
D11*
X323533000Y-73820000D03*
D12*
X332423000Y-76360000D03*
D15*
X316675000Y-66820000D03*
D12*
X326073000Y-78900000D03*
D10*
X316675000Y-82060000D03*
D11*
X333693000Y-73820000D03*
D13*
X336023000Y-76360000D03*
X322598000Y-78900000D03*
D14*
X325663000Y-67820000D03*
X325663000Y-69720000D03*
X331563000Y-67820000D03*
X331563000Y-69720000D03*
%TD*%
D12*
%TO.C,U15*%
X73660000Y-97950000D03*
X80010000Y-95410000D03*
D10*
X76200000Y-92870000D03*
D11*
X81280000Y-92870000D03*
X71120000Y-92870000D03*
D13*
X83610000Y-95410000D03*
X70185000Y-97950000D03*
D14*
X73250000Y-86870000D03*
X73250000Y-88770000D03*
X79150000Y-86870000D03*
X79150000Y-88770000D03*
%TD*%
D11*
%TO.C,U16*%
X105092000Y-92870000D03*
D12*
X103822000Y-95410000D03*
D11*
X94932000Y-92870000D03*
D10*
X100012000Y-92870000D03*
D12*
X97472000Y-97950000D03*
D13*
X107422000Y-95410000D03*
X93997000Y-97950000D03*
D14*
X97062000Y-86870000D03*
X97062000Y-88770000D03*
X102962000Y-86870000D03*
X102962000Y-88770000D03*
%TD*%
D11*
%TO.C,U17*%
X113982000Y-92870000D03*
D12*
X122872000Y-95410000D03*
D11*
X124142000Y-92870000D03*
D12*
X116522000Y-97950000D03*
D10*
X119062000Y-92870000D03*
D13*
X126472000Y-95410000D03*
X113047000Y-97950000D03*
D14*
X116112000Y-86870000D03*
X116112000Y-88770000D03*
X122012000Y-86870000D03*
X122012000Y-88770000D03*
%TD*%
D10*
%TO.C,U18*%
X138112000Y-92870000D03*
D11*
X143192000Y-92870000D03*
D12*
X141922000Y-95410000D03*
D11*
X133032000Y-92870000D03*
D12*
X135572000Y-97950000D03*
D13*
X145522000Y-95410000D03*
X132097000Y-97950000D03*
D14*
X135162000Y-86870000D03*
X135162000Y-88770000D03*
X141062000Y-86870000D03*
X141062000Y-88770000D03*
%TD*%
D11*
%TO.C,U19*%
X162242000Y-92870000D03*
D12*
X154622000Y-97950000D03*
X160972000Y-95410000D03*
D10*
X157162000Y-92870000D03*
D11*
X152082000Y-92870000D03*
D13*
X164572000Y-95410000D03*
X151147000Y-97950000D03*
D14*
X154212000Y-86870000D03*
X154212000Y-88770000D03*
X160112000Y-86870000D03*
X160112000Y-88770000D03*
%TD*%
D12*
%TO.C,U21*%
X199072000Y-95410000D03*
D10*
X195262000Y-92870000D03*
D11*
X200342000Y-92870000D03*
D12*
X192722000Y-97950000D03*
D11*
X190182000Y-92870000D03*
D13*
X202672000Y-95410000D03*
X189247000Y-97950000D03*
D14*
X192312000Y-86870000D03*
X192312000Y-88770000D03*
X198212000Y-86870000D03*
X198212000Y-88770000D03*
%TD*%
D11*
%TO.C,U22*%
X219392000Y-92870000D03*
D12*
X218122000Y-95410000D03*
D10*
X214312000Y-92870000D03*
D12*
X211772000Y-97950000D03*
D11*
X209232000Y-92870000D03*
D13*
X221722000Y-95410000D03*
X208297000Y-97950000D03*
D14*
X211362000Y-86870000D03*
X211362000Y-88770000D03*
X217262000Y-86870000D03*
X217262000Y-88770000D03*
%TD*%
D10*
%TO.C,U23*%
X233362000Y-92870000D03*
D11*
X228282000Y-92870000D03*
D12*
X237172000Y-95410000D03*
D11*
X238442000Y-92870000D03*
D12*
X230822000Y-97950000D03*
D13*
X240772000Y-95410000D03*
X227347000Y-97950000D03*
D14*
X230412000Y-86870000D03*
X230412000Y-88770000D03*
X236312000Y-86870000D03*
X236312000Y-88770000D03*
%TD*%
D10*
%TO.C,U25*%
X271462000Y-92870000D03*
D12*
X275272000Y-95410000D03*
X268922000Y-97950000D03*
D11*
X266382000Y-92870000D03*
X276542000Y-92870000D03*
D13*
X278872000Y-95410000D03*
X265447000Y-97950000D03*
D14*
X268512000Y-86870000D03*
X268512000Y-88770000D03*
X274412000Y-86870000D03*
X274412000Y-88770000D03*
%TD*%
D10*
%TO.C,U26*%
X290512000Y-92870000D03*
D12*
X294322000Y-95410000D03*
D11*
X295592000Y-92870000D03*
X285432000Y-92870000D03*
D12*
X287972000Y-97950000D03*
D13*
X297922000Y-95410000D03*
X284497000Y-97950000D03*
D14*
X287562000Y-86870000D03*
X287562000Y-88770000D03*
X293462000Y-86870000D03*
X293462000Y-88770000D03*
%TD*%
D12*
%TO.C,U27*%
X313372000Y-95410000D03*
D11*
X304482000Y-92870000D03*
D10*
X309562000Y-92870000D03*
D11*
X314642000Y-92870000D03*
D12*
X307022000Y-97950000D03*
D13*
X316972000Y-95410000D03*
X303547000Y-97950000D03*
D14*
X306612000Y-86870000D03*
X306612000Y-88770000D03*
X312512000Y-86870000D03*
X312512000Y-88770000D03*
%TD*%
D12*
%TO.C,U28*%
X330835000Y-97950000D03*
D11*
X328295000Y-92870000D03*
D10*
X333375000Y-92870000D03*
D12*
X337185000Y-95410000D03*
D11*
X338455000Y-92870000D03*
D13*
X340785000Y-95410000D03*
X327360000Y-97950000D03*
D14*
X330425000Y-86870000D03*
X330425000Y-88770000D03*
X336325000Y-86870000D03*
X336325000Y-88770000D03*
%TD*%
D12*
%TO.C,U29*%
X76042500Y-117000000D03*
D11*
X83662500Y-111920000D03*
X73502500Y-111920000D03*
D12*
X82392500Y-114460000D03*
D10*
X78582500Y-111920000D03*
D13*
X85992500Y-114460000D03*
X72567500Y-117000000D03*
D14*
X75632500Y-105920000D03*
X75632500Y-107820000D03*
X81532500Y-105920000D03*
X81532500Y-107820000D03*
%TD*%
D10*
%TO.C,U30*%
X104775000Y-111920000D03*
D11*
X109855000Y-111920000D03*
X99695000Y-111920000D03*
D12*
X102235000Y-117000000D03*
X108585000Y-114460000D03*
D13*
X112185000Y-114460000D03*
X98760000Y-117000000D03*
D14*
X101825000Y-105920000D03*
X101825000Y-107820000D03*
X107725000Y-105920000D03*
X107725000Y-107820000D03*
%TD*%
D11*
%TO.C,U31*%
X118745000Y-111920000D03*
D12*
X127635000Y-114460000D03*
X121285000Y-117000000D03*
D10*
X123825000Y-111920000D03*
D11*
X128905000Y-111920000D03*
D13*
X131235000Y-114460000D03*
X117810000Y-117000000D03*
D14*
X120875000Y-105920000D03*
X120875000Y-107820000D03*
X126775000Y-105920000D03*
X126775000Y-107820000D03*
%TD*%
D12*
%TO.C,U32*%
X140335000Y-117000000D03*
X146685000Y-114460000D03*
D10*
X142875000Y-111920000D03*
D11*
X147955000Y-111920000D03*
X137795000Y-111920000D03*
D13*
X150285000Y-114460000D03*
X136860000Y-117000000D03*
D14*
X139925000Y-105920000D03*
X139925000Y-107820000D03*
X145825000Y-105920000D03*
X145825000Y-107820000D03*
%TD*%
D11*
%TO.C,U33*%
X156845000Y-111920000D03*
D12*
X159385000Y-117000000D03*
D11*
X167005000Y-111920000D03*
D10*
X161925000Y-111920000D03*
D12*
X165735000Y-114460000D03*
D13*
X169335000Y-114460000D03*
X155910000Y-117000000D03*
D14*
X158975000Y-105920000D03*
X158975000Y-107820000D03*
X164875000Y-105920000D03*
X164875000Y-107820000D03*
%TD*%
D11*
%TO.C,U34*%
X175895000Y-111920000D03*
X186055000Y-111920000D03*
D12*
X184785000Y-114460000D03*
X178435000Y-117000000D03*
D10*
X180975000Y-111920000D03*
D13*
X188385000Y-114460000D03*
X174960000Y-117000000D03*
D14*
X178025000Y-105920000D03*
X178025000Y-107820000D03*
X183925000Y-105920000D03*
X183925000Y-107820000D03*
%TD*%
D12*
%TO.C,U35*%
X203835000Y-114460000D03*
D11*
X194945000Y-111920000D03*
D12*
X197485000Y-117000000D03*
D11*
X205105000Y-111920000D03*
D10*
X200025000Y-111920000D03*
D13*
X207435000Y-114460000D03*
X194010000Y-117000000D03*
D14*
X197075000Y-105920000D03*
X197075000Y-107820000D03*
X202975000Y-105920000D03*
X202975000Y-107820000D03*
%TD*%
D11*
%TO.C,U36*%
X224155000Y-111920000D03*
D12*
X216535000Y-117000000D03*
D11*
X213995000Y-111920000D03*
D10*
X219075000Y-111920000D03*
D12*
X222885000Y-114460000D03*
D13*
X226485000Y-114460000D03*
X213060000Y-117000000D03*
D14*
X216125000Y-105920000D03*
X216125000Y-107820000D03*
X222025000Y-105920000D03*
X222025000Y-107820000D03*
%TD*%
D11*
%TO.C,U37*%
X233045000Y-111920000D03*
D10*
X238125000Y-111920000D03*
D11*
X243205000Y-111920000D03*
D12*
X235585000Y-117000000D03*
X241935000Y-114460000D03*
D13*
X245535000Y-114460000D03*
X232110000Y-117000000D03*
D14*
X235175000Y-105920000D03*
X235175000Y-107820000D03*
X241075000Y-105920000D03*
X241075000Y-107820000D03*
%TD*%
D12*
%TO.C,U38*%
X254635000Y-117000000D03*
D10*
X257175000Y-111920000D03*
D11*
X262255000Y-111920000D03*
D12*
X260985000Y-114460000D03*
D11*
X252095000Y-111920000D03*
D13*
X264585000Y-114460000D03*
X251160000Y-117000000D03*
D14*
X254225000Y-105920000D03*
X254225000Y-107820000D03*
X260125000Y-105920000D03*
X260125000Y-107820000D03*
%TD*%
D11*
%TO.C,U39*%
X271145000Y-111920000D03*
X281305000Y-111920000D03*
D12*
X280035000Y-114460000D03*
D10*
X276225000Y-111920000D03*
D12*
X273685000Y-117000000D03*
D13*
X283635000Y-114460000D03*
X270210000Y-117000000D03*
D14*
X273275000Y-105920000D03*
X273275000Y-107820000D03*
X279175000Y-105920000D03*
X279175000Y-107820000D03*
%TD*%
D11*
%TO.C,U40*%
X290195000Y-111920000D03*
D12*
X299085000Y-114460000D03*
D10*
X295275000Y-111920000D03*
D11*
X300355000Y-111920000D03*
D12*
X292735000Y-117000000D03*
D13*
X302685000Y-114460000D03*
X289260000Y-117000000D03*
D14*
X292325000Y-105920000D03*
X292325000Y-107820000D03*
X298225000Y-105920000D03*
X298225000Y-107820000D03*
%TD*%
D10*
%TO.C,U41*%
X326231000Y-111920000D03*
D12*
X323691000Y-117000000D03*
D15*
X338169000Y-118920000D03*
D10*
X314293000Y-103680000D03*
D15*
X314293000Y-118920000D03*
D11*
X331311000Y-111920000D03*
X321151000Y-111920000D03*
D12*
X330041000Y-114460000D03*
D10*
X338169000Y-103680000D03*
D13*
X333641000Y-114460000D03*
X320216000Y-117000000D03*
D14*
X323281000Y-105920000D03*
X323281000Y-107820000D03*
X329181000Y-105920000D03*
X329181000Y-107820000D03*
%TD*%
D11*
%TO.C,U42*%
X78232000Y-130970000D03*
D10*
X95250000Y-122730000D03*
D12*
X80772000Y-136050000D03*
D15*
X71374000Y-137970000D03*
D11*
X88392000Y-130970000D03*
D10*
X71374000Y-122730000D03*
D15*
X95250000Y-137970000D03*
D12*
X87122000Y-133510000D03*
D10*
X83312000Y-130970000D03*
D13*
X90722000Y-133510000D03*
X77297000Y-136050000D03*
D14*
X80362000Y-124970000D03*
X80362000Y-126870000D03*
X86262000Y-124970000D03*
X86262000Y-126870000D03*
%TD*%
D12*
%TO.C,U43*%
X118110000Y-133510000D03*
X111760000Y-136050000D03*
D10*
X114300000Y-130970000D03*
D11*
X109220000Y-130970000D03*
X119380000Y-130970000D03*
D13*
X121710000Y-133510000D03*
X108285000Y-136050000D03*
D14*
X111350000Y-124970000D03*
X111350000Y-126870000D03*
X117250000Y-124970000D03*
X117250000Y-126870000D03*
%TD*%
D11*
%TO.C,U44*%
X138430000Y-130970000D03*
D10*
X133350000Y-130970000D03*
D12*
X137160000Y-133510000D03*
X130810000Y-136050000D03*
D11*
X128270000Y-130970000D03*
D13*
X140760000Y-133510000D03*
X127335000Y-136050000D03*
D14*
X130400000Y-124970000D03*
X130400000Y-126870000D03*
X136300000Y-124970000D03*
X136300000Y-126870000D03*
%TD*%
D11*
%TO.C,U45*%
X157480000Y-130970000D03*
D12*
X156210000Y-133510000D03*
D11*
X147320000Y-130970000D03*
D10*
X152400000Y-130970000D03*
D12*
X149860000Y-136050000D03*
D13*
X159810000Y-133510000D03*
X146385000Y-136050000D03*
D14*
X149450000Y-124970000D03*
X149450000Y-126870000D03*
X155350000Y-124970000D03*
X155350000Y-126870000D03*
%TD*%
D10*
%TO.C,U46*%
X171450000Y-130970000D03*
D12*
X175260000Y-133510000D03*
D11*
X166370000Y-130970000D03*
D12*
X168910000Y-136050000D03*
D11*
X176530000Y-130970000D03*
D13*
X178860000Y-133510000D03*
X165435000Y-136050000D03*
D14*
X168500000Y-124970000D03*
X168500000Y-126870000D03*
X174400000Y-124970000D03*
X174400000Y-126870000D03*
%TD*%
D11*
%TO.C,U47*%
X185420000Y-130970000D03*
X195580000Y-130970000D03*
D10*
X190500000Y-130970000D03*
D12*
X194310000Y-133510000D03*
X187960000Y-136050000D03*
D13*
X197910000Y-133510000D03*
X184485000Y-136050000D03*
D14*
X187550000Y-124970000D03*
X187550000Y-126870000D03*
X193450000Y-124970000D03*
X193450000Y-126870000D03*
%TD*%
D11*
%TO.C,U48*%
X204470000Y-130970000D03*
X214630000Y-130970000D03*
D12*
X213360000Y-133510000D03*
D10*
X209550000Y-130970000D03*
D12*
X207010000Y-136050000D03*
D13*
X216960000Y-133510000D03*
X203535000Y-136050000D03*
D14*
X206600000Y-124970000D03*
X206600000Y-126870000D03*
X212500000Y-124970000D03*
X212500000Y-126870000D03*
%TD*%
D10*
%TO.C,U49*%
X228600000Y-130970000D03*
D11*
X223520000Y-130970000D03*
X233680000Y-130970000D03*
D12*
X232410000Y-133510000D03*
X226060000Y-136050000D03*
D13*
X236010000Y-133510000D03*
X222585000Y-136050000D03*
D14*
X225650000Y-124970000D03*
X225650000Y-126870000D03*
X231550000Y-124970000D03*
X231550000Y-126870000D03*
%TD*%
D12*
%TO.C,U50*%
X245110000Y-136050000D03*
X251460000Y-133510000D03*
D11*
X252730000Y-130970000D03*
D10*
X247650000Y-130970000D03*
D11*
X242570000Y-130970000D03*
D13*
X255060000Y-133510000D03*
X241635000Y-136050000D03*
D14*
X244700000Y-124970000D03*
X244700000Y-126870000D03*
X250600000Y-124970000D03*
X250600000Y-126870000D03*
%TD*%
D12*
%TO.C,U51*%
X264160000Y-136050000D03*
D11*
X261620000Y-130970000D03*
D10*
X266700000Y-130970000D03*
D12*
X270510000Y-133510000D03*
D11*
X271780000Y-130970000D03*
D13*
X274110000Y-133510000D03*
X260685000Y-136050000D03*
D14*
X263750000Y-124970000D03*
X263750000Y-126870000D03*
X269650000Y-124970000D03*
X269650000Y-126870000D03*
%TD*%
D12*
%TO.C,U52*%
X283210000Y-136050000D03*
D11*
X280670000Y-130970000D03*
D12*
X289560000Y-133510000D03*
D11*
X290830000Y-130970000D03*
D10*
X285750000Y-130970000D03*
D13*
X293160000Y-133510000D03*
X279735000Y-136050000D03*
D14*
X282800000Y-124970000D03*
X282800000Y-126870000D03*
X288700000Y-124970000D03*
X288700000Y-126870000D03*
%TD*%
D15*
%TO.C,U53*%
X309531000Y-137970000D03*
X333407000Y-137970000D03*
D12*
X325279000Y-133510000D03*
D10*
X321469000Y-130970000D03*
D11*
X316389000Y-130970000D03*
D10*
X333407000Y-122730000D03*
D11*
X326549000Y-130970000D03*
D12*
X318929000Y-136050000D03*
D10*
X309531000Y-122730000D03*
D13*
X328879000Y-133510000D03*
X315454000Y-136050000D03*
D14*
X318519000Y-124970000D03*
X318519000Y-126870000D03*
X324419000Y-124970000D03*
X324419000Y-126870000D03*
%TD*%
D10*
%TO.C,U54*%
X73818800Y-150020000D03*
D11*
X78898800Y-150020000D03*
D12*
X71278800Y-155100000D03*
D11*
X68738800Y-150020000D03*
D12*
X77628800Y-152560000D03*
D13*
X81228800Y-152560000D03*
X67803800Y-155100000D03*
D14*
X70868800Y-144020000D03*
X70868800Y-145920000D03*
X76768800Y-144020000D03*
X76768800Y-145920000D03*
%TD*%
D10*
%TO.C,U55*%
X97631200Y-150020000D03*
D11*
X102711200Y-150020000D03*
X92551200Y-150020000D03*
D12*
X95091200Y-155100000D03*
X101441200Y-152560000D03*
D13*
X105041200Y-152560000D03*
X91616200Y-155100000D03*
D14*
X94681200Y-144020000D03*
X94681200Y-145920000D03*
X100581200Y-144020000D03*
X100581200Y-145920000D03*
%TD*%
D10*
%TO.C,U56*%
X121444000Y-150020000D03*
D12*
X125254000Y-152560000D03*
D11*
X126524000Y-150020000D03*
X116364000Y-150020000D03*
D12*
X118904000Y-155100000D03*
D13*
X128854000Y-152560000D03*
X115429000Y-155100000D03*
D14*
X118494000Y-144020000D03*
X118494000Y-145920000D03*
X124394000Y-144020000D03*
X124394000Y-145920000D03*
%TD*%
D11*
%TO.C,U57*%
X197961000Y-150020000D03*
X187801000Y-150020000D03*
D15*
X142881000Y-157020000D03*
D12*
X190341000Y-155100000D03*
D10*
X242881000Y-141780000D03*
X142881000Y-141780000D03*
D12*
X196691000Y-152560000D03*
D15*
X242881000Y-157020000D03*
D10*
X192881000Y-150020000D03*
D13*
X200291000Y-152560000D03*
X186866000Y-155100000D03*
D14*
X189931000Y-144020000D03*
X189931000Y-145920000D03*
X195831000Y-144020000D03*
X195831000Y-145920000D03*
%TD*%
D11*
%TO.C,U58*%
X259239000Y-150020000D03*
D12*
X261779000Y-155100000D03*
D11*
X269399000Y-150020000D03*
D12*
X268129000Y-152560000D03*
D10*
X264319000Y-150020000D03*
D13*
X271729000Y-152560000D03*
X258304000Y-155100000D03*
D14*
X261369000Y-144020000D03*
X261369000Y-145920000D03*
X267269000Y-144020000D03*
X267269000Y-145920000D03*
%TD*%
D12*
%TO.C,U59*%
X291941000Y-152560000D03*
X285591000Y-155100000D03*
D11*
X293211000Y-150020000D03*
D10*
X288131000Y-150020000D03*
D11*
X283051000Y-150020000D03*
D13*
X295541000Y-152560000D03*
X282116000Y-155100000D03*
D14*
X285181000Y-144020000D03*
X285181000Y-145920000D03*
X291081000Y-144020000D03*
X291081000Y-145920000D03*
%TD*%
D11*
%TO.C,U60*%
X317011000Y-150020000D03*
D12*
X309391000Y-155100000D03*
X315741000Y-152560000D03*
D10*
X311931000Y-150020000D03*
D11*
X306851000Y-150020000D03*
D13*
X319341000Y-152560000D03*
X305916000Y-155100000D03*
D14*
X308981000Y-144020000D03*
X308981000Y-145920000D03*
X314881000Y-144020000D03*
X314881000Y-145920000D03*
%TD*%
D12*
%TO.C,U61*%
X339554000Y-152560000D03*
D10*
X335744000Y-150020000D03*
D11*
X340824000Y-150020000D03*
X330664000Y-150020000D03*
D12*
X333204000Y-155100000D03*
D13*
X343154000Y-152560000D03*
X329729000Y-155100000D03*
D14*
X332794000Y-144020000D03*
X332794000Y-145920000D03*
X338694000Y-144020000D03*
X338694000Y-145920000D03*
%TD*%
D10*
%TO.C,U20*%
X176212000Y-92870000D03*
D12*
X180022000Y-95410000D03*
D11*
X181292000Y-92870000D03*
X171132000Y-92870000D03*
D12*
X173672000Y-97950000D03*
D13*
X183622000Y-95410000D03*
X170197000Y-97950000D03*
D14*
X173262000Y-86870000D03*
X173262000Y-88770000D03*
X179162000Y-86870000D03*
X179162000Y-88770000D03*
%TD*%
D12*
%TO.C,U24*%
X249872000Y-97950000D03*
D11*
X257492000Y-92870000D03*
X247332000Y-92870000D03*
D12*
X256222000Y-95410000D03*
D10*
X252412000Y-92870000D03*
D13*
X259822000Y-95410000D03*
X246397000Y-97950000D03*
D14*
X249462000Y-86870000D03*
X249462000Y-88770000D03*
X255362000Y-86870000D03*
X255362000Y-88770000D03*
%TD*%
D16*
%TO.C,H2*%
X321945000Y-92870000D03*
%TD*%
D17*
%TO.C,H3*%
X63754000Y-121445000D03*
%TD*%
D16*
%TO.C,H4*%
X252825000Y-150274000D03*
%TD*%
D17*
%TO.C,H5*%
X345821000Y-121572000D03*
%TD*%
D18*
%TO.C,H6*%
X190504000Y-111920000D03*
%TD*%
D19*
%TO.C,H1*%
X87489300Y-92520800D03*
%TD*%
D20*
%TO.C,D1*%
X74424000Y-82202000D03*
X77724000Y-82202000D03*
%TD*%
%TO.C,D2*%
X93473000Y-82075000D03*
X96773000Y-82075000D03*
%TD*%
%TO.C,D3*%
X112524000Y-82202000D03*
X115824000Y-82202000D03*
%TD*%
%TO.C,D4*%
X131574000Y-82202000D03*
X134874000Y-82202000D03*
%TD*%
%TO.C,D5*%
X150623000Y-82202000D03*
X153923000Y-82202000D03*
%TD*%
%TO.C,D6*%
X169674000Y-82202000D03*
X172974000Y-82202000D03*
%TD*%
%TO.C,D7*%
X188724000Y-82202000D03*
X192024000Y-82202000D03*
%TD*%
%TO.C,D8*%
X207774000Y-82202000D03*
X211074000Y-82202000D03*
%TD*%
%TO.C,D9*%
X226824000Y-82202000D03*
X230124000Y-82202000D03*
%TD*%
%TO.C,D10*%
X245874000Y-82075000D03*
X249174000Y-82075000D03*
%TD*%
%TO.C,D11*%
X264924000Y-82202000D03*
X268224000Y-82202000D03*
%TD*%
%TO.C,D12*%
X284101000Y-82202000D03*
X287401000Y-82202000D03*
%TD*%
%TO.C,D13*%
X303024000Y-82075000D03*
X306324000Y-82075000D03*
%TD*%
%TO.C,D14*%
X331472000Y-82202000D03*
X334772000Y-82202000D03*
%TD*%
%TO.C,D15*%
X79122000Y-101125000D03*
X82422000Y-101125000D03*
%TD*%
%TO.C,D16*%
X103126000Y-101125000D03*
X106426000Y-101125000D03*
%TD*%
%TO.C,D17*%
X122049000Y-101125000D03*
X125349000Y-101125000D03*
%TD*%
%TO.C,D18*%
X141099000Y-101125000D03*
X144399000Y-101125000D03*
%TD*%
%TO.C,D19*%
X160149000Y-101252000D03*
X163449000Y-101252000D03*
%TD*%
%TO.C,D20*%
X179199000Y-101125000D03*
X182499000Y-101125000D03*
%TD*%
%TO.C,D21*%
X198249000Y-101125000D03*
X201549000Y-101125000D03*
%TD*%
%TO.C,D22*%
X217299000Y-101125000D03*
X220599000Y-101125000D03*
%TD*%
%TO.C,D23*%
X236349000Y-101125000D03*
X239649000Y-101125000D03*
%TD*%
%TO.C,D24*%
X255398000Y-101125000D03*
X258698000Y-101125000D03*
%TD*%
%TO.C,D25*%
X274448000Y-101125000D03*
X277748000Y-101125000D03*
%TD*%
%TO.C,D26*%
X293499000Y-101125000D03*
X296799000Y-101125000D03*
%TD*%
%TO.C,D27*%
X305436000Y-100998000D03*
X308736000Y-100998000D03*
%TD*%
%TO.C,D28*%
X329313000Y-101125000D03*
X332613000Y-101125000D03*
%TD*%
%TO.C,D29*%
X81536000Y-120175000D03*
X84836000Y-120175000D03*
%TD*%
%TO.C,D30*%
X107698000Y-120175000D03*
X110998000Y-120175000D03*
%TD*%
%TO.C,D31*%
X126875000Y-120175000D03*
X130175000Y-120175000D03*
%TD*%
%TO.C,D32*%
X145924000Y-120175000D03*
X149224000Y-120175000D03*
%TD*%
%TO.C,D33*%
X164848000Y-120175000D03*
X168148000Y-120175000D03*
%TD*%
%TO.C,D34*%
X184025000Y-120175000D03*
X187325000Y-120175000D03*
%TD*%
%TO.C,D35*%
X203075000Y-120175000D03*
X206375000Y-120175000D03*
%TD*%
%TO.C,D36*%
X222125000Y-120175000D03*
X225425000Y-120175000D03*
%TD*%
%TO.C,D37*%
X241175000Y-120175000D03*
X244475000Y-120175000D03*
%TD*%
%TO.C,D38*%
X260225000Y-120175000D03*
X263525000Y-120175000D03*
%TD*%
%TO.C,D39*%
X279275000Y-120175000D03*
X282575000Y-120175000D03*
%TD*%
%TO.C,D40*%
X298325000Y-120175000D03*
X301625000Y-120175000D03*
%TD*%
D21*
%TO.C,D41*%
X338074000Y-113316000D03*
X338074000Y-110016000D03*
%TD*%
%TO.C,D42*%
X91567000Y-127289000D03*
X91567000Y-130589000D03*
%TD*%
%TO.C,D43*%
X122428000Y-127289000D03*
X122428000Y-130589000D03*
%TD*%
%TO.C,D44*%
X141605000Y-127289000D03*
X141605000Y-130589000D03*
%TD*%
%TO.C,D45*%
X160655000Y-127289000D03*
X160655000Y-130589000D03*
%TD*%
%TO.C,D46*%
X179705000Y-127289000D03*
X179705000Y-130589000D03*
%TD*%
%TO.C,D47*%
X198755000Y-127289000D03*
X198755000Y-130589000D03*
%TD*%
%TO.C,D48*%
X217805000Y-127289000D03*
X217805000Y-130589000D03*
%TD*%
%TO.C,D49*%
X236855000Y-127288000D03*
X236855000Y-130588000D03*
%TD*%
%TO.C,D50*%
X255905000Y-127289000D03*
X255905000Y-130589000D03*
%TD*%
%TO.C,D51*%
X274955000Y-127289000D03*
X274955000Y-130588000D03*
%TD*%
%TO.C,D52*%
X294005000Y-127416000D03*
X294005000Y-130588000D03*
%TD*%
%TO.C,D53*%
X329819000Y-127160000D03*
X329819000Y-130460000D03*
%TD*%
%TO.C,D54*%
X84582000Y-157258000D03*
X84582000Y-153958000D03*
%TD*%
%TO.C,D55*%
X108458000Y-157258000D03*
X108458000Y-153958000D03*
%TD*%
%TO.C,D56*%
X132207000Y-157385000D03*
X132207000Y-154085000D03*
%TD*%
%TO.C,D57*%
X203962000Y-157258000D03*
X203962000Y-153958000D03*
%TD*%
%TO.C,D58*%
X275082000Y-157131000D03*
X275082000Y-153831000D03*
%TD*%
%TO.C,D59*%
X298958000Y-157258000D03*
X298958000Y-153958000D03*
%TD*%
%TO.C,D60*%
X322453000Y-157004000D03*
X322453000Y-153704000D03*
%TD*%
%TO.C,D61*%
X325247000Y-157004000D03*
X325247000Y-153704000D03*
%TD*%
D22*
%TO.C,J1*%
X83408000Y-69308000D03*
X77628000Y-69308000D03*
D23*
X77268000Y-70753000D03*
X78068000Y-70753000D03*
D24*
X79268000Y-70753000D03*
X80268000Y-70753000D03*
X80768000Y-70753000D03*
X81768000Y-70753000D03*
D23*
X82968000Y-70753000D03*
X83768000Y-70753000D03*
X83768000Y-70753000D03*
X82968000Y-70753000D03*
D24*
X82268000Y-70753000D03*
X81268000Y-70753000D03*
X79768000Y-70753000D03*
X78768000Y-70753000D03*
D23*
X78068000Y-70753000D03*
X77268000Y-70753000D03*
D25*
X76198000Y-65658000D03*
D26*
X76198000Y-69838000D03*
X84838000Y-69838000D03*
D25*
X84838000Y-65658000D03*
%TD*%
D27*
%TO.C,R1*%
X65278000Y-69247000D03*
X65278000Y-67597000D03*
%TD*%
%TO.C,R2*%
X96647000Y-69247000D03*
X96647000Y-67597000D03*
%TD*%
D28*
%TO.C,U62*%
X167199000Y-144550500D03*
X167599000Y-144550500D03*
X167999000Y-144550500D03*
X168399000Y-144550500D03*
X168799000Y-144550500D03*
X169199000Y-144550500D03*
X169599000Y-144550500D03*
X169999000Y-144550500D03*
X170399000Y-144550500D03*
X170799000Y-144550500D03*
X171199000Y-144550500D03*
X171599000Y-144550500D03*
X171999000Y-144550500D03*
X172399000Y-144550500D03*
D29*
X173236500Y-145388000D03*
X173236500Y-145788000D03*
X173236500Y-146188000D03*
X173236500Y-146588000D03*
X173236500Y-146988000D03*
X173236500Y-147388000D03*
X173236500Y-147788000D03*
X173236500Y-148188000D03*
X173236500Y-148588000D03*
X173236500Y-148988000D03*
X173236500Y-149388000D03*
X173236500Y-149788000D03*
X173236500Y-150188000D03*
X173236500Y-150588000D03*
D28*
X172399000Y-151425500D03*
X171999000Y-151425500D03*
X171599000Y-151425500D03*
X171199000Y-151425500D03*
X170799000Y-151425500D03*
X170399000Y-151425500D03*
X169999000Y-151425500D03*
X169599000Y-151425500D03*
X169199000Y-151425500D03*
X168799000Y-151425500D03*
X168399000Y-151425500D03*
X167999000Y-151425500D03*
X167599000Y-151425500D03*
X167199000Y-151425500D03*
D29*
X166361500Y-150588000D03*
X166361500Y-150188000D03*
X166361500Y-149788000D03*
X166361500Y-149388000D03*
X166361500Y-148988000D03*
X166361500Y-148588000D03*
X166361500Y-148188000D03*
X166361500Y-147788000D03*
X166361500Y-147388000D03*
X166361500Y-146988000D03*
X166361500Y-146588000D03*
X166361500Y-146188000D03*
X166361500Y-145788000D03*
X166361500Y-145388000D03*
D30*
X169799000Y-147988000D03*
%TD*%
D31*
%TO.C,U63*%
X90683000Y-84955000D03*
X91633000Y-84955000D03*
X92583000Y-84955000D03*
X92583000Y-87155000D03*
X91633000Y-87155000D03*
X90683000Y-87155000D03*
%TD*%
D32*
%TO.C,U64*%
X161207000Y-139860000D03*
X161207000Y-141130000D03*
X161207000Y-142400000D03*
X161207000Y-143670000D03*
X154007000Y-143670000D03*
X154007000Y-142400000D03*
X154007000Y-141130000D03*
X154007000Y-139860000D03*
%TD*%
D33*
%TO.C,C1*%
X161671000Y-146972000D03*
X160121000Y-146972000D03*
%TD*%
D34*
%TO.C,C2*%
X177393000Y-151417000D03*
X178943000Y-151417000D03*
%TD*%
D35*
%TO.C,C3*%
X167259000Y-141257000D03*
X167259000Y-139707000D03*
%TD*%
D36*
%TO.C,C4*%
X165354000Y-154960000D03*
X165354000Y-156510000D03*
%TD*%
D33*
%TO.C,C5*%
X151397000Y-139860000D03*
X149847000Y-139860000D03*
%TD*%
D36*
%TO.C,C6*%
X167132000Y-154973000D03*
X167132000Y-156523000D03*
%TD*%
D33*
%TO.C,C7*%
X161671000Y-148496000D03*
X160121000Y-148496000D03*
%TD*%
D36*
%TO.C,C9*%
X170815000Y-154973000D03*
X170815000Y-156523000D03*
%TD*%
D33*
%TO.C,C10*%
X161811000Y-151290000D03*
X160261000Y-151290000D03*
%TD*%
%TO.C,C11*%
X161811000Y-153068000D03*
X160261000Y-153068000D03*
%TD*%
%TO.C,C12*%
X182131000Y-143924000D03*
X180581000Y-143924000D03*
%TD*%
D34*
%TO.C,C13*%
X180581000Y-149766000D03*
X182131000Y-149766000D03*
%TD*%
%TO.C,C14*%
X177393000Y-149766000D03*
X178943000Y-149766000D03*
%TD*%
D37*
%TO.C,R3*%
X156846000Y-149131000D03*
X158496000Y-149131000D03*
%TD*%
%TO.C,R4*%
X156846000Y-150655000D03*
X158496000Y-150655000D03*
%TD*%
%TO.C,R5*%
X177356000Y-147861000D03*
X179006000Y-147861000D03*
%TD*%
%TO.C,R6*%
X163259000Y-139860000D03*
X164909000Y-139860000D03*
%TD*%
D38*
%TO.C,R7*%
X151447000Y-141384000D03*
X149797000Y-141384000D03*
%TD*%
D39*
%TO.C,SW1*%
X89399000Y-112555000D03*
X93599000Y-112555000D03*
%TD*%
D40*
%TO.C,Y1*%
X182333000Y-145745000D03*
X182333000Y-147945000D03*
X180633000Y-147945000D03*
X180633000Y-145745000D03*
%TD*%
D35*
%TO.C,C8*%
X170815000Y-141257000D03*
X170815000Y-139707000D03*
%TD*%
D41*
%TO.C,SW2*%
X95090000Y-105933000D03*
X87790000Y-108143000D03*
X95090000Y-108143000D03*
X87790000Y-105933000D03*
D42*
X92940000Y-107043000D03*
X89940000Y-107043000D03*
D43*
X93690000Y-105283000D03*
X90690000Y-105283000D03*
X89190000Y-105283000D03*
%TD*%
D44*
%TO.C,J2*%
X176022000Y-156116000D03*
D45*
X178562000Y-156116000D03*
X181102000Y-156116000D03*
%TD*%
D46*
%TO.C,D62*%
X90703500Y-115349000D03*
X89128500Y-115349000D03*
%TD*%
D37*
%TO.C,R8*%
X89091000Y-117000000D03*
X90741000Y-117000000D03*
%TD*%
D44*
%TO.C,J3*%
X211455000Y-155735000D03*
D45*
X213995000Y-155735000D03*
X216535000Y-155735000D03*
X219075000Y-155735000D03*
%TD*%
D44*
%TO.C,J4*%
X206375000Y-148115000D03*
D45*
X208915000Y-148115000D03*
X211455000Y-148115000D03*
X213995000Y-148115000D03*
X216535000Y-148115000D03*
X219075000Y-148115000D03*
%TD*%
D34*
%TO.C,C15*%
X98399000Y-125763000D03*
X99949000Y-125763000D03*
%TD*%
D33*
%TO.C,C16*%
X99708000Y-135796000D03*
X98158000Y-135796000D03*
%TD*%
D47*
%TO.C,U65*%
X95275000Y-133016000D03*
X95275000Y-130716000D03*
D48*
X101575000Y-130716000D03*
D47*
X95275000Y-128416000D03*
%TD*%
D49*
%TO.C,LS1*%
X226064000Y-149258000D03*
X239264000Y-149258000D03*
%TD*%
D33*
%TO.C,C17*%
X125121000Y-147353000D03*
X123571000Y-147353000D03*
%TD*%
%TO.C,C18*%
X127534000Y-109253000D03*
X125984000Y-109253000D03*
%TD*%
%TO.C,C19*%
X299111000Y-109253000D03*
X297561000Y-109253000D03*
%TD*%
%TO.C,C20*%
X77623000Y-147353000D03*
X76073000Y-147353000D03*
%TD*%
%TO.C,C21*%
X108611000Y-109253000D03*
X107061000Y-109253000D03*
%TD*%
%TO.C,C23*%
X314973000Y-147226000D03*
X313423000Y-147226000D03*
%TD*%
D34*
%TO.C,C24*%
X85445000Y-128303000D03*
X86995000Y-128303000D03*
%TD*%
D33*
%TO.C,C25*%
X337211000Y-90330000D03*
X335661000Y-90330000D03*
%TD*%
%TO.C,C26*%
X103899000Y-90203000D03*
X102349000Y-90203000D03*
%TD*%
%TO.C,C27*%
X291846000Y-147226000D03*
X290296000Y-147226000D03*
%TD*%
%TO.C,C28*%
X267869000Y-147480000D03*
X266319000Y-147480000D03*
%TD*%
%TO.C,C29*%
X329972000Y-109126000D03*
X328422000Y-109126000D03*
%TD*%
%TO.C,C30*%
X117374000Y-128303000D03*
X115824000Y-128303000D03*
%TD*%
%TO.C,C31*%
X338354000Y-147353000D03*
X336804000Y-147353000D03*
%TD*%
%TO.C,C32*%
X101372000Y-147353000D03*
X99822000Y-147353000D03*
%TD*%
%TO.C,C33*%
X170434000Y-71153000D03*
X168884000Y-71153000D03*
%TD*%
%TO.C,C34*%
X269774000Y-128303000D03*
X268224000Y-128303000D03*
%TD*%
%TO.C,C35*%
X279934000Y-109380000D03*
X278384000Y-109380000D03*
%TD*%
%TO.C,C36*%
X325247000Y-128303000D03*
X323697000Y-128303000D03*
%TD*%
%TO.C,C37*%
X136017000Y-128176000D03*
X134467000Y-128176000D03*
%TD*%
%TO.C,C38*%
X313208000Y-90203000D03*
X311658000Y-90203000D03*
%TD*%
%TO.C,C39*%
X151397000Y-71153000D03*
X149847000Y-71153000D03*
%TD*%
%TO.C,C40*%
X82322000Y-109253000D03*
X80772000Y-109253000D03*
%TD*%
%TO.C,C41*%
X73546000Y-71026000D03*
X71996000Y-71026000D03*
%TD*%
%TO.C,C42*%
X196749000Y-147353000D03*
X195199000Y-147353000D03*
%TD*%
%TO.C,C43*%
X251232000Y-128303000D03*
X249682000Y-128303000D03*
%TD*%
%TO.C,C44*%
X294285000Y-90203000D03*
X292735000Y-90203000D03*
%TD*%
%TO.C,C45*%
X174498000Y-128176000D03*
X172948000Y-128176000D03*
%TD*%
%TO.C,C46*%
X122962000Y-90203000D03*
X121412000Y-90203000D03*
%TD*%
%TO.C,C47*%
X94247000Y-71153000D03*
X92697000Y-71153000D03*
%TD*%
%TO.C,C48*%
X155728000Y-128303000D03*
X154178000Y-128303000D03*
%TD*%
%TO.C,C49*%
X189510000Y-71153000D03*
X187960000Y-71153000D03*
%TD*%
%TO.C,C50*%
X231928000Y-128303000D03*
X230378000Y-128303000D03*
%TD*%
%TO.C,C51*%
X212484000Y-128303000D03*
X210934000Y-128303000D03*
%TD*%
%TO.C,C52*%
X275235000Y-90203000D03*
X273685000Y-90203000D03*
%TD*%
%TO.C,C53*%
X165761000Y-109253000D03*
X164211000Y-109253000D03*
%TD*%
%TO.C,C54*%
X141885000Y-90203000D03*
X140335000Y-90203000D03*
%TD*%
%TO.C,C55*%
X132334000Y-71153000D03*
X130784000Y-71153000D03*
%TD*%
%TO.C,C56*%
X194209000Y-128303000D03*
X192659000Y-128303000D03*
%TD*%
%TO.C,C57*%
X208534000Y-71153000D03*
X206984000Y-71153000D03*
%TD*%
%TO.C,C58*%
X261011000Y-109380000D03*
X259461000Y-109380000D03*
%TD*%
%TO.C,C59*%
X241961000Y-109380000D03*
X240411000Y-109380000D03*
%TD*%
%TO.C,C60*%
X179972000Y-90584000D03*
X178422000Y-90584000D03*
%TD*%
%TO.C,C61*%
X146584000Y-109253000D03*
X145034000Y-109253000D03*
%TD*%
%TO.C,C62*%
X113284000Y-71153000D03*
X111734000Y-71153000D03*
%TD*%
%TO.C,C63*%
X160935000Y-90203000D03*
X159385000Y-90203000D03*
%TD*%
%TO.C,C64*%
X303784000Y-71280000D03*
X302234000Y-71280000D03*
%TD*%
%TO.C,C65*%
X227610000Y-71153000D03*
X226060000Y-71153000D03*
%TD*%
%TO.C,C66*%
X222784000Y-109253000D03*
X221234000Y-109253000D03*
%TD*%
%TO.C,C67*%
X184811000Y-109253000D03*
X183261000Y-109253000D03*
%TD*%
%TO.C,C68*%
X199035000Y-90203000D03*
X197485000Y-90203000D03*
%TD*%
%TO.C,C69*%
X284734000Y-71153000D03*
X283184000Y-71153000D03*
%TD*%
%TO.C,C70*%
X218212000Y-90203000D03*
X216662000Y-90203000D03*
%TD*%
%TO.C,C71*%
X332359000Y-71280000D03*
X330809000Y-71280000D03*
%TD*%
%TO.C,C72*%
X246634000Y-71153000D03*
X245084000Y-71153000D03*
%TD*%
%TO.C,C73*%
X203861000Y-109253000D03*
X202311000Y-109253000D03*
%TD*%
%TO.C,C74*%
X265684000Y-71153000D03*
X264134000Y-71153000D03*
%TD*%
%TO.C,C75*%
X256185000Y-90203000D03*
X254635000Y-90203000D03*
%TD*%
%TO.C,C76*%
X237135000Y-90203000D03*
X235585000Y-90203000D03*
%TD*%
%TO.C,C77*%
X79896000Y-90203000D03*
X78346000Y-90203000D03*
%TD*%
%TO.C,C22*%
X289192000Y-128303000D03*
X287642000Y-128303000D03*
%TD*%
M02*
