%TF.GenerationSoftware,KiCad,Pcbnew,(6.0.7)*%
%TF.CreationDate,2022-09-11T22:15:23-05:00*%
%TF.ProjectId,PyKey60,50794b65-7936-4302-9e6b-696361645f70,1.1*%
%TF.SameCoordinates,Original*%
%TF.FileFunction,Soldermask,Top*%
%TF.FilePolarity,Negative*%
%FSLAX46Y46*%
G04 Gerber Fmt 4.6, Leading zero omitted, Abs format (unit mm)*
G04 Created by KiCad (PCBNEW (6.0.7)) date 2022-09-11 22:15:23*
%MOMM*%
%LPD*%
G01*
G04 APERTURE LIST*
%ADD10C,4.000000*%
%ADD11C,1.750000*%
%ADD12C,3.000000*%
%ADD13C,3.050000*%
%ADD14C,7.000240*%
%ADD15O,7.000240X2.499360*%
%ADD16O,5.000000X2.500000*%
%ADD17C,5.001260*%
%ADD18C,0.650000*%
%ADD19O,1.000000X1.600000*%
%ADD20O,1.000000X2.100000*%
%ADD21C,0.900000*%
%ADD22R,1.700000X1.700000*%
%ADD23O,1.700000X1.700000*%
G04 APERTURE END LIST*
D10*
%TO.C,U1*%
X71437500Y-73820000D03*
D11*
X66357500Y-73820000D03*
D12*
X68897500Y-78900000D03*
X75247500Y-76360000D03*
D11*
X76517500Y-73820000D03*
%TD*%
D12*
%TO.C,U2*%
X87947500Y-78900000D03*
D11*
X85407500Y-73820000D03*
D10*
X90487500Y-73820000D03*
D12*
X94297500Y-76360000D03*
D11*
X95567500Y-73820000D03*
%TD*%
%TO.C,U3*%
X114618000Y-73820000D03*
D12*
X113348000Y-76360000D03*
X106998000Y-78900000D03*
D11*
X104458000Y-73820000D03*
D10*
X109538000Y-73820000D03*
%TD*%
D11*
%TO.C,U4*%
X133668000Y-73820000D03*
D12*
X126048000Y-78900000D03*
D10*
X128588000Y-73820000D03*
D12*
X132398000Y-76360000D03*
D11*
X123508000Y-73820000D03*
%TD*%
D10*
%TO.C,U5*%
X147638000Y-73820000D03*
D12*
X151448000Y-76360000D03*
D11*
X142558000Y-73820000D03*
X152718000Y-73820000D03*
D12*
X145098000Y-78900000D03*
%TD*%
D11*
%TO.C,U6*%
X161608000Y-73820000D03*
D12*
X170498000Y-76360000D03*
D11*
X171768000Y-73820000D03*
D12*
X164148000Y-78900000D03*
D10*
X166688000Y-73820000D03*
%TD*%
D12*
%TO.C,U7*%
X189548000Y-76360000D03*
D10*
X185738000Y-73820000D03*
D11*
X190818000Y-73820000D03*
X180658000Y-73820000D03*
D12*
X183198000Y-78900000D03*
%TD*%
D11*
%TO.C,U8*%
X199708000Y-73820000D03*
D12*
X208598000Y-76360000D03*
D11*
X209868000Y-73820000D03*
D12*
X202248000Y-78900000D03*
D10*
X204788000Y-73820000D03*
%TD*%
%TO.C,U9*%
X223838000Y-73820000D03*
D11*
X228918000Y-73820000D03*
D12*
X227648000Y-76360000D03*
X221298000Y-78900000D03*
D11*
X218758000Y-73820000D03*
%TD*%
D12*
%TO.C,U10*%
X240348000Y-78900000D03*
X246698000Y-76360000D03*
D11*
X247968000Y-73820000D03*
D10*
X242888000Y-73820000D03*
D11*
X237808000Y-73820000D03*
%TD*%
%TO.C,U11*%
X256858000Y-73820000D03*
D12*
X259398000Y-78900000D03*
D11*
X267018000Y-73820000D03*
D10*
X261938000Y-73820000D03*
D12*
X265748000Y-76360000D03*
%TD*%
D11*
%TO.C,U12*%
X275908000Y-73820000D03*
D12*
X278448000Y-78900000D03*
D11*
X286068000Y-73820000D03*
D10*
X280988000Y-73820000D03*
D12*
X284798000Y-76360000D03*
%TD*%
D11*
%TO.C,U13*%
X294958000Y-73820000D03*
X305118000Y-73820000D03*
D10*
X300038000Y-73820000D03*
D12*
X303848000Y-76360000D03*
X297498000Y-78900000D03*
%TD*%
D13*
%TO.C,U14*%
X340551000Y-66820000D03*
D10*
X328613000Y-73820000D03*
X340551000Y-82060000D03*
D11*
X323533000Y-73820000D03*
D12*
X332423000Y-76360000D03*
D13*
X316675000Y-66820000D03*
D12*
X326073000Y-78900000D03*
D10*
X316675000Y-82060000D03*
D11*
X333693000Y-73820000D03*
%TD*%
D12*
%TO.C,U15*%
X73660000Y-97950000D03*
X80010000Y-95410000D03*
D10*
X76200000Y-92870000D03*
D11*
X81280000Y-92870000D03*
X71120000Y-92870000D03*
%TD*%
%TO.C,U16*%
X105092000Y-92870000D03*
D12*
X103822000Y-95410000D03*
D11*
X94932000Y-92870000D03*
D10*
X100012000Y-92870000D03*
D12*
X97472000Y-97950000D03*
%TD*%
D11*
%TO.C,U17*%
X113982000Y-92870000D03*
D12*
X122872000Y-95410000D03*
D11*
X124142000Y-92870000D03*
D12*
X116522000Y-97950000D03*
D10*
X119062000Y-92870000D03*
%TD*%
%TO.C,U18*%
X138112000Y-92870000D03*
D11*
X143192000Y-92870000D03*
D12*
X141922000Y-95410000D03*
D11*
X133032000Y-92870000D03*
D12*
X135572000Y-97950000D03*
%TD*%
D11*
%TO.C,U19*%
X162242000Y-92870000D03*
D12*
X154622000Y-97950000D03*
X160972000Y-95410000D03*
D10*
X157162000Y-92870000D03*
D11*
X152082000Y-92870000D03*
%TD*%
D12*
%TO.C,U21*%
X199072000Y-95410000D03*
D10*
X195262000Y-92870000D03*
D11*
X200342000Y-92870000D03*
D12*
X192722000Y-97950000D03*
D11*
X190182000Y-92870000D03*
%TD*%
%TO.C,U22*%
X219392000Y-92870000D03*
D12*
X218122000Y-95410000D03*
D10*
X214312000Y-92870000D03*
D12*
X211772000Y-97950000D03*
D11*
X209232000Y-92870000D03*
%TD*%
D10*
%TO.C,U23*%
X233362000Y-92870000D03*
D11*
X228282000Y-92870000D03*
D12*
X237172000Y-95410000D03*
D11*
X238442000Y-92870000D03*
D12*
X230822000Y-97950000D03*
%TD*%
D10*
%TO.C,U25*%
X271462000Y-92870000D03*
D12*
X275272000Y-95410000D03*
X268922000Y-97950000D03*
D11*
X266382000Y-92870000D03*
X276542000Y-92870000D03*
%TD*%
D10*
%TO.C,U26*%
X290512000Y-92870000D03*
D12*
X294322000Y-95410000D03*
D11*
X295592000Y-92870000D03*
X285432000Y-92870000D03*
D12*
X287972000Y-97950000D03*
%TD*%
%TO.C,U27*%
X313372000Y-95410000D03*
D11*
X304482000Y-92870000D03*
D10*
X309562000Y-92870000D03*
D11*
X314642000Y-92870000D03*
D12*
X307022000Y-97950000D03*
%TD*%
%TO.C,U28*%
X330835000Y-97950000D03*
D11*
X328295000Y-92870000D03*
D10*
X333375000Y-92870000D03*
D12*
X337185000Y-95410000D03*
D11*
X338455000Y-92870000D03*
%TD*%
D12*
%TO.C,U29*%
X76042500Y-117000000D03*
D11*
X83662500Y-111920000D03*
X73502500Y-111920000D03*
D12*
X82392500Y-114460000D03*
D10*
X78582500Y-111920000D03*
%TD*%
%TO.C,U30*%
X104775000Y-111920000D03*
D11*
X109855000Y-111920000D03*
X99695000Y-111920000D03*
D12*
X102235000Y-117000000D03*
X108585000Y-114460000D03*
%TD*%
D11*
%TO.C,U31*%
X118745000Y-111920000D03*
D12*
X127635000Y-114460000D03*
X121285000Y-117000000D03*
D10*
X123825000Y-111920000D03*
D11*
X128905000Y-111920000D03*
%TD*%
D12*
%TO.C,U32*%
X140335000Y-117000000D03*
X146685000Y-114460000D03*
D10*
X142875000Y-111920000D03*
D11*
X147955000Y-111920000D03*
X137795000Y-111920000D03*
%TD*%
%TO.C,U33*%
X156845000Y-111920000D03*
D12*
X159385000Y-117000000D03*
D11*
X167005000Y-111920000D03*
D10*
X161925000Y-111920000D03*
D12*
X165735000Y-114460000D03*
%TD*%
D11*
%TO.C,U34*%
X175895000Y-111920000D03*
X186055000Y-111920000D03*
D12*
X184785000Y-114460000D03*
X178435000Y-117000000D03*
D10*
X180975000Y-111920000D03*
%TD*%
D12*
%TO.C,U35*%
X203835000Y-114460000D03*
D11*
X194945000Y-111920000D03*
D12*
X197485000Y-117000000D03*
D11*
X205105000Y-111920000D03*
D10*
X200025000Y-111920000D03*
%TD*%
D11*
%TO.C,U36*%
X224155000Y-111920000D03*
D12*
X216535000Y-117000000D03*
D11*
X213995000Y-111920000D03*
D10*
X219075000Y-111920000D03*
D12*
X222885000Y-114460000D03*
%TD*%
D11*
%TO.C,U37*%
X233045000Y-111920000D03*
D10*
X238125000Y-111920000D03*
D11*
X243205000Y-111920000D03*
D12*
X235585000Y-117000000D03*
X241935000Y-114460000D03*
%TD*%
%TO.C,U38*%
X254635000Y-117000000D03*
D10*
X257175000Y-111920000D03*
D11*
X262255000Y-111920000D03*
D12*
X260985000Y-114460000D03*
D11*
X252095000Y-111920000D03*
%TD*%
%TO.C,U39*%
X271145000Y-111920000D03*
X281305000Y-111920000D03*
D12*
X280035000Y-114460000D03*
D10*
X276225000Y-111920000D03*
D12*
X273685000Y-117000000D03*
%TD*%
D11*
%TO.C,U40*%
X290195000Y-111920000D03*
D12*
X299085000Y-114460000D03*
D10*
X295275000Y-111920000D03*
D11*
X300355000Y-111920000D03*
D12*
X292735000Y-117000000D03*
%TD*%
D10*
%TO.C,U41*%
X326231000Y-111920000D03*
D12*
X323691000Y-117000000D03*
D13*
X338169000Y-118920000D03*
D10*
X314293000Y-103680000D03*
D13*
X314293000Y-118920000D03*
D11*
X331311000Y-111920000D03*
X321151000Y-111920000D03*
D12*
X330041000Y-114460000D03*
D10*
X338169000Y-103680000D03*
%TD*%
D11*
%TO.C,U42*%
X78232000Y-130970000D03*
D10*
X95250000Y-122730000D03*
D12*
X80772000Y-136050000D03*
D13*
X71374000Y-137970000D03*
D11*
X88392000Y-130970000D03*
D10*
X71374000Y-122730000D03*
D13*
X95250000Y-137970000D03*
D12*
X87122000Y-133510000D03*
D10*
X83312000Y-130970000D03*
%TD*%
D12*
%TO.C,U43*%
X118110000Y-133510000D03*
X111760000Y-136050000D03*
D10*
X114300000Y-130970000D03*
D11*
X109220000Y-130970000D03*
X119380000Y-130970000D03*
%TD*%
%TO.C,U44*%
X138430000Y-130970000D03*
D10*
X133350000Y-130970000D03*
D12*
X137160000Y-133510000D03*
X130810000Y-136050000D03*
D11*
X128270000Y-130970000D03*
%TD*%
%TO.C,U45*%
X157480000Y-130970000D03*
D12*
X156210000Y-133510000D03*
D11*
X147320000Y-130970000D03*
D10*
X152400000Y-130970000D03*
D12*
X149860000Y-136050000D03*
%TD*%
D10*
%TO.C,U46*%
X171450000Y-130970000D03*
D12*
X175260000Y-133510000D03*
D11*
X166370000Y-130970000D03*
D12*
X168910000Y-136050000D03*
D11*
X176530000Y-130970000D03*
%TD*%
%TO.C,U47*%
X185420000Y-130970000D03*
X195580000Y-130970000D03*
D10*
X190500000Y-130970000D03*
D12*
X194310000Y-133510000D03*
X187960000Y-136050000D03*
%TD*%
D11*
%TO.C,U48*%
X204470000Y-130970000D03*
X214630000Y-130970000D03*
D12*
X213360000Y-133510000D03*
D10*
X209550000Y-130970000D03*
D12*
X207010000Y-136050000D03*
%TD*%
D10*
%TO.C,U49*%
X228600000Y-130970000D03*
D11*
X223520000Y-130970000D03*
X233680000Y-130970000D03*
D12*
X232410000Y-133510000D03*
X226060000Y-136050000D03*
%TD*%
%TO.C,U50*%
X245110000Y-136050000D03*
X251460000Y-133510000D03*
D11*
X252730000Y-130970000D03*
D10*
X247650000Y-130970000D03*
D11*
X242570000Y-130970000D03*
%TD*%
D12*
%TO.C,U51*%
X264160000Y-136050000D03*
D11*
X261620000Y-130970000D03*
D10*
X266700000Y-130970000D03*
D12*
X270510000Y-133510000D03*
D11*
X271780000Y-130970000D03*
%TD*%
D12*
%TO.C,U52*%
X283210000Y-136050000D03*
D11*
X280670000Y-130970000D03*
D12*
X289560000Y-133510000D03*
D11*
X290830000Y-130970000D03*
D10*
X285750000Y-130970000D03*
%TD*%
D13*
%TO.C,U53*%
X309531000Y-137970000D03*
X333407000Y-137970000D03*
D12*
X325279000Y-133510000D03*
D10*
X321469000Y-130970000D03*
D11*
X316389000Y-130970000D03*
D10*
X333407000Y-122730000D03*
D11*
X326549000Y-130970000D03*
D12*
X318929000Y-136050000D03*
D10*
X309531000Y-122730000D03*
%TD*%
%TO.C,U54*%
X73818800Y-150020000D03*
D11*
X78898800Y-150020000D03*
D12*
X71278800Y-155100000D03*
D11*
X68738800Y-150020000D03*
D12*
X77628800Y-152560000D03*
%TD*%
D10*
%TO.C,U55*%
X97631200Y-150020000D03*
D11*
X102711200Y-150020000D03*
X92551200Y-150020000D03*
D12*
X95091200Y-155100000D03*
X101441200Y-152560000D03*
%TD*%
D10*
%TO.C,U56*%
X121444000Y-150020000D03*
D12*
X125254000Y-152560000D03*
D11*
X126524000Y-150020000D03*
X116364000Y-150020000D03*
D12*
X118904000Y-155100000D03*
%TD*%
D11*
%TO.C,U57*%
X197961000Y-150020000D03*
X187801000Y-150020000D03*
D13*
X142881000Y-157020000D03*
D12*
X190341000Y-155100000D03*
D10*
X242881000Y-141780000D03*
X142881000Y-141780000D03*
D12*
X196691000Y-152560000D03*
D13*
X242881000Y-157020000D03*
D10*
X192881000Y-150020000D03*
%TD*%
D11*
%TO.C,U58*%
X259239000Y-150020000D03*
D12*
X261779000Y-155100000D03*
D11*
X269399000Y-150020000D03*
D12*
X268129000Y-152560000D03*
D10*
X264319000Y-150020000D03*
%TD*%
D12*
%TO.C,U59*%
X291941000Y-152560000D03*
X285591000Y-155100000D03*
D11*
X293211000Y-150020000D03*
D10*
X288131000Y-150020000D03*
D11*
X283051000Y-150020000D03*
%TD*%
%TO.C,U60*%
X317011000Y-150020000D03*
D12*
X309391000Y-155100000D03*
X315741000Y-152560000D03*
D10*
X311931000Y-150020000D03*
D11*
X306851000Y-150020000D03*
%TD*%
D12*
%TO.C,U61*%
X339554000Y-152560000D03*
D10*
X335744000Y-150020000D03*
D11*
X340824000Y-150020000D03*
X330664000Y-150020000D03*
D12*
X333204000Y-155100000D03*
%TD*%
D10*
%TO.C,U20*%
X176212000Y-92870000D03*
D12*
X180022000Y-95410000D03*
D11*
X181292000Y-92870000D03*
X171132000Y-92870000D03*
D12*
X173672000Y-97950000D03*
%TD*%
%TO.C,U24*%
X249872000Y-97950000D03*
D11*
X257492000Y-92870000D03*
X247332000Y-92870000D03*
D12*
X256222000Y-95410000D03*
D10*
X252412000Y-92870000D03*
%TD*%
D14*
%TO.C,H2*%
X321945000Y-92870000D03*
%TD*%
D15*
%TO.C,H3*%
X63754000Y-121445000D03*
%TD*%
D14*
%TO.C,H4*%
X252825000Y-150274000D03*
%TD*%
D15*
%TO.C,H5*%
X345821000Y-121572000D03*
%TD*%
D16*
%TO.C,H6*%
X190504000Y-111920000D03*
%TD*%
D17*
%TO.C,H1*%
X87489300Y-92520800D03*
%TD*%
D18*
%TO.C,J1*%
X83408000Y-69308000D03*
X77628000Y-69308000D03*
D19*
X76198000Y-65658000D03*
D20*
X76198000Y-69838000D03*
X84838000Y-69838000D03*
D19*
X84838000Y-65658000D03*
%TD*%
D21*
%TO.C,SW2*%
X92940000Y-107043000D03*
X89940000Y-107043000D03*
%TD*%
D22*
%TO.C,J2*%
X176022000Y-156116000D03*
D23*
X178562000Y-156116000D03*
X181102000Y-156116000D03*
%TD*%
D22*
%TO.C,J3*%
X211455000Y-155735000D03*
D23*
X213995000Y-155735000D03*
X216535000Y-155735000D03*
X219075000Y-155735000D03*
%TD*%
D22*
%TO.C,J4*%
X206375000Y-148115000D03*
D23*
X208915000Y-148115000D03*
X211455000Y-148115000D03*
X213995000Y-148115000D03*
X216535000Y-148115000D03*
X219075000Y-148115000D03*
%TD*%
M02*
