%TF.GenerationSoftware,KiCad,Pcbnew,(6.0.7)*%
%TF.CreationDate,2022-09-11T22:08:25-05:00*%
%TF.ProjectId,PyKey60,50794b65-7936-4302-9e6b-696361645f70,1.1*%
%TF.SameCoordinates,Original*%
%TF.FileFunction,Drillmap*%
%TF.FilePolarity,Positive*%
%FSLAX45Y45*%
G04 Gerber Fmt 4.5, Leading zero omitted, Abs format (unit mm)*
G04 Created by KiCad (PCBNEW (6.0.7)) date 2022-09-11 22:08:25*
%MOMM*%
%LPD*%
G01*
G04 APERTURE LIST*
%ADD10C,0.099060*%
%ADD11C,0.200000*%
%ADD12C,0.030480*%
%ADD13C,0.035000*%
%ADD14C,0.060000*%
%ADD15C,0.100000*%
%ADD16C,0.249936*%
G04 APERTURE END LIST*
D10*
X7551000Y-6392000D02*
X8551000Y-6392000D01*
X7551000Y-6492875D02*
X7551000Y-6392000D01*
X8551000Y-6392000D02*
X8551000Y-6492875D01*
X6432550Y-15890875D02*
X34524950Y-15890875D01*
X7551000Y-6492875D02*
X6432550Y-6492875D01*
X8551000Y-6492875D02*
X34524950Y-6492875D01*
X6229350Y-15687675D02*
G75*
G03*
X6432550Y-15890875I203200J0D01*
G01*
X34728150Y-6696075D02*
G75*
G03*
X34524950Y-6492875I-203200J0D01*
G01*
X34728150Y-15687675D02*
X34728150Y-6696075D01*
X34524950Y-15890875D02*
G75*
G03*
X34728150Y-15687675I0J203200D01*
G01*
X6229350Y-6696075D02*
X6229350Y-15687675D01*
X6432550Y-6492875D02*
G75*
G03*
X6229350Y-6696075I0J-203200D01*
G01*
D11*
D12*
X6512560Y-7036560D02*
X6543040Y-7067040D01*
X6543040Y-7036560D02*
X6512560Y-7067040D01*
X6639560Y-6807960D02*
X6670040Y-6838440D01*
X6670040Y-6807960D02*
X6639560Y-6838440D01*
X6842760Y-14516860D02*
X6873240Y-14547340D01*
X6873240Y-14516860D02*
X6842760Y-14547340D01*
X6896100Y-14389860D02*
X6926580Y-14420340D01*
X6926580Y-14389860D02*
X6896100Y-14420340D01*
X7096760Y-8674860D02*
X7127240Y-8705340D01*
X7127240Y-8674860D02*
X7096760Y-8705340D01*
X7147560Y-8458960D02*
X7178040Y-8489440D01*
X7178040Y-8458960D02*
X7147560Y-8489440D01*
X7312660Y-10135360D02*
X7343140Y-10165840D01*
X7343140Y-10135360D02*
X7312660Y-10165840D01*
X7350760Y-8001760D02*
X7381240Y-8032240D01*
X7381240Y-8001760D02*
X7350760Y-8032240D01*
X7503160Y-13932660D02*
X7533640Y-13963140D01*
X7533640Y-13932660D02*
X7503160Y-13963140D01*
X7528560Y-8204960D02*
X7559040Y-8235440D01*
X7559040Y-8204960D02*
X7528560Y-8235440D01*
X7579360Y-13856460D02*
X7609840Y-13886940D01*
X7609840Y-13856460D02*
X7579360Y-13886940D01*
X7630160Y-6782560D02*
X7660640Y-6813040D01*
X7660640Y-6782560D02*
X7630160Y-6813040D01*
X7719060Y-12141960D02*
X7749540Y-12172440D01*
X7749540Y-12141960D02*
X7719060Y-12172440D01*
X7782560Y-7366760D02*
X7813040Y-7397240D01*
X7813040Y-7366760D02*
X7782560Y-7397240D01*
X7833360Y-12446760D02*
X7863840Y-12477240D01*
X7863840Y-12446760D02*
X7833360Y-12477240D01*
X7846060Y-14389860D02*
X7876540Y-14420340D01*
X7876540Y-14389860D02*
X7846060Y-14420340D01*
X7896860Y-7354060D02*
X7927340Y-7384540D01*
X7927340Y-7354060D02*
X7896860Y-7384540D01*
X7947660Y-8128760D02*
X7978140Y-8159240D01*
X7978140Y-8128760D02*
X7947660Y-8159240D01*
X7998460Y-10097260D02*
X8028940Y-10127740D01*
X8028940Y-10097260D02*
X7998460Y-10127740D01*
X8074660Y-6528560D02*
X8105140Y-6559040D01*
X8105140Y-6528560D02*
X8074660Y-6559040D01*
X8074660Y-6769860D02*
X8105140Y-6800340D01*
X8105140Y-6769860D02*
X8074660Y-6800340D01*
X8074660Y-8027160D02*
X8105140Y-8057640D01*
X8105140Y-8027160D02*
X8074660Y-8057640D01*
X8087360Y-8674860D02*
X8117840Y-8705340D01*
X8117840Y-8674860D02*
X8087360Y-8705340D01*
X8240749Y-11981559D02*
X8271229Y-12012039D01*
X8271229Y-11981559D02*
X8240749Y-12012039D01*
X8277860Y-7354060D02*
X8308340Y-7384540D01*
X8308340Y-7354060D02*
X8277860Y-7384540D01*
X8366760Y-13526260D02*
X8397240Y-13556740D01*
X8397240Y-13526260D02*
X8366760Y-13556740D01*
X8371839Y-10601987D02*
X8402319Y-10632467D01*
X8402319Y-10601987D02*
X8371839Y-10632467D01*
X8379460Y-7366760D02*
X8409940Y-7397240D01*
X8409940Y-7366760D02*
X8379460Y-7397240D01*
X8569960Y-6846060D02*
X8600440Y-6876540D01*
X8600440Y-6846060D02*
X8569960Y-6876540D01*
X8696960Y-6645401D02*
X8727440Y-6675881D01*
X8727440Y-6645401D02*
X8696960Y-6675881D01*
X8807196Y-8343644D02*
X8837676Y-8374124D01*
X8837676Y-8343644D02*
X8807196Y-8374124D01*
X8811260Y-14186660D02*
X8841740Y-14217140D01*
X8841740Y-14186660D02*
X8811260Y-14217140D01*
X8836660Y-12497560D02*
X8867140Y-12528040D01*
X8867140Y-12497560D02*
X8836660Y-12528040D01*
X8849360Y-11799060D02*
X8879840Y-11829540D01*
X8879840Y-11799060D02*
X8849360Y-11829540D01*
X8963660Y-14173960D02*
X8994140Y-14204440D01*
X8994140Y-14173960D02*
X8963660Y-14204440D01*
X9052560Y-11799060D02*
X9083040Y-11829540D01*
X9083040Y-11799060D02*
X9052560Y-11829540D01*
X9053760Y-11073960D02*
X9084240Y-11104440D01*
X9084240Y-11073960D02*
X9053760Y-11104440D01*
X9116060Y-8357360D02*
X9146540Y-8387840D01*
X9146540Y-8357360D02*
X9116060Y-8387840D01*
X9141460Y-12815060D02*
X9171940Y-12845540D01*
X9171940Y-12815060D02*
X9141460Y-12845540D01*
X9230360Y-13996160D02*
X9260840Y-14026640D01*
X9260840Y-13996160D02*
X9230360Y-14026640D01*
X9230360Y-14389860D02*
X9260840Y-14420340D01*
X9260840Y-14389860D02*
X9230360Y-14420340D01*
X9230360Y-14580360D02*
X9260840Y-14610840D01*
X9260840Y-14580360D02*
X9230360Y-14610840D01*
X9331960Y-8598660D02*
X9362440Y-8629140D01*
X9362440Y-8598660D02*
X9331960Y-8629140D01*
X9433560Y-8204960D02*
X9464040Y-8235440D01*
X9464040Y-8204960D02*
X9433560Y-8235440D01*
X9458960Y-8865360D02*
X9489440Y-8895840D01*
X9489440Y-8865360D02*
X9458960Y-8895840D01*
X9471660Y-8662160D02*
X9502140Y-8692640D01*
X9502140Y-8662160D02*
X9471660Y-8692640D01*
X9509760Y-8128760D02*
X9540240Y-8159240D01*
X9540240Y-8128760D02*
X9509760Y-8159240D01*
X9649460Y-7023860D02*
X9679940Y-7054340D01*
X9679940Y-7023860D02*
X9649460Y-7054340D01*
X9662160Y-13424660D02*
X9692640Y-13455140D01*
X9692640Y-13424660D02*
X9662160Y-13455140D01*
X9954260Y-10554460D02*
X9984740Y-10584940D01*
X9984740Y-10554460D02*
X9954260Y-10584940D01*
X9966960Y-10757660D02*
X9997440Y-10788140D01*
X9997440Y-10757660D02*
X9966960Y-10788140D01*
X10106660Y-12561060D02*
X10137140Y-12591540D01*
X10137140Y-12561060D02*
X10106660Y-12591540D01*
X10208260Y-13526260D02*
X10238740Y-13556740D01*
X10238740Y-13526260D02*
X10208260Y-13556740D01*
X10233660Y-14415260D02*
X10264140Y-14445740D01*
X10264140Y-14415260D02*
X10233660Y-14445740D01*
X10284460Y-8128760D02*
X10314940Y-8159240D01*
X10314940Y-8128760D02*
X10284460Y-8159240D01*
X10398760Y-6719060D02*
X10429240Y-6749540D01*
X10429240Y-6719060D02*
X10398760Y-6749540D01*
X10411460Y-10097260D02*
X10441940Y-10127740D01*
X10441940Y-10097260D02*
X10411460Y-10127740D01*
X10474960Y-14110460D02*
X10505440Y-14140940D01*
X10505440Y-14110460D02*
X10474960Y-14140940D01*
X10520678Y-8725660D02*
X10551158Y-8756140D01*
X10551158Y-8725660D02*
X10520678Y-8756140D01*
X10638231Y-13749276D02*
X10668711Y-13779756D01*
X10668711Y-13749276D02*
X10638231Y-13779756D01*
X10868660Y-12004801D02*
X10899140Y-12035281D01*
X10899140Y-12004801D02*
X10868660Y-12035281D01*
X10881360Y-12484860D02*
X10911840Y-12515340D01*
X10911840Y-12484860D02*
X10881360Y-12515340D01*
X10894060Y-12675360D02*
X10924540Y-12705840D01*
X10924540Y-12675360D02*
X10894060Y-12705840D01*
X10982960Y-10554460D02*
X11013440Y-10584940D01*
X11013440Y-10554460D02*
X10982960Y-10584940D01*
X11071860Y-8128760D02*
X11102340Y-8159240D01*
X11102340Y-8128760D02*
X11071860Y-8159240D01*
X11313160Y-8674860D02*
X11343640Y-8705340D01*
X11343640Y-8674860D02*
X11313160Y-8705340D01*
X11351260Y-8217660D02*
X11381740Y-8248140D01*
X11381740Y-8217660D02*
X11351260Y-8248140D01*
X11376660Y-8852660D02*
X11407140Y-8883140D01*
X11407140Y-8852660D02*
X11376660Y-8883140D01*
X11402060Y-14209519D02*
X11432540Y-14239999D01*
X11432540Y-14209519D02*
X11402060Y-14239999D01*
X11554460Y-14593060D02*
X11584940Y-14623540D01*
X11584940Y-14593060D02*
X11554460Y-14623540D01*
X11630660Y-14453360D02*
X11661140Y-14483840D01*
X11661140Y-14453360D02*
X11630660Y-14483840D01*
X11783060Y-10744960D02*
X11813540Y-10775440D01*
X11813540Y-10744960D02*
X11783060Y-10775440D01*
X11795760Y-12827760D02*
X11826240Y-12858240D01*
X11826240Y-12827760D02*
X11795760Y-12858240D01*
X11821160Y-10554460D02*
X11851640Y-10584940D01*
X11851640Y-10554460D02*
X11821160Y-10584940D01*
X11998960Y-12497560D02*
X12029440Y-12528040D01*
X12029440Y-12497560D02*
X11998960Y-12528040D01*
X12151360Y-8128760D02*
X12181840Y-8159240D01*
X12181840Y-8128760D02*
X12151360Y-8159240D01*
X12227560Y-12815060D02*
X12258040Y-12845540D01*
X12258040Y-12815060D02*
X12227560Y-12845540D01*
X12240260Y-6706360D02*
X12270740Y-6736840D01*
X12270740Y-6706360D02*
X12240260Y-6736840D01*
X12240260Y-13932663D02*
X12270740Y-13963143D01*
X12270740Y-13932663D02*
X12240260Y-13963143D01*
X12303760Y-10097260D02*
X12334240Y-10127740D01*
X12334240Y-10097260D02*
X12303760Y-10127740D01*
X12346939Y-8674860D02*
X12377419Y-8705340D01*
X12377419Y-8674860D02*
X12346939Y-8705340D01*
X12672060Y-14415260D02*
X12702540Y-14445740D01*
X12702540Y-14415260D02*
X12672060Y-14445740D01*
X12773660Y-12004801D02*
X12804140Y-12035281D01*
X12804140Y-12004801D02*
X12773660Y-12035281D01*
X12799060Y-12484860D02*
X12829540Y-12515340D01*
X12829540Y-12484860D02*
X12799060Y-12515340D01*
X12799060Y-12662660D02*
X12829540Y-12693140D01*
X12829540Y-12662660D02*
X12799060Y-12693140D01*
X12799060Y-13765020D02*
X12829540Y-13795500D01*
X12829540Y-13765020D02*
X12799060Y-13795500D01*
X12887960Y-8128760D02*
X12918440Y-8159240D01*
X12918440Y-8128760D02*
X12887960Y-8159240D01*
X12938760Y-10567160D02*
X12969240Y-10597640D01*
X12969240Y-10567160D02*
X12938760Y-10597640D01*
X13256260Y-8865360D02*
X13286740Y-8895840D01*
X13286740Y-8865360D02*
X13256260Y-8895840D01*
X13268960Y-8204960D02*
X13299440Y-8235440D01*
X13299440Y-8204960D02*
X13268960Y-8235440D01*
X13268960Y-8687560D02*
X13299440Y-8718040D01*
X13299440Y-8687560D02*
X13268960Y-8718040D01*
X13662660Y-12827760D02*
X13693140Y-12858240D01*
X13693140Y-12827760D02*
X13662660Y-12858240D01*
X13700760Y-10757660D02*
X13731240Y-10788140D01*
X13731240Y-10757660D02*
X13700760Y-10788140D01*
X13738860Y-10592560D02*
X13769340Y-10623040D01*
X13769340Y-10592560D02*
X13738860Y-10623040D01*
X13903960Y-12484860D02*
X13934440Y-12515340D01*
X13934440Y-12484860D02*
X13903960Y-12515340D01*
X13954760Y-8128760D02*
X13985240Y-8159240D01*
X13985240Y-8128760D02*
X13954760Y-8159240D01*
X14145260Y-12815060D02*
X14175740Y-12845540D01*
X14175740Y-12815060D02*
X14145260Y-12845540D01*
X14183360Y-10097260D02*
X14213840Y-10127740D01*
X14213840Y-10097260D02*
X14183360Y-10127740D01*
X14221460Y-6757160D02*
X14251940Y-6787640D01*
X14251940Y-6757160D02*
X14221460Y-6787640D01*
X14323060Y-8662160D02*
X14353540Y-8692640D01*
X14353540Y-8662160D02*
X14323060Y-8692640D01*
X14424660Y-13945360D02*
X14455140Y-13975840D01*
X14455140Y-13945360D02*
X14424660Y-13975840D01*
X14577060Y-13780260D02*
X14607540Y-13810740D01*
X14607540Y-13780260D02*
X14577060Y-13810740D01*
X14678660Y-12004801D02*
X14709140Y-12035281D01*
X14709140Y-12004801D02*
X14678660Y-12035281D01*
X14691360Y-12484860D02*
X14721840Y-12515340D01*
X14721840Y-12484860D02*
X14691360Y-12515340D01*
X14691360Y-12649960D02*
X14721840Y-12680440D01*
X14721840Y-12649960D02*
X14691360Y-12680440D01*
X14792960Y-8128760D02*
X14823440Y-8159240D01*
X14823440Y-8128760D02*
X14792960Y-8159240D01*
X14792960Y-10579860D02*
X14823440Y-10610340D01*
X14823440Y-10579860D02*
X14792960Y-10610340D01*
X14881860Y-13958060D02*
X14912340Y-13988540D01*
X14912340Y-13958060D02*
X14881860Y-13988540D01*
X15161260Y-8204960D02*
X15191740Y-8235440D01*
X15191740Y-8204960D02*
X15161260Y-8235440D01*
X15173960Y-8674860D02*
X15204440Y-8705340D01*
X15204440Y-8674860D02*
X15173960Y-8705340D01*
X15173960Y-8839960D02*
X15204440Y-8870440D01*
X15204440Y-8839960D02*
X15173960Y-8870440D01*
X15618460Y-10592560D02*
X15648940Y-10623040D01*
X15648940Y-10592560D02*
X15618460Y-10623040D01*
X15618460Y-12827760D02*
X15648940Y-12858240D01*
X15648940Y-12827760D02*
X15618460Y-12858240D01*
X15643860Y-10757660D02*
X15674340Y-10788140D01*
X15674340Y-10757660D02*
X15643860Y-10788140D01*
X15796260Y-12472160D02*
X15826740Y-12502640D01*
X15826740Y-12472160D02*
X15796260Y-12502640D01*
X15821660Y-15380460D02*
X15852140Y-15410940D01*
X15852140Y-15380460D02*
X15821660Y-15410940D01*
X15872460Y-14694660D02*
X15902940Y-14725140D01*
X15902940Y-14694660D02*
X15872460Y-14725140D01*
X15872460Y-14796260D02*
X15902940Y-14826740D01*
X15902940Y-14796260D02*
X15872460Y-14826740D01*
X15885160Y-15154401D02*
X15915640Y-15184881D01*
X15915640Y-15154401D02*
X15885160Y-15184881D01*
X15885160Y-15291560D02*
X15915640Y-15322040D01*
X15915640Y-15291560D02*
X15885160Y-15322040D01*
X15961360Y-14351760D02*
X15991840Y-14382240D01*
X15991840Y-14351760D02*
X15961360Y-14382240D01*
X16012160Y-8128760D02*
X16042640Y-8159240D01*
X16042640Y-8128760D02*
X16012160Y-8159240D01*
X16050260Y-12815060D02*
X16080740Y-12845540D01*
X16080740Y-12815060D02*
X16050260Y-12845540D01*
X16113760Y-10097260D02*
X16144240Y-10127740D01*
X16144240Y-10097260D02*
X16113760Y-10127740D01*
X16126460Y-6757160D02*
X16156940Y-6787640D01*
X16156940Y-6757160D02*
X16126460Y-6787640D01*
X16240760Y-8687560D02*
X16271240Y-8718040D01*
X16271240Y-8687560D02*
X16240760Y-8718040D01*
X16425293Y-15044293D02*
X16455773Y-15074773D01*
X16455773Y-15044293D02*
X16425293Y-15074773D01*
X16520160Y-15748760D02*
X16550640Y-15779240D01*
X16550640Y-15748760D02*
X16520160Y-15779240D01*
X16570960Y-12649960D02*
X16601440Y-12680440D01*
X16601440Y-12649960D02*
X16570960Y-12680440D01*
X16583660Y-12004801D02*
X16614140Y-12035281D01*
X16614140Y-12004801D02*
X16583660Y-12035281D01*
X16609060Y-12472160D02*
X16639540Y-12502640D01*
X16639540Y-12472160D02*
X16609060Y-12502640D01*
X16634460Y-15238219D02*
X16664940Y-15268699D01*
X16664940Y-15238219D02*
X16634460Y-15268699D01*
X16647160Y-15344900D02*
X16677640Y-15375380D01*
X16677640Y-15344900D02*
X16647160Y-15375380D01*
X16659860Y-8128760D02*
X16690340Y-8159240D01*
X16690340Y-8128760D02*
X16659860Y-8159240D01*
X16697960Y-15748760D02*
X16728440Y-15779240D01*
X16728440Y-15748760D02*
X16697960Y-15779240D01*
X16708119Y-14232382D02*
X16738599Y-14262862D01*
X16738599Y-14232382D02*
X16708119Y-14262862D01*
X16710660Y-13869160D02*
X16741140Y-13899640D01*
X16741140Y-13869160D02*
X16710660Y-13899640D01*
X16723360Y-10579860D02*
X16753840Y-10610340D01*
X16753840Y-10579860D02*
X16723360Y-10610340D01*
X16729132Y-15368527D02*
X16759612Y-15399007D01*
X16759612Y-15368527D02*
X16729132Y-15399007D01*
X16736060Y-14770860D02*
X16766540Y-14801340D01*
X16766540Y-14770860D02*
X16736060Y-14801340D01*
X16771619Y-14298603D02*
X16802099Y-14329083D01*
X16802099Y-14298603D02*
X16771619Y-14329083D01*
X16799560Y-8128760D02*
X16830040Y-8159240D01*
X16830040Y-8128760D02*
X16799560Y-8159240D01*
X16804397Y-15380460D02*
X16834877Y-15410940D01*
X16834877Y-15380460D02*
X16804397Y-15410940D01*
X16816973Y-14130383D02*
X16847453Y-14160863D01*
X16847453Y-14130383D02*
X16816973Y-14160863D01*
X16837660Y-14034260D02*
X16868140Y-14064740D01*
X16868140Y-14034260D02*
X16837660Y-14064740D01*
X16868599Y-15295624D02*
X16899079Y-15326104D01*
X16899079Y-15295624D02*
X16868599Y-15326104D01*
X16924069Y-15393160D02*
X16954549Y-15423640D01*
X16954549Y-15393160D02*
X16924069Y-15423640D01*
X16978963Y-14210248D02*
X17009443Y-14240728D01*
X17009443Y-14210248D02*
X16978963Y-14240728D01*
X16990060Y-15355060D02*
X17020540Y-15385540D01*
X17020540Y-15355060D02*
X16990060Y-15385540D01*
X17023463Y-15273399D02*
X17053943Y-15303879D01*
X17053943Y-15273399D02*
X17023463Y-15303879D01*
X17050594Y-13853910D02*
X17081074Y-13884390D01*
X17081074Y-13853910D02*
X17050594Y-13884390D01*
X17066260Y-8204960D02*
X17096740Y-8235440D01*
X17096740Y-8204960D02*
X17066260Y-8235440D01*
X17066260Y-8674860D02*
X17096740Y-8705340D01*
X17096740Y-8674860D02*
X17066260Y-8705340D01*
X17066260Y-8839960D02*
X17096740Y-8870440D01*
X17096740Y-8839960D02*
X17066260Y-8870440D01*
X17066260Y-15748760D02*
X17096740Y-15779240D01*
X17096740Y-15748760D02*
X17066260Y-15779240D01*
X17118000Y-14237460D02*
X17148480Y-14267940D01*
X17148480Y-14237460D02*
X17118000Y-14267940D01*
X17125806Y-13866152D02*
X17156286Y-13896632D01*
X17156286Y-13866152D02*
X17125806Y-13896632D01*
X17167860Y-15685260D02*
X17198340Y-15715740D01*
X17198340Y-15685260D02*
X17167860Y-15715740D01*
X17180836Y-14842871D02*
X17211316Y-14873351D01*
X17211316Y-14842871D02*
X17180836Y-14873351D01*
X17225097Y-14205797D02*
X17255577Y-14236277D01*
X17255577Y-14205797D02*
X17225097Y-14236277D01*
X17294860Y-14300960D02*
X17325340Y-14331440D01*
X17325340Y-14300960D02*
X17294860Y-14331440D01*
X17307560Y-14212060D02*
X17338040Y-14242540D01*
X17338040Y-14212060D02*
X17307560Y-14242540D01*
X17409160Y-14326360D02*
X17439640Y-14356840D01*
X17439640Y-14326360D02*
X17409160Y-14356840D01*
X17421860Y-15672560D02*
X17452340Y-15703040D01*
X17452340Y-15672560D02*
X17421860Y-15703040D01*
X17437100Y-15232632D02*
X17467580Y-15263112D01*
X17467580Y-15232632D02*
X17437100Y-15263112D01*
X17445559Y-14801134D02*
X17476039Y-14831614D01*
X17476039Y-14801134D02*
X17445559Y-14831614D01*
X17445559Y-14986613D02*
X17476039Y-15017093D01*
X17476039Y-14986613D02*
X17445559Y-15017093D01*
X17474615Y-15113760D02*
X17505095Y-15144240D01*
X17505095Y-15113760D02*
X17474615Y-15144240D01*
X17498060Y-14300960D02*
X17528540Y-14331440D01*
X17528540Y-14300960D02*
X17498060Y-14331440D01*
X17510760Y-12827760D02*
X17541240Y-12858240D01*
X17541240Y-12827760D02*
X17510760Y-12858240D01*
X17523460Y-10567160D02*
X17553940Y-10597640D01*
X17553940Y-10567160D02*
X17523460Y-10597640D01*
X17529381Y-15177260D02*
X17559861Y-15207740D01*
X17559861Y-15177260D02*
X17529381Y-15207740D01*
X17548860Y-10757660D02*
X17579340Y-10788140D01*
X17579340Y-10757660D02*
X17548860Y-10788140D01*
X17599660Y-14300960D02*
X17630140Y-14331440D01*
X17630140Y-14300960D02*
X17599660Y-14331440D01*
X17650460Y-12484860D02*
X17680940Y-12515340D01*
X17680940Y-12484860D02*
X17650460Y-12515340D01*
X17675860Y-14313660D02*
X17706340Y-14344140D01*
X17706340Y-14313660D02*
X17675860Y-14344140D01*
X17790160Y-15240760D02*
X17820640Y-15271240D01*
X17820640Y-15240760D02*
X17790160Y-15271240D01*
X17876939Y-14362339D02*
X17907419Y-14392819D01*
X17907419Y-14362339D02*
X17876939Y-14392819D01*
X17929477Y-14503777D02*
X17959957Y-14534257D01*
X17959957Y-14503777D02*
X17929477Y-14534257D01*
X17942560Y-12815060D02*
X17973040Y-12845540D01*
X17973040Y-12815060D02*
X17942560Y-12845540D01*
X18006060Y-10097260D02*
X18036540Y-10127740D01*
X18036540Y-10097260D02*
X18006060Y-10127740D01*
X18044160Y-6769860D02*
X18074640Y-6800340D01*
X18074640Y-6769860D02*
X18044160Y-6800340D01*
X18076213Y-15334738D02*
X18106693Y-15365218D01*
X18106693Y-15334738D02*
X18076213Y-15365218D01*
X18183860Y-8700260D02*
X18214340Y-8730740D01*
X18214340Y-8700260D02*
X18183860Y-8730740D01*
X18298160Y-15088360D02*
X18328640Y-15118840D01*
X18328640Y-15088360D02*
X18298160Y-15118840D01*
X18348960Y-14377160D02*
X18379440Y-14407640D01*
X18379440Y-14377160D02*
X18348960Y-14407640D01*
X18361660Y-14694660D02*
X18392140Y-14725140D01*
X18392140Y-14694660D02*
X18361660Y-14725140D01*
X18386191Y-15609929D02*
X18416671Y-15640409D01*
X18416671Y-15609929D02*
X18386191Y-15640409D01*
X18488660Y-12459460D02*
X18519140Y-12489940D01*
X18519140Y-12459460D02*
X18488660Y-12489940D01*
X18501360Y-12004801D02*
X18531840Y-12035281D01*
X18531840Y-12004801D02*
X18501360Y-12035281D01*
X18501360Y-12675360D02*
X18531840Y-12705840D01*
X18531840Y-12675360D02*
X18501360Y-12705840D01*
X18641060Y-8128760D02*
X18671540Y-8159240D01*
X18671540Y-8128760D02*
X18641060Y-8159240D01*
X18653760Y-10592560D02*
X18684240Y-10623040D01*
X18684240Y-10592560D02*
X18653760Y-10623040D01*
X18742660Y-14389860D02*
X18773140Y-14420340D01*
X18773140Y-14389860D02*
X18742660Y-14420340D01*
X18958560Y-8687560D02*
X18989040Y-8718040D01*
X18989040Y-8687560D02*
X18958560Y-8718040D01*
X18971260Y-8852660D02*
X19001740Y-8883140D01*
X19001740Y-8852660D02*
X18971260Y-8883140D01*
X18983960Y-8204960D02*
X19014440Y-8235440D01*
X19014440Y-8204960D02*
X18983960Y-8235440D01*
X19456401Y-10582730D02*
X19486881Y-10613210D01*
X19486881Y-10582730D02*
X19456401Y-10613210D01*
X19456401Y-10757660D02*
X19486881Y-10788140D01*
X19486881Y-10757660D02*
X19456401Y-10788140D01*
X19491960Y-12827760D02*
X19522440Y-12858240D01*
X19522440Y-12827760D02*
X19491960Y-12858240D01*
X19657060Y-12510260D02*
X19687540Y-12540740D01*
X19687540Y-12510260D02*
X19657060Y-12540740D01*
X19784060Y-14402560D02*
X19814540Y-14433040D01*
X19814540Y-14402560D02*
X19784060Y-14433040D01*
X19822160Y-14250160D02*
X19852640Y-14280640D01*
X19852640Y-14250160D02*
X19822160Y-14280640D01*
X19847560Y-12812519D02*
X19878040Y-12842999D01*
X19878040Y-12812519D02*
X19847560Y-12842999D01*
X19911060Y-6757160D02*
X19941540Y-6787640D01*
X19941540Y-6757160D02*
X19911060Y-6787640D01*
X19919105Y-14120619D02*
X19949585Y-14151099D01*
X19949585Y-14120619D02*
X19919105Y-14151099D01*
X19923760Y-10097260D02*
X19954240Y-10127740D01*
X19954240Y-10097260D02*
X19923760Y-10127740D01*
X19987260Y-8128760D02*
X20017740Y-8159240D01*
X20017740Y-8128760D02*
X19987260Y-8159240D01*
X20007393Y-14116492D02*
X20037873Y-14146972D01*
X20037873Y-14116492D02*
X20007393Y-14146972D01*
X20076160Y-8687560D02*
X20106640Y-8718040D01*
X20106640Y-8687560D02*
X20076160Y-8718040D01*
X20211163Y-13874232D02*
X20241643Y-13904712D01*
X20241643Y-13874232D02*
X20211163Y-13904712D01*
X20342860Y-15164560D02*
X20373340Y-15195040D01*
X20373340Y-15164560D02*
X20342860Y-15195040D01*
X20393660Y-12004801D02*
X20424140Y-12035281D01*
X20424140Y-12004801D02*
X20393660Y-12035281D01*
X20406360Y-12484860D02*
X20436840Y-12515340D01*
X20436840Y-12484860D02*
X20406360Y-12515340D01*
X20431760Y-12675360D02*
X20462240Y-12705840D01*
X20462240Y-12675360D02*
X20431760Y-12705840D01*
X20533360Y-8128760D02*
X20563840Y-8159240D01*
X20563840Y-8128760D02*
X20533360Y-8159240D01*
X20546060Y-10567160D02*
X20576540Y-10597640D01*
X20576540Y-10567160D02*
X20546060Y-10597640D01*
X20888960Y-8204960D02*
X20919440Y-8235440D01*
X20919440Y-8204960D02*
X20888960Y-8235440D01*
X20898560Y-8671760D02*
X20929040Y-8702240D01*
X20929040Y-8671760D02*
X20898560Y-8702240D01*
X20901660Y-8839960D02*
X20932140Y-8870440D01*
X20932140Y-8839960D02*
X20901660Y-8870440D01*
X21308060Y-10579860D02*
X21338540Y-10610340D01*
X21338540Y-10579860D02*
X21308060Y-10610340D01*
X21308060Y-10744960D02*
X21338540Y-10775440D01*
X21338540Y-10744960D02*
X21308060Y-10775440D01*
X21308060Y-12827760D02*
X21338540Y-12858240D01*
X21338540Y-12827760D02*
X21308060Y-12858240D01*
X21485860Y-15177260D02*
X21516340Y-15207740D01*
X21516340Y-15177260D02*
X21485860Y-15207740D01*
X21498560Y-12472160D02*
X21529040Y-12502640D01*
X21529040Y-12472160D02*
X21498560Y-12502640D01*
X21765260Y-12497560D02*
X21795740Y-12528040D01*
X21795740Y-12497560D02*
X21765260Y-12528040D01*
X21765260Y-12815060D02*
X21795740Y-12845540D01*
X21795740Y-12815060D02*
X21765260Y-12845540D01*
X21816060Y-10097260D02*
X21846540Y-10127740D01*
X21846540Y-10097260D02*
X21816060Y-10127740D01*
X21841460Y-8128760D02*
X21871940Y-8159240D01*
X21871940Y-8128760D02*
X21841460Y-8159240D01*
X21854160Y-6769860D02*
X21884640Y-6800340D01*
X21884640Y-6769860D02*
X21854160Y-6800340D01*
X21917660Y-14161260D02*
X21948140Y-14191740D01*
X21948140Y-14161260D02*
X21917660Y-14191740D01*
X22023676Y-8721244D02*
X22054156Y-8751724D01*
X22054156Y-8721244D02*
X22023676Y-8751724D01*
X22120860Y-12497560D02*
X22151340Y-12528040D01*
X22151340Y-12497560D02*
X22120860Y-12528040D01*
X22146260Y-13818360D02*
X22176740Y-13848840D01*
X22176740Y-13818360D02*
X22146260Y-13848840D01*
X22247860Y-15494760D02*
X22278340Y-15525240D01*
X22278340Y-15494760D02*
X22247860Y-15525240D01*
X22311360Y-12004801D02*
X22341840Y-12035281D01*
X22341840Y-12004801D02*
X22311360Y-12035281D01*
X22324060Y-12662660D02*
X22354540Y-12693140D01*
X22354540Y-12662660D02*
X22324060Y-12693140D01*
X22425660Y-10567160D02*
X22456140Y-10597640D01*
X22456140Y-10567160D02*
X22425660Y-10597640D01*
X22438360Y-8128760D02*
X22468840Y-8159240D01*
X22468840Y-8128760D02*
X22438360Y-8159240D01*
X22781260Y-8204960D02*
X22811740Y-8235440D01*
X22811740Y-8204960D02*
X22781260Y-8235440D01*
X22781260Y-8674860D02*
X22811740Y-8705340D01*
X22811740Y-8674860D02*
X22781260Y-8705340D01*
X22793960Y-8852660D02*
X22824440Y-8883140D01*
X22824440Y-8852660D02*
X22793960Y-8883140D01*
X23213060Y-10567160D02*
X23243540Y-10597640D01*
X23243540Y-10567160D02*
X23213060Y-10597640D01*
X23238460Y-10732260D02*
X23268940Y-10762740D01*
X23268940Y-10732260D02*
X23238460Y-10762740D01*
X23263860Y-12827760D02*
X23294340Y-12858240D01*
X23294340Y-12827760D02*
X23263860Y-12858240D01*
X23390860Y-12484860D02*
X23421340Y-12515340D01*
X23421340Y-12484860D02*
X23390860Y-12515340D01*
X23682960Y-8128760D02*
X23713440Y-8159240D01*
X23713440Y-8128760D02*
X23682960Y-8159240D01*
X23682960Y-12815060D02*
X23713440Y-12845540D01*
X23713440Y-12815060D02*
X23682960Y-12845540D01*
X23721060Y-10097260D02*
X23751540Y-10127740D01*
X23751540Y-10097260D02*
X23721060Y-10127740D01*
X23733760Y-6782560D02*
X23764240Y-6813040D01*
X23764240Y-6782560D02*
X23733760Y-6813040D01*
X23911560Y-8662160D02*
X23942040Y-8692640D01*
X23942040Y-8662160D02*
X23911560Y-8692640D01*
X23957134Y-13727558D02*
X23987614Y-13758038D01*
X23987614Y-13727558D02*
X23957134Y-13758038D01*
X24127460Y-14910560D02*
X24157940Y-14941040D01*
X24157940Y-14910560D02*
X24127460Y-14941040D01*
X24203660Y-12675360D02*
X24234140Y-12705840D01*
X24234140Y-12675360D02*
X24203660Y-12705840D01*
X24216360Y-12004801D02*
X24246840Y-12035281D01*
X24246840Y-12004801D02*
X24216360Y-12035281D01*
X24229060Y-12497560D02*
X24259540Y-12528040D01*
X24259540Y-12497560D02*
X24229060Y-12528040D01*
X24305260Y-8128760D02*
X24335740Y-8159240D01*
X24335740Y-8128760D02*
X24305260Y-8159240D01*
X24343360Y-10579860D02*
X24373840Y-10610340D01*
X24373840Y-10579860D02*
X24343360Y-10610340D01*
X24673560Y-8204960D02*
X24704040Y-8235440D01*
X24704040Y-8204960D02*
X24673560Y-8235440D01*
X24673560Y-8674860D02*
X24704040Y-8705340D01*
X24704040Y-8674860D02*
X24673560Y-8705340D01*
X24686260Y-8865360D02*
X24716740Y-8895840D01*
X24716740Y-8865360D02*
X24686260Y-8895840D01*
X25168860Y-10605260D02*
X25199340Y-10635740D01*
X25199340Y-10605260D02*
X25168860Y-10635740D01*
X25168860Y-10757660D02*
X25199340Y-10788140D01*
X25199340Y-10757660D02*
X25168860Y-10788140D01*
X25194260Y-12827760D02*
X25224740Y-12858240D01*
X25224740Y-12827760D02*
X25194260Y-12858240D01*
X25308560Y-12484860D02*
X25339040Y-12515340D01*
X25339040Y-12484860D02*
X25308560Y-12515340D01*
X25587960Y-12815060D02*
X25618440Y-12845540D01*
X25618440Y-12815060D02*
X25587960Y-12845540D01*
X25613360Y-10097260D02*
X25643840Y-10127740D01*
X25643840Y-10097260D02*
X25613360Y-10127740D01*
X25664160Y-6757160D02*
X25694640Y-6787640D01*
X25694640Y-6757160D02*
X25664160Y-6787640D01*
X25664160Y-8128760D02*
X25694640Y-8159240D01*
X25694640Y-8128760D02*
X25664160Y-8159240D01*
X25841960Y-8712960D02*
X25872440Y-8743440D01*
X25872440Y-8712960D02*
X25841960Y-8743440D01*
X25841960Y-14580360D02*
X25872440Y-14610840D01*
X25872440Y-14580360D02*
X25841960Y-14610840D01*
X25880060Y-14377160D02*
X25910540Y-14407640D01*
X25910540Y-14377160D02*
X25880060Y-14407640D01*
X25905460Y-13749776D02*
X25935940Y-13780256D01*
X25935940Y-13749776D02*
X25905460Y-13780256D01*
X26095960Y-12675360D02*
X26126440Y-12705840D01*
X26126440Y-12675360D02*
X26095960Y-12705840D01*
X26108660Y-12004801D02*
X26139140Y-12035281D01*
X26139140Y-12004801D02*
X26108660Y-12035281D01*
X26137160Y-12481760D02*
X26167640Y-12512240D01*
X26167640Y-12481760D02*
X26137160Y-12512240D01*
X26222960Y-8128760D02*
X26253440Y-8159240D01*
X26253440Y-8128760D02*
X26222960Y-8159240D01*
X26248360Y-10605260D02*
X26278840Y-10635740D01*
X26278840Y-10605260D02*
X26248360Y-10635740D01*
X26299160Y-7087360D02*
X26329640Y-7117840D01*
X26329640Y-7087360D02*
X26299160Y-7117840D01*
X26553160Y-8839960D02*
X26583640Y-8870440D01*
X26583640Y-8839960D02*
X26553160Y-8870440D01*
X26603960Y-8204960D02*
X26634440Y-8235440D01*
X26634440Y-8204960D02*
X26603960Y-8235440D01*
X26616660Y-8687560D02*
X26647140Y-8718040D01*
X26647140Y-8687560D02*
X26616660Y-8718040D01*
X26857960Y-14694660D02*
X26888440Y-14725140D01*
X26888440Y-14694660D02*
X26857960Y-14725140D01*
X26934160Y-14402560D02*
X26964640Y-14433040D01*
X26964640Y-14402560D02*
X26934160Y-14433040D01*
X27048460Y-10757660D02*
X27078940Y-10788140D01*
X27078940Y-10757660D02*
X27048460Y-10788140D01*
X27048460Y-12827760D02*
X27078940Y-12858240D01*
X27078940Y-12827760D02*
X27048460Y-12858240D01*
X27061160Y-10567160D02*
X27091640Y-10597640D01*
X27091640Y-10567160D02*
X27061160Y-10597640D01*
X27175460Y-12484860D02*
X27205940Y-12515340D01*
X27205940Y-12484860D02*
X27175460Y-12515340D01*
X27442160Y-8128760D02*
X27472640Y-8159240D01*
X27472640Y-8128760D02*
X27442160Y-8159240D01*
X27480260Y-12815060D02*
X27510740Y-12845540D01*
X27510740Y-12815060D02*
X27480260Y-12845540D01*
X27531060Y-10097260D02*
X27561540Y-10127740D01*
X27561540Y-10097260D02*
X27531060Y-10127740D01*
X27553360Y-6766760D02*
X27583840Y-6797240D01*
X27583840Y-6766760D02*
X27553360Y-6797240D01*
X27632660Y-8700260D02*
X27663140Y-8730740D01*
X27663140Y-8700260D02*
X27632660Y-8730740D01*
X27759660Y-13780257D02*
X27790140Y-13810737D01*
X27790140Y-13780257D02*
X27759660Y-13810737D01*
X28013660Y-12472160D02*
X28044140Y-12502640D01*
X28044140Y-12472160D02*
X28013660Y-12502640D01*
X28026360Y-12004801D02*
X28056840Y-12035281D01*
X28056840Y-12004801D02*
X28026360Y-12035281D01*
X28051760Y-12662660D02*
X28082240Y-12693140D01*
X28082240Y-12662660D02*
X28051760Y-12693140D01*
X28102560Y-8128760D02*
X28133040Y-8159240D01*
X28133040Y-8128760D02*
X28102560Y-8159240D01*
X28115260Y-10592560D02*
X28145740Y-10623040D01*
X28145740Y-10592560D02*
X28115260Y-10623040D01*
X28204160Y-7087360D02*
X28234640Y-7117840D01*
X28234640Y-7087360D02*
X28204160Y-7117840D01*
X28280360Y-14402560D02*
X28310840Y-14433040D01*
X28310840Y-14402560D02*
X28280360Y-14433040D01*
X28280360Y-14593060D02*
X28310840Y-14623540D01*
X28310840Y-14593060D02*
X28280360Y-14623540D01*
X28496260Y-8852660D02*
X28526740Y-8883140D01*
X28526740Y-8852660D02*
X28496260Y-8883140D01*
X28500070Y-8204960D02*
X28530550Y-8235440D01*
X28530550Y-8204960D02*
X28500070Y-8235440D01*
X28508960Y-8662160D02*
X28539440Y-8692640D01*
X28539440Y-8662160D02*
X28508960Y-8692640D01*
X28953460Y-10757660D02*
X28983940Y-10788140D01*
X28983940Y-10757660D02*
X28953460Y-10788140D01*
X28966160Y-10554460D02*
X28996640Y-10584940D01*
X28996640Y-10554460D02*
X28966160Y-10584940D01*
X29016960Y-12827760D02*
X29047440Y-12858240D01*
X29047440Y-12827760D02*
X29016960Y-12858240D01*
X29194760Y-12510260D02*
X29225240Y-12540740D01*
X29225240Y-12510260D02*
X29194760Y-12540740D01*
X29258260Y-14732760D02*
X29288740Y-14763240D01*
X29288740Y-14732760D02*
X29258260Y-14763240D01*
X29283660Y-14389860D02*
X29314140Y-14420340D01*
X29314140Y-14389860D02*
X29283660Y-14420340D01*
X29385260Y-12815060D02*
X29415740Y-12845540D01*
X29415740Y-12815060D02*
X29385260Y-12845540D01*
X29423360Y-6757160D02*
X29453840Y-6787640D01*
X29453840Y-6757160D02*
X29423360Y-6787640D01*
X29436060Y-10097260D02*
X29466540Y-10127740D01*
X29466540Y-10097260D02*
X29436060Y-10127740D01*
X29499560Y-8128760D02*
X29530040Y-8159240D01*
X29530040Y-8128760D02*
X29499560Y-8159240D01*
X29626560Y-8687560D02*
X29657040Y-8718040D01*
X29657040Y-8687560D02*
X29626560Y-8718040D01*
X29677360Y-13805660D02*
X29707840Y-13836140D01*
X29707840Y-13805660D02*
X29677360Y-13836140D01*
X29855160Y-13894560D02*
X29885640Y-13925040D01*
X29885640Y-13894560D02*
X29855160Y-13925040D01*
X29931360Y-12004801D02*
X29961840Y-12035281D01*
X29961840Y-12004801D02*
X29931360Y-12035281D01*
X30058360Y-10579860D02*
X30088840Y-10610340D01*
X30088840Y-10579860D02*
X30058360Y-10610340D01*
X30083760Y-8128760D02*
X30114240Y-8159240D01*
X30114240Y-8128760D02*
X30083760Y-8159240D01*
X30109160Y-7087360D02*
X30139640Y-7117840D01*
X30139640Y-7087360D02*
X30109160Y-7117840D01*
X30388560Y-8204960D02*
X30419040Y-8235440D01*
X30419040Y-8204960D02*
X30388560Y-8235440D01*
X30413960Y-8865360D02*
X30444440Y-8895840D01*
X30444440Y-8865360D02*
X30413960Y-8895840D01*
X30436260Y-8671760D02*
X30466740Y-8702240D01*
X30466740Y-8671760D02*
X30436260Y-8702240D01*
X30642560Y-14389860D02*
X30673040Y-14420340D01*
X30673040Y-14389860D02*
X30642560Y-14420340D01*
X30655260Y-10109960D02*
X30685740Y-10140440D01*
X30685740Y-10109960D02*
X30655260Y-10140440D01*
X30667960Y-14580360D02*
X30698440Y-14610840D01*
X30698440Y-14580360D02*
X30667960Y-14610840D01*
X31145809Y-8121576D02*
X31176289Y-8152056D01*
X31176289Y-8121576D02*
X31145809Y-8152056D01*
X31417260Y-13805660D02*
X31447740Y-13836140D01*
X31447740Y-13805660D02*
X31417260Y-13836140D01*
X31531560Y-8674860D02*
X31562040Y-8705340D01*
X31562040Y-8674860D02*
X31531560Y-8705340D01*
X31556960Y-14707360D02*
X31587440Y-14737840D01*
X31587440Y-14707360D02*
X31556960Y-14737840D01*
X31582360Y-12662660D02*
X31612840Y-12693140D01*
X31612840Y-12662660D02*
X31582360Y-12693140D01*
X31734760Y-14364460D02*
X31765240Y-14394940D01*
X31765240Y-14364460D02*
X31734760Y-14394940D01*
X32090360Y-10770360D02*
X32120840Y-10800840D01*
X32120840Y-10770360D02*
X32090360Y-10800840D01*
X32103060Y-10592560D02*
X32133540Y-10623040D01*
X32133540Y-10592560D02*
X32103060Y-10623040D01*
X32293560Y-6769860D02*
X32324040Y-6800340D01*
X32324040Y-6769860D02*
X32293560Y-6800340D01*
X32357061Y-12332460D02*
X32387541Y-12362940D01*
X32387541Y-12332460D02*
X32357061Y-12362940D01*
X32687260Y-12827760D02*
X32717740Y-12858240D01*
X32717740Y-12827760D02*
X32687260Y-12858240D01*
X32725360Y-8852660D02*
X32755840Y-8883140D01*
X32755840Y-8852660D02*
X32725360Y-8883140D01*
X32763460Y-8662160D02*
X32793940Y-8692640D01*
X32793940Y-8662160D02*
X32763460Y-8692640D01*
X32953960Y-7087360D02*
X32984440Y-7117840D01*
X32984440Y-7087360D02*
X32953960Y-7117840D01*
X32953960Y-12815060D02*
X32984440Y-12845540D01*
X32984440Y-12815060D02*
X32953960Y-12845540D01*
X32992060Y-14580360D02*
X33022540Y-14610840D01*
X33022540Y-14580360D02*
X32992060Y-14610840D01*
X33004760Y-14364460D02*
X33035240Y-14394940D01*
X33035240Y-14364460D02*
X33004760Y-14394940D01*
X33042860Y-10097260D02*
X33073340Y-10127740D01*
X33073340Y-10097260D02*
X33042860Y-10127740D01*
X33246060Y-8204960D02*
X33276540Y-8235440D01*
X33276540Y-8204960D02*
X33246060Y-8235440D01*
X33373060Y-10719560D02*
X33403540Y-10750040D01*
X33403540Y-10719560D02*
X33373060Y-10750040D01*
X33563560Y-6807960D02*
X33594040Y-6838440D01*
X33594040Y-6807960D02*
X33563560Y-6838440D01*
X33703260Y-8382760D02*
X33733740Y-8413240D01*
X33733740Y-8382760D02*
X33703260Y-8413240D01*
X33792160Y-8687560D02*
X33822640Y-8718040D01*
X33822640Y-8687560D02*
X33792160Y-8718040D01*
X33792160Y-11468860D02*
X33822640Y-11499340D01*
X33822640Y-11468860D02*
X33792160Y-11499340D01*
X33919160Y-14745460D02*
X33949640Y-14775940D01*
X33949640Y-14745460D02*
X33919160Y-14775940D01*
D13*
X16869900Y-14671300D02*
G75*
G03*
X16869900Y-14671300I-17500J0D01*
G01*
X16869900Y-14798800D02*
G75*
G03*
X16869900Y-14798800I-17500J0D01*
G01*
X16869900Y-14926300D02*
G75*
G03*
X16869900Y-14926300I-17500J0D01*
G01*
X16997400Y-14671300D02*
G75*
G03*
X16997400Y-14671300I-17500J0D01*
G01*
X16997400Y-14798800D02*
G75*
G03*
X16997400Y-14798800I-17500J0D01*
G01*
X16997400Y-14926300D02*
G75*
G03*
X16997400Y-14926300I-17500J0D01*
G01*
X17124900Y-14671300D02*
G75*
G03*
X17124900Y-14671300I-17500J0D01*
G01*
X17124900Y-14798800D02*
G75*
G03*
X17124900Y-14798800I-17500J0D01*
G01*
X17124900Y-14926300D02*
G75*
G03*
X17124900Y-14926300I-17500J0D01*
G01*
D14*
X7619800Y-6535800D02*
X7619800Y-6595800D01*
X7589800Y-6565800D02*
X7649800Y-6565800D01*
D11*
X7589800Y-6535800D02*
X7589800Y-6595800D01*
X7649800Y-6535800D02*
X7649800Y-6595800D01*
X7589800Y-6595800D02*
G75*
G03*
X7649800Y-6595800I30000J0D01*
G01*
X7649800Y-6535800D02*
G75*
G03*
X7589800Y-6535800I-30000J0D01*
G01*
D14*
X7619800Y-6953800D02*
X7619800Y-7013800D01*
X7589800Y-6983800D02*
X7649800Y-6983800D01*
D11*
X7589800Y-6928800D02*
X7589800Y-7038800D01*
X7649800Y-6928800D02*
X7649800Y-7038800D01*
X7589800Y-7038800D02*
G75*
G03*
X7649800Y-7038800I30000J0D01*
G01*
X7649800Y-6928800D02*
G75*
G03*
X7589800Y-6928800I-30000J0D01*
G01*
D14*
X8483800Y-6535800D02*
X8483800Y-6595800D01*
X8453800Y-6565800D02*
X8513800Y-6565800D01*
D11*
X8453800Y-6535800D02*
X8453800Y-6595800D01*
X8513800Y-6535800D02*
X8513800Y-6595800D01*
X8453800Y-6595800D02*
G75*
G03*
X8513800Y-6595800I30000J0D01*
G01*
X8513800Y-6535800D02*
G75*
G03*
X8453800Y-6535800I-30000J0D01*
G01*
D14*
X8483800Y-6953800D02*
X8483800Y-7013800D01*
X8453800Y-6983800D02*
X8513800Y-6983800D01*
D11*
X8453800Y-6928800D02*
X8453800Y-7038800D01*
X8513800Y-6928800D02*
X8513800Y-7038800D01*
X8453800Y-7038800D02*
G75*
G03*
X8513800Y-7038800I30000J0D01*
G01*
X8513800Y-6928800D02*
G75*
G03*
X8453800Y-6928800I-30000J0D01*
G01*
D15*
X17637556Y-15646956D02*
X17637556Y-15576244D01*
X17566844Y-15576244D01*
X17566844Y-15646956D01*
X17637556Y-15646956D01*
X17891556Y-15646956D02*
X17891556Y-15576244D01*
X17820844Y-15576244D01*
X17820844Y-15646956D01*
X17891556Y-15646956D01*
X18145556Y-15646956D02*
X18145556Y-15576244D01*
X18074844Y-15576244D01*
X18074844Y-15646956D01*
X18145556Y-15646956D01*
X20672856Y-14846856D02*
X20672856Y-14776144D01*
X20602144Y-14776144D01*
X20602144Y-14846856D01*
X20672856Y-14846856D01*
X20926856Y-14846856D02*
X20926856Y-14776144D01*
X20856144Y-14776144D01*
X20856144Y-14846856D01*
X20926856Y-14846856D01*
X21180856Y-14846856D02*
X21180856Y-14776144D01*
X21110144Y-14776144D01*
X21110144Y-14846856D01*
X21180856Y-14846856D01*
X21180856Y-15608856D02*
X21180856Y-15538144D01*
X21110144Y-15538144D01*
X21110144Y-15608856D01*
X21180856Y-15608856D01*
X21434856Y-14846856D02*
X21434856Y-14776144D01*
X21364144Y-14776144D01*
X21364144Y-14846856D01*
X21434856Y-14846856D01*
X21434856Y-15608856D02*
X21434856Y-15538144D01*
X21364144Y-15538144D01*
X21364144Y-15608856D01*
X21434856Y-15608856D01*
X21688856Y-14846856D02*
X21688856Y-14776144D01*
X21618144Y-14776144D01*
X21618144Y-14846856D01*
X21688856Y-14846856D01*
X21688856Y-15608856D02*
X21688856Y-15538144D01*
X21618144Y-15538144D01*
X21618144Y-15608856D01*
X21688856Y-15608856D01*
X21942856Y-14846856D02*
X21942856Y-14776144D01*
X21872144Y-14776144D01*
X21872144Y-14846856D01*
X21942856Y-14846856D01*
X21942856Y-15608856D02*
X21942856Y-15538144D01*
X21872144Y-15538144D01*
X21872144Y-15608856D01*
X21942856Y-15608856D01*
D16*
X8748930Y-9377048D02*
X8873898Y-9252080D01*
X8748930Y-9127112D01*
X8623962Y-9252080D01*
X8748930Y-9377048D01*
X25282500Y-15152368D02*
X25407468Y-15027400D01*
X25282500Y-14902432D01*
X25157532Y-15027400D01*
X25282500Y-15152368D01*
D11*
X25157405Y-15152368D02*
X25407595Y-15152368D01*
X25157405Y-14902432D02*
X25407595Y-14902432D01*
X25407595Y-15152368D02*
G75*
G03*
X25407595Y-14902432I0J124968D01*
G01*
X25157405Y-14902432D02*
G75*
G03*
X25157405Y-15152368I0J-124968D01*
G01*
D16*
X32194500Y-9411968D02*
X32319468Y-9287000D01*
X32194500Y-9162032D01*
X32069532Y-9287000D01*
X32194500Y-9411968D01*
D11*
X32069405Y-9411968D02*
X32319595Y-9411968D01*
X32069405Y-9162032D02*
X32319595Y-9162032D01*
X32319595Y-9411968D02*
G75*
G03*
X32319595Y-9162032I0J124968D01*
G01*
X32069405Y-9162032D02*
G75*
G03*
X32069405Y-9411968I0J-124968D01*
G01*
X6482016Y-16206304D02*
X6482016Y-16006304D01*
X6529635Y-16006304D01*
X6558206Y-16015828D01*
X6577254Y-16034876D01*
X6586778Y-16053923D01*
X6596302Y-16092018D01*
X6596302Y-16120590D01*
X6586778Y-16158685D01*
X6577254Y-16177733D01*
X6558206Y-16196780D01*
X6529635Y-16206304D01*
X6482016Y-16206304D01*
X6682016Y-16206304D02*
X6682016Y-16072971D01*
X6682016Y-16111066D02*
X6691540Y-16092018D01*
X6701064Y-16082495D01*
X6720111Y-16072971D01*
X6739159Y-16072971D01*
X6805825Y-16206304D02*
X6805825Y-16072971D01*
X6805825Y-16006304D02*
X6796302Y-16015828D01*
X6805825Y-16025352D01*
X6815349Y-16015828D01*
X6805825Y-16006304D01*
X6805825Y-16025352D01*
X6929635Y-16206304D02*
X6910587Y-16196780D01*
X6901064Y-16177733D01*
X6901064Y-16006304D01*
X7034397Y-16206304D02*
X7015349Y-16196780D01*
X7005825Y-16177733D01*
X7005825Y-16006304D01*
X7262968Y-16206304D02*
X7262968Y-16006304D01*
X7329635Y-16149161D01*
X7396302Y-16006304D01*
X7396302Y-16206304D01*
X7577254Y-16206304D02*
X7577254Y-16101542D01*
X7567730Y-16082495D01*
X7548683Y-16072971D01*
X7510587Y-16072971D01*
X7491540Y-16082495D01*
X7577254Y-16196780D02*
X7558206Y-16206304D01*
X7510587Y-16206304D01*
X7491540Y-16196780D01*
X7482016Y-16177733D01*
X7482016Y-16158685D01*
X7491540Y-16139637D01*
X7510587Y-16130114D01*
X7558206Y-16130114D01*
X7577254Y-16120590D01*
X7672492Y-16072971D02*
X7672492Y-16272971D01*
X7672492Y-16082495D02*
X7691540Y-16072971D01*
X7729635Y-16072971D01*
X7748683Y-16082495D01*
X7758206Y-16092018D01*
X7767730Y-16111066D01*
X7767730Y-16168209D01*
X7758206Y-16187256D01*
X7748683Y-16196780D01*
X7729635Y-16206304D01*
X7691540Y-16206304D01*
X7672492Y-16196780D01*
X7853445Y-16187256D02*
X7862968Y-16196780D01*
X7853445Y-16206304D01*
X7843921Y-16196780D01*
X7853445Y-16187256D01*
X7853445Y-16206304D01*
X7853445Y-16082495D02*
X7862968Y-16092018D01*
X7853445Y-16101542D01*
X7843921Y-16092018D01*
X7853445Y-16082495D01*
X7853445Y-16101542D01*
D12*
X6193917Y-16520588D02*
X6224397Y-16551068D01*
X6224397Y-16520588D02*
X6193917Y-16551068D01*
D11*
X6520111Y-16426304D02*
X6539159Y-16426304D01*
X6558206Y-16435828D01*
X6567730Y-16445352D01*
X6577254Y-16464399D01*
X6586778Y-16502495D01*
X6586778Y-16550114D01*
X6577254Y-16588209D01*
X6567730Y-16607256D01*
X6558206Y-16616780D01*
X6539159Y-16626304D01*
X6520111Y-16626304D01*
X6501064Y-16616780D01*
X6491540Y-16607256D01*
X6482016Y-16588209D01*
X6472492Y-16550114D01*
X6472492Y-16502495D01*
X6482016Y-16464399D01*
X6491540Y-16445352D01*
X6501064Y-16435828D01*
X6520111Y-16426304D01*
X6672492Y-16607256D02*
X6682016Y-16616780D01*
X6672492Y-16626304D01*
X6662968Y-16616780D01*
X6672492Y-16607256D01*
X6672492Y-16626304D01*
X6748683Y-16426304D02*
X6872492Y-16426304D01*
X6805825Y-16502495D01*
X6834397Y-16502495D01*
X6853445Y-16512018D01*
X6862968Y-16521542D01*
X6872492Y-16540590D01*
X6872492Y-16588209D01*
X6862968Y-16607256D01*
X6853445Y-16616780D01*
X6834397Y-16626304D01*
X6777254Y-16626304D01*
X6758206Y-16616780D01*
X6748683Y-16607256D01*
X6996302Y-16426304D02*
X7015349Y-16426304D01*
X7034397Y-16435828D01*
X7043921Y-16445352D01*
X7053445Y-16464399D01*
X7062968Y-16502495D01*
X7062968Y-16550114D01*
X7053445Y-16588209D01*
X7043921Y-16607256D01*
X7034397Y-16616780D01*
X7015349Y-16626304D01*
X6996302Y-16626304D01*
X6977254Y-16616780D01*
X6967730Y-16607256D01*
X6958206Y-16588209D01*
X6948683Y-16550114D01*
X6948683Y-16502495D01*
X6958206Y-16464399D01*
X6967730Y-16445352D01*
X6977254Y-16435828D01*
X6996302Y-16426304D01*
X7243921Y-16426304D02*
X7148683Y-16426304D01*
X7139159Y-16521542D01*
X7148683Y-16512018D01*
X7167730Y-16502495D01*
X7215349Y-16502495D01*
X7234397Y-16512018D01*
X7243921Y-16521542D01*
X7253445Y-16540590D01*
X7253445Y-16588209D01*
X7243921Y-16607256D01*
X7234397Y-16616780D01*
X7215349Y-16626304D01*
X7167730Y-16626304D01*
X7148683Y-16616780D01*
X7139159Y-16607256D01*
X7339159Y-16626304D02*
X7339159Y-16492971D01*
X7339159Y-16512018D02*
X7348683Y-16502495D01*
X7367730Y-16492971D01*
X7396302Y-16492971D01*
X7415349Y-16502495D01*
X7424873Y-16521542D01*
X7424873Y-16626304D01*
X7424873Y-16521542D02*
X7434397Y-16502495D01*
X7453445Y-16492971D01*
X7482016Y-16492971D01*
X7501064Y-16502495D01*
X7510587Y-16521542D01*
X7510587Y-16626304D01*
X7605825Y-16626304D02*
X7605825Y-16492971D01*
X7605825Y-16512018D02*
X7615349Y-16502495D01*
X7634397Y-16492971D01*
X7662968Y-16492971D01*
X7682016Y-16502495D01*
X7691540Y-16521542D01*
X7691540Y-16626304D01*
X7691540Y-16521542D02*
X7701064Y-16502495D01*
X7720111Y-16492971D01*
X7748683Y-16492971D01*
X7767730Y-16502495D01*
X7777254Y-16521542D01*
X7777254Y-16626304D01*
X8167730Y-16416780D02*
X7996302Y-16673923D01*
X8424873Y-16426304D02*
X8443921Y-16426304D01*
X8462968Y-16435828D01*
X8472492Y-16445352D01*
X8482016Y-16464399D01*
X8491540Y-16502495D01*
X8491540Y-16550114D01*
X8482016Y-16588209D01*
X8472492Y-16607256D01*
X8462968Y-16616780D01*
X8443921Y-16626304D01*
X8424873Y-16626304D01*
X8405826Y-16616780D01*
X8396302Y-16607256D01*
X8386778Y-16588209D01*
X8377254Y-16550114D01*
X8377254Y-16502495D01*
X8386778Y-16464399D01*
X8396302Y-16445352D01*
X8405826Y-16435828D01*
X8424873Y-16426304D01*
X8577254Y-16607256D02*
X8586778Y-16616780D01*
X8577254Y-16626304D01*
X8567730Y-16616780D01*
X8577254Y-16607256D01*
X8577254Y-16626304D01*
X8710587Y-16426304D02*
X8729635Y-16426304D01*
X8748683Y-16435828D01*
X8758207Y-16445352D01*
X8767730Y-16464399D01*
X8777254Y-16502495D01*
X8777254Y-16550114D01*
X8767730Y-16588209D01*
X8758207Y-16607256D01*
X8748683Y-16616780D01*
X8729635Y-16626304D01*
X8710587Y-16626304D01*
X8691540Y-16616780D01*
X8682016Y-16607256D01*
X8672492Y-16588209D01*
X8662968Y-16550114D01*
X8662968Y-16502495D01*
X8672492Y-16464399D01*
X8682016Y-16445352D01*
X8691540Y-16435828D01*
X8710587Y-16426304D01*
X8967730Y-16626304D02*
X8853445Y-16626304D01*
X8910587Y-16626304D02*
X8910587Y-16426304D01*
X8891540Y-16454876D01*
X8872492Y-16473923D01*
X8853445Y-16483447D01*
X9043921Y-16445352D02*
X9053445Y-16435828D01*
X9072492Y-16426304D01*
X9120111Y-16426304D01*
X9139159Y-16435828D01*
X9148683Y-16445352D01*
X9158207Y-16464399D01*
X9158207Y-16483447D01*
X9148683Y-16512018D01*
X9034397Y-16626304D01*
X9158207Y-16626304D01*
X9282016Y-16426304D02*
X9301064Y-16426304D01*
X9320111Y-16435828D01*
X9329635Y-16445352D01*
X9339159Y-16464399D01*
X9348683Y-16502495D01*
X9348683Y-16550114D01*
X9339159Y-16588209D01*
X9329635Y-16607256D01*
X9320111Y-16616780D01*
X9301064Y-16626304D01*
X9282016Y-16626304D01*
X9262968Y-16616780D01*
X9253445Y-16607256D01*
X9243921Y-16588209D01*
X9234397Y-16550114D01*
X9234397Y-16502495D01*
X9243921Y-16464399D01*
X9253445Y-16445352D01*
X9262968Y-16435828D01*
X9282016Y-16426304D01*
X9424873Y-16426304D02*
X9424873Y-16464399D01*
X9501064Y-16426304D02*
X9501064Y-16464399D01*
X9796302Y-16702495D02*
X9786778Y-16692971D01*
X9767730Y-16664399D01*
X9758207Y-16645352D01*
X9748683Y-16616780D01*
X9739159Y-16569161D01*
X9739159Y-16531066D01*
X9748683Y-16483447D01*
X9758207Y-16454876D01*
X9767730Y-16435828D01*
X9786778Y-16407256D01*
X9796302Y-16397733D01*
X9853445Y-16426304D02*
X9977254Y-16426304D01*
X9910587Y-16502495D01*
X9939159Y-16502495D01*
X9958207Y-16512018D01*
X9967730Y-16521542D01*
X9977254Y-16540590D01*
X9977254Y-16588209D01*
X9967730Y-16607256D01*
X9958207Y-16616780D01*
X9939159Y-16626304D01*
X9882016Y-16626304D01*
X9862968Y-16616780D01*
X9853445Y-16607256D01*
X10158207Y-16426304D02*
X10062968Y-16426304D01*
X10053445Y-16521542D01*
X10062968Y-16512018D01*
X10082016Y-16502495D01*
X10129635Y-16502495D01*
X10148683Y-16512018D01*
X10158207Y-16521542D01*
X10167730Y-16540590D01*
X10167730Y-16588209D01*
X10158207Y-16607256D01*
X10148683Y-16616780D01*
X10129635Y-16626304D01*
X10082016Y-16626304D01*
X10062968Y-16616780D01*
X10053445Y-16607256D01*
X10234397Y-16426304D02*
X10358207Y-16426304D01*
X10291540Y-16502495D01*
X10320111Y-16502495D01*
X10339159Y-16512018D01*
X10348683Y-16521542D01*
X10358207Y-16540590D01*
X10358207Y-16588209D01*
X10348683Y-16607256D01*
X10339159Y-16616780D01*
X10320111Y-16626304D01*
X10262968Y-16626304D01*
X10243921Y-16616780D01*
X10234397Y-16607256D01*
X10596302Y-16626304D02*
X10596302Y-16426304D01*
X10682016Y-16626304D02*
X10682016Y-16521542D01*
X10672492Y-16502495D01*
X10653445Y-16492971D01*
X10624873Y-16492971D01*
X10605826Y-16502495D01*
X10596302Y-16512018D01*
X10805826Y-16626304D02*
X10786778Y-16616780D01*
X10777254Y-16607256D01*
X10767730Y-16588209D01*
X10767730Y-16531066D01*
X10777254Y-16512018D01*
X10786778Y-16502495D01*
X10805826Y-16492971D01*
X10834397Y-16492971D01*
X10853445Y-16502495D01*
X10862968Y-16512018D01*
X10872492Y-16531066D01*
X10872492Y-16588209D01*
X10862968Y-16607256D01*
X10853445Y-16616780D01*
X10834397Y-16626304D01*
X10805826Y-16626304D01*
X10986778Y-16626304D02*
X10967730Y-16616780D01*
X10958207Y-16597733D01*
X10958207Y-16426304D01*
X11139159Y-16616780D02*
X11120111Y-16626304D01*
X11082016Y-16626304D01*
X11062968Y-16616780D01*
X11053445Y-16597733D01*
X11053445Y-16521542D01*
X11062968Y-16502495D01*
X11082016Y-16492971D01*
X11120111Y-16492971D01*
X11139159Y-16502495D01*
X11148683Y-16521542D01*
X11148683Y-16540590D01*
X11053445Y-16559637D01*
X11224873Y-16616780D02*
X11243921Y-16626304D01*
X11282016Y-16626304D01*
X11301064Y-16616780D01*
X11310587Y-16597733D01*
X11310587Y-16588209D01*
X11301064Y-16569161D01*
X11282016Y-16559637D01*
X11253445Y-16559637D01*
X11234397Y-16550114D01*
X11224873Y-16531066D01*
X11224873Y-16521542D01*
X11234397Y-16502495D01*
X11253445Y-16492971D01*
X11282016Y-16492971D01*
X11301064Y-16502495D01*
X11377254Y-16702495D02*
X11386778Y-16692971D01*
X11405825Y-16664399D01*
X11415349Y-16645352D01*
X11424873Y-16616780D01*
X11434397Y-16569161D01*
X11434397Y-16531066D01*
X11424873Y-16483447D01*
X11415349Y-16454876D01*
X11405825Y-16435828D01*
X11386778Y-16407256D01*
X11377254Y-16397733D01*
D13*
X6224397Y-16799828D02*
G75*
G03*
X6224397Y-16799828I-17500J0D01*
G01*
D11*
X6520111Y-16690304D02*
X6539159Y-16690304D01*
X6558206Y-16699828D01*
X6567730Y-16709352D01*
X6577254Y-16728399D01*
X6586778Y-16766495D01*
X6586778Y-16814114D01*
X6577254Y-16852209D01*
X6567730Y-16871257D01*
X6558206Y-16880780D01*
X6539159Y-16890304D01*
X6520111Y-16890304D01*
X6501064Y-16880780D01*
X6491540Y-16871257D01*
X6482016Y-16852209D01*
X6472492Y-16814114D01*
X6472492Y-16766495D01*
X6482016Y-16728399D01*
X6491540Y-16709352D01*
X6501064Y-16699828D01*
X6520111Y-16690304D01*
X6672492Y-16871257D02*
X6682016Y-16880780D01*
X6672492Y-16890304D01*
X6662968Y-16880780D01*
X6672492Y-16871257D01*
X6672492Y-16890304D01*
X6748683Y-16690304D02*
X6872492Y-16690304D01*
X6805825Y-16766495D01*
X6834397Y-16766495D01*
X6853445Y-16776018D01*
X6862968Y-16785542D01*
X6872492Y-16804590D01*
X6872492Y-16852209D01*
X6862968Y-16871257D01*
X6853445Y-16880780D01*
X6834397Y-16890304D01*
X6777254Y-16890304D01*
X6758206Y-16880780D01*
X6748683Y-16871257D01*
X7053445Y-16690304D02*
X6958206Y-16690304D01*
X6948683Y-16785542D01*
X6958206Y-16776018D01*
X6977254Y-16766495D01*
X7024873Y-16766495D01*
X7043921Y-16776018D01*
X7053445Y-16785542D01*
X7062968Y-16804590D01*
X7062968Y-16852209D01*
X7053445Y-16871257D01*
X7043921Y-16880780D01*
X7024873Y-16890304D01*
X6977254Y-16890304D01*
X6958206Y-16880780D01*
X6948683Y-16871257D01*
X7186778Y-16690304D02*
X7205825Y-16690304D01*
X7224873Y-16699828D01*
X7234397Y-16709352D01*
X7243921Y-16728399D01*
X7253445Y-16766495D01*
X7253445Y-16814114D01*
X7243921Y-16852209D01*
X7234397Y-16871257D01*
X7224873Y-16880780D01*
X7205825Y-16890304D01*
X7186778Y-16890304D01*
X7167730Y-16880780D01*
X7158206Y-16871257D01*
X7148683Y-16852209D01*
X7139159Y-16814114D01*
X7139159Y-16766495D01*
X7148683Y-16728399D01*
X7158206Y-16709352D01*
X7167730Y-16699828D01*
X7186778Y-16690304D01*
X7339159Y-16890304D02*
X7339159Y-16756971D01*
X7339159Y-16776018D02*
X7348683Y-16766495D01*
X7367730Y-16756971D01*
X7396302Y-16756971D01*
X7415349Y-16766495D01*
X7424873Y-16785542D01*
X7424873Y-16890304D01*
X7424873Y-16785542D02*
X7434397Y-16766495D01*
X7453445Y-16756971D01*
X7482016Y-16756971D01*
X7501064Y-16766495D01*
X7510587Y-16785542D01*
X7510587Y-16890304D01*
X7605825Y-16890304D02*
X7605825Y-16756971D01*
X7605825Y-16776018D02*
X7615349Y-16766495D01*
X7634397Y-16756971D01*
X7662968Y-16756971D01*
X7682016Y-16766495D01*
X7691540Y-16785542D01*
X7691540Y-16890304D01*
X7691540Y-16785542D02*
X7701064Y-16766495D01*
X7720111Y-16756971D01*
X7748683Y-16756971D01*
X7767730Y-16766495D01*
X7777254Y-16785542D01*
X7777254Y-16890304D01*
X8167730Y-16680780D02*
X7996302Y-16937923D01*
X8424873Y-16690304D02*
X8443921Y-16690304D01*
X8462968Y-16699828D01*
X8472492Y-16709352D01*
X8482016Y-16728399D01*
X8491540Y-16766495D01*
X8491540Y-16814114D01*
X8482016Y-16852209D01*
X8472492Y-16871257D01*
X8462968Y-16880780D01*
X8443921Y-16890304D01*
X8424873Y-16890304D01*
X8405826Y-16880780D01*
X8396302Y-16871257D01*
X8386778Y-16852209D01*
X8377254Y-16814114D01*
X8377254Y-16766495D01*
X8386778Y-16728399D01*
X8396302Y-16709352D01*
X8405826Y-16699828D01*
X8424873Y-16690304D01*
X8577254Y-16871257D02*
X8586778Y-16880780D01*
X8577254Y-16890304D01*
X8567730Y-16880780D01*
X8577254Y-16871257D01*
X8577254Y-16890304D01*
X8710587Y-16690304D02*
X8729635Y-16690304D01*
X8748683Y-16699828D01*
X8758207Y-16709352D01*
X8767730Y-16728399D01*
X8777254Y-16766495D01*
X8777254Y-16814114D01*
X8767730Y-16852209D01*
X8758207Y-16871257D01*
X8748683Y-16880780D01*
X8729635Y-16890304D01*
X8710587Y-16890304D01*
X8691540Y-16880780D01*
X8682016Y-16871257D01*
X8672492Y-16852209D01*
X8662968Y-16814114D01*
X8662968Y-16766495D01*
X8672492Y-16728399D01*
X8682016Y-16709352D01*
X8691540Y-16699828D01*
X8710587Y-16690304D01*
X8967730Y-16890304D02*
X8853445Y-16890304D01*
X8910587Y-16890304D02*
X8910587Y-16690304D01*
X8891540Y-16718876D01*
X8872492Y-16737923D01*
X8853445Y-16747447D01*
X9034397Y-16690304D02*
X9158207Y-16690304D01*
X9091540Y-16766495D01*
X9120111Y-16766495D01*
X9139159Y-16776018D01*
X9148683Y-16785542D01*
X9158207Y-16804590D01*
X9158207Y-16852209D01*
X9148683Y-16871257D01*
X9139159Y-16880780D01*
X9120111Y-16890304D01*
X9062968Y-16890304D01*
X9043921Y-16880780D01*
X9034397Y-16871257D01*
X9272492Y-16776018D02*
X9253445Y-16766495D01*
X9243921Y-16756971D01*
X9234397Y-16737923D01*
X9234397Y-16728399D01*
X9243921Y-16709352D01*
X9253445Y-16699828D01*
X9272492Y-16690304D01*
X9310587Y-16690304D01*
X9329635Y-16699828D01*
X9339159Y-16709352D01*
X9348683Y-16728399D01*
X9348683Y-16737923D01*
X9339159Y-16756971D01*
X9329635Y-16766495D01*
X9310587Y-16776018D01*
X9272492Y-16776018D01*
X9253445Y-16785542D01*
X9243921Y-16795066D01*
X9234397Y-16814114D01*
X9234397Y-16852209D01*
X9243921Y-16871257D01*
X9253445Y-16880780D01*
X9272492Y-16890304D01*
X9310587Y-16890304D01*
X9329635Y-16880780D01*
X9339159Y-16871257D01*
X9348683Y-16852209D01*
X9348683Y-16814114D01*
X9339159Y-16795066D01*
X9329635Y-16785542D01*
X9310587Y-16776018D01*
X9424873Y-16690304D02*
X9424873Y-16728399D01*
X9501064Y-16690304D02*
X9501064Y-16728399D01*
X9796302Y-16966495D02*
X9786778Y-16956971D01*
X9767730Y-16928399D01*
X9758207Y-16909352D01*
X9748683Y-16880780D01*
X9739159Y-16833161D01*
X9739159Y-16795066D01*
X9748683Y-16747447D01*
X9758207Y-16718876D01*
X9767730Y-16699828D01*
X9786778Y-16671256D01*
X9796302Y-16661733D01*
X9882016Y-16890304D02*
X9920111Y-16890304D01*
X9939159Y-16880780D01*
X9948683Y-16871257D01*
X9967730Y-16842685D01*
X9977254Y-16804590D01*
X9977254Y-16728399D01*
X9967730Y-16709352D01*
X9958207Y-16699828D01*
X9939159Y-16690304D01*
X9901064Y-16690304D01*
X9882016Y-16699828D01*
X9872492Y-16709352D01*
X9862968Y-16728399D01*
X9862968Y-16776018D01*
X9872492Y-16795066D01*
X9882016Y-16804590D01*
X9901064Y-16814114D01*
X9939159Y-16814114D01*
X9958207Y-16804590D01*
X9967730Y-16795066D01*
X9977254Y-16776018D01*
X10215349Y-16890304D02*
X10215349Y-16690304D01*
X10301064Y-16890304D02*
X10301064Y-16785542D01*
X10291540Y-16766495D01*
X10272492Y-16756971D01*
X10243921Y-16756971D01*
X10224873Y-16766495D01*
X10215349Y-16776018D01*
X10424873Y-16890304D02*
X10405826Y-16880780D01*
X10396302Y-16871257D01*
X10386778Y-16852209D01*
X10386778Y-16795066D01*
X10396302Y-16776018D01*
X10405826Y-16766495D01*
X10424873Y-16756971D01*
X10453445Y-16756971D01*
X10472492Y-16766495D01*
X10482016Y-16776018D01*
X10491540Y-16795066D01*
X10491540Y-16852209D01*
X10482016Y-16871257D01*
X10472492Y-16880780D01*
X10453445Y-16890304D01*
X10424873Y-16890304D01*
X10605826Y-16890304D02*
X10586778Y-16880780D01*
X10577254Y-16861733D01*
X10577254Y-16690304D01*
X10758207Y-16880780D02*
X10739159Y-16890304D01*
X10701064Y-16890304D01*
X10682016Y-16880780D01*
X10672492Y-16861733D01*
X10672492Y-16785542D01*
X10682016Y-16766495D01*
X10701064Y-16756971D01*
X10739159Y-16756971D01*
X10758207Y-16766495D01*
X10767730Y-16785542D01*
X10767730Y-16804590D01*
X10672492Y-16823638D01*
X10843921Y-16880780D02*
X10862968Y-16890304D01*
X10901064Y-16890304D01*
X10920111Y-16880780D01*
X10929635Y-16861733D01*
X10929635Y-16852209D01*
X10920111Y-16833161D01*
X10901064Y-16823638D01*
X10872492Y-16823638D01*
X10853445Y-16814114D01*
X10843921Y-16795066D01*
X10843921Y-16785542D01*
X10853445Y-16766495D01*
X10872492Y-16756971D01*
X10901064Y-16756971D01*
X10920111Y-16766495D01*
X10996302Y-16966495D02*
X11005826Y-16956971D01*
X11024873Y-16928399D01*
X11034397Y-16909352D01*
X11043921Y-16880780D01*
X11053445Y-16833161D01*
X11053445Y-16795066D01*
X11043921Y-16747447D01*
X11034397Y-16718876D01*
X11024873Y-16699828D01*
X11005826Y-16671256D01*
X10996302Y-16661733D01*
D14*
X6194397Y-17033828D02*
X6194397Y-17093828D01*
X6164397Y-17063828D02*
X6224397Y-17063828D01*
D11*
X6520111Y-16954304D02*
X6539159Y-16954304D01*
X6558206Y-16963828D01*
X6567730Y-16973352D01*
X6577254Y-16992399D01*
X6586778Y-17030495D01*
X6586778Y-17078114D01*
X6577254Y-17116209D01*
X6567730Y-17135257D01*
X6558206Y-17144780D01*
X6539159Y-17154304D01*
X6520111Y-17154304D01*
X6501064Y-17144780D01*
X6491540Y-17135257D01*
X6482016Y-17116209D01*
X6472492Y-17078114D01*
X6472492Y-17030495D01*
X6482016Y-16992399D01*
X6491540Y-16973352D01*
X6501064Y-16963828D01*
X6520111Y-16954304D01*
X6672492Y-17135257D02*
X6682016Y-17144780D01*
X6672492Y-17154304D01*
X6662968Y-17144780D01*
X6672492Y-17135257D01*
X6672492Y-17154304D01*
X6853445Y-16954304D02*
X6815349Y-16954304D01*
X6796302Y-16963828D01*
X6786778Y-16973352D01*
X6767730Y-17001923D01*
X6758206Y-17040018D01*
X6758206Y-17116209D01*
X6767730Y-17135257D01*
X6777254Y-17144780D01*
X6796302Y-17154304D01*
X6834397Y-17154304D01*
X6853445Y-17144780D01*
X6862968Y-17135257D01*
X6872492Y-17116209D01*
X6872492Y-17068590D01*
X6862968Y-17049542D01*
X6853445Y-17040018D01*
X6834397Y-17030495D01*
X6796302Y-17030495D01*
X6777254Y-17040018D01*
X6767730Y-17049542D01*
X6758206Y-17068590D01*
X6996302Y-16954304D02*
X7015349Y-16954304D01*
X7034397Y-16963828D01*
X7043921Y-16973352D01*
X7053445Y-16992399D01*
X7062968Y-17030495D01*
X7062968Y-17078114D01*
X7053445Y-17116209D01*
X7043921Y-17135257D01*
X7034397Y-17144780D01*
X7015349Y-17154304D01*
X6996302Y-17154304D01*
X6977254Y-17144780D01*
X6967730Y-17135257D01*
X6958206Y-17116209D01*
X6948683Y-17078114D01*
X6948683Y-17030495D01*
X6958206Y-16992399D01*
X6967730Y-16973352D01*
X6977254Y-16963828D01*
X6996302Y-16954304D01*
X7186778Y-16954304D02*
X7205825Y-16954304D01*
X7224873Y-16963828D01*
X7234397Y-16973352D01*
X7243921Y-16992399D01*
X7253445Y-17030495D01*
X7253445Y-17078114D01*
X7243921Y-17116209D01*
X7234397Y-17135257D01*
X7224873Y-17144780D01*
X7205825Y-17154304D01*
X7186778Y-17154304D01*
X7167730Y-17144780D01*
X7158206Y-17135257D01*
X7148683Y-17116209D01*
X7139159Y-17078114D01*
X7139159Y-17030495D01*
X7148683Y-16992399D01*
X7158206Y-16973352D01*
X7167730Y-16963828D01*
X7186778Y-16954304D01*
X7339159Y-17154304D02*
X7339159Y-17020971D01*
X7339159Y-17040018D02*
X7348683Y-17030495D01*
X7367730Y-17020971D01*
X7396302Y-17020971D01*
X7415349Y-17030495D01*
X7424873Y-17049542D01*
X7424873Y-17154304D01*
X7424873Y-17049542D02*
X7434397Y-17030495D01*
X7453445Y-17020971D01*
X7482016Y-17020971D01*
X7501064Y-17030495D01*
X7510587Y-17049542D01*
X7510587Y-17154304D01*
X7605825Y-17154304D02*
X7605825Y-17020971D01*
X7605825Y-17040018D02*
X7615349Y-17030495D01*
X7634397Y-17020971D01*
X7662968Y-17020971D01*
X7682016Y-17030495D01*
X7691540Y-17049542D01*
X7691540Y-17154304D01*
X7691540Y-17049542D02*
X7701064Y-17030495D01*
X7720111Y-17020971D01*
X7748683Y-17020971D01*
X7767730Y-17030495D01*
X7777254Y-17049542D01*
X7777254Y-17154304D01*
X8167730Y-16944780D02*
X7996302Y-17201923D01*
X8424873Y-16954304D02*
X8443921Y-16954304D01*
X8462968Y-16963828D01*
X8472492Y-16973352D01*
X8482016Y-16992399D01*
X8491540Y-17030495D01*
X8491540Y-17078114D01*
X8482016Y-17116209D01*
X8472492Y-17135257D01*
X8462968Y-17144780D01*
X8443921Y-17154304D01*
X8424873Y-17154304D01*
X8405826Y-17144780D01*
X8396302Y-17135257D01*
X8386778Y-17116209D01*
X8377254Y-17078114D01*
X8377254Y-17030495D01*
X8386778Y-16992399D01*
X8396302Y-16973352D01*
X8405826Y-16963828D01*
X8424873Y-16954304D01*
X8577254Y-17135257D02*
X8586778Y-17144780D01*
X8577254Y-17154304D01*
X8567730Y-17144780D01*
X8577254Y-17135257D01*
X8577254Y-17154304D01*
X8710587Y-16954304D02*
X8729635Y-16954304D01*
X8748683Y-16963828D01*
X8758207Y-16973352D01*
X8767730Y-16992399D01*
X8777254Y-17030495D01*
X8777254Y-17078114D01*
X8767730Y-17116209D01*
X8758207Y-17135257D01*
X8748683Y-17144780D01*
X8729635Y-17154304D01*
X8710587Y-17154304D01*
X8691540Y-17144780D01*
X8682016Y-17135257D01*
X8672492Y-17116209D01*
X8662968Y-17078114D01*
X8662968Y-17030495D01*
X8672492Y-16992399D01*
X8682016Y-16973352D01*
X8691540Y-16963828D01*
X8710587Y-16954304D01*
X8853445Y-16973352D02*
X8862968Y-16963828D01*
X8882016Y-16954304D01*
X8929635Y-16954304D01*
X8948683Y-16963828D01*
X8958207Y-16973352D01*
X8967730Y-16992399D01*
X8967730Y-17011447D01*
X8958207Y-17040018D01*
X8843921Y-17154304D01*
X8967730Y-17154304D01*
X9034397Y-16954304D02*
X9158207Y-16954304D01*
X9091540Y-17030495D01*
X9120111Y-17030495D01*
X9139159Y-17040018D01*
X9148683Y-17049542D01*
X9158207Y-17068590D01*
X9158207Y-17116209D01*
X9148683Y-17135257D01*
X9139159Y-17144780D01*
X9120111Y-17154304D01*
X9062968Y-17154304D01*
X9043921Y-17144780D01*
X9034397Y-17135257D01*
X9329635Y-16954304D02*
X9291540Y-16954304D01*
X9272492Y-16963828D01*
X9262968Y-16973352D01*
X9243921Y-17001923D01*
X9234397Y-17040018D01*
X9234397Y-17116209D01*
X9243921Y-17135257D01*
X9253445Y-17144780D01*
X9272492Y-17154304D01*
X9310587Y-17154304D01*
X9329635Y-17144780D01*
X9339159Y-17135257D01*
X9348683Y-17116209D01*
X9348683Y-17068590D01*
X9339159Y-17049542D01*
X9329635Y-17040018D01*
X9310587Y-17030495D01*
X9272492Y-17030495D01*
X9253445Y-17040018D01*
X9243921Y-17049542D01*
X9234397Y-17068590D01*
X9424873Y-16954304D02*
X9424873Y-16992399D01*
X9501064Y-16954304D02*
X9501064Y-16992399D01*
X9796302Y-17230495D02*
X9786778Y-17220971D01*
X9767730Y-17192399D01*
X9758207Y-17173352D01*
X9748683Y-17144780D01*
X9739159Y-17097161D01*
X9739159Y-17059066D01*
X9748683Y-17011447D01*
X9758207Y-16982876D01*
X9767730Y-16963828D01*
X9786778Y-16935257D01*
X9796302Y-16925733D01*
X9910587Y-16954304D02*
X9929635Y-16954304D01*
X9948683Y-16963828D01*
X9958207Y-16973352D01*
X9967730Y-16992399D01*
X9977254Y-17030495D01*
X9977254Y-17078114D01*
X9967730Y-17116209D01*
X9958207Y-17135257D01*
X9948683Y-17144780D01*
X9929635Y-17154304D01*
X9910587Y-17154304D01*
X9891540Y-17144780D01*
X9882016Y-17135257D01*
X9872492Y-17116209D01*
X9862968Y-17078114D01*
X9862968Y-17030495D01*
X9872492Y-16992399D01*
X9882016Y-16973352D01*
X9891540Y-16963828D01*
X9910587Y-16954304D01*
X10215349Y-17154304D02*
X10215349Y-16954304D01*
X10301064Y-17154304D02*
X10301064Y-17049542D01*
X10291540Y-17030495D01*
X10272492Y-17020971D01*
X10243921Y-17020971D01*
X10224873Y-17030495D01*
X10215349Y-17040018D01*
X10424873Y-17154304D02*
X10405826Y-17144780D01*
X10396302Y-17135257D01*
X10386778Y-17116209D01*
X10386778Y-17059066D01*
X10396302Y-17040018D01*
X10405826Y-17030495D01*
X10424873Y-17020971D01*
X10453445Y-17020971D01*
X10472492Y-17030495D01*
X10482016Y-17040018D01*
X10491540Y-17059066D01*
X10491540Y-17116209D01*
X10482016Y-17135257D01*
X10472492Y-17144780D01*
X10453445Y-17154304D01*
X10424873Y-17154304D01*
X10605826Y-17154304D02*
X10586778Y-17144780D01*
X10577254Y-17125733D01*
X10577254Y-16954304D01*
X10758207Y-17144780D02*
X10739159Y-17154304D01*
X10701064Y-17154304D01*
X10682016Y-17144780D01*
X10672492Y-17125733D01*
X10672492Y-17049542D01*
X10682016Y-17030495D01*
X10701064Y-17020971D01*
X10739159Y-17020971D01*
X10758207Y-17030495D01*
X10767730Y-17049542D01*
X10767730Y-17068590D01*
X10672492Y-17087638D01*
X10843921Y-17144780D02*
X10862968Y-17154304D01*
X10901064Y-17154304D01*
X10920111Y-17144780D01*
X10929635Y-17125733D01*
X10929635Y-17116209D01*
X10920111Y-17097161D01*
X10901064Y-17087638D01*
X10872492Y-17087638D01*
X10853445Y-17078114D01*
X10843921Y-17059066D01*
X10843921Y-17049542D01*
X10853445Y-17030495D01*
X10872492Y-17020971D01*
X10901064Y-17020971D01*
X10920111Y-17030495D01*
X11167730Y-17078114D02*
X11320111Y-17078114D01*
X11243921Y-17154304D02*
X11243921Y-17001923D01*
X11653445Y-17020971D02*
X11653445Y-17154304D01*
X11605825Y-16944780D02*
X11558206Y-17087638D01*
X11682016Y-17087638D01*
X11901064Y-17144780D02*
X11920111Y-17154304D01*
X11958206Y-17154304D01*
X11977254Y-17144780D01*
X11986778Y-17125733D01*
X11986778Y-17116209D01*
X11977254Y-17097161D01*
X11958206Y-17087638D01*
X11929635Y-17087638D01*
X11910587Y-17078114D01*
X11901064Y-17059066D01*
X11901064Y-17049542D01*
X11910587Y-17030495D01*
X11929635Y-17020971D01*
X11958206Y-17020971D01*
X11977254Y-17030495D01*
X12101064Y-17154304D02*
X12082016Y-17144780D01*
X12072492Y-17125733D01*
X12072492Y-16954304D01*
X12205825Y-17154304D02*
X12186778Y-17144780D01*
X12177254Y-17135257D01*
X12167730Y-17116209D01*
X12167730Y-17059066D01*
X12177254Y-17040018D01*
X12186778Y-17030495D01*
X12205825Y-17020971D01*
X12234397Y-17020971D01*
X12253445Y-17030495D01*
X12262968Y-17040018D01*
X12272492Y-17059066D01*
X12272492Y-17116209D01*
X12262968Y-17135257D01*
X12253445Y-17144780D01*
X12234397Y-17154304D01*
X12205825Y-17154304D01*
X12329635Y-17020971D02*
X12405825Y-17020971D01*
X12358206Y-16954304D02*
X12358206Y-17125733D01*
X12367730Y-17144780D01*
X12386778Y-17154304D01*
X12405825Y-17154304D01*
X12462968Y-17144780D02*
X12482016Y-17154304D01*
X12520111Y-17154304D01*
X12539159Y-17144780D01*
X12548683Y-17125733D01*
X12548683Y-17116209D01*
X12539159Y-17097161D01*
X12520111Y-17087638D01*
X12491540Y-17087638D01*
X12472492Y-17078114D01*
X12462968Y-17059066D01*
X12462968Y-17049542D01*
X12472492Y-17030495D01*
X12491540Y-17020971D01*
X12520111Y-17020971D01*
X12539159Y-17030495D01*
X12615349Y-17230495D02*
X12624873Y-17220971D01*
X12643921Y-17192399D01*
X12653445Y-17173352D01*
X12662968Y-17144780D01*
X12672492Y-17097161D01*
X12672492Y-17059066D01*
X12662968Y-17011447D01*
X12653445Y-16982876D01*
X12643921Y-16963828D01*
X12624873Y-16935257D01*
X12615349Y-16925733D01*
D15*
X6209753Y-17363184D02*
X6209753Y-17292472D01*
X6139041Y-17292472D01*
X6139041Y-17363184D01*
X6209753Y-17363184D01*
D11*
X6586778Y-17418304D02*
X6472492Y-17418304D01*
X6529635Y-17418304D02*
X6529635Y-17218304D01*
X6510587Y-17246876D01*
X6491540Y-17265923D01*
X6472492Y-17275447D01*
X6672492Y-17399257D02*
X6682016Y-17408780D01*
X6672492Y-17418304D01*
X6662968Y-17408780D01*
X6672492Y-17399257D01*
X6672492Y-17418304D01*
X6805825Y-17218304D02*
X6824873Y-17218304D01*
X6843921Y-17227828D01*
X6853445Y-17237352D01*
X6862968Y-17256399D01*
X6872492Y-17294495D01*
X6872492Y-17342114D01*
X6862968Y-17380209D01*
X6853445Y-17399257D01*
X6843921Y-17408780D01*
X6824873Y-17418304D01*
X6805825Y-17418304D01*
X6786778Y-17408780D01*
X6777254Y-17399257D01*
X6767730Y-17380209D01*
X6758206Y-17342114D01*
X6758206Y-17294495D01*
X6767730Y-17256399D01*
X6777254Y-17237352D01*
X6786778Y-17227828D01*
X6805825Y-17218304D01*
X6996302Y-17218304D02*
X7015349Y-17218304D01*
X7034397Y-17227828D01*
X7043921Y-17237352D01*
X7053445Y-17256399D01*
X7062968Y-17294495D01*
X7062968Y-17342114D01*
X7053445Y-17380209D01*
X7043921Y-17399257D01*
X7034397Y-17408780D01*
X7015349Y-17418304D01*
X6996302Y-17418304D01*
X6977254Y-17408780D01*
X6967730Y-17399257D01*
X6958206Y-17380209D01*
X6948683Y-17342114D01*
X6948683Y-17294495D01*
X6958206Y-17256399D01*
X6967730Y-17237352D01*
X6977254Y-17227828D01*
X6996302Y-17218304D01*
X7186778Y-17218304D02*
X7205825Y-17218304D01*
X7224873Y-17227828D01*
X7234397Y-17237352D01*
X7243921Y-17256399D01*
X7253445Y-17294495D01*
X7253445Y-17342114D01*
X7243921Y-17380209D01*
X7234397Y-17399257D01*
X7224873Y-17408780D01*
X7205825Y-17418304D01*
X7186778Y-17418304D01*
X7167730Y-17408780D01*
X7158206Y-17399257D01*
X7148683Y-17380209D01*
X7139159Y-17342114D01*
X7139159Y-17294495D01*
X7148683Y-17256399D01*
X7158206Y-17237352D01*
X7167730Y-17227828D01*
X7186778Y-17218304D01*
X7339159Y-17418304D02*
X7339159Y-17284971D01*
X7339159Y-17304018D02*
X7348683Y-17294495D01*
X7367730Y-17284971D01*
X7396302Y-17284971D01*
X7415349Y-17294495D01*
X7424873Y-17313542D01*
X7424873Y-17418304D01*
X7424873Y-17313542D02*
X7434397Y-17294495D01*
X7453445Y-17284971D01*
X7482016Y-17284971D01*
X7501064Y-17294495D01*
X7510587Y-17313542D01*
X7510587Y-17418304D01*
X7605825Y-17418304D02*
X7605825Y-17284971D01*
X7605825Y-17304018D02*
X7615349Y-17294495D01*
X7634397Y-17284971D01*
X7662968Y-17284971D01*
X7682016Y-17294495D01*
X7691540Y-17313542D01*
X7691540Y-17418304D01*
X7691540Y-17313542D02*
X7701064Y-17294495D01*
X7720111Y-17284971D01*
X7748683Y-17284971D01*
X7767730Y-17294495D01*
X7777254Y-17313542D01*
X7777254Y-17418304D01*
X8167730Y-17208780D02*
X7996302Y-17465923D01*
X8424873Y-17218304D02*
X8443921Y-17218304D01*
X8462968Y-17227828D01*
X8472492Y-17237352D01*
X8482016Y-17256399D01*
X8491540Y-17294495D01*
X8491540Y-17342114D01*
X8482016Y-17380209D01*
X8472492Y-17399257D01*
X8462968Y-17408780D01*
X8443921Y-17418304D01*
X8424873Y-17418304D01*
X8405826Y-17408780D01*
X8396302Y-17399257D01*
X8386778Y-17380209D01*
X8377254Y-17342114D01*
X8377254Y-17294495D01*
X8386778Y-17256399D01*
X8396302Y-17237352D01*
X8405826Y-17227828D01*
X8424873Y-17218304D01*
X8577254Y-17399257D02*
X8586778Y-17408780D01*
X8577254Y-17418304D01*
X8567730Y-17408780D01*
X8577254Y-17399257D01*
X8577254Y-17418304D01*
X8710587Y-17218304D02*
X8729635Y-17218304D01*
X8748683Y-17227828D01*
X8758207Y-17237352D01*
X8767730Y-17256399D01*
X8777254Y-17294495D01*
X8777254Y-17342114D01*
X8767730Y-17380209D01*
X8758207Y-17399257D01*
X8748683Y-17408780D01*
X8729635Y-17418304D01*
X8710587Y-17418304D01*
X8691540Y-17408780D01*
X8682016Y-17399257D01*
X8672492Y-17380209D01*
X8662968Y-17342114D01*
X8662968Y-17294495D01*
X8672492Y-17256399D01*
X8682016Y-17237352D01*
X8691540Y-17227828D01*
X8710587Y-17218304D01*
X8843921Y-17218304D02*
X8967730Y-17218304D01*
X8901064Y-17294495D01*
X8929635Y-17294495D01*
X8948683Y-17304018D01*
X8958207Y-17313542D01*
X8967730Y-17332590D01*
X8967730Y-17380209D01*
X8958207Y-17399257D01*
X8948683Y-17408780D01*
X8929635Y-17418304D01*
X8872492Y-17418304D01*
X8853445Y-17408780D01*
X8843921Y-17399257D01*
X9062968Y-17418304D02*
X9101064Y-17418304D01*
X9120111Y-17408780D01*
X9129635Y-17399257D01*
X9148683Y-17370685D01*
X9158207Y-17332590D01*
X9158207Y-17256399D01*
X9148683Y-17237352D01*
X9139159Y-17227828D01*
X9120111Y-17218304D01*
X9082016Y-17218304D01*
X9062968Y-17227828D01*
X9053445Y-17237352D01*
X9043921Y-17256399D01*
X9043921Y-17304018D01*
X9053445Y-17323066D01*
X9062968Y-17332590D01*
X9082016Y-17342114D01*
X9120111Y-17342114D01*
X9139159Y-17332590D01*
X9148683Y-17323066D01*
X9158207Y-17304018D01*
X9329635Y-17284971D02*
X9329635Y-17418304D01*
X9282016Y-17208780D02*
X9234397Y-17351638D01*
X9358207Y-17351638D01*
X9424873Y-17218304D02*
X9424873Y-17256399D01*
X9501064Y-17218304D02*
X9501064Y-17256399D01*
X9796302Y-17494495D02*
X9786778Y-17484971D01*
X9767730Y-17456399D01*
X9758207Y-17437352D01*
X9748683Y-17408780D01*
X9739159Y-17361161D01*
X9739159Y-17323066D01*
X9748683Y-17275447D01*
X9758207Y-17246876D01*
X9767730Y-17227828D01*
X9786778Y-17199257D01*
X9796302Y-17189733D01*
X9977254Y-17418304D02*
X9862968Y-17418304D01*
X9920111Y-17418304D02*
X9920111Y-17218304D01*
X9901064Y-17246876D01*
X9882016Y-17265923D01*
X9862968Y-17275447D01*
X10043921Y-17218304D02*
X10167730Y-17218304D01*
X10101064Y-17294495D01*
X10129635Y-17294495D01*
X10148683Y-17304018D01*
X10158207Y-17313542D01*
X10167730Y-17332590D01*
X10167730Y-17380209D01*
X10158207Y-17399257D01*
X10148683Y-17408780D01*
X10129635Y-17418304D01*
X10072492Y-17418304D01*
X10053445Y-17408780D01*
X10043921Y-17399257D01*
X10405826Y-17418304D02*
X10405826Y-17218304D01*
X10491540Y-17418304D02*
X10491540Y-17313542D01*
X10482016Y-17294495D01*
X10462968Y-17284971D01*
X10434397Y-17284971D01*
X10415349Y-17294495D01*
X10405826Y-17304018D01*
X10615349Y-17418304D02*
X10596302Y-17408780D01*
X10586778Y-17399257D01*
X10577254Y-17380209D01*
X10577254Y-17323066D01*
X10586778Y-17304018D01*
X10596302Y-17294495D01*
X10615349Y-17284971D01*
X10643921Y-17284971D01*
X10662968Y-17294495D01*
X10672492Y-17304018D01*
X10682016Y-17323066D01*
X10682016Y-17380209D01*
X10672492Y-17399257D01*
X10662968Y-17408780D01*
X10643921Y-17418304D01*
X10615349Y-17418304D01*
X10796302Y-17418304D02*
X10777254Y-17408780D01*
X10767730Y-17389733D01*
X10767730Y-17218304D01*
X10948683Y-17408780D02*
X10929635Y-17418304D01*
X10891540Y-17418304D01*
X10872492Y-17408780D01*
X10862968Y-17389733D01*
X10862968Y-17313542D01*
X10872492Y-17294495D01*
X10891540Y-17284971D01*
X10929635Y-17284971D01*
X10948683Y-17294495D01*
X10958207Y-17313542D01*
X10958207Y-17332590D01*
X10862968Y-17351638D01*
X11034397Y-17408780D02*
X11053445Y-17418304D01*
X11091540Y-17418304D01*
X11110587Y-17408780D01*
X11120111Y-17389733D01*
X11120111Y-17380209D01*
X11110587Y-17361161D01*
X11091540Y-17351638D01*
X11062968Y-17351638D01*
X11043921Y-17342114D01*
X11034397Y-17323066D01*
X11034397Y-17313542D01*
X11043921Y-17294495D01*
X11062968Y-17284971D01*
X11091540Y-17284971D01*
X11110587Y-17294495D01*
X11186778Y-17494495D02*
X11196302Y-17484971D01*
X11215349Y-17456399D01*
X11224873Y-17437352D01*
X11234397Y-17408780D01*
X11243921Y-17361161D01*
X11243921Y-17323066D01*
X11234397Y-17275447D01*
X11224873Y-17246876D01*
X11215349Y-17227828D01*
X11196302Y-17199257D01*
X11186778Y-17189733D01*
X6124397Y-17691828D02*
X6224397Y-17591828D01*
X6124397Y-17491828D01*
X6024397Y-17591828D01*
X6124397Y-17691828D01*
X6472492Y-17501352D02*
X6482016Y-17491828D01*
X6501064Y-17482304D01*
X6548683Y-17482304D01*
X6567730Y-17491828D01*
X6577254Y-17501352D01*
X6586778Y-17520399D01*
X6586778Y-17539447D01*
X6577254Y-17568018D01*
X6462968Y-17682304D01*
X6586778Y-17682304D01*
X6672492Y-17663257D02*
X6682016Y-17672780D01*
X6672492Y-17682304D01*
X6662968Y-17672780D01*
X6672492Y-17663257D01*
X6672492Y-17682304D01*
X6853445Y-17548971D02*
X6853445Y-17682304D01*
X6805825Y-17472780D02*
X6758206Y-17615638D01*
X6882016Y-17615638D01*
X6967730Y-17682304D02*
X7005825Y-17682304D01*
X7024873Y-17672780D01*
X7034397Y-17663257D01*
X7053445Y-17634685D01*
X7062968Y-17596590D01*
X7062968Y-17520399D01*
X7053445Y-17501352D01*
X7043921Y-17491828D01*
X7024873Y-17482304D01*
X6986778Y-17482304D01*
X6967730Y-17491828D01*
X6958206Y-17501352D01*
X6948683Y-17520399D01*
X6948683Y-17568018D01*
X6958206Y-17587066D01*
X6967730Y-17596590D01*
X6986778Y-17606114D01*
X7024873Y-17606114D01*
X7043921Y-17596590D01*
X7053445Y-17587066D01*
X7062968Y-17568018D01*
X7158206Y-17682304D02*
X7196302Y-17682304D01*
X7215349Y-17672780D01*
X7224873Y-17663257D01*
X7243921Y-17634685D01*
X7253445Y-17596590D01*
X7253445Y-17520399D01*
X7243921Y-17501352D01*
X7234397Y-17491828D01*
X7215349Y-17482304D01*
X7177254Y-17482304D01*
X7158206Y-17491828D01*
X7148683Y-17501352D01*
X7139159Y-17520399D01*
X7139159Y-17568018D01*
X7148683Y-17587066D01*
X7158206Y-17596590D01*
X7177254Y-17606114D01*
X7215349Y-17606114D01*
X7234397Y-17596590D01*
X7243921Y-17587066D01*
X7253445Y-17568018D01*
X7339159Y-17682304D02*
X7339159Y-17548971D01*
X7339159Y-17568018D02*
X7348683Y-17558495D01*
X7367730Y-17548971D01*
X7396302Y-17548971D01*
X7415349Y-17558495D01*
X7424873Y-17577542D01*
X7424873Y-17682304D01*
X7424873Y-17577542D02*
X7434397Y-17558495D01*
X7453445Y-17548971D01*
X7482016Y-17548971D01*
X7501064Y-17558495D01*
X7510587Y-17577542D01*
X7510587Y-17682304D01*
X7605825Y-17682304D02*
X7605825Y-17548971D01*
X7605825Y-17568018D02*
X7615349Y-17558495D01*
X7634397Y-17548971D01*
X7662968Y-17548971D01*
X7682016Y-17558495D01*
X7691540Y-17577542D01*
X7691540Y-17682304D01*
X7691540Y-17577542D02*
X7701064Y-17558495D01*
X7720111Y-17548971D01*
X7748683Y-17548971D01*
X7767730Y-17558495D01*
X7777254Y-17577542D01*
X7777254Y-17682304D01*
X8167730Y-17472780D02*
X7996302Y-17729923D01*
X8424873Y-17482304D02*
X8443921Y-17482304D01*
X8462968Y-17491828D01*
X8472492Y-17501352D01*
X8482016Y-17520399D01*
X8491540Y-17558495D01*
X8491540Y-17606114D01*
X8482016Y-17644209D01*
X8472492Y-17663257D01*
X8462968Y-17672780D01*
X8443921Y-17682304D01*
X8424873Y-17682304D01*
X8405826Y-17672780D01*
X8396302Y-17663257D01*
X8386778Y-17644209D01*
X8377254Y-17606114D01*
X8377254Y-17558495D01*
X8386778Y-17520399D01*
X8396302Y-17501352D01*
X8405826Y-17491828D01*
X8424873Y-17482304D01*
X8577254Y-17663257D02*
X8586778Y-17672780D01*
X8577254Y-17682304D01*
X8567730Y-17672780D01*
X8577254Y-17663257D01*
X8577254Y-17682304D01*
X8710587Y-17482304D02*
X8729635Y-17482304D01*
X8748683Y-17491828D01*
X8758207Y-17501352D01*
X8767730Y-17520399D01*
X8777254Y-17558495D01*
X8777254Y-17606114D01*
X8767730Y-17644209D01*
X8758207Y-17663257D01*
X8748683Y-17672780D01*
X8729635Y-17682304D01*
X8710587Y-17682304D01*
X8691540Y-17672780D01*
X8682016Y-17663257D01*
X8672492Y-17644209D01*
X8662968Y-17606114D01*
X8662968Y-17558495D01*
X8672492Y-17520399D01*
X8682016Y-17501352D01*
X8691540Y-17491828D01*
X8710587Y-17482304D01*
X8872492Y-17682304D02*
X8910587Y-17682304D01*
X8929635Y-17672780D01*
X8939159Y-17663257D01*
X8958207Y-17634685D01*
X8967730Y-17596590D01*
X8967730Y-17520399D01*
X8958207Y-17501352D01*
X8948683Y-17491828D01*
X8929635Y-17482304D01*
X8891540Y-17482304D01*
X8872492Y-17491828D01*
X8862968Y-17501352D01*
X8853445Y-17520399D01*
X8853445Y-17568018D01*
X8862968Y-17587066D01*
X8872492Y-17596590D01*
X8891540Y-17606114D01*
X8929635Y-17606114D01*
X8948683Y-17596590D01*
X8958207Y-17587066D01*
X8967730Y-17568018D01*
X9082016Y-17568018D02*
X9062968Y-17558495D01*
X9053445Y-17548971D01*
X9043921Y-17529923D01*
X9043921Y-17520399D01*
X9053445Y-17501352D01*
X9062968Y-17491828D01*
X9082016Y-17482304D01*
X9120111Y-17482304D01*
X9139159Y-17491828D01*
X9148683Y-17501352D01*
X9158207Y-17520399D01*
X9158207Y-17529923D01*
X9148683Y-17548971D01*
X9139159Y-17558495D01*
X9120111Y-17568018D01*
X9082016Y-17568018D01*
X9062968Y-17577542D01*
X9053445Y-17587066D01*
X9043921Y-17606114D01*
X9043921Y-17644209D01*
X9053445Y-17663257D01*
X9062968Y-17672780D01*
X9082016Y-17682304D01*
X9120111Y-17682304D01*
X9139159Y-17672780D01*
X9148683Y-17663257D01*
X9158207Y-17644209D01*
X9158207Y-17606114D01*
X9148683Y-17587066D01*
X9139159Y-17577542D01*
X9120111Y-17568018D01*
X9329635Y-17548971D02*
X9329635Y-17682304D01*
X9282016Y-17472780D02*
X9234397Y-17615638D01*
X9358207Y-17615638D01*
X9424873Y-17482304D02*
X9424873Y-17520399D01*
X9501064Y-17482304D02*
X9501064Y-17520399D01*
X9796302Y-17758495D02*
X9786778Y-17748971D01*
X9767730Y-17720399D01*
X9758207Y-17701352D01*
X9748683Y-17672780D01*
X9739159Y-17625161D01*
X9739159Y-17587066D01*
X9748683Y-17539447D01*
X9758207Y-17510876D01*
X9767730Y-17491828D01*
X9786778Y-17463257D01*
X9796302Y-17453733D01*
X9977254Y-17682304D02*
X9862968Y-17682304D01*
X9920111Y-17682304D02*
X9920111Y-17482304D01*
X9901064Y-17510876D01*
X9882016Y-17529923D01*
X9862968Y-17539447D01*
X10215349Y-17682304D02*
X10215349Y-17482304D01*
X10301064Y-17682304D02*
X10301064Y-17577542D01*
X10291540Y-17558495D01*
X10272492Y-17548971D01*
X10243921Y-17548971D01*
X10224873Y-17558495D01*
X10215349Y-17568018D01*
X10424873Y-17682304D02*
X10405826Y-17672780D01*
X10396302Y-17663257D01*
X10386778Y-17644209D01*
X10386778Y-17587066D01*
X10396302Y-17568018D01*
X10405826Y-17558495D01*
X10424873Y-17548971D01*
X10453445Y-17548971D01*
X10472492Y-17558495D01*
X10482016Y-17568018D01*
X10491540Y-17587066D01*
X10491540Y-17644209D01*
X10482016Y-17663257D01*
X10472492Y-17672780D01*
X10453445Y-17682304D01*
X10424873Y-17682304D01*
X10605826Y-17682304D02*
X10586778Y-17672780D01*
X10577254Y-17653733D01*
X10577254Y-17482304D01*
X10758207Y-17672780D02*
X10739159Y-17682304D01*
X10701064Y-17682304D01*
X10682016Y-17672780D01*
X10672492Y-17653733D01*
X10672492Y-17577542D01*
X10682016Y-17558495D01*
X10701064Y-17548971D01*
X10739159Y-17548971D01*
X10758207Y-17558495D01*
X10767730Y-17577542D01*
X10767730Y-17596590D01*
X10672492Y-17615638D01*
X10843921Y-17672780D02*
X10862968Y-17682304D01*
X10901064Y-17682304D01*
X10920111Y-17672780D01*
X10929635Y-17653733D01*
X10929635Y-17644209D01*
X10920111Y-17625161D01*
X10901064Y-17615638D01*
X10872492Y-17615638D01*
X10853445Y-17606114D01*
X10843921Y-17587066D01*
X10843921Y-17577542D01*
X10853445Y-17558495D01*
X10872492Y-17548971D01*
X10901064Y-17548971D01*
X10920111Y-17558495D01*
X11167730Y-17606114D02*
X11320111Y-17606114D01*
X11243921Y-17682304D02*
X11243921Y-17529923D01*
X11558206Y-17501352D02*
X11567730Y-17491828D01*
X11586778Y-17482304D01*
X11634397Y-17482304D01*
X11653445Y-17491828D01*
X11662968Y-17501352D01*
X11672492Y-17520399D01*
X11672492Y-17539447D01*
X11662968Y-17568018D01*
X11548683Y-17682304D01*
X11672492Y-17682304D01*
X11901064Y-17672780D02*
X11920111Y-17682304D01*
X11958206Y-17682304D01*
X11977254Y-17672780D01*
X11986778Y-17653733D01*
X11986778Y-17644209D01*
X11977254Y-17625161D01*
X11958206Y-17615638D01*
X11929635Y-17615638D01*
X11910587Y-17606114D01*
X11901064Y-17587066D01*
X11901064Y-17577542D01*
X11910587Y-17558495D01*
X11929635Y-17548971D01*
X11958206Y-17548971D01*
X11977254Y-17558495D01*
X12101064Y-17682304D02*
X12082016Y-17672780D01*
X12072492Y-17653733D01*
X12072492Y-17482304D01*
X12205825Y-17682304D02*
X12186778Y-17672780D01*
X12177254Y-17663257D01*
X12167730Y-17644209D01*
X12167730Y-17587066D01*
X12177254Y-17568018D01*
X12186778Y-17558495D01*
X12205825Y-17548971D01*
X12234397Y-17548971D01*
X12253445Y-17558495D01*
X12262968Y-17568018D01*
X12272492Y-17587066D01*
X12272492Y-17644209D01*
X12262968Y-17663257D01*
X12253445Y-17672780D01*
X12234397Y-17682304D01*
X12205825Y-17682304D01*
X12329635Y-17548971D02*
X12405825Y-17548971D01*
X12358206Y-17482304D02*
X12358206Y-17653733D01*
X12367730Y-17672780D01*
X12386778Y-17682304D01*
X12405825Y-17682304D01*
X12462968Y-17672780D02*
X12482016Y-17682304D01*
X12520111Y-17682304D01*
X12539159Y-17672780D01*
X12548683Y-17653733D01*
X12548683Y-17644209D01*
X12539159Y-17625161D01*
X12520111Y-17615638D01*
X12491540Y-17615638D01*
X12472492Y-17606114D01*
X12462968Y-17587066D01*
X12462968Y-17577542D01*
X12472492Y-17558495D01*
X12491540Y-17548971D01*
X12520111Y-17548971D01*
X12539159Y-17558495D01*
X12615349Y-17758495D02*
X12624873Y-17748971D01*
X12643921Y-17720399D01*
X12653445Y-17701352D01*
X12662968Y-17672780D01*
X12672492Y-17625161D01*
X12672492Y-17587066D01*
X12662968Y-17539447D01*
X12653445Y-17510876D01*
X12643921Y-17491828D01*
X12624873Y-17463257D01*
X12615349Y-17453733D01*
M02*
