%TF.GenerationSoftware,KiCad,Pcbnew,(6.0.7)*%
%TF.CreationDate,2022-09-11T22:01:50-05:00*%
%TF.ProjectId,PyKey87,50794b65-7938-4372-9e6b-696361645f70,rev?*%
%TF.SameCoordinates,Original*%
%TF.FileFunction,Drillmap*%
%TF.FilePolarity,Positive*%
%FSLAX45Y45*%
G04 Gerber Fmt 4.5, Leading zero omitted, Abs format (unit mm)*
G04 Created by KiCad (PCBNEW (6.0.7)) date 2022-09-11 22:01:50*
%MOMM*%
%LPD*%
G01*
G04 APERTURE LIST*
%ADD10C,0.100000*%
%ADD11C,0.099060*%
%ADD12C,0.200000*%
%ADD13C,0.065000*%
%ADD14C,0.075000*%
%ADD15C,0.090000*%
%ADD16C,0.115200*%
%ADD17C,0.150000*%
%ADD18C,0.175000*%
%ADD19C,0.300000*%
%ADD20C,0.305000*%
%ADD21C,0.400000*%
G04 APERTURE END LIST*
D10*
X41200000Y-4200000D02*
G75*
G03*
X41000000Y-4000000I-200000J0D01*
G01*
X41000000Y-16000000D02*
G75*
G03*
X41200000Y-15800000I0J200000D01*
G01*
X5950000Y-15800000D02*
G75*
G03*
X6150000Y-16000000I200000J0D01*
G01*
X6150000Y-4000000D02*
G75*
G03*
X5950000Y-4200000I0J-200000D01*
G01*
D11*
X6150000Y-4000000D02*
X41000000Y-4000000D01*
X6150000Y-16000000D02*
X41000000Y-16000000D01*
X41200000Y-15800000D02*
X41200000Y-4200000D01*
X5950000Y-4200000D02*
X5950000Y-15800000D01*
D12*
D13*
X8317700Y-4622600D02*
X8382700Y-4687600D01*
X8382700Y-4622600D02*
X8317700Y-4687600D01*
X8895700Y-4622600D02*
X8960700Y-4687600D01*
X8960700Y-4622600D02*
X8895700Y-4687600D01*
D14*
X18135000Y-4283000D02*
G75*
G03*
X18135000Y-4283000I-37500J0D01*
G01*
X18135000Y-4558000D02*
G75*
G03*
X18135000Y-4558000I-37500J0D01*
G01*
D15*
X9642500Y-4269500D02*
X9642500Y-4359500D01*
X9597500Y-4314500D02*
X9687500Y-4314500D01*
X9942500Y-4269500D02*
X9942500Y-4359500D01*
X9897500Y-4314500D02*
X9987500Y-4314500D01*
D16*
X6230230Y-4281230D02*
X6230230Y-4199770D01*
X6148770Y-4199770D01*
X6148770Y-4281230D01*
X6230230Y-4281230D01*
X40998230Y-15791230D02*
X40998230Y-15709770D01*
X40916770Y-15709770D01*
X40916770Y-15791230D01*
X40998230Y-15791230D01*
D17*
X26733500Y-4503000D02*
X26808500Y-4428000D01*
X26733500Y-4353000D01*
X26658500Y-4428000D01*
X26733500Y-4503000D01*
X26733500Y-5203000D02*
X26808500Y-5128000D01*
X26733500Y-5053000D01*
X26658500Y-5128000D01*
X26733500Y-5203000D01*
D18*
X6548250Y-4913250D02*
X6723250Y-5088250D01*
X6723250Y-4913250D02*
X6548250Y-5088250D01*
X6723250Y-5000750D02*
G75*
G03*
X6723250Y-5000750I-87500J0D01*
G01*
X6548250Y-7294500D02*
X6723250Y-7469500D01*
X6723250Y-7294500D02*
X6548250Y-7469500D01*
X6723250Y-7382000D02*
G75*
G03*
X6723250Y-7382000I-87500J0D01*
G01*
X6786380Y-14914500D02*
X6961380Y-15089500D01*
X6961380Y-14914500D02*
X6786380Y-15089500D01*
X6961380Y-15002000D02*
G75*
G03*
X6961380Y-15002000I-87500J0D01*
G01*
X7024500Y-9199500D02*
X7199500Y-9374500D01*
X7199500Y-9199500D02*
X7024500Y-9374500D01*
X7199500Y-9287000D02*
G75*
G03*
X7199500Y-9287000I-87500J0D01*
G01*
X7262750Y-11104500D02*
X7437750Y-11279500D01*
X7437750Y-11104500D02*
X7262750Y-11279500D01*
X7437750Y-11192000D02*
G75*
G03*
X7437750Y-11192000I-87500J0D01*
G01*
X7564250Y-4913250D02*
X7739250Y-5088250D01*
X7739250Y-4913250D02*
X7564250Y-5088250D01*
X7739250Y-5000750D02*
G75*
G03*
X7739250Y-5000750I-87500J0D01*
G01*
X7564250Y-7294500D02*
X7739250Y-7469500D01*
X7739250Y-7294500D02*
X7564250Y-7469500D01*
X7739250Y-7382000D02*
G75*
G03*
X7739250Y-7382000I-87500J0D01*
G01*
X7735700Y-13009500D02*
X7910700Y-13184500D01*
X7910700Y-13009500D02*
X7735700Y-13184500D01*
X7910700Y-13097000D02*
G75*
G03*
X7910700Y-13097000I-87500J0D01*
G01*
X7802380Y-14914500D02*
X7977380Y-15089500D01*
X7977380Y-14914500D02*
X7802380Y-15089500D01*
X7977380Y-15002000D02*
G75*
G03*
X7977380Y-15002000I-87500J0D01*
G01*
X8040500Y-9199500D02*
X8215500Y-9374500D01*
X8215500Y-9199500D02*
X8040500Y-9374500D01*
X8215500Y-9287000D02*
G75*
G03*
X8215500Y-9287000I-87500J0D01*
G01*
X8278750Y-11104500D02*
X8453750Y-11279500D01*
X8453750Y-11104500D02*
X8278750Y-11279500D01*
X8453750Y-11192000D02*
G75*
G03*
X8453750Y-11192000I-87500J0D01*
G01*
X8453250Y-7294500D02*
X8628250Y-7469500D01*
X8628250Y-7294500D02*
X8453250Y-7469500D01*
X8628250Y-7382000D02*
G75*
G03*
X8628250Y-7382000I-87500J0D01*
G01*
X8751700Y-13009500D02*
X8926700Y-13184500D01*
X8926700Y-13009500D02*
X8751700Y-13184500D01*
X8926700Y-13097000D02*
G75*
G03*
X8926700Y-13097000I-87500J0D01*
G01*
X9167620Y-14914500D02*
X9342620Y-15089500D01*
X9342620Y-14914500D02*
X9167620Y-15089500D01*
X9342620Y-15002000D02*
G75*
G03*
X9342620Y-15002000I-87500J0D01*
G01*
X9405700Y-9199500D02*
X9580700Y-9374500D01*
X9580700Y-9199500D02*
X9405700Y-9374500D01*
X9580700Y-9287000D02*
G75*
G03*
X9580700Y-9287000I-87500J0D01*
G01*
X9469250Y-7294500D02*
X9644250Y-7469500D01*
X9644250Y-7294500D02*
X9469250Y-7469500D01*
X9644250Y-7382000D02*
G75*
G03*
X9644250Y-7382000I-87500J0D01*
G01*
X9882000Y-11104500D02*
X10057000Y-11279500D01*
X10057000Y-11104500D02*
X9882000Y-11279500D01*
X10057000Y-11192000D02*
G75*
G03*
X10057000Y-11192000I-87500J0D01*
G01*
X10183620Y-14914500D02*
X10358620Y-15089500D01*
X10358620Y-14914500D02*
X10183620Y-15089500D01*
X10358620Y-15002000D02*
G75*
G03*
X10358620Y-15002000I-87500J0D01*
G01*
X10358250Y-4913250D02*
X10533250Y-5088250D01*
X10533250Y-4913250D02*
X10358250Y-5088250D01*
X10533250Y-5000750D02*
G75*
G03*
X10533250Y-5000750I-87500J0D01*
G01*
X10358300Y-7294500D02*
X10533300Y-7469500D01*
X10533300Y-7294500D02*
X10358300Y-7469500D01*
X10533300Y-7382000D02*
G75*
G03*
X10533300Y-7382000I-87500J0D01*
G01*
X10421700Y-9199500D02*
X10596700Y-9374500D01*
X10596700Y-9199500D02*
X10421700Y-9374500D01*
X10596700Y-9287000D02*
G75*
G03*
X10596700Y-9287000I-87500J0D01*
G01*
X10834500Y-13009500D02*
X11009500Y-13184500D01*
X11009500Y-13009500D02*
X10834500Y-13184500D01*
X11009500Y-13097000D02*
G75*
G03*
X11009500Y-13097000I-87500J0D01*
G01*
X10898000Y-11104500D02*
X11073000Y-11279500D01*
X11073000Y-11104500D02*
X10898000Y-11279500D01*
X11073000Y-11192000D02*
G75*
G03*
X11073000Y-11192000I-87500J0D01*
G01*
X11310700Y-9199500D02*
X11485700Y-9374500D01*
X11485700Y-9199500D02*
X11310700Y-9374500D01*
X11485700Y-9287000D02*
G75*
G03*
X11485700Y-9287000I-87500J0D01*
G01*
X11374250Y-4913250D02*
X11549250Y-5088250D01*
X11549250Y-4913250D02*
X11374250Y-5088250D01*
X11549250Y-5000750D02*
G75*
G03*
X11549250Y-5000750I-87500J0D01*
G01*
X11374300Y-7294500D02*
X11549300Y-7469500D01*
X11549300Y-7294500D02*
X11374300Y-7469500D01*
X11549300Y-7382000D02*
G75*
G03*
X11549300Y-7382000I-87500J0D01*
G01*
X11548900Y-14914500D02*
X11723900Y-15089500D01*
X11723900Y-14914500D02*
X11548900Y-15089500D01*
X11723900Y-15002000D02*
G75*
G03*
X11723900Y-15002000I-87500J0D01*
G01*
X11787000Y-11104500D02*
X11962000Y-11279500D01*
X11962000Y-11104500D02*
X11787000Y-11279500D01*
X11962000Y-11192000D02*
G75*
G03*
X11962000Y-11192000I-87500J0D01*
G01*
X11850500Y-13009500D02*
X12025500Y-13184500D01*
X12025500Y-13009500D02*
X11850500Y-13184500D01*
X12025500Y-13097000D02*
G75*
G03*
X12025500Y-13097000I-87500J0D01*
G01*
X12263250Y-4913250D02*
X12438250Y-5088250D01*
X12438250Y-4913250D02*
X12263250Y-5088250D01*
X12438250Y-5000750D02*
G75*
G03*
X12438250Y-5000750I-87500J0D01*
G01*
X12263300Y-7294500D02*
X12438300Y-7469500D01*
X12438300Y-7294500D02*
X12263300Y-7469500D01*
X12438300Y-7382000D02*
G75*
G03*
X12438300Y-7382000I-87500J0D01*
G01*
X12326700Y-9199500D02*
X12501700Y-9374500D01*
X12501700Y-9199500D02*
X12326700Y-9374500D01*
X12501700Y-9287000D02*
G75*
G03*
X12501700Y-9287000I-87500J0D01*
G01*
X12564900Y-14914500D02*
X12739900Y-15089500D01*
X12739900Y-14914500D02*
X12564900Y-15089500D01*
X12739900Y-15002000D02*
G75*
G03*
X12739900Y-15002000I-87500J0D01*
G01*
X12739500Y-13009500D02*
X12914500Y-13184500D01*
X12914500Y-13009500D02*
X12739500Y-13184500D01*
X12914500Y-13097000D02*
G75*
G03*
X12914500Y-13097000I-87500J0D01*
G01*
X12803000Y-11104500D02*
X12978000Y-11279500D01*
X12978000Y-11104500D02*
X12803000Y-11279500D01*
X12978000Y-11192000D02*
G75*
G03*
X12978000Y-11192000I-87500J0D01*
G01*
X13215700Y-9199500D02*
X13390700Y-9374500D01*
X13390700Y-9199500D02*
X13215700Y-9374500D01*
X13390700Y-9287000D02*
G75*
G03*
X13390700Y-9287000I-87500J0D01*
G01*
X13279250Y-4913250D02*
X13454250Y-5088250D01*
X13454250Y-4913250D02*
X13279250Y-5088250D01*
X13454250Y-5000750D02*
G75*
G03*
X13454250Y-5000750I-87500J0D01*
G01*
X13279300Y-7294500D02*
X13454300Y-7469500D01*
X13454300Y-7294500D02*
X13279300Y-7469500D01*
X13454300Y-7382000D02*
G75*
G03*
X13454300Y-7382000I-87500J0D01*
G01*
X13692000Y-11104500D02*
X13867000Y-11279500D01*
X13867000Y-11104500D02*
X13692000Y-11279500D01*
X13867000Y-11192000D02*
G75*
G03*
X13867000Y-11192000I-87500J0D01*
G01*
X13755500Y-13009500D02*
X13930500Y-13184500D01*
X13930500Y-13009500D02*
X13755500Y-13184500D01*
X13930500Y-13097000D02*
G75*
G03*
X13930500Y-13097000I-87500J0D01*
G01*
X14168250Y-4913250D02*
X14343250Y-5088250D01*
X14343250Y-4913250D02*
X14168250Y-5088250D01*
X14343250Y-5000750D02*
G75*
G03*
X14343250Y-5000750I-87500J0D01*
G01*
X14168300Y-7294500D02*
X14343300Y-7469500D01*
X14343300Y-7294500D02*
X14168300Y-7469500D01*
X14343300Y-7382000D02*
G75*
G03*
X14343300Y-7382000I-87500J0D01*
G01*
X14231700Y-9199500D02*
X14406700Y-9374500D01*
X14406700Y-9199500D02*
X14231700Y-9374500D01*
X14406700Y-9287000D02*
G75*
G03*
X14406700Y-9287000I-87500J0D01*
G01*
X14644500Y-13009500D02*
X14819500Y-13184500D01*
X14819500Y-13009500D02*
X14644500Y-13184500D01*
X14819500Y-13097000D02*
G75*
G03*
X14819500Y-13097000I-87500J0D01*
G01*
X14708000Y-11104500D02*
X14883000Y-11279500D01*
X14883000Y-11104500D02*
X14708000Y-11279500D01*
X14883000Y-11192000D02*
G75*
G03*
X14883000Y-11192000I-87500J0D01*
G01*
X15120700Y-9199500D02*
X15295700Y-9374500D01*
X15295700Y-9199500D02*
X15120700Y-9374500D01*
X15295700Y-9287000D02*
G75*
G03*
X15295700Y-9287000I-87500J0D01*
G01*
X15184250Y-4913250D02*
X15359250Y-5088250D01*
X15359250Y-4913250D02*
X15184250Y-5088250D01*
X15359250Y-5000750D02*
G75*
G03*
X15359250Y-5000750I-87500J0D01*
G01*
X15184300Y-7294500D02*
X15359300Y-7469500D01*
X15359300Y-7294500D02*
X15184300Y-7469500D01*
X15359300Y-7382000D02*
G75*
G03*
X15359300Y-7382000I-87500J0D01*
G01*
X15597000Y-11104500D02*
X15772000Y-11279500D01*
X15772000Y-11104500D02*
X15597000Y-11279500D01*
X15772000Y-11192000D02*
G75*
G03*
X15772000Y-11192000I-87500J0D01*
G01*
X15660500Y-13009500D02*
X15835500Y-13184500D01*
X15835500Y-13009500D02*
X15660500Y-13184500D01*
X15835500Y-13097000D02*
G75*
G03*
X15835500Y-13097000I-87500J0D01*
G01*
X16073250Y-4913250D02*
X16248250Y-5088250D01*
X16248250Y-4913250D02*
X16073250Y-5088250D01*
X16248250Y-5000750D02*
G75*
G03*
X16248250Y-5000750I-87500J0D01*
G01*
X16073300Y-7294500D02*
X16248300Y-7469500D01*
X16248300Y-7294500D02*
X16073300Y-7469500D01*
X16248300Y-7382000D02*
G75*
G03*
X16248300Y-7382000I-87500J0D01*
G01*
X16136700Y-9199500D02*
X16311700Y-9374500D01*
X16311700Y-9199500D02*
X16136700Y-9374500D01*
X16311700Y-9287000D02*
G75*
G03*
X16311700Y-9287000I-87500J0D01*
G01*
X16549500Y-13009500D02*
X16724500Y-13184500D01*
X16724500Y-13009500D02*
X16549500Y-13184500D01*
X16724500Y-13097000D02*
G75*
G03*
X16724500Y-13097000I-87500J0D01*
G01*
X16613000Y-11104500D02*
X16788000Y-11279500D01*
X16788000Y-11104500D02*
X16613000Y-11279500D01*
X16788000Y-11192000D02*
G75*
G03*
X16788000Y-11192000I-87500J0D01*
G01*
X17025700Y-9199500D02*
X17200700Y-9374500D01*
X17200700Y-9199500D02*
X17025700Y-9374500D01*
X17200700Y-9287000D02*
G75*
G03*
X17200700Y-9287000I-87500J0D01*
G01*
X17089250Y-4913250D02*
X17264250Y-5088250D01*
X17264250Y-4913250D02*
X17089250Y-5088250D01*
X17264250Y-5000750D02*
G75*
G03*
X17264250Y-5000750I-87500J0D01*
G01*
X17089300Y-7294500D02*
X17264300Y-7469500D01*
X17264300Y-7294500D02*
X17089300Y-7469500D01*
X17264300Y-7382000D02*
G75*
G03*
X17264300Y-7382000I-87500J0D01*
G01*
X17502000Y-11104500D02*
X17677000Y-11279500D01*
X17677000Y-11104500D02*
X17502000Y-11279500D01*
X17677000Y-11192000D02*
G75*
G03*
X17677000Y-11192000I-87500J0D01*
G01*
X17565500Y-13009500D02*
X17740500Y-13184500D01*
X17740500Y-13009500D02*
X17565500Y-13184500D01*
X17740500Y-13097000D02*
G75*
G03*
X17740500Y-13097000I-87500J0D01*
G01*
X17978300Y-7294500D02*
X18153300Y-7469500D01*
X18153300Y-7294500D02*
X17978300Y-7469500D01*
X18153300Y-7382000D02*
G75*
G03*
X18153300Y-7382000I-87500J0D01*
G01*
X18041700Y-9199500D02*
X18216700Y-9374500D01*
X18216700Y-9199500D02*
X18041700Y-9374500D01*
X18216700Y-9287000D02*
G75*
G03*
X18216700Y-9287000I-87500J0D01*
G01*
X18454500Y-13009500D02*
X18629500Y-13184500D01*
X18629500Y-13009500D02*
X18454500Y-13184500D01*
X18629500Y-13097000D02*
G75*
G03*
X18629500Y-13097000I-87500J0D01*
G01*
X18518000Y-11104500D02*
X18693000Y-11279500D01*
X18693000Y-11104500D02*
X18518000Y-11279500D01*
X18693000Y-11192000D02*
G75*
G03*
X18693000Y-11192000I-87500J0D01*
G01*
X18692600Y-14914500D02*
X18867600Y-15089500D01*
X18867600Y-14914500D02*
X18692600Y-15089500D01*
X18867600Y-15002000D02*
G75*
G03*
X18867600Y-15002000I-87500J0D01*
G01*
X18930700Y-9199500D02*
X19105700Y-9374500D01*
X19105700Y-9199500D02*
X18930700Y-9374500D01*
X19105700Y-9287000D02*
G75*
G03*
X19105700Y-9287000I-87500J0D01*
G01*
X18930750Y-4913250D02*
X19105750Y-5088250D01*
X19105750Y-4913250D02*
X18930750Y-5088250D01*
X19105750Y-5000750D02*
G75*
G03*
X19105750Y-5000750I-87500J0D01*
G01*
X18994300Y-7294500D02*
X19169300Y-7469500D01*
X19169300Y-7294500D02*
X18994300Y-7469500D01*
X19169300Y-7382000D02*
G75*
G03*
X19169300Y-7382000I-87500J0D01*
G01*
X19407000Y-11104500D02*
X19582000Y-11279500D01*
X19582000Y-11104500D02*
X19407000Y-11279500D01*
X19582000Y-11192000D02*
G75*
G03*
X19582000Y-11192000I-87500J0D01*
G01*
X19470500Y-13009500D02*
X19645500Y-13184500D01*
X19645500Y-13009500D02*
X19470500Y-13184500D01*
X19645500Y-13097000D02*
G75*
G03*
X19645500Y-13097000I-87500J0D01*
G01*
X19708600Y-14914500D02*
X19883600Y-15089500D01*
X19883600Y-14914500D02*
X19708600Y-15089500D01*
X19883600Y-15002000D02*
G75*
G03*
X19883600Y-15002000I-87500J0D01*
G01*
X19883300Y-7294500D02*
X20058300Y-7469500D01*
X20058300Y-7294500D02*
X19883300Y-7469500D01*
X20058300Y-7382000D02*
G75*
G03*
X20058300Y-7382000I-87500J0D01*
G01*
X19946700Y-9199500D02*
X20121700Y-9374500D01*
X20121700Y-9199500D02*
X19946700Y-9374500D01*
X20121700Y-9287000D02*
G75*
G03*
X20121700Y-9287000I-87500J0D01*
G01*
X19946750Y-4913250D02*
X20121750Y-5088250D01*
X20121750Y-4913250D02*
X19946750Y-5088250D01*
X20121750Y-5000750D02*
G75*
G03*
X20121750Y-5000750I-87500J0D01*
G01*
X20359500Y-13009500D02*
X20534500Y-13184500D01*
X20534500Y-13009500D02*
X20359500Y-13184500D01*
X20534500Y-13097000D02*
G75*
G03*
X20534500Y-13097000I-87500J0D01*
G01*
X20423000Y-11104500D02*
X20598000Y-11279500D01*
X20598000Y-11104500D02*
X20423000Y-11279500D01*
X20598000Y-11192000D02*
G75*
G03*
X20598000Y-11192000I-87500J0D01*
G01*
X20835700Y-9199500D02*
X21010700Y-9374500D01*
X21010700Y-9199500D02*
X20835700Y-9374500D01*
X21010700Y-9287000D02*
G75*
G03*
X21010700Y-9287000I-87500J0D01*
G01*
X20835750Y-4913250D02*
X21010750Y-5088250D01*
X21010750Y-4913250D02*
X20835750Y-5088250D01*
X21010750Y-5000750D02*
G75*
G03*
X21010750Y-5000750I-87500J0D01*
G01*
X20899300Y-7294500D02*
X21074300Y-7469500D01*
X21074300Y-7294500D02*
X20899300Y-7469500D01*
X21074300Y-7382000D02*
G75*
G03*
X21074300Y-7382000I-87500J0D01*
G01*
X21312000Y-11104500D02*
X21487000Y-11279500D01*
X21487000Y-11104500D02*
X21312000Y-11279500D01*
X21487000Y-11192000D02*
G75*
G03*
X21487000Y-11192000I-87500J0D01*
G01*
X21375500Y-13009500D02*
X21550500Y-13184500D01*
X21550500Y-13009500D02*
X21375500Y-13184500D01*
X21550500Y-13097000D02*
G75*
G03*
X21550500Y-13097000I-87500J0D01*
G01*
X21788300Y-7294500D02*
X21963300Y-7469500D01*
X21963300Y-7294500D02*
X21788300Y-7469500D01*
X21963300Y-7382000D02*
G75*
G03*
X21963300Y-7382000I-87500J0D01*
G01*
X21851700Y-9199500D02*
X22026700Y-9374500D01*
X22026700Y-9199500D02*
X21851700Y-9374500D01*
X22026700Y-9287000D02*
G75*
G03*
X22026700Y-9287000I-87500J0D01*
G01*
X21851750Y-4913250D02*
X22026750Y-5088250D01*
X22026750Y-4913250D02*
X21851750Y-5088250D01*
X22026750Y-5000750D02*
G75*
G03*
X22026750Y-5000750I-87500J0D01*
G01*
X22264500Y-13009500D02*
X22439500Y-13184500D01*
X22439500Y-13009500D02*
X22264500Y-13184500D01*
X22439500Y-13097000D02*
G75*
G03*
X22439500Y-13097000I-87500J0D01*
G01*
X22328000Y-11104500D02*
X22503000Y-11279500D01*
X22503000Y-11104500D02*
X22328000Y-11279500D01*
X22503000Y-11192000D02*
G75*
G03*
X22503000Y-11192000I-87500J0D01*
G01*
X22740700Y-9199500D02*
X22915700Y-9374500D01*
X22915700Y-9199500D02*
X22740700Y-9374500D01*
X22915700Y-9287000D02*
G75*
G03*
X22915700Y-9287000I-87500J0D01*
G01*
X22740750Y-4913250D02*
X22915750Y-5088250D01*
X22915750Y-4913250D02*
X22740750Y-5088250D01*
X22915750Y-5000750D02*
G75*
G03*
X22915750Y-5000750I-87500J0D01*
G01*
X22804300Y-7294500D02*
X22979300Y-7469500D01*
X22979300Y-7294500D02*
X22804300Y-7469500D01*
X22979300Y-7382000D02*
G75*
G03*
X22979300Y-7382000I-87500J0D01*
G01*
X23217000Y-11104500D02*
X23392000Y-11279500D01*
X23392000Y-11104500D02*
X23217000Y-11279500D01*
X23392000Y-11192000D02*
G75*
G03*
X23392000Y-11192000I-87500J0D01*
G01*
X23280500Y-13009500D02*
X23455500Y-13184500D01*
X23455500Y-13009500D02*
X23280500Y-13184500D01*
X23455500Y-13097000D02*
G75*
G03*
X23455500Y-13097000I-87500J0D01*
G01*
X23693300Y-7294500D02*
X23868300Y-7469500D01*
X23868300Y-7294500D02*
X23693300Y-7469500D01*
X23868300Y-7382000D02*
G75*
G03*
X23868300Y-7382000I-87500J0D01*
G01*
X23756700Y-9199500D02*
X23931700Y-9374500D01*
X23931700Y-9199500D02*
X23756700Y-9374500D01*
X23931700Y-9287000D02*
G75*
G03*
X23931700Y-9287000I-87500J0D01*
G01*
X23756750Y-4913250D02*
X23931750Y-5088250D01*
X23931750Y-4913250D02*
X23756750Y-5088250D01*
X23931750Y-5000750D02*
G75*
G03*
X23931750Y-5000750I-87500J0D01*
G01*
X24169500Y-13009500D02*
X24344500Y-13184500D01*
X24344500Y-13009500D02*
X24169500Y-13184500D01*
X24344500Y-13097000D02*
G75*
G03*
X24344500Y-13097000I-87500J0D01*
G01*
X24233000Y-11104500D02*
X24408000Y-11279500D01*
X24408000Y-11104500D02*
X24233000Y-11279500D01*
X24408000Y-11192000D02*
G75*
G03*
X24408000Y-11192000I-87500J0D01*
G01*
X24645700Y-9199500D02*
X24820700Y-9374500D01*
X24820700Y-9199500D02*
X24645700Y-9374500D01*
X24820700Y-9287000D02*
G75*
G03*
X24820700Y-9287000I-87500J0D01*
G01*
X24645750Y-4913250D02*
X24820750Y-5088250D01*
X24820750Y-4913250D02*
X24645750Y-5088250D01*
X24820750Y-5000750D02*
G75*
G03*
X24820750Y-5000750I-87500J0D01*
G01*
X24709300Y-7294500D02*
X24884300Y-7469500D01*
X24884300Y-7294500D02*
X24709300Y-7469500D01*
X24884300Y-7382000D02*
G75*
G03*
X24884300Y-7382000I-87500J0D01*
G01*
X25122000Y-11104500D02*
X25297000Y-11279500D01*
X25297000Y-11104500D02*
X25122000Y-11279500D01*
X25297000Y-11192000D02*
G75*
G03*
X25297000Y-11192000I-87500J0D01*
G01*
X25185500Y-13009500D02*
X25360500Y-13184500D01*
X25360500Y-13009500D02*
X25185500Y-13184500D01*
X25360500Y-13097000D02*
G75*
G03*
X25360500Y-13097000I-87500J0D01*
G01*
X25598300Y-7294500D02*
X25773300Y-7469500D01*
X25773300Y-7294500D02*
X25598300Y-7469500D01*
X25773300Y-7382000D02*
G75*
G03*
X25773300Y-7382000I-87500J0D01*
G01*
X25661700Y-9199500D02*
X25836700Y-9374500D01*
X25836700Y-9199500D02*
X25661700Y-9374500D01*
X25836700Y-9287000D02*
G75*
G03*
X25836700Y-9287000I-87500J0D01*
G01*
X25661750Y-4913250D02*
X25836750Y-5088250D01*
X25836750Y-4913250D02*
X25661750Y-5088250D01*
X25836750Y-5000750D02*
G75*
G03*
X25836750Y-5000750I-87500J0D01*
G01*
X25836400Y-14914500D02*
X26011400Y-15089500D01*
X26011400Y-14914500D02*
X25836400Y-15089500D01*
X26011400Y-15002000D02*
G75*
G03*
X26011400Y-15002000I-87500J0D01*
G01*
X26074500Y-13009500D02*
X26249500Y-13184500D01*
X26249500Y-13009500D02*
X26074500Y-13184500D01*
X26249500Y-13097000D02*
G75*
G03*
X26249500Y-13097000I-87500J0D01*
G01*
X26138000Y-11104500D02*
X26313000Y-11279500D01*
X26313000Y-11104500D02*
X26138000Y-11279500D01*
X26313000Y-11192000D02*
G75*
G03*
X26313000Y-11192000I-87500J0D01*
G01*
X26550700Y-9199500D02*
X26725700Y-9374500D01*
X26725700Y-9199500D02*
X26550700Y-9374500D01*
X26725700Y-9287000D02*
G75*
G03*
X26725700Y-9287000I-87500J0D01*
G01*
X26614300Y-7294500D02*
X26789300Y-7469500D01*
X26789300Y-7294500D02*
X26614300Y-7469500D01*
X26789300Y-7382000D02*
G75*
G03*
X26789300Y-7382000I-87500J0D01*
G01*
X26852400Y-14914500D02*
X27027400Y-15089500D01*
X27027400Y-14914500D02*
X26852400Y-15089500D01*
X27027400Y-15002000D02*
G75*
G03*
X27027400Y-15002000I-87500J0D01*
G01*
X27027000Y-11104500D02*
X27202000Y-11279500D01*
X27202000Y-11104500D02*
X27027000Y-11279500D01*
X27202000Y-11192000D02*
G75*
G03*
X27202000Y-11192000I-87500J0D01*
G01*
X27090500Y-13009500D02*
X27265500Y-13184500D01*
X27265500Y-13009500D02*
X27090500Y-13184500D01*
X27265500Y-13097000D02*
G75*
G03*
X27265500Y-13097000I-87500J0D01*
G01*
X27503250Y-4913250D02*
X27678250Y-5088250D01*
X27678250Y-4913250D02*
X27503250Y-5088250D01*
X27678250Y-5000750D02*
G75*
G03*
X27678250Y-5000750I-87500J0D01*
G01*
X27503300Y-7294500D02*
X27678300Y-7469500D01*
X27678300Y-7294500D02*
X27503300Y-7469500D01*
X27678300Y-7382000D02*
G75*
G03*
X27678300Y-7382000I-87500J0D01*
G01*
X27566700Y-9199500D02*
X27741700Y-9374500D01*
X27741700Y-9199500D02*
X27566700Y-9374500D01*
X27741700Y-9287000D02*
G75*
G03*
X27741700Y-9287000I-87500J0D01*
G01*
X27979500Y-13009500D02*
X28154500Y-13184500D01*
X28154500Y-13009500D02*
X27979500Y-13184500D01*
X28154500Y-13097000D02*
G75*
G03*
X28154500Y-13097000I-87500J0D01*
G01*
X28043000Y-11104500D02*
X28218000Y-11279500D01*
X28218000Y-11104500D02*
X28043000Y-11279500D01*
X28218000Y-11192000D02*
G75*
G03*
X28218000Y-11192000I-87500J0D01*
G01*
X28217600Y-14914500D02*
X28392600Y-15089500D01*
X28392600Y-14914500D02*
X28217600Y-15089500D01*
X28392600Y-15002000D02*
G75*
G03*
X28392600Y-15002000I-87500J0D01*
G01*
X28455700Y-9199500D02*
X28630700Y-9374500D01*
X28630700Y-9199500D02*
X28455700Y-9374500D01*
X28630700Y-9287000D02*
G75*
G03*
X28630700Y-9287000I-87500J0D01*
G01*
X28519250Y-4913250D02*
X28694250Y-5088250D01*
X28694250Y-4913250D02*
X28519250Y-5088250D01*
X28694250Y-5000750D02*
G75*
G03*
X28694250Y-5000750I-87500J0D01*
G01*
X28519300Y-7294500D02*
X28694300Y-7469500D01*
X28694300Y-7294500D02*
X28519300Y-7469500D01*
X28694300Y-7382000D02*
G75*
G03*
X28694300Y-7382000I-87500J0D01*
G01*
X28932000Y-11104500D02*
X29107000Y-11279500D01*
X29107000Y-11104500D02*
X28932000Y-11279500D01*
X29107000Y-11192000D02*
G75*
G03*
X29107000Y-11192000I-87500J0D01*
G01*
X28995500Y-13009500D02*
X29170500Y-13184500D01*
X29170500Y-13009500D02*
X28995500Y-13184500D01*
X29170500Y-13097000D02*
G75*
G03*
X29170500Y-13097000I-87500J0D01*
G01*
X29233600Y-14914500D02*
X29408600Y-15089500D01*
X29408600Y-14914500D02*
X29233600Y-15089500D01*
X29408600Y-15002000D02*
G75*
G03*
X29408600Y-15002000I-87500J0D01*
G01*
X29408250Y-4913250D02*
X29583250Y-5088250D01*
X29583250Y-4913250D02*
X29408250Y-5088250D01*
X29583250Y-5000750D02*
G75*
G03*
X29583250Y-5000750I-87500J0D01*
G01*
X29408300Y-7294500D02*
X29583300Y-7469500D01*
X29583300Y-7294500D02*
X29408300Y-7469500D01*
X29583300Y-7382000D02*
G75*
G03*
X29583300Y-7382000I-87500J0D01*
G01*
X29471700Y-9199500D02*
X29646700Y-9374500D01*
X29646700Y-9199500D02*
X29471700Y-9374500D01*
X29646700Y-9287000D02*
G75*
G03*
X29646700Y-9287000I-87500J0D01*
G01*
X29948000Y-11104500D02*
X30123000Y-11279500D01*
X30123000Y-11104500D02*
X29948000Y-11279500D01*
X30123000Y-11192000D02*
G75*
G03*
X30123000Y-11192000I-87500J0D01*
G01*
X30360700Y-9199500D02*
X30535700Y-9374500D01*
X30535700Y-9199500D02*
X30360700Y-9374500D01*
X30535700Y-9287000D02*
G75*
G03*
X30535700Y-9287000I-87500J0D01*
G01*
X30424250Y-4913250D02*
X30599250Y-5088250D01*
X30599250Y-4913250D02*
X30424250Y-5088250D01*
X30599250Y-5000750D02*
G75*
G03*
X30599250Y-5000750I-87500J0D01*
G01*
X30424300Y-7294500D02*
X30599300Y-7469500D01*
X30599300Y-7294500D02*
X30424300Y-7469500D01*
X30599300Y-7382000D02*
G75*
G03*
X30599300Y-7382000I-87500J0D01*
G01*
X30597600Y-14914500D02*
X30772600Y-15089500D01*
X30772600Y-14914500D02*
X30597600Y-15089500D01*
X30772600Y-15002000D02*
G75*
G03*
X30772600Y-15002000I-87500J0D01*
G01*
X31313250Y-4913250D02*
X31488250Y-5088250D01*
X31488250Y-4913250D02*
X31313250Y-5088250D01*
X31488250Y-5000750D02*
G75*
G03*
X31488250Y-5000750I-87500J0D01*
G01*
X31376700Y-9199500D02*
X31551700Y-9374500D01*
X31551700Y-9199500D02*
X31376700Y-9374500D01*
X31551700Y-9287000D02*
G75*
G03*
X31551700Y-9287000I-87500J0D01*
G01*
X31551400Y-13009500D02*
X31726400Y-13184500D01*
X31726400Y-13009500D02*
X31551400Y-13184500D01*
X31726400Y-13097000D02*
G75*
G03*
X31726400Y-13097000I-87500J0D01*
G01*
X31613600Y-14914500D02*
X31788600Y-15089500D01*
X31788600Y-14914500D02*
X31613600Y-15089500D01*
X31788600Y-15002000D02*
G75*
G03*
X31788600Y-15002000I-87500J0D01*
G01*
X32027600Y-11104500D02*
X32202600Y-11279500D01*
X32202600Y-11104500D02*
X32027600Y-11279500D01*
X32202600Y-11192000D02*
G75*
G03*
X32202600Y-11192000I-87500J0D01*
G01*
X32265800Y-7294500D02*
X32440800Y-7469500D01*
X32440800Y-7294500D02*
X32265800Y-7469500D01*
X32440800Y-7382000D02*
G75*
G03*
X32440800Y-7382000I-87500J0D01*
G01*
X32329250Y-4913250D02*
X32504250Y-5088250D01*
X32504250Y-4913250D02*
X32329250Y-5088250D01*
X32504250Y-5000750D02*
G75*
G03*
X32504250Y-5000750I-87500J0D01*
G01*
X32567400Y-13009500D02*
X32742400Y-13184500D01*
X32742400Y-13009500D02*
X32567400Y-13184500D01*
X32742400Y-13097000D02*
G75*
G03*
X32742400Y-13097000I-87500J0D01*
G01*
X32742000Y-9199500D02*
X32917000Y-9374500D01*
X32917000Y-9199500D02*
X32742000Y-9374500D01*
X32917000Y-9287000D02*
G75*
G03*
X32917000Y-9287000I-87500J0D01*
G01*
X32978900Y-14914500D02*
X33153900Y-15089500D01*
X33153900Y-14914500D02*
X32978900Y-15089500D01*
X33153900Y-15002000D02*
G75*
G03*
X33153900Y-15002000I-87500J0D01*
G01*
X33043600Y-11104500D02*
X33218600Y-11279500D01*
X33218600Y-11104500D02*
X33043600Y-11279500D01*
X33218600Y-11192000D02*
G75*
G03*
X33218600Y-11192000I-87500J0D01*
G01*
X33218250Y-4913250D02*
X33393250Y-5088250D01*
X33393250Y-4913250D02*
X33218250Y-5088250D01*
X33393250Y-5000750D02*
G75*
G03*
X33393250Y-5000750I-87500J0D01*
G01*
X33281800Y-7294500D02*
X33456800Y-7469500D01*
X33456800Y-7294500D02*
X33281800Y-7469500D01*
X33456800Y-7382000D02*
G75*
G03*
X33456800Y-7382000I-87500J0D01*
G01*
X33758000Y-9199500D02*
X33933000Y-9374500D01*
X33933000Y-9199500D02*
X33758000Y-9374500D01*
X33933000Y-9287000D02*
G75*
G03*
X33933000Y-9287000I-87500J0D01*
G01*
X33994900Y-14914500D02*
X34169900Y-15089500D01*
X34169900Y-14914500D02*
X33994900Y-15089500D01*
X34169900Y-15002000D02*
G75*
G03*
X34169900Y-15002000I-87500J0D01*
G01*
X34234250Y-4913250D02*
X34409250Y-5088250D01*
X34409250Y-4913250D02*
X34234250Y-5088250D01*
X34409250Y-5000750D02*
G75*
G03*
X34409250Y-5000750I-87500J0D01*
G01*
X35599500Y-4913250D02*
X35774500Y-5088250D01*
X35774500Y-4913250D02*
X35599500Y-5088250D01*
X35774500Y-5000750D02*
G75*
G03*
X35774500Y-5000750I-87500J0D01*
G01*
X35599500Y-7294500D02*
X35774500Y-7469500D01*
X35774500Y-7294500D02*
X35599500Y-7469500D01*
X35774500Y-7382000D02*
G75*
G03*
X35774500Y-7382000I-87500J0D01*
G01*
X35599500Y-9199500D02*
X35774500Y-9374500D01*
X35774500Y-9199500D02*
X35599500Y-9374500D01*
X35774500Y-9287000D02*
G75*
G03*
X35774500Y-9287000I-87500J0D01*
G01*
X35599500Y-14914500D02*
X35774500Y-15089500D01*
X35774500Y-14914500D02*
X35599500Y-15089500D01*
X35774500Y-15002000D02*
G75*
G03*
X35774500Y-15002000I-87500J0D01*
G01*
X36615500Y-4913250D02*
X36790500Y-5088250D01*
X36790500Y-4913250D02*
X36615500Y-5088250D01*
X36790500Y-5000750D02*
G75*
G03*
X36790500Y-5000750I-87500J0D01*
G01*
X36615500Y-7294500D02*
X36790500Y-7469500D01*
X36790500Y-7294500D02*
X36615500Y-7469500D01*
X36790500Y-7382000D02*
G75*
G03*
X36790500Y-7382000I-87500J0D01*
G01*
X36615500Y-9199500D02*
X36790500Y-9374500D01*
X36790500Y-9199500D02*
X36615500Y-9374500D01*
X36790500Y-9287000D02*
G75*
G03*
X36790500Y-9287000I-87500J0D01*
G01*
X36615500Y-14914500D02*
X36790500Y-15089500D01*
X36790500Y-14914500D02*
X36615500Y-15089500D01*
X36790500Y-15002000D02*
G75*
G03*
X36790500Y-15002000I-87500J0D01*
G01*
X37504500Y-4913250D02*
X37679500Y-5088250D01*
X37679500Y-4913250D02*
X37504500Y-5088250D01*
X37679500Y-5000750D02*
G75*
G03*
X37679500Y-5000750I-87500J0D01*
G01*
X37504500Y-7294500D02*
X37679500Y-7469500D01*
X37679500Y-7294500D02*
X37504500Y-7469500D01*
X37679500Y-7382000D02*
G75*
G03*
X37679500Y-7382000I-87500J0D01*
G01*
X37504500Y-9199500D02*
X37679500Y-9374500D01*
X37679500Y-9199500D02*
X37504500Y-9374500D01*
X37679500Y-9287000D02*
G75*
G03*
X37679500Y-9287000I-87500J0D01*
G01*
X37504500Y-13009500D02*
X37679500Y-13184500D01*
X37679500Y-13009500D02*
X37504500Y-13184500D01*
X37679500Y-13097000D02*
G75*
G03*
X37679500Y-13097000I-87500J0D01*
G01*
X37504500Y-14914500D02*
X37679500Y-15089500D01*
X37679500Y-14914500D02*
X37504500Y-15089500D01*
X37679500Y-15002000D02*
G75*
G03*
X37679500Y-15002000I-87500J0D01*
G01*
X38520500Y-4913250D02*
X38695500Y-5088250D01*
X38695500Y-4913250D02*
X38520500Y-5088250D01*
X38695500Y-5000750D02*
G75*
G03*
X38695500Y-5000750I-87500J0D01*
G01*
X38520500Y-7294500D02*
X38695500Y-7469500D01*
X38695500Y-7294500D02*
X38520500Y-7469500D01*
X38695500Y-7382000D02*
G75*
G03*
X38695500Y-7382000I-87500J0D01*
G01*
X38520500Y-9199500D02*
X38695500Y-9374500D01*
X38695500Y-9199500D02*
X38520500Y-9374500D01*
X38695500Y-9287000D02*
G75*
G03*
X38695500Y-9287000I-87500J0D01*
G01*
X38520500Y-13009500D02*
X38695500Y-13184500D01*
X38695500Y-13009500D02*
X38520500Y-13184500D01*
X38695500Y-13097000D02*
G75*
G03*
X38695500Y-13097000I-87500J0D01*
G01*
X38520500Y-14914500D02*
X38695500Y-15089500D01*
X38695500Y-14914500D02*
X38520500Y-15089500D01*
X38695500Y-15002000D02*
G75*
G03*
X38695500Y-15002000I-87500J0D01*
G01*
X39409500Y-4913250D02*
X39584500Y-5088250D01*
X39584500Y-4913250D02*
X39409500Y-5088250D01*
X39584500Y-5000750D02*
G75*
G03*
X39584500Y-5000750I-87500J0D01*
G01*
X39409500Y-7294500D02*
X39584500Y-7469500D01*
X39584500Y-7294500D02*
X39409500Y-7469500D01*
X39584500Y-7382000D02*
G75*
G03*
X39584500Y-7382000I-87500J0D01*
G01*
X39409500Y-9199500D02*
X39584500Y-9374500D01*
X39584500Y-9199500D02*
X39409500Y-9374500D01*
X39584500Y-9287000D02*
G75*
G03*
X39584500Y-9287000I-87500J0D01*
G01*
X39409500Y-14914500D02*
X39584500Y-15089500D01*
X39584500Y-14914500D02*
X39409500Y-15089500D01*
X39584500Y-15002000D02*
G75*
G03*
X39584500Y-15002000I-87500J0D01*
G01*
X40425500Y-4913250D02*
X40600500Y-5088250D01*
X40600500Y-4913250D02*
X40425500Y-5088250D01*
X40600500Y-5000750D02*
G75*
G03*
X40600500Y-5000750I-87500J0D01*
G01*
X40425500Y-7294500D02*
X40600500Y-7469500D01*
X40600500Y-7294500D02*
X40425500Y-7469500D01*
X40600500Y-7382000D02*
G75*
G03*
X40600500Y-7382000I-87500J0D01*
G01*
X40425500Y-9199500D02*
X40600500Y-9374500D01*
X40600500Y-9199500D02*
X40425500Y-9374500D01*
X40600500Y-9287000D02*
G75*
G03*
X40600500Y-9287000I-87500J0D01*
G01*
X40425500Y-14914500D02*
X40600500Y-15089500D01*
X40600500Y-14914500D02*
X40425500Y-15089500D01*
X40600500Y-15002000D02*
G75*
G03*
X40600500Y-15002000I-87500J0D01*
G01*
D19*
X6739750Y-5358750D02*
X7039750Y-5658750D01*
X7039750Y-5358750D02*
X6739750Y-5658750D01*
X6889750Y-5358750D02*
X6889750Y-5658750D01*
X6739750Y-5508750D02*
X7039750Y-5508750D01*
X6739750Y-7740000D02*
X7039750Y-8040000D01*
X7039750Y-7740000D02*
X6739750Y-8040000D01*
X6889750Y-7740000D02*
X6889750Y-8040000D01*
X6739750Y-7890000D02*
X7039750Y-7890000D01*
X6977880Y-15360000D02*
X7277880Y-15660000D01*
X7277880Y-15360000D02*
X6977880Y-15660000D01*
X7127880Y-15360000D02*
X7127880Y-15660000D01*
X6977880Y-15510000D02*
X7277880Y-15510000D01*
X7216000Y-9645000D02*
X7516000Y-9945000D01*
X7516000Y-9645000D02*
X7216000Y-9945000D01*
X7366000Y-9645000D02*
X7366000Y-9945000D01*
X7216000Y-9795000D02*
X7516000Y-9795000D01*
X7374750Y-5104750D02*
X7674750Y-5404750D01*
X7674750Y-5104750D02*
X7374750Y-5404750D01*
X7524750Y-5104750D02*
X7524750Y-5404750D01*
X7374750Y-5254750D02*
X7674750Y-5254750D01*
X7374750Y-7486000D02*
X7674750Y-7786000D01*
X7674750Y-7486000D02*
X7374750Y-7786000D01*
X7524750Y-7486000D02*
X7524750Y-7786000D01*
X7374750Y-7636000D02*
X7674750Y-7636000D01*
X7454250Y-11550000D02*
X7754250Y-11850000D01*
X7754250Y-11550000D02*
X7454250Y-11850000D01*
X7604250Y-11550000D02*
X7604250Y-11850000D01*
X7454250Y-11700000D02*
X7754250Y-11700000D01*
X7612880Y-15106000D02*
X7912880Y-15406000D01*
X7912880Y-15106000D02*
X7612880Y-15406000D01*
X7762880Y-15106000D02*
X7762880Y-15406000D01*
X7612880Y-15256000D02*
X7912880Y-15256000D01*
X7851000Y-9391000D02*
X8151000Y-9691000D01*
X8151000Y-9391000D02*
X7851000Y-9691000D01*
X8001000Y-9391000D02*
X8001000Y-9691000D01*
X7851000Y-9541000D02*
X8151000Y-9541000D01*
X7927200Y-13455000D02*
X8227200Y-13755000D01*
X8227200Y-13455000D02*
X7927200Y-13755000D01*
X8077200Y-13455000D02*
X8077200Y-13755000D01*
X7927200Y-13605000D02*
X8227200Y-13605000D01*
X8089250Y-11296000D02*
X8389250Y-11596000D01*
X8389250Y-11296000D02*
X8089250Y-11596000D01*
X8239250Y-11296000D02*
X8239250Y-11596000D01*
X8089250Y-11446000D02*
X8389250Y-11446000D01*
X8562200Y-13201000D02*
X8862200Y-13501000D01*
X8862200Y-13201000D02*
X8562200Y-13501000D01*
X8712200Y-13201000D02*
X8712200Y-13501000D01*
X8562200Y-13351000D02*
X8862200Y-13351000D01*
X8644750Y-7740000D02*
X8944750Y-8040000D01*
X8944750Y-7740000D02*
X8644750Y-8040000D01*
X8794750Y-7740000D02*
X8794750Y-8040000D01*
X8644750Y-7890000D02*
X8944750Y-7890000D01*
X9279750Y-7486000D02*
X9579750Y-7786000D01*
X9579750Y-7486000D02*
X9279750Y-7786000D01*
X9429750Y-7486000D02*
X9429750Y-7786000D01*
X9279750Y-7636000D02*
X9579750Y-7636000D01*
X9359120Y-15360000D02*
X9659120Y-15660000D01*
X9659120Y-15360000D02*
X9359120Y-15660000D01*
X9509120Y-15360000D02*
X9509120Y-15660000D01*
X9359120Y-15510000D02*
X9659120Y-15510000D01*
X9597200Y-9645000D02*
X9897200Y-9945000D01*
X9897200Y-9645000D02*
X9597200Y-9945000D01*
X9747200Y-9645000D02*
X9747200Y-9945000D01*
X9597200Y-9795000D02*
X9897200Y-9795000D01*
X9994120Y-15106000D02*
X10294120Y-15406000D01*
X10294120Y-15106000D02*
X9994120Y-15406000D01*
X10144120Y-15106000D02*
X10144120Y-15406000D01*
X9994120Y-15256000D02*
X10294120Y-15256000D01*
X10073500Y-11550000D02*
X10373500Y-11850000D01*
X10373500Y-11550000D02*
X10073500Y-11850000D01*
X10223500Y-11550000D02*
X10223500Y-11850000D01*
X10073500Y-11700000D02*
X10373500Y-11700000D01*
X10232200Y-9391000D02*
X10532200Y-9691000D01*
X10532200Y-9391000D02*
X10232200Y-9691000D01*
X10382200Y-9391000D02*
X10382200Y-9691000D01*
X10232200Y-9541000D02*
X10532200Y-9541000D01*
X10549750Y-5358750D02*
X10849750Y-5658750D01*
X10849750Y-5358750D02*
X10549750Y-5658750D01*
X10699750Y-5358750D02*
X10699750Y-5658750D01*
X10549750Y-5508750D02*
X10849750Y-5508750D01*
X10549800Y-7740000D02*
X10849800Y-8040000D01*
X10849800Y-7740000D02*
X10549800Y-8040000D01*
X10699800Y-7740000D02*
X10699800Y-8040000D01*
X10549800Y-7890000D02*
X10849800Y-7890000D01*
X10708500Y-11296000D02*
X11008500Y-11596000D01*
X11008500Y-11296000D02*
X10708500Y-11596000D01*
X10858500Y-11296000D02*
X10858500Y-11596000D01*
X10708500Y-11446000D02*
X11008500Y-11446000D01*
X11026000Y-13455000D02*
X11326000Y-13755000D01*
X11326000Y-13455000D02*
X11026000Y-13755000D01*
X11176000Y-13455000D02*
X11176000Y-13755000D01*
X11026000Y-13605000D02*
X11326000Y-13605000D01*
X11184750Y-5104750D02*
X11484750Y-5404750D01*
X11484750Y-5104750D02*
X11184750Y-5404750D01*
X11334750Y-5104750D02*
X11334750Y-5404750D01*
X11184750Y-5254750D02*
X11484750Y-5254750D01*
X11184800Y-7486000D02*
X11484800Y-7786000D01*
X11484800Y-7486000D02*
X11184800Y-7786000D01*
X11334800Y-7486000D02*
X11334800Y-7786000D01*
X11184800Y-7636000D02*
X11484800Y-7636000D01*
X11502200Y-9645000D02*
X11802200Y-9945000D01*
X11802200Y-9645000D02*
X11502200Y-9945000D01*
X11652200Y-9645000D02*
X11652200Y-9945000D01*
X11502200Y-9795000D02*
X11802200Y-9795000D01*
X11661000Y-13201000D02*
X11961000Y-13501000D01*
X11961000Y-13201000D02*
X11661000Y-13501000D01*
X11811000Y-13201000D02*
X11811000Y-13501000D01*
X11661000Y-13351000D02*
X11961000Y-13351000D01*
X11740400Y-15360000D02*
X12040400Y-15660000D01*
X12040400Y-15360000D02*
X11740400Y-15660000D01*
X11890400Y-15360000D02*
X11890400Y-15660000D01*
X11740400Y-15510000D02*
X12040400Y-15510000D01*
X11978500Y-11550000D02*
X12278500Y-11850000D01*
X12278500Y-11550000D02*
X11978500Y-11850000D01*
X12128500Y-11550000D02*
X12128500Y-11850000D01*
X11978500Y-11700000D02*
X12278500Y-11700000D01*
X12137200Y-9391000D02*
X12437200Y-9691000D01*
X12437200Y-9391000D02*
X12137200Y-9691000D01*
X12287200Y-9391000D02*
X12287200Y-9691000D01*
X12137200Y-9541000D02*
X12437200Y-9541000D01*
X12375400Y-15106000D02*
X12675400Y-15406000D01*
X12675400Y-15106000D02*
X12375400Y-15406000D01*
X12525400Y-15106000D02*
X12525400Y-15406000D01*
X12375400Y-15256000D02*
X12675400Y-15256000D01*
X12454750Y-5358750D02*
X12754750Y-5658750D01*
X12754750Y-5358750D02*
X12454750Y-5658750D01*
X12604750Y-5358750D02*
X12604750Y-5658750D01*
X12454750Y-5508750D02*
X12754750Y-5508750D01*
X12454800Y-7740000D02*
X12754800Y-8040000D01*
X12754800Y-7740000D02*
X12454800Y-8040000D01*
X12604800Y-7740000D02*
X12604800Y-8040000D01*
X12454800Y-7890000D02*
X12754800Y-7890000D01*
X12613500Y-11296000D02*
X12913500Y-11596000D01*
X12913500Y-11296000D02*
X12613500Y-11596000D01*
X12763500Y-11296000D02*
X12763500Y-11596000D01*
X12613500Y-11446000D02*
X12913500Y-11446000D01*
X12931000Y-13455000D02*
X13231000Y-13755000D01*
X13231000Y-13455000D02*
X12931000Y-13755000D01*
X13081000Y-13455000D02*
X13081000Y-13755000D01*
X12931000Y-13605000D02*
X13231000Y-13605000D01*
X13089750Y-5104750D02*
X13389750Y-5404750D01*
X13389750Y-5104750D02*
X13089750Y-5404750D01*
X13239750Y-5104750D02*
X13239750Y-5404750D01*
X13089750Y-5254750D02*
X13389750Y-5254750D01*
X13089800Y-7486000D02*
X13389800Y-7786000D01*
X13389800Y-7486000D02*
X13089800Y-7786000D01*
X13239800Y-7486000D02*
X13239800Y-7786000D01*
X13089800Y-7636000D02*
X13389800Y-7636000D01*
X13407200Y-9645000D02*
X13707200Y-9945000D01*
X13707200Y-9645000D02*
X13407200Y-9945000D01*
X13557200Y-9645000D02*
X13557200Y-9945000D01*
X13407200Y-9795000D02*
X13707200Y-9795000D01*
X13566000Y-13201000D02*
X13866000Y-13501000D01*
X13866000Y-13201000D02*
X13566000Y-13501000D01*
X13716000Y-13201000D02*
X13716000Y-13501000D01*
X13566000Y-13351000D02*
X13866000Y-13351000D01*
X13883500Y-11550000D02*
X14183500Y-11850000D01*
X14183500Y-11550000D02*
X13883500Y-11850000D01*
X14033500Y-11550000D02*
X14033500Y-11850000D01*
X13883500Y-11700000D02*
X14183500Y-11700000D01*
X14042200Y-9391000D02*
X14342200Y-9691000D01*
X14342200Y-9391000D02*
X14042200Y-9691000D01*
X14192200Y-9391000D02*
X14192200Y-9691000D01*
X14042200Y-9541000D02*
X14342200Y-9541000D01*
X14359750Y-5358750D02*
X14659750Y-5658750D01*
X14659750Y-5358750D02*
X14359750Y-5658750D01*
X14509750Y-5358750D02*
X14509750Y-5658750D01*
X14359750Y-5508750D02*
X14659750Y-5508750D01*
X14359800Y-7740000D02*
X14659800Y-8040000D01*
X14659800Y-7740000D02*
X14359800Y-8040000D01*
X14509800Y-7740000D02*
X14509800Y-8040000D01*
X14359800Y-7890000D02*
X14659800Y-7890000D01*
X14518500Y-11296000D02*
X14818500Y-11596000D01*
X14818500Y-11296000D02*
X14518500Y-11596000D01*
X14668500Y-11296000D02*
X14668500Y-11596000D01*
X14518500Y-11446000D02*
X14818500Y-11446000D01*
X14836000Y-13455000D02*
X15136000Y-13755000D01*
X15136000Y-13455000D02*
X14836000Y-13755000D01*
X14986000Y-13455000D02*
X14986000Y-13755000D01*
X14836000Y-13605000D02*
X15136000Y-13605000D01*
X14994750Y-5104750D02*
X15294750Y-5404750D01*
X15294750Y-5104750D02*
X14994750Y-5404750D01*
X15144750Y-5104750D02*
X15144750Y-5404750D01*
X14994750Y-5254750D02*
X15294750Y-5254750D01*
X14994800Y-7486000D02*
X15294800Y-7786000D01*
X15294800Y-7486000D02*
X14994800Y-7786000D01*
X15144800Y-7486000D02*
X15144800Y-7786000D01*
X14994800Y-7636000D02*
X15294800Y-7636000D01*
X15312200Y-9645000D02*
X15612200Y-9945000D01*
X15612200Y-9645000D02*
X15312200Y-9945000D01*
X15462200Y-9645000D02*
X15462200Y-9945000D01*
X15312200Y-9795000D02*
X15612200Y-9795000D01*
X15471000Y-13201000D02*
X15771000Y-13501000D01*
X15771000Y-13201000D02*
X15471000Y-13501000D01*
X15621000Y-13201000D02*
X15621000Y-13501000D01*
X15471000Y-13351000D02*
X15771000Y-13351000D01*
X15788500Y-11550000D02*
X16088500Y-11850000D01*
X16088500Y-11550000D02*
X15788500Y-11850000D01*
X15938500Y-11550000D02*
X15938500Y-11850000D01*
X15788500Y-11700000D02*
X16088500Y-11700000D01*
X15947200Y-9391000D02*
X16247200Y-9691000D01*
X16247200Y-9391000D02*
X15947200Y-9691000D01*
X16097200Y-9391000D02*
X16097200Y-9691000D01*
X15947200Y-9541000D02*
X16247200Y-9541000D01*
X16264750Y-5358750D02*
X16564750Y-5658750D01*
X16564750Y-5358750D02*
X16264750Y-5658750D01*
X16414750Y-5358750D02*
X16414750Y-5658750D01*
X16264750Y-5508750D02*
X16564750Y-5508750D01*
X16264800Y-7740000D02*
X16564800Y-8040000D01*
X16564800Y-7740000D02*
X16264800Y-8040000D01*
X16414800Y-7740000D02*
X16414800Y-8040000D01*
X16264800Y-7890000D02*
X16564800Y-7890000D01*
X16423500Y-11296000D02*
X16723500Y-11596000D01*
X16723500Y-11296000D02*
X16423500Y-11596000D01*
X16573500Y-11296000D02*
X16573500Y-11596000D01*
X16423500Y-11446000D02*
X16723500Y-11446000D01*
X16741000Y-13455000D02*
X17041000Y-13755000D01*
X17041000Y-13455000D02*
X16741000Y-13755000D01*
X16891000Y-13455000D02*
X16891000Y-13755000D01*
X16741000Y-13605000D02*
X17041000Y-13605000D01*
X16899750Y-5104750D02*
X17199750Y-5404750D01*
X17199750Y-5104750D02*
X16899750Y-5404750D01*
X17049750Y-5104750D02*
X17049750Y-5404750D01*
X16899750Y-5254750D02*
X17199750Y-5254750D01*
X16899800Y-7486000D02*
X17199800Y-7786000D01*
X17199800Y-7486000D02*
X16899800Y-7786000D01*
X17049800Y-7486000D02*
X17049800Y-7786000D01*
X16899800Y-7636000D02*
X17199800Y-7636000D01*
X17217200Y-9645000D02*
X17517200Y-9945000D01*
X17517200Y-9645000D02*
X17217200Y-9945000D01*
X17367200Y-9645000D02*
X17367200Y-9945000D01*
X17217200Y-9795000D02*
X17517200Y-9795000D01*
X17376000Y-13201000D02*
X17676000Y-13501000D01*
X17676000Y-13201000D02*
X17376000Y-13501000D01*
X17526000Y-13201000D02*
X17526000Y-13501000D01*
X17376000Y-13351000D02*
X17676000Y-13351000D01*
X17693500Y-11550000D02*
X17993500Y-11850000D01*
X17993500Y-11550000D02*
X17693500Y-11850000D01*
X17843500Y-11550000D02*
X17843500Y-11850000D01*
X17693500Y-11700000D02*
X17993500Y-11700000D01*
X17852200Y-9391000D02*
X18152200Y-9691000D01*
X18152200Y-9391000D02*
X17852200Y-9691000D01*
X18002200Y-9391000D02*
X18002200Y-9691000D01*
X17852200Y-9541000D02*
X18152200Y-9541000D01*
X18169800Y-7740000D02*
X18469800Y-8040000D01*
X18469800Y-7740000D02*
X18169800Y-8040000D01*
X18319800Y-7740000D02*
X18319800Y-8040000D01*
X18169800Y-7890000D02*
X18469800Y-7890000D01*
X18328500Y-11296000D02*
X18628500Y-11596000D01*
X18628500Y-11296000D02*
X18328500Y-11596000D01*
X18478500Y-11296000D02*
X18478500Y-11596000D01*
X18328500Y-11446000D02*
X18628500Y-11446000D01*
X18646000Y-13455000D02*
X18946000Y-13755000D01*
X18946000Y-13455000D02*
X18646000Y-13755000D01*
X18796000Y-13455000D02*
X18796000Y-13755000D01*
X18646000Y-13605000D02*
X18946000Y-13605000D01*
X18804800Y-7486000D02*
X19104800Y-7786000D01*
X19104800Y-7486000D02*
X18804800Y-7786000D01*
X18954800Y-7486000D02*
X18954800Y-7786000D01*
X18804800Y-7636000D02*
X19104800Y-7636000D01*
X18884100Y-15360000D02*
X19184100Y-15660000D01*
X19184100Y-15360000D02*
X18884100Y-15660000D01*
X19034100Y-15360000D02*
X19034100Y-15660000D01*
X18884100Y-15510000D02*
X19184100Y-15510000D01*
X19122200Y-9645000D02*
X19422200Y-9945000D01*
X19422200Y-9645000D02*
X19122200Y-9945000D01*
X19272200Y-9645000D02*
X19272200Y-9945000D01*
X19122200Y-9795000D02*
X19422200Y-9795000D01*
X19122250Y-5358750D02*
X19422250Y-5658750D01*
X19422250Y-5358750D02*
X19122250Y-5658750D01*
X19272250Y-5358750D02*
X19272250Y-5658750D01*
X19122250Y-5508750D02*
X19422250Y-5508750D01*
X19281000Y-13201000D02*
X19581000Y-13501000D01*
X19581000Y-13201000D02*
X19281000Y-13501000D01*
X19431000Y-13201000D02*
X19431000Y-13501000D01*
X19281000Y-13351000D02*
X19581000Y-13351000D01*
X19519100Y-15106000D02*
X19819100Y-15406000D01*
X19819100Y-15106000D02*
X19519100Y-15406000D01*
X19669100Y-15106000D02*
X19669100Y-15406000D01*
X19519100Y-15256000D02*
X19819100Y-15256000D01*
X19598500Y-11550000D02*
X19898500Y-11850000D01*
X19898500Y-11550000D02*
X19598500Y-11850000D01*
X19748500Y-11550000D02*
X19748500Y-11850000D01*
X19598500Y-11700000D02*
X19898500Y-11700000D01*
X19757200Y-9391000D02*
X20057200Y-9691000D01*
X20057200Y-9391000D02*
X19757200Y-9691000D01*
X19907200Y-9391000D02*
X19907200Y-9691000D01*
X19757200Y-9541000D02*
X20057200Y-9541000D01*
X19757250Y-5104750D02*
X20057250Y-5404750D01*
X20057250Y-5104750D02*
X19757250Y-5404750D01*
X19907250Y-5104750D02*
X19907250Y-5404750D01*
X19757250Y-5254750D02*
X20057250Y-5254750D01*
X20074800Y-7740000D02*
X20374800Y-8040000D01*
X20374800Y-7740000D02*
X20074800Y-8040000D01*
X20224800Y-7740000D02*
X20224800Y-8040000D01*
X20074800Y-7890000D02*
X20374800Y-7890000D01*
X20233500Y-11296000D02*
X20533500Y-11596000D01*
X20533500Y-11296000D02*
X20233500Y-11596000D01*
X20383500Y-11296000D02*
X20383500Y-11596000D01*
X20233500Y-11446000D02*
X20533500Y-11446000D01*
X20551000Y-13455000D02*
X20851000Y-13755000D01*
X20851000Y-13455000D02*
X20551000Y-13755000D01*
X20701000Y-13455000D02*
X20701000Y-13755000D01*
X20551000Y-13605000D02*
X20851000Y-13605000D01*
X20709800Y-7486000D02*
X21009800Y-7786000D01*
X21009800Y-7486000D02*
X20709800Y-7786000D01*
X20859800Y-7486000D02*
X20859800Y-7786000D01*
X20709800Y-7636000D02*
X21009800Y-7636000D01*
X21027200Y-9645000D02*
X21327200Y-9945000D01*
X21327200Y-9645000D02*
X21027200Y-9945000D01*
X21177200Y-9645000D02*
X21177200Y-9945000D01*
X21027200Y-9795000D02*
X21327200Y-9795000D01*
X21027250Y-5358750D02*
X21327250Y-5658750D01*
X21327250Y-5358750D02*
X21027250Y-5658750D01*
X21177250Y-5358750D02*
X21177250Y-5658750D01*
X21027250Y-5508750D02*
X21327250Y-5508750D01*
X21186000Y-13201000D02*
X21486000Y-13501000D01*
X21486000Y-13201000D02*
X21186000Y-13501000D01*
X21336000Y-13201000D02*
X21336000Y-13501000D01*
X21186000Y-13351000D02*
X21486000Y-13351000D01*
X21503500Y-11550000D02*
X21803500Y-11850000D01*
X21803500Y-11550000D02*
X21503500Y-11850000D01*
X21653500Y-11550000D02*
X21653500Y-11850000D01*
X21503500Y-11700000D02*
X21803500Y-11700000D01*
X21662200Y-9391000D02*
X21962200Y-9691000D01*
X21962200Y-9391000D02*
X21662200Y-9691000D01*
X21812200Y-9391000D02*
X21812200Y-9691000D01*
X21662200Y-9541000D02*
X21962200Y-9541000D01*
X21662250Y-5104750D02*
X21962250Y-5404750D01*
X21962250Y-5104750D02*
X21662250Y-5404750D01*
X21812250Y-5104750D02*
X21812250Y-5404750D01*
X21662250Y-5254750D02*
X21962250Y-5254750D01*
X21979800Y-7740000D02*
X22279800Y-8040000D01*
X22279800Y-7740000D02*
X21979800Y-8040000D01*
X22129800Y-7740000D02*
X22129800Y-8040000D01*
X21979800Y-7890000D02*
X22279800Y-7890000D01*
X22138500Y-11296000D02*
X22438500Y-11596000D01*
X22438500Y-11296000D02*
X22138500Y-11596000D01*
X22288500Y-11296000D02*
X22288500Y-11596000D01*
X22138500Y-11446000D02*
X22438500Y-11446000D01*
X22456000Y-13455000D02*
X22756000Y-13755000D01*
X22756000Y-13455000D02*
X22456000Y-13755000D01*
X22606000Y-13455000D02*
X22606000Y-13755000D01*
X22456000Y-13605000D02*
X22756000Y-13605000D01*
X22614800Y-7486000D02*
X22914800Y-7786000D01*
X22914800Y-7486000D02*
X22614800Y-7786000D01*
X22764800Y-7486000D02*
X22764800Y-7786000D01*
X22614800Y-7636000D02*
X22914800Y-7636000D01*
X22932200Y-9645000D02*
X23232200Y-9945000D01*
X23232200Y-9645000D02*
X22932200Y-9945000D01*
X23082200Y-9645000D02*
X23082200Y-9945000D01*
X22932200Y-9795000D02*
X23232200Y-9795000D01*
X22932250Y-5358750D02*
X23232250Y-5658750D01*
X23232250Y-5358750D02*
X22932250Y-5658750D01*
X23082250Y-5358750D02*
X23082250Y-5658750D01*
X22932250Y-5508750D02*
X23232250Y-5508750D01*
X23091000Y-13201000D02*
X23391000Y-13501000D01*
X23391000Y-13201000D02*
X23091000Y-13501000D01*
X23241000Y-13201000D02*
X23241000Y-13501000D01*
X23091000Y-13351000D02*
X23391000Y-13351000D01*
X23408500Y-11550000D02*
X23708500Y-11850000D01*
X23708500Y-11550000D02*
X23408500Y-11850000D01*
X23558500Y-11550000D02*
X23558500Y-11850000D01*
X23408500Y-11700000D02*
X23708500Y-11700000D01*
X23567200Y-9391000D02*
X23867200Y-9691000D01*
X23867200Y-9391000D02*
X23567200Y-9691000D01*
X23717200Y-9391000D02*
X23717200Y-9691000D01*
X23567200Y-9541000D02*
X23867200Y-9541000D01*
X23567250Y-5104750D02*
X23867250Y-5404750D01*
X23867250Y-5104750D02*
X23567250Y-5404750D01*
X23717250Y-5104750D02*
X23717250Y-5404750D01*
X23567250Y-5254750D02*
X23867250Y-5254750D01*
X23884800Y-7740000D02*
X24184800Y-8040000D01*
X24184800Y-7740000D02*
X23884800Y-8040000D01*
X24034800Y-7740000D02*
X24034800Y-8040000D01*
X23884800Y-7890000D02*
X24184800Y-7890000D01*
X24043500Y-11296000D02*
X24343500Y-11596000D01*
X24343500Y-11296000D02*
X24043500Y-11596000D01*
X24193500Y-11296000D02*
X24193500Y-11596000D01*
X24043500Y-11446000D02*
X24343500Y-11446000D01*
X24361000Y-13455000D02*
X24661000Y-13755000D01*
X24661000Y-13455000D02*
X24361000Y-13755000D01*
X24511000Y-13455000D02*
X24511000Y-13755000D01*
X24361000Y-13605000D02*
X24661000Y-13605000D01*
X24519800Y-7486000D02*
X24819800Y-7786000D01*
X24819800Y-7486000D02*
X24519800Y-7786000D01*
X24669800Y-7486000D02*
X24669800Y-7786000D01*
X24519800Y-7636000D02*
X24819800Y-7636000D01*
X24837200Y-9645000D02*
X25137200Y-9945000D01*
X25137200Y-9645000D02*
X24837200Y-9945000D01*
X24987200Y-9645000D02*
X24987200Y-9945000D01*
X24837200Y-9795000D02*
X25137200Y-9795000D01*
X24837250Y-5358750D02*
X25137250Y-5658750D01*
X25137250Y-5358750D02*
X24837250Y-5658750D01*
X24987250Y-5358750D02*
X24987250Y-5658750D01*
X24837250Y-5508750D02*
X25137250Y-5508750D01*
X24996000Y-13201000D02*
X25296000Y-13501000D01*
X25296000Y-13201000D02*
X24996000Y-13501000D01*
X25146000Y-13201000D02*
X25146000Y-13501000D01*
X24996000Y-13351000D02*
X25296000Y-13351000D01*
X25313500Y-11550000D02*
X25613500Y-11850000D01*
X25613500Y-11550000D02*
X25313500Y-11850000D01*
X25463500Y-11550000D02*
X25463500Y-11850000D01*
X25313500Y-11700000D02*
X25613500Y-11700000D01*
X25472200Y-9391000D02*
X25772200Y-9691000D01*
X25772200Y-9391000D02*
X25472200Y-9691000D01*
X25622200Y-9391000D02*
X25622200Y-9691000D01*
X25472200Y-9541000D02*
X25772200Y-9541000D01*
X25472250Y-5104750D02*
X25772250Y-5404750D01*
X25772250Y-5104750D02*
X25472250Y-5404750D01*
X25622250Y-5104750D02*
X25622250Y-5404750D01*
X25472250Y-5254750D02*
X25772250Y-5254750D01*
X25789800Y-7740000D02*
X26089800Y-8040000D01*
X26089800Y-7740000D02*
X25789800Y-8040000D01*
X25939800Y-7740000D02*
X25939800Y-8040000D01*
X25789800Y-7890000D02*
X26089800Y-7890000D01*
X25948500Y-11296000D02*
X26248500Y-11596000D01*
X26248500Y-11296000D02*
X25948500Y-11596000D01*
X26098500Y-11296000D02*
X26098500Y-11596000D01*
X25948500Y-11446000D02*
X26248500Y-11446000D01*
X26027900Y-15360000D02*
X26327900Y-15660000D01*
X26327900Y-15360000D02*
X26027900Y-15660000D01*
X26177900Y-15360000D02*
X26177900Y-15660000D01*
X26027900Y-15510000D02*
X26327900Y-15510000D01*
X26266000Y-13455000D02*
X26566000Y-13755000D01*
X26566000Y-13455000D02*
X26266000Y-13755000D01*
X26416000Y-13455000D02*
X26416000Y-13755000D01*
X26266000Y-13605000D02*
X26566000Y-13605000D01*
X26424800Y-7486000D02*
X26724800Y-7786000D01*
X26724800Y-7486000D02*
X26424800Y-7786000D01*
X26574800Y-7486000D02*
X26574800Y-7786000D01*
X26424800Y-7636000D02*
X26724800Y-7636000D01*
X26662900Y-15106000D02*
X26962900Y-15406000D01*
X26962900Y-15106000D02*
X26662900Y-15406000D01*
X26812900Y-15106000D02*
X26812900Y-15406000D01*
X26662900Y-15256000D02*
X26962900Y-15256000D01*
X26742200Y-9645000D02*
X27042200Y-9945000D01*
X27042200Y-9645000D02*
X26742200Y-9945000D01*
X26892200Y-9645000D02*
X26892200Y-9945000D01*
X26742200Y-9795000D02*
X27042200Y-9795000D01*
X26901000Y-13201000D02*
X27201000Y-13501000D01*
X27201000Y-13201000D02*
X26901000Y-13501000D01*
X27051000Y-13201000D02*
X27051000Y-13501000D01*
X26901000Y-13351000D02*
X27201000Y-13351000D01*
X27218500Y-11550000D02*
X27518500Y-11850000D01*
X27518500Y-11550000D02*
X27218500Y-11850000D01*
X27368500Y-11550000D02*
X27368500Y-11850000D01*
X27218500Y-11700000D02*
X27518500Y-11700000D01*
X27377200Y-9391000D02*
X27677200Y-9691000D01*
X27677200Y-9391000D02*
X27377200Y-9691000D01*
X27527200Y-9391000D02*
X27527200Y-9691000D01*
X27377200Y-9541000D02*
X27677200Y-9541000D01*
X27694750Y-5358750D02*
X27994750Y-5658750D01*
X27994750Y-5358750D02*
X27694750Y-5658750D01*
X27844750Y-5358750D02*
X27844750Y-5658750D01*
X27694750Y-5508750D02*
X27994750Y-5508750D01*
X27694800Y-7740000D02*
X27994800Y-8040000D01*
X27994800Y-7740000D02*
X27694800Y-8040000D01*
X27844800Y-7740000D02*
X27844800Y-8040000D01*
X27694800Y-7890000D02*
X27994800Y-7890000D01*
X27853500Y-11296000D02*
X28153500Y-11596000D01*
X28153500Y-11296000D02*
X27853500Y-11596000D01*
X28003500Y-11296000D02*
X28003500Y-11596000D01*
X27853500Y-11446000D02*
X28153500Y-11446000D01*
X28171000Y-13455000D02*
X28471000Y-13755000D01*
X28471000Y-13455000D02*
X28171000Y-13755000D01*
X28321000Y-13455000D02*
X28321000Y-13755000D01*
X28171000Y-13605000D02*
X28471000Y-13605000D01*
X28329750Y-5104750D02*
X28629750Y-5404750D01*
X28629750Y-5104750D02*
X28329750Y-5404750D01*
X28479750Y-5104750D02*
X28479750Y-5404750D01*
X28329750Y-5254750D02*
X28629750Y-5254750D01*
X28329800Y-7486000D02*
X28629800Y-7786000D01*
X28629800Y-7486000D02*
X28329800Y-7786000D01*
X28479800Y-7486000D02*
X28479800Y-7786000D01*
X28329800Y-7636000D02*
X28629800Y-7636000D01*
X28409100Y-15360000D02*
X28709100Y-15660000D01*
X28709100Y-15360000D02*
X28409100Y-15660000D01*
X28559100Y-15360000D02*
X28559100Y-15660000D01*
X28409100Y-15510000D02*
X28709100Y-15510000D01*
X28647200Y-9645000D02*
X28947200Y-9945000D01*
X28947200Y-9645000D02*
X28647200Y-9945000D01*
X28797200Y-9645000D02*
X28797200Y-9945000D01*
X28647200Y-9795000D02*
X28947200Y-9795000D01*
X28806000Y-13201000D02*
X29106000Y-13501000D01*
X29106000Y-13201000D02*
X28806000Y-13501000D01*
X28956000Y-13201000D02*
X28956000Y-13501000D01*
X28806000Y-13351000D02*
X29106000Y-13351000D01*
X29044100Y-15106000D02*
X29344100Y-15406000D01*
X29344100Y-15106000D02*
X29044100Y-15406000D01*
X29194100Y-15106000D02*
X29194100Y-15406000D01*
X29044100Y-15256000D02*
X29344100Y-15256000D01*
X29123500Y-11550000D02*
X29423500Y-11850000D01*
X29423500Y-11550000D02*
X29123500Y-11850000D01*
X29273500Y-11550000D02*
X29273500Y-11850000D01*
X29123500Y-11700000D02*
X29423500Y-11700000D01*
X29282200Y-9391000D02*
X29582200Y-9691000D01*
X29582200Y-9391000D02*
X29282200Y-9691000D01*
X29432200Y-9391000D02*
X29432200Y-9691000D01*
X29282200Y-9541000D02*
X29582200Y-9541000D01*
X29599750Y-5358750D02*
X29899750Y-5658750D01*
X29899750Y-5358750D02*
X29599750Y-5658750D01*
X29749750Y-5358750D02*
X29749750Y-5658750D01*
X29599750Y-5508750D02*
X29899750Y-5508750D01*
X29599800Y-7740000D02*
X29899800Y-8040000D01*
X29899800Y-7740000D02*
X29599800Y-8040000D01*
X29749800Y-7740000D02*
X29749800Y-8040000D01*
X29599800Y-7890000D02*
X29899800Y-7890000D01*
X29758500Y-11296000D02*
X30058500Y-11596000D01*
X30058500Y-11296000D02*
X29758500Y-11596000D01*
X29908500Y-11296000D02*
X29908500Y-11596000D01*
X29758500Y-11446000D02*
X30058500Y-11446000D01*
X30234750Y-5104750D02*
X30534750Y-5404750D01*
X30534750Y-5104750D02*
X30234750Y-5404750D01*
X30384750Y-5104750D02*
X30384750Y-5404750D01*
X30234750Y-5254750D02*
X30534750Y-5254750D01*
X30234800Y-7486000D02*
X30534800Y-7786000D01*
X30534800Y-7486000D02*
X30234800Y-7786000D01*
X30384800Y-7486000D02*
X30384800Y-7786000D01*
X30234800Y-7636000D02*
X30534800Y-7636000D01*
X30552200Y-9645000D02*
X30852200Y-9945000D01*
X30852200Y-9645000D02*
X30552200Y-9945000D01*
X30702200Y-9645000D02*
X30702200Y-9945000D01*
X30552200Y-9795000D02*
X30852200Y-9795000D01*
X30789100Y-15360000D02*
X31089100Y-15660000D01*
X31089100Y-15360000D02*
X30789100Y-15660000D01*
X30939100Y-15360000D02*
X30939100Y-15660000D01*
X30789100Y-15510000D02*
X31089100Y-15510000D01*
X31187200Y-9391000D02*
X31487200Y-9691000D01*
X31487200Y-9391000D02*
X31187200Y-9691000D01*
X31337200Y-9391000D02*
X31337200Y-9691000D01*
X31187200Y-9541000D02*
X31487200Y-9541000D01*
X31424100Y-15106000D02*
X31724100Y-15406000D01*
X31724100Y-15106000D02*
X31424100Y-15406000D01*
X31574100Y-15106000D02*
X31574100Y-15406000D01*
X31424100Y-15256000D02*
X31724100Y-15256000D01*
X31504750Y-5358750D02*
X31804750Y-5658750D01*
X31804750Y-5358750D02*
X31504750Y-5658750D01*
X31654750Y-5358750D02*
X31654750Y-5658750D01*
X31504750Y-5508750D02*
X31804750Y-5508750D01*
X31742900Y-13455000D02*
X32042900Y-13755000D01*
X32042900Y-13455000D02*
X31742900Y-13755000D01*
X31892900Y-13455000D02*
X31892900Y-13755000D01*
X31742900Y-13605000D02*
X32042900Y-13605000D01*
X32139750Y-5104750D02*
X32439750Y-5404750D01*
X32439750Y-5104750D02*
X32139750Y-5404750D01*
X32289750Y-5104750D02*
X32289750Y-5404750D01*
X32139750Y-5254750D02*
X32439750Y-5254750D01*
X32219100Y-11550000D02*
X32519100Y-11850000D01*
X32519100Y-11550000D02*
X32219100Y-11850000D01*
X32369100Y-11550000D02*
X32369100Y-11850000D01*
X32219100Y-11700000D02*
X32519100Y-11700000D01*
X32377900Y-13201000D02*
X32677900Y-13501000D01*
X32677900Y-13201000D02*
X32377900Y-13501000D01*
X32527900Y-13201000D02*
X32527900Y-13501000D01*
X32377900Y-13351000D02*
X32677900Y-13351000D01*
X32457300Y-7740000D02*
X32757300Y-8040000D01*
X32757300Y-7740000D02*
X32457300Y-8040000D01*
X32607300Y-7740000D02*
X32607300Y-8040000D01*
X32457300Y-7890000D02*
X32757300Y-7890000D01*
X32854100Y-11296000D02*
X33154100Y-11596000D01*
X33154100Y-11296000D02*
X32854100Y-11596000D01*
X33004100Y-11296000D02*
X33004100Y-11596000D01*
X32854100Y-11446000D02*
X33154100Y-11446000D01*
X32933500Y-9645000D02*
X33233500Y-9945000D01*
X33233500Y-9645000D02*
X32933500Y-9945000D01*
X33083500Y-9645000D02*
X33083500Y-9945000D01*
X32933500Y-9795000D02*
X33233500Y-9795000D01*
X33092300Y-7486000D02*
X33392300Y-7786000D01*
X33392300Y-7486000D02*
X33092300Y-7786000D01*
X33242300Y-7486000D02*
X33242300Y-7786000D01*
X33092300Y-7636000D02*
X33392300Y-7636000D01*
X33170400Y-15360000D02*
X33470400Y-15660000D01*
X33470400Y-15360000D02*
X33170400Y-15660000D01*
X33320400Y-15360000D02*
X33320400Y-15660000D01*
X33170400Y-15510000D02*
X33470400Y-15510000D01*
X33409750Y-5358750D02*
X33709750Y-5658750D01*
X33709750Y-5358750D02*
X33409750Y-5658750D01*
X33559750Y-5358750D02*
X33559750Y-5658750D01*
X33409750Y-5508750D02*
X33709750Y-5508750D01*
X33568500Y-9391000D02*
X33868500Y-9691000D01*
X33868500Y-9391000D02*
X33568500Y-9691000D01*
X33718500Y-9391000D02*
X33718500Y-9691000D01*
X33568500Y-9541000D02*
X33868500Y-9541000D01*
X33805400Y-15106000D02*
X34105400Y-15406000D01*
X34105400Y-15106000D02*
X33805400Y-15406000D01*
X33955400Y-15106000D02*
X33955400Y-15406000D01*
X33805400Y-15256000D02*
X34105400Y-15256000D01*
X34044750Y-5104750D02*
X34344750Y-5404750D01*
X34344750Y-5104750D02*
X34044750Y-5404750D01*
X34194750Y-5104750D02*
X34194750Y-5404750D01*
X34044750Y-5254750D02*
X34344750Y-5254750D01*
X35791000Y-5358750D02*
X36091000Y-5658750D01*
X36091000Y-5358750D02*
X35791000Y-5658750D01*
X35941000Y-5358750D02*
X35941000Y-5658750D01*
X35791000Y-5508750D02*
X36091000Y-5508750D01*
X35791000Y-7740000D02*
X36091000Y-8040000D01*
X36091000Y-7740000D02*
X35791000Y-8040000D01*
X35941000Y-7740000D02*
X35941000Y-8040000D01*
X35791000Y-7890000D02*
X36091000Y-7890000D01*
X35791000Y-9645000D02*
X36091000Y-9945000D01*
X36091000Y-9645000D02*
X35791000Y-9945000D01*
X35941000Y-9645000D02*
X35941000Y-9945000D01*
X35791000Y-9795000D02*
X36091000Y-9795000D01*
X35791000Y-15360000D02*
X36091000Y-15660000D01*
X36091000Y-15360000D02*
X35791000Y-15660000D01*
X35941000Y-15360000D02*
X35941000Y-15660000D01*
X35791000Y-15510000D02*
X36091000Y-15510000D01*
X36426000Y-5104750D02*
X36726000Y-5404750D01*
X36726000Y-5104750D02*
X36426000Y-5404750D01*
X36576000Y-5104750D02*
X36576000Y-5404750D01*
X36426000Y-5254750D02*
X36726000Y-5254750D01*
X36426000Y-7486000D02*
X36726000Y-7786000D01*
X36726000Y-7486000D02*
X36426000Y-7786000D01*
X36576000Y-7486000D02*
X36576000Y-7786000D01*
X36426000Y-7636000D02*
X36726000Y-7636000D01*
X36426000Y-9391000D02*
X36726000Y-9691000D01*
X36726000Y-9391000D02*
X36426000Y-9691000D01*
X36576000Y-9391000D02*
X36576000Y-9691000D01*
X36426000Y-9541000D02*
X36726000Y-9541000D01*
X36426000Y-15106000D02*
X36726000Y-15406000D01*
X36726000Y-15106000D02*
X36426000Y-15406000D01*
X36576000Y-15106000D02*
X36576000Y-15406000D01*
X36426000Y-15256000D02*
X36726000Y-15256000D01*
X37696000Y-5358750D02*
X37996000Y-5658750D01*
X37996000Y-5358750D02*
X37696000Y-5658750D01*
X37846000Y-5358750D02*
X37846000Y-5658750D01*
X37696000Y-5508750D02*
X37996000Y-5508750D01*
X37696000Y-7740000D02*
X37996000Y-8040000D01*
X37996000Y-7740000D02*
X37696000Y-8040000D01*
X37846000Y-7740000D02*
X37846000Y-8040000D01*
X37696000Y-7890000D02*
X37996000Y-7890000D01*
X37696000Y-9645000D02*
X37996000Y-9945000D01*
X37996000Y-9645000D02*
X37696000Y-9945000D01*
X37846000Y-9645000D02*
X37846000Y-9945000D01*
X37696000Y-9795000D02*
X37996000Y-9795000D01*
X37696000Y-13455000D02*
X37996000Y-13755000D01*
X37996000Y-13455000D02*
X37696000Y-13755000D01*
X37846000Y-13455000D02*
X37846000Y-13755000D01*
X37696000Y-13605000D02*
X37996000Y-13605000D01*
X37696000Y-15360000D02*
X37996000Y-15660000D01*
X37996000Y-15360000D02*
X37696000Y-15660000D01*
X37846000Y-15360000D02*
X37846000Y-15660000D01*
X37696000Y-15510000D02*
X37996000Y-15510000D01*
X38331000Y-5104750D02*
X38631000Y-5404750D01*
X38631000Y-5104750D02*
X38331000Y-5404750D01*
X38481000Y-5104750D02*
X38481000Y-5404750D01*
X38331000Y-5254750D02*
X38631000Y-5254750D01*
X38331000Y-7486000D02*
X38631000Y-7786000D01*
X38631000Y-7486000D02*
X38331000Y-7786000D01*
X38481000Y-7486000D02*
X38481000Y-7786000D01*
X38331000Y-7636000D02*
X38631000Y-7636000D01*
X38331000Y-9391000D02*
X38631000Y-9691000D01*
X38631000Y-9391000D02*
X38331000Y-9691000D01*
X38481000Y-9391000D02*
X38481000Y-9691000D01*
X38331000Y-9541000D02*
X38631000Y-9541000D01*
X38331000Y-13201000D02*
X38631000Y-13501000D01*
X38631000Y-13201000D02*
X38331000Y-13501000D01*
X38481000Y-13201000D02*
X38481000Y-13501000D01*
X38331000Y-13351000D02*
X38631000Y-13351000D01*
X38331000Y-15106000D02*
X38631000Y-15406000D01*
X38631000Y-15106000D02*
X38331000Y-15406000D01*
X38481000Y-15106000D02*
X38481000Y-15406000D01*
X38331000Y-15256000D02*
X38631000Y-15256000D01*
X39601000Y-5358750D02*
X39901000Y-5658750D01*
X39901000Y-5358750D02*
X39601000Y-5658750D01*
X39751000Y-5358750D02*
X39751000Y-5658750D01*
X39601000Y-5508750D02*
X39901000Y-5508750D01*
X39601000Y-7740000D02*
X39901000Y-8040000D01*
X39901000Y-7740000D02*
X39601000Y-8040000D01*
X39751000Y-7740000D02*
X39751000Y-8040000D01*
X39601000Y-7890000D02*
X39901000Y-7890000D01*
X39601000Y-9645000D02*
X39901000Y-9945000D01*
X39901000Y-9645000D02*
X39601000Y-9945000D01*
X39751000Y-9645000D02*
X39751000Y-9945000D01*
X39601000Y-9795000D02*
X39901000Y-9795000D01*
X39601000Y-15360000D02*
X39901000Y-15660000D01*
X39901000Y-15360000D02*
X39601000Y-15660000D01*
X39751000Y-15360000D02*
X39751000Y-15660000D01*
X39601000Y-15510000D02*
X39901000Y-15510000D01*
X40236000Y-5104750D02*
X40536000Y-5404750D01*
X40536000Y-5104750D02*
X40236000Y-5404750D01*
X40386000Y-5104750D02*
X40386000Y-5404750D01*
X40236000Y-5254750D02*
X40536000Y-5254750D01*
X40236000Y-7486000D02*
X40536000Y-7786000D01*
X40536000Y-7486000D02*
X40236000Y-7786000D01*
X40386000Y-7486000D02*
X40386000Y-7786000D01*
X40236000Y-7636000D02*
X40536000Y-7636000D01*
X40236000Y-9391000D02*
X40536000Y-9691000D01*
X40536000Y-9391000D02*
X40236000Y-9691000D01*
X40386000Y-9391000D02*
X40386000Y-9691000D01*
X40236000Y-9541000D02*
X40536000Y-9541000D01*
X40236000Y-15106000D02*
X40536000Y-15406000D01*
X40536000Y-15106000D02*
X40236000Y-15406000D01*
X40386000Y-15106000D02*
X40386000Y-15406000D01*
X40236000Y-15256000D02*
X40536000Y-15256000D01*
D20*
X6984900Y-13644500D02*
X7289900Y-13949500D01*
X7289900Y-13644500D02*
X6984900Y-13949500D01*
X7245235Y-13904835D02*
X7245235Y-13689165D01*
X7029565Y-13689165D01*
X7029565Y-13904835D01*
X7245235Y-13904835D01*
X9372500Y-13644500D02*
X9677500Y-13949500D01*
X9677500Y-13644500D02*
X9372500Y-13949500D01*
X9632835Y-13904835D02*
X9632835Y-13689165D01*
X9417165Y-13689165D01*
X9417165Y-13904835D01*
X9632835Y-13904835D01*
X14135600Y-15549500D02*
X14440600Y-15854500D01*
X14440600Y-15549500D02*
X14135600Y-15854500D01*
X14395935Y-15809835D02*
X14395935Y-15594165D01*
X14180265Y-15594165D01*
X14180265Y-15809835D01*
X14395935Y-15809835D01*
X24135600Y-15549500D02*
X24440600Y-15854500D01*
X24440600Y-15549500D02*
X24135600Y-15854500D01*
X24395935Y-15809835D02*
X24395935Y-15594165D01*
X24180265Y-15594165D01*
X24180265Y-15809835D01*
X24395935Y-15809835D01*
X30800600Y-13644500D02*
X31105600Y-13949500D01*
X31105600Y-13644500D02*
X30800600Y-13949500D01*
X31060935Y-13904835D02*
X31060935Y-13689165D01*
X30845265Y-13689165D01*
X30845265Y-13904835D01*
X31060935Y-13904835D01*
X31276800Y-11739500D02*
X31581800Y-12044500D01*
X31581800Y-11739500D02*
X31276800Y-12044500D01*
X31537135Y-11999835D02*
X31537135Y-11784165D01*
X31321465Y-11784165D01*
X31321465Y-11999835D01*
X31537135Y-11999835D01*
X31515000Y-6529500D02*
X31820000Y-6834500D01*
X31820000Y-6529500D02*
X31515000Y-6834500D01*
X31775335Y-6789835D02*
X31775335Y-6574165D01*
X31559665Y-6574165D01*
X31559665Y-6789835D01*
X31775335Y-6789835D01*
X33188200Y-13644500D02*
X33493200Y-13949500D01*
X33493200Y-13644500D02*
X33188200Y-13949500D01*
X33448535Y-13904835D02*
X33448535Y-13689165D01*
X33232865Y-13689165D01*
X33232865Y-13904835D01*
X33448535Y-13904835D01*
X33664400Y-11739500D02*
X33969400Y-12044500D01*
X33969400Y-11739500D02*
X33664400Y-12044500D01*
X33924735Y-11999835D02*
X33924735Y-11784165D01*
X33709065Y-11784165D01*
X33709065Y-11999835D01*
X33924735Y-11999835D01*
X33902600Y-6529500D02*
X34207600Y-6834500D01*
X34207600Y-6529500D02*
X33902600Y-6834500D01*
X34162935Y-6789835D02*
X34162935Y-6574165D01*
X33947265Y-6574165D01*
X33947265Y-6789835D01*
X34162935Y-6789835D01*
D21*
X6937400Y-12073000D02*
X7337400Y-12473000D01*
X7337400Y-12073000D02*
X6937400Y-12473000D01*
X7137400Y-12473000D02*
X7337400Y-12273000D01*
X7137400Y-12073000D01*
X6937400Y-12273000D01*
X7137400Y-12473000D01*
X6943750Y-4800750D02*
X7343750Y-5200750D01*
X7343750Y-4800750D02*
X6943750Y-5200750D01*
X7143750Y-5200750D02*
X7343750Y-5000750D01*
X7143750Y-4800750D01*
X6943750Y-5000750D01*
X7143750Y-5200750D01*
X6943750Y-7182000D02*
X7343750Y-7582000D01*
X7343750Y-7182000D02*
X6943750Y-7582000D01*
X7143750Y-7582000D02*
X7343750Y-7382000D01*
X7143750Y-7182000D01*
X6943750Y-7382000D01*
X7143750Y-7582000D01*
X7181880Y-14802000D02*
X7581880Y-15202000D01*
X7581880Y-14802000D02*
X7181880Y-15202000D01*
X7381880Y-15202000D02*
X7581880Y-15002000D01*
X7381880Y-14802000D01*
X7181880Y-15002000D01*
X7381880Y-15202000D01*
X7420000Y-9087000D02*
X7820000Y-9487000D01*
X7820000Y-9087000D02*
X7420000Y-9487000D01*
X7620000Y-9487000D02*
X7820000Y-9287000D01*
X7620000Y-9087000D01*
X7420000Y-9287000D01*
X7620000Y-9487000D01*
X7658250Y-10992000D02*
X8058250Y-11392000D01*
X8058250Y-10992000D02*
X7658250Y-11392000D01*
X7858250Y-11392000D02*
X8058250Y-11192000D01*
X7858250Y-10992000D01*
X7658250Y-11192000D01*
X7858250Y-11392000D01*
X8131200Y-12897000D02*
X8531200Y-13297000D01*
X8531200Y-12897000D02*
X8131200Y-13297000D01*
X8331200Y-13297000D02*
X8531200Y-13097000D01*
X8331200Y-12897000D01*
X8131200Y-13097000D01*
X8331200Y-13297000D01*
X8848750Y-7182000D02*
X9248750Y-7582000D01*
X9248750Y-7182000D02*
X8848750Y-7582000D01*
X9048750Y-7582000D02*
X9248750Y-7382000D01*
X9048750Y-7182000D01*
X8848750Y-7382000D01*
X9048750Y-7582000D01*
X9325000Y-12073000D02*
X9725000Y-12473000D01*
X9725000Y-12073000D02*
X9325000Y-12473000D01*
X9525000Y-12473000D02*
X9725000Y-12273000D01*
X9525000Y-12073000D01*
X9325000Y-12273000D01*
X9525000Y-12473000D01*
X9563120Y-14802000D02*
X9963120Y-15202000D01*
X9963120Y-14802000D02*
X9563120Y-15202000D01*
X9763120Y-15202000D02*
X9963120Y-15002000D01*
X9763120Y-14802000D01*
X9563120Y-15002000D01*
X9763120Y-15202000D01*
X9801200Y-9087000D02*
X10201200Y-9487000D01*
X10201200Y-9087000D02*
X9801200Y-9487000D01*
X10001200Y-9487000D02*
X10201200Y-9287000D01*
X10001200Y-9087000D01*
X9801200Y-9287000D01*
X10001200Y-9487000D01*
X10277500Y-10992000D02*
X10677500Y-11392000D01*
X10677500Y-10992000D02*
X10277500Y-11392000D01*
X10477500Y-11392000D02*
X10677500Y-11192000D01*
X10477500Y-10992000D01*
X10277500Y-11192000D01*
X10477500Y-11392000D01*
X10753750Y-4800750D02*
X11153750Y-5200750D01*
X11153750Y-4800750D02*
X10753750Y-5200750D01*
X10953750Y-5200750D02*
X11153750Y-5000750D01*
X10953750Y-4800750D01*
X10753750Y-5000750D01*
X10953750Y-5200750D01*
X10753800Y-7182000D02*
X11153800Y-7582000D01*
X11153800Y-7182000D02*
X10753800Y-7582000D01*
X10953800Y-7582000D02*
X11153800Y-7382000D01*
X10953800Y-7182000D01*
X10753800Y-7382000D01*
X10953800Y-7582000D01*
X11230000Y-12897000D02*
X11630000Y-13297000D01*
X11630000Y-12897000D02*
X11230000Y-13297000D01*
X11430000Y-13297000D02*
X11630000Y-13097000D01*
X11430000Y-12897000D01*
X11230000Y-13097000D01*
X11430000Y-13297000D01*
X11706200Y-9087000D02*
X12106200Y-9487000D01*
X12106200Y-9087000D02*
X11706200Y-9487000D01*
X11906200Y-9487000D02*
X12106200Y-9287000D01*
X11906200Y-9087000D01*
X11706200Y-9287000D01*
X11906200Y-9487000D01*
X11944400Y-14802000D02*
X12344400Y-15202000D01*
X12344400Y-14802000D02*
X11944400Y-15202000D01*
X12144400Y-15202000D02*
X12344400Y-15002000D01*
X12144400Y-14802000D01*
X11944400Y-15002000D01*
X12144400Y-15202000D01*
X12182500Y-10992000D02*
X12582500Y-11392000D01*
X12582500Y-10992000D02*
X12182500Y-11392000D01*
X12382500Y-11392000D02*
X12582500Y-11192000D01*
X12382500Y-10992000D01*
X12182500Y-11192000D01*
X12382500Y-11392000D01*
X12658750Y-4800750D02*
X13058750Y-5200750D01*
X13058750Y-4800750D02*
X12658750Y-5200750D01*
X12858750Y-5200750D02*
X13058750Y-5000750D01*
X12858750Y-4800750D01*
X12658750Y-5000750D01*
X12858750Y-5200750D01*
X12658800Y-7182000D02*
X13058800Y-7582000D01*
X13058800Y-7182000D02*
X12658800Y-7582000D01*
X12858800Y-7582000D02*
X13058800Y-7382000D01*
X12858800Y-7182000D01*
X12658800Y-7382000D01*
X12858800Y-7582000D01*
X13135000Y-12897000D02*
X13535000Y-13297000D01*
X13535000Y-12897000D02*
X13135000Y-13297000D01*
X13335000Y-13297000D02*
X13535000Y-13097000D01*
X13335000Y-12897000D01*
X13135000Y-13097000D01*
X13335000Y-13297000D01*
X13611200Y-9087000D02*
X14011200Y-9487000D01*
X14011200Y-9087000D02*
X13611200Y-9487000D01*
X13811200Y-9487000D02*
X14011200Y-9287000D01*
X13811200Y-9087000D01*
X13611200Y-9287000D01*
X13811200Y-9487000D01*
X14087500Y-10992000D02*
X14487500Y-11392000D01*
X14487500Y-10992000D02*
X14087500Y-11392000D01*
X14287500Y-11392000D02*
X14487500Y-11192000D01*
X14287500Y-10992000D01*
X14087500Y-11192000D01*
X14287500Y-11392000D01*
X14088100Y-13978000D02*
X14488100Y-14378000D01*
X14488100Y-13978000D02*
X14088100Y-14378000D01*
X14288100Y-14378000D02*
X14488100Y-14178000D01*
X14288100Y-13978000D01*
X14088100Y-14178000D01*
X14288100Y-14378000D01*
X14563750Y-4800750D02*
X14963750Y-5200750D01*
X14963750Y-4800750D02*
X14563750Y-5200750D01*
X14763750Y-5200750D02*
X14963750Y-5000750D01*
X14763750Y-4800750D01*
X14563750Y-5000750D01*
X14763750Y-5200750D01*
X14563800Y-7182000D02*
X14963800Y-7582000D01*
X14963800Y-7182000D02*
X14563800Y-7582000D01*
X14763800Y-7582000D02*
X14963800Y-7382000D01*
X14763800Y-7182000D01*
X14563800Y-7382000D01*
X14763800Y-7582000D01*
X15040000Y-12897000D02*
X15440000Y-13297000D01*
X15440000Y-12897000D02*
X15040000Y-13297000D01*
X15240000Y-13297000D02*
X15440000Y-13097000D01*
X15240000Y-12897000D01*
X15040000Y-13097000D01*
X15240000Y-13297000D01*
X15516200Y-9087000D02*
X15916200Y-9487000D01*
X15916200Y-9087000D02*
X15516200Y-9487000D01*
X15716200Y-9487000D02*
X15916200Y-9287000D01*
X15716200Y-9087000D01*
X15516200Y-9287000D01*
X15716200Y-9487000D01*
X15992500Y-10992000D02*
X16392500Y-11392000D01*
X16392500Y-10992000D02*
X15992500Y-11392000D01*
X16192500Y-11392000D02*
X16392500Y-11192000D01*
X16192500Y-10992000D01*
X15992500Y-11192000D01*
X16192500Y-11392000D01*
X16468750Y-4800750D02*
X16868750Y-5200750D01*
X16868750Y-4800750D02*
X16468750Y-5200750D01*
X16668750Y-5200750D02*
X16868750Y-5000750D01*
X16668750Y-4800750D01*
X16468750Y-5000750D01*
X16668750Y-5200750D01*
X16468800Y-7182000D02*
X16868800Y-7582000D01*
X16868800Y-7182000D02*
X16468800Y-7582000D01*
X16668800Y-7582000D02*
X16868800Y-7382000D01*
X16668800Y-7182000D01*
X16468800Y-7382000D01*
X16668800Y-7582000D01*
X16945000Y-12897000D02*
X17345000Y-13297000D01*
X17345000Y-12897000D02*
X16945000Y-13297000D01*
X17145000Y-13297000D02*
X17345000Y-13097000D01*
X17145000Y-12897000D01*
X16945000Y-13097000D01*
X17145000Y-13297000D01*
X17421200Y-9087000D02*
X17821200Y-9487000D01*
X17821200Y-9087000D02*
X17421200Y-9487000D01*
X17621200Y-9487000D02*
X17821200Y-9287000D01*
X17621200Y-9087000D01*
X17421200Y-9287000D01*
X17621200Y-9487000D01*
X17897500Y-10992000D02*
X18297500Y-11392000D01*
X18297500Y-10992000D02*
X17897500Y-11392000D01*
X18097500Y-11392000D02*
X18297500Y-11192000D01*
X18097500Y-10992000D01*
X17897500Y-11192000D01*
X18097500Y-11392000D01*
X18373800Y-7182000D02*
X18773800Y-7582000D01*
X18773800Y-7182000D02*
X18373800Y-7582000D01*
X18573800Y-7582000D02*
X18773800Y-7382000D01*
X18573800Y-7182000D01*
X18373800Y-7382000D01*
X18573800Y-7582000D01*
X18850000Y-12897000D02*
X19250000Y-13297000D01*
X19250000Y-12897000D02*
X18850000Y-13297000D01*
X19050000Y-13297000D02*
X19250000Y-13097000D01*
X19050000Y-12897000D01*
X18850000Y-13097000D01*
X19050000Y-13297000D01*
X19088100Y-14802000D02*
X19488100Y-15202000D01*
X19488100Y-14802000D02*
X19088100Y-15202000D01*
X19288100Y-15202000D02*
X19488100Y-15002000D01*
X19288100Y-14802000D01*
X19088100Y-15002000D01*
X19288100Y-15202000D01*
X19326200Y-9087000D02*
X19726200Y-9487000D01*
X19726200Y-9087000D02*
X19326200Y-9487000D01*
X19526200Y-9487000D02*
X19726200Y-9287000D01*
X19526200Y-9087000D01*
X19326200Y-9287000D01*
X19526200Y-9487000D01*
X19326250Y-4800750D02*
X19726250Y-5200750D01*
X19726250Y-4800750D02*
X19326250Y-5200750D01*
X19526250Y-5200750D02*
X19726250Y-5000750D01*
X19526250Y-4800750D01*
X19326250Y-5000750D01*
X19526250Y-5200750D01*
X19802500Y-10992000D02*
X20202500Y-11392000D01*
X20202500Y-10992000D02*
X19802500Y-11392000D01*
X20002500Y-11392000D02*
X20202500Y-11192000D01*
X20002500Y-10992000D01*
X19802500Y-11192000D01*
X20002500Y-11392000D01*
X20278800Y-7182000D02*
X20678800Y-7582000D01*
X20678800Y-7182000D02*
X20278800Y-7582000D01*
X20478800Y-7582000D02*
X20678800Y-7382000D01*
X20478800Y-7182000D01*
X20278800Y-7382000D01*
X20478800Y-7582000D01*
X20755000Y-12897000D02*
X21155000Y-13297000D01*
X21155000Y-12897000D02*
X20755000Y-13297000D01*
X20955000Y-13297000D02*
X21155000Y-13097000D01*
X20955000Y-12897000D01*
X20755000Y-13097000D01*
X20955000Y-13297000D01*
X21231200Y-9087000D02*
X21631200Y-9487000D01*
X21631200Y-9087000D02*
X21231200Y-9487000D01*
X21431200Y-9487000D02*
X21631200Y-9287000D01*
X21431200Y-9087000D01*
X21231200Y-9287000D01*
X21431200Y-9487000D01*
X21231250Y-4800750D02*
X21631250Y-5200750D01*
X21631250Y-4800750D02*
X21231250Y-5200750D01*
X21431250Y-5200750D02*
X21631250Y-5000750D01*
X21431250Y-4800750D01*
X21231250Y-5000750D01*
X21431250Y-5200750D01*
X21707500Y-10992000D02*
X22107500Y-11392000D01*
X22107500Y-10992000D02*
X21707500Y-11392000D01*
X21907500Y-11392000D02*
X22107500Y-11192000D01*
X21907500Y-10992000D01*
X21707500Y-11192000D01*
X21907500Y-11392000D01*
X22183800Y-7182000D02*
X22583800Y-7582000D01*
X22583800Y-7182000D02*
X22183800Y-7582000D01*
X22383800Y-7582000D02*
X22583800Y-7382000D01*
X22383800Y-7182000D01*
X22183800Y-7382000D01*
X22383800Y-7582000D01*
X22660000Y-12897000D02*
X23060000Y-13297000D01*
X23060000Y-12897000D02*
X22660000Y-13297000D01*
X22860000Y-13297000D02*
X23060000Y-13097000D01*
X22860000Y-12897000D01*
X22660000Y-13097000D01*
X22860000Y-13297000D01*
X23136200Y-9087000D02*
X23536200Y-9487000D01*
X23536200Y-9087000D02*
X23136200Y-9487000D01*
X23336200Y-9487000D02*
X23536200Y-9287000D01*
X23336200Y-9087000D01*
X23136200Y-9287000D01*
X23336200Y-9487000D01*
X23136250Y-4800750D02*
X23536250Y-5200750D01*
X23536250Y-4800750D02*
X23136250Y-5200750D01*
X23336250Y-5200750D02*
X23536250Y-5000750D01*
X23336250Y-4800750D01*
X23136250Y-5000750D01*
X23336250Y-5200750D01*
X23612500Y-10992000D02*
X24012500Y-11392000D01*
X24012500Y-10992000D02*
X23612500Y-11392000D01*
X23812500Y-11392000D02*
X24012500Y-11192000D01*
X23812500Y-10992000D01*
X23612500Y-11192000D01*
X23812500Y-11392000D01*
X24088100Y-13978000D02*
X24488100Y-14378000D01*
X24488100Y-13978000D02*
X24088100Y-14378000D01*
X24288100Y-14378000D02*
X24488100Y-14178000D01*
X24288100Y-13978000D01*
X24088100Y-14178000D01*
X24288100Y-14378000D01*
X24088800Y-7182000D02*
X24488800Y-7582000D01*
X24488800Y-7182000D02*
X24088800Y-7582000D01*
X24288800Y-7582000D02*
X24488800Y-7382000D01*
X24288800Y-7182000D01*
X24088800Y-7382000D01*
X24288800Y-7582000D01*
X24565000Y-12897000D02*
X24965000Y-13297000D01*
X24965000Y-12897000D02*
X24565000Y-13297000D01*
X24765000Y-13297000D02*
X24965000Y-13097000D01*
X24765000Y-12897000D01*
X24565000Y-13097000D01*
X24765000Y-13297000D01*
X25041200Y-9087000D02*
X25441200Y-9487000D01*
X25441200Y-9087000D02*
X25041200Y-9487000D01*
X25241200Y-9487000D02*
X25441200Y-9287000D01*
X25241200Y-9087000D01*
X25041200Y-9287000D01*
X25241200Y-9487000D01*
X25041250Y-4800750D02*
X25441250Y-5200750D01*
X25441250Y-4800750D02*
X25041250Y-5200750D01*
X25241250Y-5200750D02*
X25441250Y-5000750D01*
X25241250Y-4800750D01*
X25041250Y-5000750D01*
X25241250Y-5200750D01*
X25517500Y-10992000D02*
X25917500Y-11392000D01*
X25917500Y-10992000D02*
X25517500Y-11392000D01*
X25717500Y-11392000D02*
X25917500Y-11192000D01*
X25717500Y-10992000D01*
X25517500Y-11192000D01*
X25717500Y-11392000D01*
X25993800Y-7182000D02*
X26393800Y-7582000D01*
X26393800Y-7182000D02*
X25993800Y-7582000D01*
X26193800Y-7582000D02*
X26393800Y-7382000D01*
X26193800Y-7182000D01*
X25993800Y-7382000D01*
X26193800Y-7582000D01*
X26231900Y-14802000D02*
X26631900Y-15202000D01*
X26631900Y-14802000D02*
X26231900Y-15202000D01*
X26431900Y-15202000D02*
X26631900Y-15002000D01*
X26431900Y-14802000D01*
X26231900Y-15002000D01*
X26431900Y-15202000D01*
X26470000Y-12897000D02*
X26870000Y-13297000D01*
X26870000Y-12897000D02*
X26470000Y-13297000D01*
X26670000Y-13297000D02*
X26870000Y-13097000D01*
X26670000Y-12897000D01*
X26470000Y-13097000D01*
X26670000Y-13297000D01*
X26946200Y-9087000D02*
X27346200Y-9487000D01*
X27346200Y-9087000D02*
X26946200Y-9487000D01*
X27146200Y-9487000D02*
X27346200Y-9287000D01*
X27146200Y-9087000D01*
X26946200Y-9287000D01*
X27146200Y-9487000D01*
X27422500Y-10992000D02*
X27822500Y-11392000D01*
X27822500Y-10992000D02*
X27422500Y-11392000D01*
X27622500Y-11392000D02*
X27822500Y-11192000D01*
X27622500Y-10992000D01*
X27422500Y-11192000D01*
X27622500Y-11392000D01*
X27898750Y-4800750D02*
X28298750Y-5200750D01*
X28298750Y-4800750D02*
X27898750Y-5200750D01*
X28098750Y-5200750D02*
X28298750Y-5000750D01*
X28098750Y-4800750D01*
X27898750Y-5000750D01*
X28098750Y-5200750D01*
X27898800Y-7182000D02*
X28298800Y-7582000D01*
X28298800Y-7182000D02*
X27898800Y-7582000D01*
X28098800Y-7582000D02*
X28298800Y-7382000D01*
X28098800Y-7182000D01*
X27898800Y-7382000D01*
X28098800Y-7582000D01*
X28375000Y-12897000D02*
X28775000Y-13297000D01*
X28775000Y-12897000D02*
X28375000Y-13297000D01*
X28575000Y-13297000D02*
X28775000Y-13097000D01*
X28575000Y-12897000D01*
X28375000Y-13097000D01*
X28575000Y-13297000D01*
X28613100Y-14802000D02*
X29013100Y-15202000D01*
X29013100Y-14802000D02*
X28613100Y-15202000D01*
X28813100Y-15202000D02*
X29013100Y-15002000D01*
X28813100Y-14802000D01*
X28613100Y-15002000D01*
X28813100Y-15202000D01*
X28851200Y-9087000D02*
X29251200Y-9487000D01*
X29251200Y-9087000D02*
X28851200Y-9487000D01*
X29051200Y-9487000D02*
X29251200Y-9287000D01*
X29051200Y-9087000D01*
X28851200Y-9287000D01*
X29051200Y-9487000D01*
X29327500Y-10992000D02*
X29727500Y-11392000D01*
X29727500Y-10992000D02*
X29327500Y-11392000D01*
X29527500Y-11392000D02*
X29727500Y-11192000D01*
X29527500Y-10992000D01*
X29327500Y-11192000D01*
X29527500Y-11392000D01*
X29803750Y-4800750D02*
X30203750Y-5200750D01*
X30203750Y-4800750D02*
X29803750Y-5200750D01*
X30003750Y-5200750D02*
X30203750Y-5000750D01*
X30003750Y-4800750D01*
X29803750Y-5000750D01*
X30003750Y-5200750D01*
X29803800Y-7182000D02*
X30203800Y-7582000D01*
X30203800Y-7182000D02*
X29803800Y-7582000D01*
X30003800Y-7582000D02*
X30203800Y-7382000D01*
X30003800Y-7182000D01*
X29803800Y-7382000D01*
X30003800Y-7582000D01*
X30753100Y-12073000D02*
X31153100Y-12473000D01*
X31153100Y-12073000D02*
X30753100Y-12473000D01*
X30953100Y-12473000D02*
X31153100Y-12273000D01*
X30953100Y-12073000D01*
X30753100Y-12273000D01*
X30953100Y-12473000D01*
X30756200Y-9087000D02*
X31156200Y-9487000D01*
X31156200Y-9087000D02*
X30756200Y-9487000D01*
X30956200Y-9487000D02*
X31156200Y-9287000D01*
X30956200Y-9087000D01*
X30756200Y-9287000D01*
X30956200Y-9487000D01*
X30993100Y-14802000D02*
X31393100Y-15202000D01*
X31393100Y-14802000D02*
X30993100Y-15202000D01*
X31193100Y-15202000D02*
X31393100Y-15002000D01*
X31193100Y-14802000D01*
X30993100Y-15002000D01*
X31193100Y-15202000D01*
X31229300Y-10168000D02*
X31629300Y-10568000D01*
X31629300Y-10168000D02*
X31229300Y-10568000D01*
X31429300Y-10568000D02*
X31629300Y-10368000D01*
X31429300Y-10168000D01*
X31229300Y-10368000D01*
X31429300Y-10568000D01*
X31467500Y-8006000D02*
X31867500Y-8406000D01*
X31867500Y-8006000D02*
X31467500Y-8406000D01*
X31667500Y-8406000D02*
X31867500Y-8206000D01*
X31667500Y-8006000D01*
X31467500Y-8206000D01*
X31667500Y-8406000D01*
X31708750Y-4800750D02*
X32108750Y-5200750D01*
X32108750Y-4800750D02*
X31708750Y-5200750D01*
X31908750Y-5200750D02*
X32108750Y-5000750D01*
X31908750Y-4800750D01*
X31708750Y-5000750D01*
X31908750Y-5200750D01*
X31946900Y-12897000D02*
X32346900Y-13297000D01*
X32346900Y-12897000D02*
X31946900Y-13297000D01*
X32146900Y-13297000D02*
X32346900Y-13097000D01*
X32146900Y-12897000D01*
X31946900Y-13097000D01*
X32146900Y-13297000D01*
X32423100Y-10992000D02*
X32823100Y-11392000D01*
X32823100Y-10992000D02*
X32423100Y-11392000D01*
X32623100Y-11392000D02*
X32823100Y-11192000D01*
X32623100Y-10992000D01*
X32423100Y-11192000D01*
X32623100Y-11392000D01*
X32661300Y-7182000D02*
X33061300Y-7582000D01*
X33061300Y-7182000D02*
X32661300Y-7582000D01*
X32861300Y-7582000D02*
X33061300Y-7382000D01*
X32861300Y-7182000D01*
X32661300Y-7382000D01*
X32861300Y-7582000D01*
X33137500Y-9087000D02*
X33537500Y-9487000D01*
X33537500Y-9087000D02*
X33137500Y-9487000D01*
X33337500Y-9487000D02*
X33537500Y-9287000D01*
X33337500Y-9087000D01*
X33137500Y-9287000D01*
X33337500Y-9487000D01*
X33140700Y-12073000D02*
X33540700Y-12473000D01*
X33540700Y-12073000D02*
X33140700Y-12473000D01*
X33340700Y-12473000D02*
X33540700Y-12273000D01*
X33340700Y-12073000D01*
X33140700Y-12273000D01*
X33340700Y-12473000D01*
X33374400Y-14802000D02*
X33774400Y-15202000D01*
X33774400Y-14802000D02*
X33374400Y-15202000D01*
X33574400Y-15202000D02*
X33774400Y-15002000D01*
X33574400Y-14802000D01*
X33374400Y-15002000D01*
X33574400Y-15202000D01*
X33613750Y-4800750D02*
X34013750Y-5200750D01*
X34013750Y-4800750D02*
X33613750Y-5200750D01*
X33813750Y-5200750D02*
X34013750Y-5000750D01*
X33813750Y-4800750D01*
X33613750Y-5000750D01*
X33813750Y-5200750D01*
X33616900Y-10168000D02*
X34016900Y-10568000D01*
X34016900Y-10168000D02*
X33616900Y-10568000D01*
X33816900Y-10568000D02*
X34016900Y-10368000D01*
X33816900Y-10168000D01*
X33616900Y-10368000D01*
X33816900Y-10568000D01*
X33855100Y-8006000D02*
X34255100Y-8406000D01*
X34255100Y-8006000D02*
X33855100Y-8406000D01*
X34055100Y-8406000D02*
X34255100Y-8206000D01*
X34055100Y-8006000D01*
X33855100Y-8206000D01*
X34055100Y-8406000D01*
X35995000Y-4800750D02*
X36395000Y-5200750D01*
X36395000Y-4800750D02*
X35995000Y-5200750D01*
X36195000Y-5200750D02*
X36395000Y-5000750D01*
X36195000Y-4800750D01*
X35995000Y-5000750D01*
X36195000Y-5200750D01*
X35995000Y-7182000D02*
X36395000Y-7582000D01*
X36395000Y-7182000D02*
X35995000Y-7582000D01*
X36195000Y-7582000D02*
X36395000Y-7382000D01*
X36195000Y-7182000D01*
X35995000Y-7382000D01*
X36195000Y-7582000D01*
X35995000Y-9087000D02*
X36395000Y-9487000D01*
X36395000Y-9087000D02*
X35995000Y-9487000D01*
X36195000Y-9487000D02*
X36395000Y-9287000D01*
X36195000Y-9087000D01*
X35995000Y-9287000D01*
X36195000Y-9487000D01*
X35995000Y-14802000D02*
X36395000Y-15202000D01*
X36395000Y-14802000D02*
X35995000Y-15202000D01*
X36195000Y-15202000D02*
X36395000Y-15002000D01*
X36195000Y-14802000D01*
X35995000Y-15002000D01*
X36195000Y-15202000D01*
X37900000Y-4800750D02*
X38300000Y-5200750D01*
X38300000Y-4800750D02*
X37900000Y-5200750D01*
X38100000Y-5200750D02*
X38300000Y-5000750D01*
X38100000Y-4800750D01*
X37900000Y-5000750D01*
X38100000Y-5200750D01*
X37900000Y-7182000D02*
X38300000Y-7582000D01*
X38300000Y-7182000D02*
X37900000Y-7582000D01*
X38100000Y-7582000D02*
X38300000Y-7382000D01*
X38100000Y-7182000D01*
X37900000Y-7382000D01*
X38100000Y-7582000D01*
X37900000Y-9087000D02*
X38300000Y-9487000D01*
X38300000Y-9087000D02*
X37900000Y-9487000D01*
X38100000Y-9487000D02*
X38300000Y-9287000D01*
X38100000Y-9087000D01*
X37900000Y-9287000D01*
X38100000Y-9487000D01*
X37900000Y-12897000D02*
X38300000Y-13297000D01*
X38300000Y-12897000D02*
X37900000Y-13297000D01*
X38100000Y-13297000D02*
X38300000Y-13097000D01*
X38100000Y-12897000D01*
X37900000Y-13097000D01*
X38100000Y-13297000D01*
X37900000Y-14802000D02*
X38300000Y-15202000D01*
X38300000Y-14802000D02*
X37900000Y-15202000D01*
X38100000Y-15202000D02*
X38300000Y-15002000D01*
X38100000Y-14802000D01*
X37900000Y-15002000D01*
X38100000Y-15202000D01*
X39805000Y-4800750D02*
X40205000Y-5200750D01*
X40205000Y-4800750D02*
X39805000Y-5200750D01*
X40005000Y-5200750D02*
X40205000Y-5000750D01*
X40005000Y-4800750D01*
X39805000Y-5000750D01*
X40005000Y-5200750D01*
X39805000Y-7182000D02*
X40205000Y-7582000D01*
X40205000Y-7182000D02*
X39805000Y-7582000D01*
X40005000Y-7582000D02*
X40205000Y-7382000D01*
X40005000Y-7182000D01*
X39805000Y-7382000D01*
X40005000Y-7582000D01*
X39805000Y-9087000D02*
X40205000Y-9487000D01*
X40205000Y-9087000D02*
X39805000Y-9487000D01*
X40005000Y-9487000D02*
X40205000Y-9287000D01*
X40005000Y-9087000D01*
X39805000Y-9287000D01*
X40005000Y-9487000D01*
X39805000Y-14802000D02*
X40205000Y-15202000D01*
X40205000Y-14802000D02*
X39805000Y-15202000D01*
X40005000Y-15202000D02*
X40205000Y-15002000D01*
X40005000Y-14802000D01*
X39805000Y-15002000D01*
X40005000Y-15202000D01*
D12*
X6202619Y-16315476D02*
X6202619Y-16115476D01*
X6250238Y-16115476D01*
X6278809Y-16125000D01*
X6297857Y-16144048D01*
X6307381Y-16163095D01*
X6316905Y-16201190D01*
X6316905Y-16229762D01*
X6307381Y-16267857D01*
X6297857Y-16286905D01*
X6278809Y-16305952D01*
X6250238Y-16315476D01*
X6202619Y-16315476D01*
X6402619Y-16315476D02*
X6402619Y-16182143D01*
X6402619Y-16220238D02*
X6412143Y-16201190D01*
X6421667Y-16191667D01*
X6440714Y-16182143D01*
X6459762Y-16182143D01*
X6526428Y-16315476D02*
X6526428Y-16182143D01*
X6526428Y-16115476D02*
X6516905Y-16125000D01*
X6526428Y-16134524D01*
X6535952Y-16125000D01*
X6526428Y-16115476D01*
X6526428Y-16134524D01*
X6650238Y-16315476D02*
X6631190Y-16305952D01*
X6621667Y-16286905D01*
X6621667Y-16115476D01*
X6755000Y-16315476D02*
X6735952Y-16305952D01*
X6726428Y-16286905D01*
X6726428Y-16115476D01*
X6983571Y-16315476D02*
X6983571Y-16115476D01*
X7050238Y-16258333D01*
X7116905Y-16115476D01*
X7116905Y-16315476D01*
X7297857Y-16315476D02*
X7297857Y-16210714D01*
X7288333Y-16191667D01*
X7269286Y-16182143D01*
X7231190Y-16182143D01*
X7212143Y-16191667D01*
X7297857Y-16305952D02*
X7278809Y-16315476D01*
X7231190Y-16315476D01*
X7212143Y-16305952D01*
X7202619Y-16286905D01*
X7202619Y-16267857D01*
X7212143Y-16248809D01*
X7231190Y-16239286D01*
X7278809Y-16239286D01*
X7297857Y-16229762D01*
X7393095Y-16182143D02*
X7393095Y-16382143D01*
X7393095Y-16191667D02*
X7412143Y-16182143D01*
X7450238Y-16182143D01*
X7469286Y-16191667D01*
X7478809Y-16201190D01*
X7488333Y-16220238D01*
X7488333Y-16277381D01*
X7478809Y-16296428D01*
X7469286Y-16305952D01*
X7450238Y-16315476D01*
X7412143Y-16315476D01*
X7393095Y-16305952D01*
X7574048Y-16296428D02*
X7583571Y-16305952D01*
X7574048Y-16315476D01*
X7564524Y-16305952D01*
X7574048Y-16296428D01*
X7574048Y-16315476D01*
X7574048Y-16191667D02*
X7583571Y-16201190D01*
X7574048Y-16210714D01*
X7564524Y-16201190D01*
X7574048Y-16191667D01*
X7574048Y-16210714D01*
D13*
X5880000Y-16612500D02*
X5945000Y-16677500D01*
X5945000Y-16612500D02*
X5880000Y-16677500D01*
D12*
X6240714Y-16535476D02*
X6259762Y-16535476D01*
X6278809Y-16545000D01*
X6288333Y-16554524D01*
X6297857Y-16573571D01*
X6307381Y-16611667D01*
X6307381Y-16659286D01*
X6297857Y-16697381D01*
X6288333Y-16716428D01*
X6278809Y-16725952D01*
X6259762Y-16735476D01*
X6240714Y-16735476D01*
X6221667Y-16725952D01*
X6212143Y-16716428D01*
X6202619Y-16697381D01*
X6193095Y-16659286D01*
X6193095Y-16611667D01*
X6202619Y-16573571D01*
X6212143Y-16554524D01*
X6221667Y-16545000D01*
X6240714Y-16535476D01*
X6393095Y-16716428D02*
X6402619Y-16725952D01*
X6393095Y-16735476D01*
X6383571Y-16725952D01*
X6393095Y-16716428D01*
X6393095Y-16735476D01*
X6574048Y-16535476D02*
X6535952Y-16535476D01*
X6516905Y-16545000D01*
X6507381Y-16554524D01*
X6488333Y-16583095D01*
X6478809Y-16621190D01*
X6478809Y-16697381D01*
X6488333Y-16716428D01*
X6497857Y-16725952D01*
X6516905Y-16735476D01*
X6555000Y-16735476D01*
X6574048Y-16725952D01*
X6583571Y-16716428D01*
X6593095Y-16697381D01*
X6593095Y-16649762D01*
X6583571Y-16630714D01*
X6574048Y-16621190D01*
X6555000Y-16611667D01*
X6516905Y-16611667D01*
X6497857Y-16621190D01*
X6488333Y-16630714D01*
X6478809Y-16649762D01*
X6774048Y-16535476D02*
X6678809Y-16535476D01*
X6669286Y-16630714D01*
X6678809Y-16621190D01*
X6697857Y-16611667D01*
X6745476Y-16611667D01*
X6764524Y-16621190D01*
X6774048Y-16630714D01*
X6783571Y-16649762D01*
X6783571Y-16697381D01*
X6774048Y-16716428D01*
X6764524Y-16725952D01*
X6745476Y-16735476D01*
X6697857Y-16735476D01*
X6678809Y-16725952D01*
X6669286Y-16716428D01*
X6907381Y-16535476D02*
X6926428Y-16535476D01*
X6945476Y-16545000D01*
X6955000Y-16554524D01*
X6964524Y-16573571D01*
X6974048Y-16611667D01*
X6974048Y-16659286D01*
X6964524Y-16697381D01*
X6955000Y-16716428D01*
X6945476Y-16725952D01*
X6926428Y-16735476D01*
X6907381Y-16735476D01*
X6888333Y-16725952D01*
X6878809Y-16716428D01*
X6869286Y-16697381D01*
X6859762Y-16659286D01*
X6859762Y-16611667D01*
X6869286Y-16573571D01*
X6878809Y-16554524D01*
X6888333Y-16545000D01*
X6907381Y-16535476D01*
X7059762Y-16735476D02*
X7059762Y-16602143D01*
X7059762Y-16621190D02*
X7069286Y-16611667D01*
X7088333Y-16602143D01*
X7116905Y-16602143D01*
X7135952Y-16611667D01*
X7145476Y-16630714D01*
X7145476Y-16735476D01*
X7145476Y-16630714D02*
X7155000Y-16611667D01*
X7174048Y-16602143D01*
X7202619Y-16602143D01*
X7221667Y-16611667D01*
X7231190Y-16630714D01*
X7231190Y-16735476D01*
X7326428Y-16735476D02*
X7326428Y-16602143D01*
X7326428Y-16621190D02*
X7335952Y-16611667D01*
X7355000Y-16602143D01*
X7383571Y-16602143D01*
X7402619Y-16611667D01*
X7412143Y-16630714D01*
X7412143Y-16735476D01*
X7412143Y-16630714D02*
X7421667Y-16611667D01*
X7440714Y-16602143D01*
X7469286Y-16602143D01*
X7488333Y-16611667D01*
X7497857Y-16630714D01*
X7497857Y-16735476D01*
X7888333Y-16525952D02*
X7716905Y-16783095D01*
X8145476Y-16535476D02*
X8164524Y-16535476D01*
X8183571Y-16545000D01*
X8193095Y-16554524D01*
X8202619Y-16573571D01*
X8212143Y-16611667D01*
X8212143Y-16659286D01*
X8202619Y-16697381D01*
X8193095Y-16716428D01*
X8183571Y-16725952D01*
X8164524Y-16735476D01*
X8145476Y-16735476D01*
X8126428Y-16725952D01*
X8116905Y-16716428D01*
X8107381Y-16697381D01*
X8097857Y-16659286D01*
X8097857Y-16611667D01*
X8107381Y-16573571D01*
X8116905Y-16554524D01*
X8126428Y-16545000D01*
X8145476Y-16535476D01*
X8297857Y-16716428D02*
X8307381Y-16725952D01*
X8297857Y-16735476D01*
X8288333Y-16725952D01*
X8297857Y-16716428D01*
X8297857Y-16735476D01*
X8431190Y-16535476D02*
X8450238Y-16535476D01*
X8469286Y-16545000D01*
X8478810Y-16554524D01*
X8488333Y-16573571D01*
X8497857Y-16611667D01*
X8497857Y-16659286D01*
X8488333Y-16697381D01*
X8478810Y-16716428D01*
X8469286Y-16725952D01*
X8450238Y-16735476D01*
X8431190Y-16735476D01*
X8412143Y-16725952D01*
X8402619Y-16716428D01*
X8393095Y-16697381D01*
X8383571Y-16659286D01*
X8383571Y-16611667D01*
X8393095Y-16573571D01*
X8402619Y-16554524D01*
X8412143Y-16545000D01*
X8431190Y-16535476D01*
X8574048Y-16554524D02*
X8583571Y-16545000D01*
X8602619Y-16535476D01*
X8650238Y-16535476D01*
X8669286Y-16545000D01*
X8678810Y-16554524D01*
X8688333Y-16573571D01*
X8688333Y-16592619D01*
X8678810Y-16621190D01*
X8564524Y-16735476D01*
X8688333Y-16735476D01*
X8869286Y-16535476D02*
X8774048Y-16535476D01*
X8764524Y-16630714D01*
X8774048Y-16621190D01*
X8793095Y-16611667D01*
X8840714Y-16611667D01*
X8859762Y-16621190D01*
X8869286Y-16630714D01*
X8878810Y-16649762D01*
X8878810Y-16697381D01*
X8869286Y-16716428D01*
X8859762Y-16725952D01*
X8840714Y-16735476D01*
X8793095Y-16735476D01*
X8774048Y-16725952D01*
X8764524Y-16716428D01*
X9050238Y-16535476D02*
X9012143Y-16535476D01*
X8993095Y-16545000D01*
X8983571Y-16554524D01*
X8964524Y-16583095D01*
X8955000Y-16621190D01*
X8955000Y-16697381D01*
X8964524Y-16716428D01*
X8974048Y-16725952D01*
X8993095Y-16735476D01*
X9031190Y-16735476D01*
X9050238Y-16725952D01*
X9059762Y-16716428D01*
X9069286Y-16697381D01*
X9069286Y-16649762D01*
X9059762Y-16630714D01*
X9050238Y-16621190D01*
X9031190Y-16611667D01*
X8993095Y-16611667D01*
X8974048Y-16621190D01*
X8964524Y-16630714D01*
X8955000Y-16649762D01*
X9145476Y-16535476D02*
X9145476Y-16573571D01*
X9221667Y-16535476D02*
X9221667Y-16573571D01*
X9516905Y-16811667D02*
X9507381Y-16802143D01*
X9488333Y-16773571D01*
X9478810Y-16754524D01*
X9469286Y-16725952D01*
X9459762Y-16678333D01*
X9459762Y-16640238D01*
X9469286Y-16592619D01*
X9478810Y-16564048D01*
X9488333Y-16545000D01*
X9507381Y-16516428D01*
X9516905Y-16506905D01*
X9583571Y-16554524D02*
X9593095Y-16545000D01*
X9612143Y-16535476D01*
X9659762Y-16535476D01*
X9678810Y-16545000D01*
X9688333Y-16554524D01*
X9697857Y-16573571D01*
X9697857Y-16592619D01*
X9688333Y-16621190D01*
X9574048Y-16735476D01*
X9697857Y-16735476D01*
X9935952Y-16735476D02*
X9935952Y-16535476D01*
X10021667Y-16735476D02*
X10021667Y-16630714D01*
X10012143Y-16611667D01*
X9993095Y-16602143D01*
X9964524Y-16602143D01*
X9945476Y-16611667D01*
X9935952Y-16621190D01*
X10145476Y-16735476D02*
X10126429Y-16725952D01*
X10116905Y-16716428D01*
X10107381Y-16697381D01*
X10107381Y-16640238D01*
X10116905Y-16621190D01*
X10126429Y-16611667D01*
X10145476Y-16602143D01*
X10174048Y-16602143D01*
X10193095Y-16611667D01*
X10202619Y-16621190D01*
X10212143Y-16640238D01*
X10212143Y-16697381D01*
X10202619Y-16716428D01*
X10193095Y-16725952D01*
X10174048Y-16735476D01*
X10145476Y-16735476D01*
X10326429Y-16735476D02*
X10307381Y-16725952D01*
X10297857Y-16706905D01*
X10297857Y-16535476D01*
X10478810Y-16725952D02*
X10459762Y-16735476D01*
X10421667Y-16735476D01*
X10402619Y-16725952D01*
X10393095Y-16706905D01*
X10393095Y-16630714D01*
X10402619Y-16611667D01*
X10421667Y-16602143D01*
X10459762Y-16602143D01*
X10478810Y-16611667D01*
X10488333Y-16630714D01*
X10488333Y-16649762D01*
X10393095Y-16668809D01*
X10564524Y-16725952D02*
X10583571Y-16735476D01*
X10621667Y-16735476D01*
X10640714Y-16725952D01*
X10650238Y-16706905D01*
X10650238Y-16697381D01*
X10640714Y-16678333D01*
X10621667Y-16668809D01*
X10593095Y-16668809D01*
X10574048Y-16659286D01*
X10564524Y-16640238D01*
X10564524Y-16630714D01*
X10574048Y-16611667D01*
X10593095Y-16602143D01*
X10621667Y-16602143D01*
X10640714Y-16611667D01*
X10716905Y-16811667D02*
X10726429Y-16802143D01*
X10745476Y-16773571D01*
X10755000Y-16754524D01*
X10764524Y-16725952D01*
X10774048Y-16678333D01*
X10774048Y-16640238D01*
X10764524Y-16592619D01*
X10755000Y-16564048D01*
X10745476Y-16545000D01*
X10726429Y-16516428D01*
X10716905Y-16506905D01*
X11078810Y-16811667D02*
X11069286Y-16802143D01*
X11050238Y-16773571D01*
X11040714Y-16754524D01*
X11031190Y-16725952D01*
X11021667Y-16678333D01*
X11021667Y-16640238D01*
X11031190Y-16592619D01*
X11040714Y-16564048D01*
X11050238Y-16545000D01*
X11069286Y-16516428D01*
X11078810Y-16506905D01*
X11155000Y-16602143D02*
X11155000Y-16735476D01*
X11155000Y-16621190D02*
X11164524Y-16611667D01*
X11183571Y-16602143D01*
X11212143Y-16602143D01*
X11231190Y-16611667D01*
X11240714Y-16630714D01*
X11240714Y-16735476D01*
X11364524Y-16735476D02*
X11345476Y-16725952D01*
X11335952Y-16716428D01*
X11326428Y-16697381D01*
X11326428Y-16640238D01*
X11335952Y-16621190D01*
X11345476Y-16611667D01*
X11364524Y-16602143D01*
X11393095Y-16602143D01*
X11412143Y-16611667D01*
X11421667Y-16621190D01*
X11431190Y-16640238D01*
X11431190Y-16697381D01*
X11421667Y-16716428D01*
X11412143Y-16725952D01*
X11393095Y-16735476D01*
X11364524Y-16735476D01*
X11488333Y-16602143D02*
X11564524Y-16602143D01*
X11516905Y-16535476D02*
X11516905Y-16706905D01*
X11526428Y-16725952D01*
X11545476Y-16735476D01*
X11564524Y-16735476D01*
X11783571Y-16602143D02*
X11783571Y-16802143D01*
X11783571Y-16611667D02*
X11802619Y-16602143D01*
X11840714Y-16602143D01*
X11859762Y-16611667D01*
X11869286Y-16621190D01*
X11878809Y-16640238D01*
X11878809Y-16697381D01*
X11869286Y-16716428D01*
X11859762Y-16725952D01*
X11840714Y-16735476D01*
X11802619Y-16735476D01*
X11783571Y-16725952D01*
X11993095Y-16735476D02*
X11974048Y-16725952D01*
X11964524Y-16706905D01*
X11964524Y-16535476D01*
X12155000Y-16735476D02*
X12155000Y-16630714D01*
X12145476Y-16611667D01*
X12126428Y-16602143D01*
X12088333Y-16602143D01*
X12069286Y-16611667D01*
X12155000Y-16725952D02*
X12135952Y-16735476D01*
X12088333Y-16735476D01*
X12069286Y-16725952D01*
X12059762Y-16706905D01*
X12059762Y-16687857D01*
X12069286Y-16668809D01*
X12088333Y-16659286D01*
X12135952Y-16659286D01*
X12155000Y-16649762D01*
X12221667Y-16602143D02*
X12297857Y-16602143D01*
X12250238Y-16535476D02*
X12250238Y-16706905D01*
X12259762Y-16725952D01*
X12278809Y-16735476D01*
X12297857Y-16735476D01*
X12440714Y-16725952D02*
X12421667Y-16735476D01*
X12383571Y-16735476D01*
X12364524Y-16725952D01*
X12355000Y-16706905D01*
X12355000Y-16630714D01*
X12364524Y-16611667D01*
X12383571Y-16602143D01*
X12421667Y-16602143D01*
X12440714Y-16611667D01*
X12450238Y-16630714D01*
X12450238Y-16649762D01*
X12355000Y-16668809D01*
X12621667Y-16735476D02*
X12621667Y-16535476D01*
X12621667Y-16725952D02*
X12602619Y-16735476D01*
X12564524Y-16735476D01*
X12545476Y-16725952D01*
X12535952Y-16716428D01*
X12526428Y-16697381D01*
X12526428Y-16640238D01*
X12535952Y-16621190D01*
X12545476Y-16611667D01*
X12564524Y-16602143D01*
X12602619Y-16602143D01*
X12621667Y-16611667D01*
X12697857Y-16811667D02*
X12707381Y-16802143D01*
X12726428Y-16773571D01*
X12735952Y-16754524D01*
X12745476Y-16725952D01*
X12755000Y-16678333D01*
X12755000Y-16640238D01*
X12745476Y-16592619D01*
X12735952Y-16564048D01*
X12726428Y-16545000D01*
X12707381Y-16516428D01*
X12697857Y-16506905D01*
D14*
X5945000Y-16909000D02*
G75*
G03*
X5945000Y-16909000I-37500J0D01*
G01*
D12*
X6240714Y-16799476D02*
X6259762Y-16799476D01*
X6278809Y-16809000D01*
X6288333Y-16818524D01*
X6297857Y-16837571D01*
X6307381Y-16875667D01*
X6307381Y-16923286D01*
X6297857Y-16961381D01*
X6288333Y-16980429D01*
X6278809Y-16989952D01*
X6259762Y-16999476D01*
X6240714Y-16999476D01*
X6221667Y-16989952D01*
X6212143Y-16980429D01*
X6202619Y-16961381D01*
X6193095Y-16923286D01*
X6193095Y-16875667D01*
X6202619Y-16837571D01*
X6212143Y-16818524D01*
X6221667Y-16809000D01*
X6240714Y-16799476D01*
X6393095Y-16980429D02*
X6402619Y-16989952D01*
X6393095Y-16999476D01*
X6383571Y-16989952D01*
X6393095Y-16980429D01*
X6393095Y-16999476D01*
X6469286Y-16799476D02*
X6602619Y-16799476D01*
X6516905Y-16999476D01*
X6774048Y-16799476D02*
X6678809Y-16799476D01*
X6669286Y-16894714D01*
X6678809Y-16885190D01*
X6697857Y-16875667D01*
X6745476Y-16875667D01*
X6764524Y-16885190D01*
X6774048Y-16894714D01*
X6783571Y-16913762D01*
X6783571Y-16961381D01*
X6774048Y-16980429D01*
X6764524Y-16989952D01*
X6745476Y-16999476D01*
X6697857Y-16999476D01*
X6678809Y-16989952D01*
X6669286Y-16980429D01*
X6907381Y-16799476D02*
X6926428Y-16799476D01*
X6945476Y-16809000D01*
X6955000Y-16818524D01*
X6964524Y-16837571D01*
X6974048Y-16875667D01*
X6974048Y-16923286D01*
X6964524Y-16961381D01*
X6955000Y-16980429D01*
X6945476Y-16989952D01*
X6926428Y-16999476D01*
X6907381Y-16999476D01*
X6888333Y-16989952D01*
X6878809Y-16980429D01*
X6869286Y-16961381D01*
X6859762Y-16923286D01*
X6859762Y-16875667D01*
X6869286Y-16837571D01*
X6878809Y-16818524D01*
X6888333Y-16809000D01*
X6907381Y-16799476D01*
X7059762Y-16999476D02*
X7059762Y-16866143D01*
X7059762Y-16885190D02*
X7069286Y-16875667D01*
X7088333Y-16866143D01*
X7116905Y-16866143D01*
X7135952Y-16875667D01*
X7145476Y-16894714D01*
X7145476Y-16999476D01*
X7145476Y-16894714D02*
X7155000Y-16875667D01*
X7174048Y-16866143D01*
X7202619Y-16866143D01*
X7221667Y-16875667D01*
X7231190Y-16894714D01*
X7231190Y-16999476D01*
X7326428Y-16999476D02*
X7326428Y-16866143D01*
X7326428Y-16885190D02*
X7335952Y-16875667D01*
X7355000Y-16866143D01*
X7383571Y-16866143D01*
X7402619Y-16875667D01*
X7412143Y-16894714D01*
X7412143Y-16999476D01*
X7412143Y-16894714D02*
X7421667Y-16875667D01*
X7440714Y-16866143D01*
X7469286Y-16866143D01*
X7488333Y-16875667D01*
X7497857Y-16894714D01*
X7497857Y-16999476D01*
X7888333Y-16789952D02*
X7716905Y-17047095D01*
X8145476Y-16799476D02*
X8164524Y-16799476D01*
X8183571Y-16809000D01*
X8193095Y-16818524D01*
X8202619Y-16837571D01*
X8212143Y-16875667D01*
X8212143Y-16923286D01*
X8202619Y-16961381D01*
X8193095Y-16980429D01*
X8183571Y-16989952D01*
X8164524Y-16999476D01*
X8145476Y-16999476D01*
X8126428Y-16989952D01*
X8116905Y-16980429D01*
X8107381Y-16961381D01*
X8097857Y-16923286D01*
X8097857Y-16875667D01*
X8107381Y-16837571D01*
X8116905Y-16818524D01*
X8126428Y-16809000D01*
X8145476Y-16799476D01*
X8297857Y-16980429D02*
X8307381Y-16989952D01*
X8297857Y-16999476D01*
X8288333Y-16989952D01*
X8297857Y-16980429D01*
X8297857Y-16999476D01*
X8431190Y-16799476D02*
X8450238Y-16799476D01*
X8469286Y-16809000D01*
X8478810Y-16818524D01*
X8488333Y-16837571D01*
X8497857Y-16875667D01*
X8497857Y-16923286D01*
X8488333Y-16961381D01*
X8478810Y-16980429D01*
X8469286Y-16989952D01*
X8450238Y-16999476D01*
X8431190Y-16999476D01*
X8412143Y-16989952D01*
X8402619Y-16980429D01*
X8393095Y-16961381D01*
X8383571Y-16923286D01*
X8383571Y-16875667D01*
X8393095Y-16837571D01*
X8402619Y-16818524D01*
X8412143Y-16809000D01*
X8431190Y-16799476D01*
X8574048Y-16818524D02*
X8583571Y-16809000D01*
X8602619Y-16799476D01*
X8650238Y-16799476D01*
X8669286Y-16809000D01*
X8678810Y-16818524D01*
X8688333Y-16837571D01*
X8688333Y-16856619D01*
X8678810Y-16885190D01*
X8564524Y-16999476D01*
X8688333Y-16999476D01*
X8783571Y-16999476D02*
X8821667Y-16999476D01*
X8840714Y-16989952D01*
X8850238Y-16980429D01*
X8869286Y-16951857D01*
X8878810Y-16913762D01*
X8878810Y-16837571D01*
X8869286Y-16818524D01*
X8859762Y-16809000D01*
X8840714Y-16799476D01*
X8802619Y-16799476D01*
X8783571Y-16809000D01*
X8774048Y-16818524D01*
X8764524Y-16837571D01*
X8764524Y-16885190D01*
X8774048Y-16904238D01*
X8783571Y-16913762D01*
X8802619Y-16923286D01*
X8840714Y-16923286D01*
X8859762Y-16913762D01*
X8869286Y-16904238D01*
X8878810Y-16885190D01*
X9059762Y-16799476D02*
X8964524Y-16799476D01*
X8955000Y-16894714D01*
X8964524Y-16885190D01*
X8983571Y-16875667D01*
X9031190Y-16875667D01*
X9050238Y-16885190D01*
X9059762Y-16894714D01*
X9069286Y-16913762D01*
X9069286Y-16961381D01*
X9059762Y-16980429D01*
X9050238Y-16989952D01*
X9031190Y-16999476D01*
X8983571Y-16999476D01*
X8964524Y-16989952D01*
X8955000Y-16980429D01*
X9145476Y-16799476D02*
X9145476Y-16837571D01*
X9221667Y-16799476D02*
X9221667Y-16837571D01*
X9516905Y-17075667D02*
X9507381Y-17066143D01*
X9488333Y-17037571D01*
X9478810Y-17018524D01*
X9469286Y-16989952D01*
X9459762Y-16942333D01*
X9459762Y-16904238D01*
X9469286Y-16856619D01*
X9478810Y-16828048D01*
X9488333Y-16809000D01*
X9507381Y-16780429D01*
X9516905Y-16770905D01*
X9583571Y-16818524D02*
X9593095Y-16809000D01*
X9612143Y-16799476D01*
X9659762Y-16799476D01*
X9678810Y-16809000D01*
X9688333Y-16818524D01*
X9697857Y-16837571D01*
X9697857Y-16856619D01*
X9688333Y-16885190D01*
X9574048Y-16999476D01*
X9697857Y-16999476D01*
X9935952Y-16999476D02*
X9935952Y-16799476D01*
X10021667Y-16999476D02*
X10021667Y-16894714D01*
X10012143Y-16875667D01*
X9993095Y-16866143D01*
X9964524Y-16866143D01*
X9945476Y-16875667D01*
X9935952Y-16885190D01*
X10145476Y-16999476D02*
X10126429Y-16989952D01*
X10116905Y-16980429D01*
X10107381Y-16961381D01*
X10107381Y-16904238D01*
X10116905Y-16885190D01*
X10126429Y-16875667D01*
X10145476Y-16866143D01*
X10174048Y-16866143D01*
X10193095Y-16875667D01*
X10202619Y-16885190D01*
X10212143Y-16904238D01*
X10212143Y-16961381D01*
X10202619Y-16980429D01*
X10193095Y-16989952D01*
X10174048Y-16999476D01*
X10145476Y-16999476D01*
X10326429Y-16999476D02*
X10307381Y-16989952D01*
X10297857Y-16970905D01*
X10297857Y-16799476D01*
X10478810Y-16989952D02*
X10459762Y-16999476D01*
X10421667Y-16999476D01*
X10402619Y-16989952D01*
X10393095Y-16970905D01*
X10393095Y-16894714D01*
X10402619Y-16875667D01*
X10421667Y-16866143D01*
X10459762Y-16866143D01*
X10478810Y-16875667D01*
X10488333Y-16894714D01*
X10488333Y-16913762D01*
X10393095Y-16932810D01*
X10564524Y-16989952D02*
X10583571Y-16999476D01*
X10621667Y-16999476D01*
X10640714Y-16989952D01*
X10650238Y-16970905D01*
X10650238Y-16961381D01*
X10640714Y-16942333D01*
X10621667Y-16932810D01*
X10593095Y-16932810D01*
X10574048Y-16923286D01*
X10564524Y-16904238D01*
X10564524Y-16894714D01*
X10574048Y-16875667D01*
X10593095Y-16866143D01*
X10621667Y-16866143D01*
X10640714Y-16875667D01*
X10716905Y-17075667D02*
X10726429Y-17066143D01*
X10745476Y-17037571D01*
X10755000Y-17018524D01*
X10764524Y-16989952D01*
X10774048Y-16942333D01*
X10774048Y-16904238D01*
X10764524Y-16856619D01*
X10755000Y-16828048D01*
X10745476Y-16809000D01*
X10726429Y-16780429D01*
X10716905Y-16770905D01*
X11078810Y-17075667D02*
X11069286Y-17066143D01*
X11050238Y-17037571D01*
X11040714Y-17018524D01*
X11031190Y-16989952D01*
X11021667Y-16942333D01*
X11021667Y-16904238D01*
X11031190Y-16856619D01*
X11040714Y-16828048D01*
X11050238Y-16809000D01*
X11069286Y-16780429D01*
X11078810Y-16770905D01*
X11155000Y-16866143D02*
X11155000Y-16999476D01*
X11155000Y-16885190D02*
X11164524Y-16875667D01*
X11183571Y-16866143D01*
X11212143Y-16866143D01*
X11231190Y-16875667D01*
X11240714Y-16894714D01*
X11240714Y-16999476D01*
X11364524Y-16999476D02*
X11345476Y-16989952D01*
X11335952Y-16980429D01*
X11326428Y-16961381D01*
X11326428Y-16904238D01*
X11335952Y-16885190D01*
X11345476Y-16875667D01*
X11364524Y-16866143D01*
X11393095Y-16866143D01*
X11412143Y-16875667D01*
X11421667Y-16885190D01*
X11431190Y-16904238D01*
X11431190Y-16961381D01*
X11421667Y-16980429D01*
X11412143Y-16989952D01*
X11393095Y-16999476D01*
X11364524Y-16999476D01*
X11488333Y-16866143D02*
X11564524Y-16866143D01*
X11516905Y-16799476D02*
X11516905Y-16970905D01*
X11526428Y-16989952D01*
X11545476Y-16999476D01*
X11564524Y-16999476D01*
X11783571Y-16866143D02*
X11783571Y-17066143D01*
X11783571Y-16875667D02*
X11802619Y-16866143D01*
X11840714Y-16866143D01*
X11859762Y-16875667D01*
X11869286Y-16885190D01*
X11878809Y-16904238D01*
X11878809Y-16961381D01*
X11869286Y-16980429D01*
X11859762Y-16989952D01*
X11840714Y-16999476D01*
X11802619Y-16999476D01*
X11783571Y-16989952D01*
X11993095Y-16999476D02*
X11974048Y-16989952D01*
X11964524Y-16970905D01*
X11964524Y-16799476D01*
X12155000Y-16999476D02*
X12155000Y-16894714D01*
X12145476Y-16875667D01*
X12126428Y-16866143D01*
X12088333Y-16866143D01*
X12069286Y-16875667D01*
X12155000Y-16989952D02*
X12135952Y-16999476D01*
X12088333Y-16999476D01*
X12069286Y-16989952D01*
X12059762Y-16970905D01*
X12059762Y-16951857D01*
X12069286Y-16932810D01*
X12088333Y-16923286D01*
X12135952Y-16923286D01*
X12155000Y-16913762D01*
X12221667Y-16866143D02*
X12297857Y-16866143D01*
X12250238Y-16799476D02*
X12250238Y-16970905D01*
X12259762Y-16989952D01*
X12278809Y-16999476D01*
X12297857Y-16999476D01*
X12440714Y-16989952D02*
X12421667Y-16999476D01*
X12383571Y-16999476D01*
X12364524Y-16989952D01*
X12355000Y-16970905D01*
X12355000Y-16894714D01*
X12364524Y-16875667D01*
X12383571Y-16866143D01*
X12421667Y-16866143D01*
X12440714Y-16875667D01*
X12450238Y-16894714D01*
X12450238Y-16913762D01*
X12355000Y-16932810D01*
X12621667Y-16999476D02*
X12621667Y-16799476D01*
X12621667Y-16989952D02*
X12602619Y-16999476D01*
X12564524Y-16999476D01*
X12545476Y-16989952D01*
X12535952Y-16980429D01*
X12526428Y-16961381D01*
X12526428Y-16904238D01*
X12535952Y-16885190D01*
X12545476Y-16875667D01*
X12564524Y-16866143D01*
X12602619Y-16866143D01*
X12621667Y-16875667D01*
X12697857Y-17075667D02*
X12707381Y-17066143D01*
X12726428Y-17037571D01*
X12735952Y-17018524D01*
X12745476Y-16989952D01*
X12755000Y-16942333D01*
X12755000Y-16904238D01*
X12745476Y-16856619D01*
X12735952Y-16828048D01*
X12726428Y-16809000D01*
X12707381Y-16780429D01*
X12697857Y-16770905D01*
D15*
X5900000Y-17128000D02*
X5900000Y-17218000D01*
X5855000Y-17173000D02*
X5945000Y-17173000D01*
D12*
X6240714Y-17063476D02*
X6259762Y-17063476D01*
X6278809Y-17073000D01*
X6288333Y-17082524D01*
X6297857Y-17101571D01*
X6307381Y-17139667D01*
X6307381Y-17187286D01*
X6297857Y-17225381D01*
X6288333Y-17244429D01*
X6278809Y-17253952D01*
X6259762Y-17263476D01*
X6240714Y-17263476D01*
X6221667Y-17253952D01*
X6212143Y-17244429D01*
X6202619Y-17225381D01*
X6193095Y-17187286D01*
X6193095Y-17139667D01*
X6202619Y-17101571D01*
X6212143Y-17082524D01*
X6221667Y-17073000D01*
X6240714Y-17063476D01*
X6393095Y-17244429D02*
X6402619Y-17253952D01*
X6393095Y-17263476D01*
X6383571Y-17253952D01*
X6393095Y-17244429D01*
X6393095Y-17263476D01*
X6497857Y-17263476D02*
X6535952Y-17263476D01*
X6555000Y-17253952D01*
X6564524Y-17244429D01*
X6583571Y-17215857D01*
X6593095Y-17177762D01*
X6593095Y-17101571D01*
X6583571Y-17082524D01*
X6574048Y-17073000D01*
X6555000Y-17063476D01*
X6516905Y-17063476D01*
X6497857Y-17073000D01*
X6488333Y-17082524D01*
X6478809Y-17101571D01*
X6478809Y-17149190D01*
X6488333Y-17168238D01*
X6497857Y-17177762D01*
X6516905Y-17187286D01*
X6555000Y-17187286D01*
X6574048Y-17177762D01*
X6583571Y-17168238D01*
X6593095Y-17149190D01*
X6716905Y-17063476D02*
X6735952Y-17063476D01*
X6755000Y-17073000D01*
X6764524Y-17082524D01*
X6774048Y-17101571D01*
X6783571Y-17139667D01*
X6783571Y-17187286D01*
X6774048Y-17225381D01*
X6764524Y-17244429D01*
X6755000Y-17253952D01*
X6735952Y-17263476D01*
X6716905Y-17263476D01*
X6697857Y-17253952D01*
X6688333Y-17244429D01*
X6678809Y-17225381D01*
X6669286Y-17187286D01*
X6669286Y-17139667D01*
X6678809Y-17101571D01*
X6688333Y-17082524D01*
X6697857Y-17073000D01*
X6716905Y-17063476D01*
X6907381Y-17063476D02*
X6926428Y-17063476D01*
X6945476Y-17073000D01*
X6955000Y-17082524D01*
X6964524Y-17101571D01*
X6974048Y-17139667D01*
X6974048Y-17187286D01*
X6964524Y-17225381D01*
X6955000Y-17244429D01*
X6945476Y-17253952D01*
X6926428Y-17263476D01*
X6907381Y-17263476D01*
X6888333Y-17253952D01*
X6878809Y-17244429D01*
X6869286Y-17225381D01*
X6859762Y-17187286D01*
X6859762Y-17139667D01*
X6869286Y-17101571D01*
X6878809Y-17082524D01*
X6888333Y-17073000D01*
X6907381Y-17063476D01*
X7059762Y-17263476D02*
X7059762Y-17130143D01*
X7059762Y-17149190D02*
X7069286Y-17139667D01*
X7088333Y-17130143D01*
X7116905Y-17130143D01*
X7135952Y-17139667D01*
X7145476Y-17158714D01*
X7145476Y-17263476D01*
X7145476Y-17158714D02*
X7155000Y-17139667D01*
X7174048Y-17130143D01*
X7202619Y-17130143D01*
X7221667Y-17139667D01*
X7231190Y-17158714D01*
X7231190Y-17263476D01*
X7326428Y-17263476D02*
X7326428Y-17130143D01*
X7326428Y-17149190D02*
X7335952Y-17139667D01*
X7355000Y-17130143D01*
X7383571Y-17130143D01*
X7402619Y-17139667D01*
X7412143Y-17158714D01*
X7412143Y-17263476D01*
X7412143Y-17158714D02*
X7421667Y-17139667D01*
X7440714Y-17130143D01*
X7469286Y-17130143D01*
X7488333Y-17139667D01*
X7497857Y-17158714D01*
X7497857Y-17263476D01*
X7888333Y-17053952D02*
X7716905Y-17311095D01*
X8145476Y-17063476D02*
X8164524Y-17063476D01*
X8183571Y-17073000D01*
X8193095Y-17082524D01*
X8202619Y-17101571D01*
X8212143Y-17139667D01*
X8212143Y-17187286D01*
X8202619Y-17225381D01*
X8193095Y-17244429D01*
X8183571Y-17253952D01*
X8164524Y-17263476D01*
X8145476Y-17263476D01*
X8126428Y-17253952D01*
X8116905Y-17244429D01*
X8107381Y-17225381D01*
X8097857Y-17187286D01*
X8097857Y-17139667D01*
X8107381Y-17101571D01*
X8116905Y-17082524D01*
X8126428Y-17073000D01*
X8145476Y-17063476D01*
X8297857Y-17244429D02*
X8307381Y-17253952D01*
X8297857Y-17263476D01*
X8288333Y-17253952D01*
X8297857Y-17244429D01*
X8297857Y-17263476D01*
X8431190Y-17063476D02*
X8450238Y-17063476D01*
X8469286Y-17073000D01*
X8478810Y-17082524D01*
X8488333Y-17101571D01*
X8497857Y-17139667D01*
X8497857Y-17187286D01*
X8488333Y-17225381D01*
X8478810Y-17244429D01*
X8469286Y-17253952D01*
X8450238Y-17263476D01*
X8431190Y-17263476D01*
X8412143Y-17253952D01*
X8402619Y-17244429D01*
X8393095Y-17225381D01*
X8383571Y-17187286D01*
X8383571Y-17139667D01*
X8393095Y-17101571D01*
X8402619Y-17082524D01*
X8412143Y-17073000D01*
X8431190Y-17063476D01*
X8564524Y-17063476D02*
X8688333Y-17063476D01*
X8621667Y-17139667D01*
X8650238Y-17139667D01*
X8669286Y-17149190D01*
X8678810Y-17158714D01*
X8688333Y-17177762D01*
X8688333Y-17225381D01*
X8678810Y-17244429D01*
X8669286Y-17253952D01*
X8650238Y-17263476D01*
X8593095Y-17263476D01*
X8574048Y-17253952D01*
X8564524Y-17244429D01*
X8869286Y-17063476D02*
X8774048Y-17063476D01*
X8764524Y-17158714D01*
X8774048Y-17149190D01*
X8793095Y-17139667D01*
X8840714Y-17139667D01*
X8859762Y-17149190D01*
X8869286Y-17158714D01*
X8878810Y-17177762D01*
X8878810Y-17225381D01*
X8869286Y-17244429D01*
X8859762Y-17253952D01*
X8840714Y-17263476D01*
X8793095Y-17263476D01*
X8774048Y-17253952D01*
X8764524Y-17244429D01*
X9050238Y-17130143D02*
X9050238Y-17263476D01*
X9002619Y-17053952D02*
X8955000Y-17196810D01*
X9078810Y-17196810D01*
X9145476Y-17063476D02*
X9145476Y-17101571D01*
X9221667Y-17063476D02*
X9221667Y-17101571D01*
X9516905Y-17339667D02*
X9507381Y-17330143D01*
X9488333Y-17301571D01*
X9478810Y-17282524D01*
X9469286Y-17253952D01*
X9459762Y-17206333D01*
X9459762Y-17168238D01*
X9469286Y-17120619D01*
X9478810Y-17092048D01*
X9488333Y-17073000D01*
X9507381Y-17044429D01*
X9516905Y-17034905D01*
X9583571Y-17082524D02*
X9593095Y-17073000D01*
X9612143Y-17063476D01*
X9659762Y-17063476D01*
X9678810Y-17073000D01*
X9688333Y-17082524D01*
X9697857Y-17101571D01*
X9697857Y-17120619D01*
X9688333Y-17149190D01*
X9574048Y-17263476D01*
X9697857Y-17263476D01*
X9935952Y-17263476D02*
X9935952Y-17063476D01*
X10021667Y-17263476D02*
X10021667Y-17158714D01*
X10012143Y-17139667D01*
X9993095Y-17130143D01*
X9964524Y-17130143D01*
X9945476Y-17139667D01*
X9935952Y-17149190D01*
X10145476Y-17263476D02*
X10126429Y-17253952D01*
X10116905Y-17244429D01*
X10107381Y-17225381D01*
X10107381Y-17168238D01*
X10116905Y-17149190D01*
X10126429Y-17139667D01*
X10145476Y-17130143D01*
X10174048Y-17130143D01*
X10193095Y-17139667D01*
X10202619Y-17149190D01*
X10212143Y-17168238D01*
X10212143Y-17225381D01*
X10202619Y-17244429D01*
X10193095Y-17253952D01*
X10174048Y-17263476D01*
X10145476Y-17263476D01*
X10326429Y-17263476D02*
X10307381Y-17253952D01*
X10297857Y-17234905D01*
X10297857Y-17063476D01*
X10478810Y-17253952D02*
X10459762Y-17263476D01*
X10421667Y-17263476D01*
X10402619Y-17253952D01*
X10393095Y-17234905D01*
X10393095Y-17158714D01*
X10402619Y-17139667D01*
X10421667Y-17130143D01*
X10459762Y-17130143D01*
X10478810Y-17139667D01*
X10488333Y-17158714D01*
X10488333Y-17177762D01*
X10393095Y-17196810D01*
X10564524Y-17253952D02*
X10583571Y-17263476D01*
X10621667Y-17263476D01*
X10640714Y-17253952D01*
X10650238Y-17234905D01*
X10650238Y-17225381D01*
X10640714Y-17206333D01*
X10621667Y-17196810D01*
X10593095Y-17196810D01*
X10574048Y-17187286D01*
X10564524Y-17168238D01*
X10564524Y-17158714D01*
X10574048Y-17139667D01*
X10593095Y-17130143D01*
X10621667Y-17130143D01*
X10640714Y-17139667D01*
X10716905Y-17339667D02*
X10726429Y-17330143D01*
X10745476Y-17301571D01*
X10755000Y-17282524D01*
X10764524Y-17253952D01*
X10774048Y-17206333D01*
X10774048Y-17168238D01*
X10764524Y-17120619D01*
X10755000Y-17092048D01*
X10745476Y-17073000D01*
X10726429Y-17044429D01*
X10716905Y-17034905D01*
X11078810Y-17339667D02*
X11069286Y-17330143D01*
X11050238Y-17301571D01*
X11040714Y-17282524D01*
X11031190Y-17253952D01*
X11021667Y-17206333D01*
X11021667Y-17168238D01*
X11031190Y-17120619D01*
X11040714Y-17092048D01*
X11050238Y-17073000D01*
X11069286Y-17044429D01*
X11078810Y-17034905D01*
X11155000Y-17130143D02*
X11155000Y-17263476D01*
X11155000Y-17149190D02*
X11164524Y-17139667D01*
X11183571Y-17130143D01*
X11212143Y-17130143D01*
X11231190Y-17139667D01*
X11240714Y-17158714D01*
X11240714Y-17263476D01*
X11364524Y-17263476D02*
X11345476Y-17253952D01*
X11335952Y-17244429D01*
X11326428Y-17225381D01*
X11326428Y-17168238D01*
X11335952Y-17149190D01*
X11345476Y-17139667D01*
X11364524Y-17130143D01*
X11393095Y-17130143D01*
X11412143Y-17139667D01*
X11421667Y-17149190D01*
X11431190Y-17168238D01*
X11431190Y-17225381D01*
X11421667Y-17244429D01*
X11412143Y-17253952D01*
X11393095Y-17263476D01*
X11364524Y-17263476D01*
X11488333Y-17130143D02*
X11564524Y-17130143D01*
X11516905Y-17063476D02*
X11516905Y-17234905D01*
X11526428Y-17253952D01*
X11545476Y-17263476D01*
X11564524Y-17263476D01*
X11783571Y-17130143D02*
X11783571Y-17330143D01*
X11783571Y-17139667D02*
X11802619Y-17130143D01*
X11840714Y-17130143D01*
X11859762Y-17139667D01*
X11869286Y-17149190D01*
X11878809Y-17168238D01*
X11878809Y-17225381D01*
X11869286Y-17244429D01*
X11859762Y-17253952D01*
X11840714Y-17263476D01*
X11802619Y-17263476D01*
X11783571Y-17253952D01*
X11993095Y-17263476D02*
X11974048Y-17253952D01*
X11964524Y-17234905D01*
X11964524Y-17063476D01*
X12155000Y-17263476D02*
X12155000Y-17158714D01*
X12145476Y-17139667D01*
X12126428Y-17130143D01*
X12088333Y-17130143D01*
X12069286Y-17139667D01*
X12155000Y-17253952D02*
X12135952Y-17263476D01*
X12088333Y-17263476D01*
X12069286Y-17253952D01*
X12059762Y-17234905D01*
X12059762Y-17215857D01*
X12069286Y-17196810D01*
X12088333Y-17187286D01*
X12135952Y-17187286D01*
X12155000Y-17177762D01*
X12221667Y-17130143D02*
X12297857Y-17130143D01*
X12250238Y-17063476D02*
X12250238Y-17234905D01*
X12259762Y-17253952D01*
X12278809Y-17263476D01*
X12297857Y-17263476D01*
X12440714Y-17253952D02*
X12421667Y-17263476D01*
X12383571Y-17263476D01*
X12364524Y-17253952D01*
X12355000Y-17234905D01*
X12355000Y-17158714D01*
X12364524Y-17139667D01*
X12383571Y-17130143D01*
X12421667Y-17130143D01*
X12440714Y-17139667D01*
X12450238Y-17158714D01*
X12450238Y-17177762D01*
X12355000Y-17196810D01*
X12621667Y-17263476D02*
X12621667Y-17063476D01*
X12621667Y-17253952D02*
X12602619Y-17263476D01*
X12564524Y-17263476D01*
X12545476Y-17253952D01*
X12535952Y-17244429D01*
X12526428Y-17225381D01*
X12526428Y-17168238D01*
X12535952Y-17149190D01*
X12545476Y-17139667D01*
X12564524Y-17130143D01*
X12602619Y-17130143D01*
X12621667Y-17139667D01*
X12697857Y-17339667D02*
X12707381Y-17330143D01*
X12726428Y-17301571D01*
X12735952Y-17282524D01*
X12745476Y-17253952D01*
X12755000Y-17206333D01*
X12755000Y-17168238D01*
X12745476Y-17120619D01*
X12735952Y-17092048D01*
X12726428Y-17073000D01*
X12707381Y-17044429D01*
X12697857Y-17034905D01*
D16*
X5928130Y-17477730D02*
X5928130Y-17396270D01*
X5846670Y-17396270D01*
X5846670Y-17477730D01*
X5928130Y-17477730D01*
D12*
X6307381Y-17527476D02*
X6193095Y-17527476D01*
X6250238Y-17527476D02*
X6250238Y-17327476D01*
X6231190Y-17356048D01*
X6212143Y-17375095D01*
X6193095Y-17384619D01*
X6393095Y-17508429D02*
X6402619Y-17517952D01*
X6393095Y-17527476D01*
X6383571Y-17517952D01*
X6393095Y-17508429D01*
X6393095Y-17527476D01*
X6593095Y-17527476D02*
X6478809Y-17527476D01*
X6535952Y-17527476D02*
X6535952Y-17327476D01*
X6516905Y-17356048D01*
X6497857Y-17375095D01*
X6478809Y-17384619D01*
X6774048Y-17327476D02*
X6678809Y-17327476D01*
X6669286Y-17422714D01*
X6678809Y-17413190D01*
X6697857Y-17403667D01*
X6745476Y-17403667D01*
X6764524Y-17413190D01*
X6774048Y-17422714D01*
X6783571Y-17441762D01*
X6783571Y-17489381D01*
X6774048Y-17508429D01*
X6764524Y-17517952D01*
X6745476Y-17527476D01*
X6697857Y-17527476D01*
X6678809Y-17517952D01*
X6669286Y-17508429D01*
X6859762Y-17346524D02*
X6869286Y-17337000D01*
X6888333Y-17327476D01*
X6935952Y-17327476D01*
X6955000Y-17337000D01*
X6964524Y-17346524D01*
X6974048Y-17365571D01*
X6974048Y-17384619D01*
X6964524Y-17413190D01*
X6850238Y-17527476D01*
X6974048Y-17527476D01*
X7059762Y-17527476D02*
X7059762Y-17394143D01*
X7059762Y-17413190D02*
X7069286Y-17403667D01*
X7088333Y-17394143D01*
X7116905Y-17394143D01*
X7135952Y-17403667D01*
X7145476Y-17422714D01*
X7145476Y-17527476D01*
X7145476Y-17422714D02*
X7155000Y-17403667D01*
X7174048Y-17394143D01*
X7202619Y-17394143D01*
X7221667Y-17403667D01*
X7231190Y-17422714D01*
X7231190Y-17527476D01*
X7326428Y-17527476D02*
X7326428Y-17394143D01*
X7326428Y-17413190D02*
X7335952Y-17403667D01*
X7355000Y-17394143D01*
X7383571Y-17394143D01*
X7402619Y-17403667D01*
X7412143Y-17422714D01*
X7412143Y-17527476D01*
X7412143Y-17422714D02*
X7421667Y-17403667D01*
X7440714Y-17394143D01*
X7469286Y-17394143D01*
X7488333Y-17403667D01*
X7497857Y-17422714D01*
X7497857Y-17527476D01*
X7888333Y-17317952D02*
X7716905Y-17575095D01*
X8145476Y-17327476D02*
X8164524Y-17327476D01*
X8183571Y-17337000D01*
X8193095Y-17346524D01*
X8202619Y-17365571D01*
X8212143Y-17403667D01*
X8212143Y-17451286D01*
X8202619Y-17489381D01*
X8193095Y-17508429D01*
X8183571Y-17517952D01*
X8164524Y-17527476D01*
X8145476Y-17527476D01*
X8126428Y-17517952D01*
X8116905Y-17508429D01*
X8107381Y-17489381D01*
X8097857Y-17451286D01*
X8097857Y-17403667D01*
X8107381Y-17365571D01*
X8116905Y-17346524D01*
X8126428Y-17337000D01*
X8145476Y-17327476D01*
X8297857Y-17508429D02*
X8307381Y-17517952D01*
X8297857Y-17527476D01*
X8288333Y-17517952D01*
X8297857Y-17508429D01*
X8297857Y-17527476D01*
X8431190Y-17327476D02*
X8450238Y-17327476D01*
X8469286Y-17337000D01*
X8478810Y-17346524D01*
X8488333Y-17365571D01*
X8497857Y-17403667D01*
X8497857Y-17451286D01*
X8488333Y-17489381D01*
X8478810Y-17508429D01*
X8469286Y-17517952D01*
X8450238Y-17527476D01*
X8431190Y-17527476D01*
X8412143Y-17517952D01*
X8402619Y-17508429D01*
X8393095Y-17489381D01*
X8383571Y-17451286D01*
X8383571Y-17403667D01*
X8393095Y-17365571D01*
X8402619Y-17346524D01*
X8412143Y-17337000D01*
X8431190Y-17327476D01*
X8669286Y-17394143D02*
X8669286Y-17527476D01*
X8621667Y-17317952D02*
X8574048Y-17460810D01*
X8697857Y-17460810D01*
X8869286Y-17327476D02*
X8774048Y-17327476D01*
X8764524Y-17422714D01*
X8774048Y-17413190D01*
X8793095Y-17403667D01*
X8840714Y-17403667D01*
X8859762Y-17413190D01*
X8869286Y-17422714D01*
X8878810Y-17441762D01*
X8878810Y-17489381D01*
X8869286Y-17508429D01*
X8859762Y-17517952D01*
X8840714Y-17527476D01*
X8793095Y-17527476D01*
X8774048Y-17517952D01*
X8764524Y-17508429D01*
X9050238Y-17394143D02*
X9050238Y-17527476D01*
X9002619Y-17317952D02*
X8955000Y-17460810D01*
X9078810Y-17460810D01*
X9145476Y-17327476D02*
X9145476Y-17365571D01*
X9221667Y-17327476D02*
X9221667Y-17365571D01*
X9516905Y-17603667D02*
X9507381Y-17594143D01*
X9488333Y-17565571D01*
X9478810Y-17546524D01*
X9469286Y-17517952D01*
X9459762Y-17470333D01*
X9459762Y-17432238D01*
X9469286Y-17384619D01*
X9478810Y-17356048D01*
X9488333Y-17337000D01*
X9507381Y-17308429D01*
X9516905Y-17298905D01*
X9583571Y-17346524D02*
X9593095Y-17337000D01*
X9612143Y-17327476D01*
X9659762Y-17327476D01*
X9678810Y-17337000D01*
X9688333Y-17346524D01*
X9697857Y-17365571D01*
X9697857Y-17384619D01*
X9688333Y-17413190D01*
X9574048Y-17527476D01*
X9697857Y-17527476D01*
X9935952Y-17527476D02*
X9935952Y-17327476D01*
X10021667Y-17527476D02*
X10021667Y-17422714D01*
X10012143Y-17403667D01*
X9993095Y-17394143D01*
X9964524Y-17394143D01*
X9945476Y-17403667D01*
X9935952Y-17413190D01*
X10145476Y-17527476D02*
X10126429Y-17517952D01*
X10116905Y-17508429D01*
X10107381Y-17489381D01*
X10107381Y-17432238D01*
X10116905Y-17413190D01*
X10126429Y-17403667D01*
X10145476Y-17394143D01*
X10174048Y-17394143D01*
X10193095Y-17403667D01*
X10202619Y-17413190D01*
X10212143Y-17432238D01*
X10212143Y-17489381D01*
X10202619Y-17508429D01*
X10193095Y-17517952D01*
X10174048Y-17527476D01*
X10145476Y-17527476D01*
X10326429Y-17527476D02*
X10307381Y-17517952D01*
X10297857Y-17498905D01*
X10297857Y-17327476D01*
X10478810Y-17517952D02*
X10459762Y-17527476D01*
X10421667Y-17527476D01*
X10402619Y-17517952D01*
X10393095Y-17498905D01*
X10393095Y-17422714D01*
X10402619Y-17403667D01*
X10421667Y-17394143D01*
X10459762Y-17394143D01*
X10478810Y-17403667D01*
X10488333Y-17422714D01*
X10488333Y-17441762D01*
X10393095Y-17460810D01*
X10564524Y-17517952D02*
X10583571Y-17527476D01*
X10621667Y-17527476D01*
X10640714Y-17517952D01*
X10650238Y-17498905D01*
X10650238Y-17489381D01*
X10640714Y-17470333D01*
X10621667Y-17460810D01*
X10593095Y-17460810D01*
X10574048Y-17451286D01*
X10564524Y-17432238D01*
X10564524Y-17422714D01*
X10574048Y-17403667D01*
X10593095Y-17394143D01*
X10621667Y-17394143D01*
X10640714Y-17403667D01*
X10716905Y-17603667D02*
X10726429Y-17594143D01*
X10745476Y-17565571D01*
X10755000Y-17546524D01*
X10764524Y-17517952D01*
X10774048Y-17470333D01*
X10774048Y-17432238D01*
X10764524Y-17384619D01*
X10755000Y-17356048D01*
X10745476Y-17337000D01*
X10726429Y-17308429D01*
X10716905Y-17298905D01*
X11078810Y-17603667D02*
X11069286Y-17594143D01*
X11050238Y-17565571D01*
X11040714Y-17546524D01*
X11031190Y-17517952D01*
X11021667Y-17470333D01*
X11021667Y-17432238D01*
X11031190Y-17384619D01*
X11040714Y-17356048D01*
X11050238Y-17337000D01*
X11069286Y-17308429D01*
X11078810Y-17298905D01*
X11155000Y-17394143D02*
X11155000Y-17527476D01*
X11155000Y-17413190D02*
X11164524Y-17403667D01*
X11183571Y-17394143D01*
X11212143Y-17394143D01*
X11231190Y-17403667D01*
X11240714Y-17422714D01*
X11240714Y-17527476D01*
X11364524Y-17527476D02*
X11345476Y-17517952D01*
X11335952Y-17508429D01*
X11326428Y-17489381D01*
X11326428Y-17432238D01*
X11335952Y-17413190D01*
X11345476Y-17403667D01*
X11364524Y-17394143D01*
X11393095Y-17394143D01*
X11412143Y-17403667D01*
X11421667Y-17413190D01*
X11431190Y-17432238D01*
X11431190Y-17489381D01*
X11421667Y-17508429D01*
X11412143Y-17517952D01*
X11393095Y-17527476D01*
X11364524Y-17527476D01*
X11488333Y-17394143D02*
X11564524Y-17394143D01*
X11516905Y-17327476D02*
X11516905Y-17498905D01*
X11526428Y-17517952D01*
X11545476Y-17527476D01*
X11564524Y-17527476D01*
X11783571Y-17394143D02*
X11783571Y-17594143D01*
X11783571Y-17403667D02*
X11802619Y-17394143D01*
X11840714Y-17394143D01*
X11859762Y-17403667D01*
X11869286Y-17413190D01*
X11878809Y-17432238D01*
X11878809Y-17489381D01*
X11869286Y-17508429D01*
X11859762Y-17517952D01*
X11840714Y-17527476D01*
X11802619Y-17527476D01*
X11783571Y-17517952D01*
X11993095Y-17527476D02*
X11974048Y-17517952D01*
X11964524Y-17498905D01*
X11964524Y-17327476D01*
X12155000Y-17527476D02*
X12155000Y-17422714D01*
X12145476Y-17403667D01*
X12126428Y-17394143D01*
X12088333Y-17394143D01*
X12069286Y-17403667D01*
X12155000Y-17517952D02*
X12135952Y-17527476D01*
X12088333Y-17527476D01*
X12069286Y-17517952D01*
X12059762Y-17498905D01*
X12059762Y-17479857D01*
X12069286Y-17460810D01*
X12088333Y-17451286D01*
X12135952Y-17451286D01*
X12155000Y-17441762D01*
X12221667Y-17394143D02*
X12297857Y-17394143D01*
X12250238Y-17327476D02*
X12250238Y-17498905D01*
X12259762Y-17517952D01*
X12278809Y-17527476D01*
X12297857Y-17527476D01*
X12440714Y-17517952D02*
X12421667Y-17527476D01*
X12383571Y-17527476D01*
X12364524Y-17517952D01*
X12355000Y-17498905D01*
X12355000Y-17422714D01*
X12364524Y-17403667D01*
X12383571Y-17394143D01*
X12421667Y-17394143D01*
X12440714Y-17403667D01*
X12450238Y-17422714D01*
X12450238Y-17441762D01*
X12355000Y-17460810D01*
X12621667Y-17527476D02*
X12621667Y-17327476D01*
X12621667Y-17517952D02*
X12602619Y-17527476D01*
X12564524Y-17527476D01*
X12545476Y-17517952D01*
X12535952Y-17508429D01*
X12526428Y-17489381D01*
X12526428Y-17432238D01*
X12535952Y-17413190D01*
X12545476Y-17403667D01*
X12564524Y-17394143D01*
X12602619Y-17394143D01*
X12621667Y-17403667D01*
X12697857Y-17603667D02*
X12707381Y-17594143D01*
X12726428Y-17565571D01*
X12735952Y-17546524D01*
X12745476Y-17517952D01*
X12755000Y-17470333D01*
X12755000Y-17432238D01*
X12745476Y-17384619D01*
X12735952Y-17356048D01*
X12726428Y-17337000D01*
X12707381Y-17308429D01*
X12697857Y-17298905D01*
D17*
X5870000Y-17776000D02*
X5945000Y-17701000D01*
X5870000Y-17626000D01*
X5795000Y-17701000D01*
X5870000Y-17776000D01*
D12*
X6307381Y-17791476D02*
X6193095Y-17791476D01*
X6250238Y-17791476D02*
X6250238Y-17591476D01*
X6231190Y-17620048D01*
X6212143Y-17639095D01*
X6193095Y-17648619D01*
X6393095Y-17772429D02*
X6402619Y-17781952D01*
X6393095Y-17791476D01*
X6383571Y-17781952D01*
X6393095Y-17772429D01*
X6393095Y-17791476D01*
X6583571Y-17591476D02*
X6488333Y-17591476D01*
X6478809Y-17686714D01*
X6488333Y-17677190D01*
X6507381Y-17667667D01*
X6555000Y-17667667D01*
X6574048Y-17677190D01*
X6583571Y-17686714D01*
X6593095Y-17705762D01*
X6593095Y-17753381D01*
X6583571Y-17772429D01*
X6574048Y-17781952D01*
X6555000Y-17791476D01*
X6507381Y-17791476D01*
X6488333Y-17781952D01*
X6478809Y-17772429D01*
X6716905Y-17591476D02*
X6735952Y-17591476D01*
X6755000Y-17601000D01*
X6764524Y-17610524D01*
X6774048Y-17629571D01*
X6783571Y-17667667D01*
X6783571Y-17715286D01*
X6774048Y-17753381D01*
X6764524Y-17772429D01*
X6755000Y-17781952D01*
X6735952Y-17791476D01*
X6716905Y-17791476D01*
X6697857Y-17781952D01*
X6688333Y-17772429D01*
X6678809Y-17753381D01*
X6669286Y-17715286D01*
X6669286Y-17667667D01*
X6678809Y-17629571D01*
X6688333Y-17610524D01*
X6697857Y-17601000D01*
X6716905Y-17591476D01*
X6907381Y-17591476D02*
X6926428Y-17591476D01*
X6945476Y-17601000D01*
X6955000Y-17610524D01*
X6964524Y-17629571D01*
X6974048Y-17667667D01*
X6974048Y-17715286D01*
X6964524Y-17753381D01*
X6955000Y-17772429D01*
X6945476Y-17781952D01*
X6926428Y-17791476D01*
X6907381Y-17791476D01*
X6888333Y-17781952D01*
X6878809Y-17772429D01*
X6869286Y-17753381D01*
X6859762Y-17715286D01*
X6859762Y-17667667D01*
X6869286Y-17629571D01*
X6878809Y-17610524D01*
X6888333Y-17601000D01*
X6907381Y-17591476D01*
X7059762Y-17791476D02*
X7059762Y-17658143D01*
X7059762Y-17677190D02*
X7069286Y-17667667D01*
X7088333Y-17658143D01*
X7116905Y-17658143D01*
X7135952Y-17667667D01*
X7145476Y-17686714D01*
X7145476Y-17791476D01*
X7145476Y-17686714D02*
X7155000Y-17667667D01*
X7174048Y-17658143D01*
X7202619Y-17658143D01*
X7221667Y-17667667D01*
X7231190Y-17686714D01*
X7231190Y-17791476D01*
X7326428Y-17791476D02*
X7326428Y-17658143D01*
X7326428Y-17677190D02*
X7335952Y-17667667D01*
X7355000Y-17658143D01*
X7383571Y-17658143D01*
X7402619Y-17667667D01*
X7412143Y-17686714D01*
X7412143Y-17791476D01*
X7412143Y-17686714D02*
X7421667Y-17667667D01*
X7440714Y-17658143D01*
X7469286Y-17658143D01*
X7488333Y-17667667D01*
X7497857Y-17686714D01*
X7497857Y-17791476D01*
X7888333Y-17581952D02*
X7716905Y-17839095D01*
X8145476Y-17591476D02*
X8164524Y-17591476D01*
X8183571Y-17601000D01*
X8193095Y-17610524D01*
X8202619Y-17629571D01*
X8212143Y-17667667D01*
X8212143Y-17715286D01*
X8202619Y-17753381D01*
X8193095Y-17772429D01*
X8183571Y-17781952D01*
X8164524Y-17791476D01*
X8145476Y-17791476D01*
X8126428Y-17781952D01*
X8116905Y-17772429D01*
X8107381Y-17753381D01*
X8097857Y-17715286D01*
X8097857Y-17667667D01*
X8107381Y-17629571D01*
X8116905Y-17610524D01*
X8126428Y-17601000D01*
X8145476Y-17591476D01*
X8297857Y-17772429D02*
X8307381Y-17781952D01*
X8297857Y-17791476D01*
X8288333Y-17781952D01*
X8297857Y-17772429D01*
X8297857Y-17791476D01*
X8431190Y-17591476D02*
X8450238Y-17591476D01*
X8469286Y-17601000D01*
X8478810Y-17610524D01*
X8488333Y-17629571D01*
X8497857Y-17667667D01*
X8497857Y-17715286D01*
X8488333Y-17753381D01*
X8478810Y-17772429D01*
X8469286Y-17781952D01*
X8450238Y-17791476D01*
X8431190Y-17791476D01*
X8412143Y-17781952D01*
X8402619Y-17772429D01*
X8393095Y-17753381D01*
X8383571Y-17715286D01*
X8383571Y-17667667D01*
X8393095Y-17629571D01*
X8402619Y-17610524D01*
X8412143Y-17601000D01*
X8431190Y-17591476D01*
X8678810Y-17591476D02*
X8583571Y-17591476D01*
X8574048Y-17686714D01*
X8583571Y-17677190D01*
X8602619Y-17667667D01*
X8650238Y-17667667D01*
X8669286Y-17677190D01*
X8678810Y-17686714D01*
X8688333Y-17705762D01*
X8688333Y-17753381D01*
X8678810Y-17772429D01*
X8669286Y-17781952D01*
X8650238Y-17791476D01*
X8602619Y-17791476D01*
X8583571Y-17781952D01*
X8574048Y-17772429D01*
X8783571Y-17791476D02*
X8821667Y-17791476D01*
X8840714Y-17781952D01*
X8850238Y-17772429D01*
X8869286Y-17743857D01*
X8878810Y-17705762D01*
X8878810Y-17629571D01*
X8869286Y-17610524D01*
X8859762Y-17601000D01*
X8840714Y-17591476D01*
X8802619Y-17591476D01*
X8783571Y-17601000D01*
X8774048Y-17610524D01*
X8764524Y-17629571D01*
X8764524Y-17677190D01*
X8774048Y-17696238D01*
X8783571Y-17705762D01*
X8802619Y-17715286D01*
X8840714Y-17715286D01*
X8859762Y-17705762D01*
X8869286Y-17696238D01*
X8878810Y-17677190D01*
X9069286Y-17791476D02*
X8955000Y-17791476D01*
X9012143Y-17791476D02*
X9012143Y-17591476D01*
X8993095Y-17620048D01*
X8974048Y-17639095D01*
X8955000Y-17648619D01*
X9145476Y-17591476D02*
X9145476Y-17629571D01*
X9221667Y-17591476D02*
X9221667Y-17629571D01*
X9516905Y-17867667D02*
X9507381Y-17858143D01*
X9488333Y-17829571D01*
X9478810Y-17810524D01*
X9469286Y-17781952D01*
X9459762Y-17734333D01*
X9459762Y-17696238D01*
X9469286Y-17648619D01*
X9478810Y-17620048D01*
X9488333Y-17601000D01*
X9507381Y-17572429D01*
X9516905Y-17562905D01*
X9583571Y-17610524D02*
X9593095Y-17601000D01*
X9612143Y-17591476D01*
X9659762Y-17591476D01*
X9678810Y-17601000D01*
X9688333Y-17610524D01*
X9697857Y-17629571D01*
X9697857Y-17648619D01*
X9688333Y-17677190D01*
X9574048Y-17791476D01*
X9697857Y-17791476D01*
X9935952Y-17791476D02*
X9935952Y-17591476D01*
X10021667Y-17791476D02*
X10021667Y-17686714D01*
X10012143Y-17667667D01*
X9993095Y-17658143D01*
X9964524Y-17658143D01*
X9945476Y-17667667D01*
X9935952Y-17677190D01*
X10145476Y-17791476D02*
X10126429Y-17781952D01*
X10116905Y-17772429D01*
X10107381Y-17753381D01*
X10107381Y-17696238D01*
X10116905Y-17677190D01*
X10126429Y-17667667D01*
X10145476Y-17658143D01*
X10174048Y-17658143D01*
X10193095Y-17667667D01*
X10202619Y-17677190D01*
X10212143Y-17696238D01*
X10212143Y-17753381D01*
X10202619Y-17772429D01*
X10193095Y-17781952D01*
X10174048Y-17791476D01*
X10145476Y-17791476D01*
X10326429Y-17791476D02*
X10307381Y-17781952D01*
X10297857Y-17762905D01*
X10297857Y-17591476D01*
X10478810Y-17781952D02*
X10459762Y-17791476D01*
X10421667Y-17791476D01*
X10402619Y-17781952D01*
X10393095Y-17762905D01*
X10393095Y-17686714D01*
X10402619Y-17667667D01*
X10421667Y-17658143D01*
X10459762Y-17658143D01*
X10478810Y-17667667D01*
X10488333Y-17686714D01*
X10488333Y-17705762D01*
X10393095Y-17724810D01*
X10564524Y-17781952D02*
X10583571Y-17791476D01*
X10621667Y-17791476D01*
X10640714Y-17781952D01*
X10650238Y-17762905D01*
X10650238Y-17753381D01*
X10640714Y-17734333D01*
X10621667Y-17724810D01*
X10593095Y-17724810D01*
X10574048Y-17715286D01*
X10564524Y-17696238D01*
X10564524Y-17686714D01*
X10574048Y-17667667D01*
X10593095Y-17658143D01*
X10621667Y-17658143D01*
X10640714Y-17667667D01*
X10716905Y-17867667D02*
X10726429Y-17858143D01*
X10745476Y-17829571D01*
X10755000Y-17810524D01*
X10764524Y-17781952D01*
X10774048Y-17734333D01*
X10774048Y-17696238D01*
X10764524Y-17648619D01*
X10755000Y-17620048D01*
X10745476Y-17601000D01*
X10726429Y-17572429D01*
X10716905Y-17562905D01*
X11078810Y-17867667D02*
X11069286Y-17858143D01*
X11050238Y-17829571D01*
X11040714Y-17810524D01*
X11031190Y-17781952D01*
X11021667Y-17734333D01*
X11021667Y-17696238D01*
X11031190Y-17648619D01*
X11040714Y-17620048D01*
X11050238Y-17601000D01*
X11069286Y-17572429D01*
X11078810Y-17562905D01*
X11155000Y-17658143D02*
X11155000Y-17791476D01*
X11155000Y-17677190D02*
X11164524Y-17667667D01*
X11183571Y-17658143D01*
X11212143Y-17658143D01*
X11231190Y-17667667D01*
X11240714Y-17686714D01*
X11240714Y-17791476D01*
X11364524Y-17791476D02*
X11345476Y-17781952D01*
X11335952Y-17772429D01*
X11326428Y-17753381D01*
X11326428Y-17696238D01*
X11335952Y-17677190D01*
X11345476Y-17667667D01*
X11364524Y-17658143D01*
X11393095Y-17658143D01*
X11412143Y-17667667D01*
X11421667Y-17677190D01*
X11431190Y-17696238D01*
X11431190Y-17753381D01*
X11421667Y-17772429D01*
X11412143Y-17781952D01*
X11393095Y-17791476D01*
X11364524Y-17791476D01*
X11488333Y-17658143D02*
X11564524Y-17658143D01*
X11516905Y-17591476D02*
X11516905Y-17762905D01*
X11526428Y-17781952D01*
X11545476Y-17791476D01*
X11564524Y-17791476D01*
X11783571Y-17658143D02*
X11783571Y-17858143D01*
X11783571Y-17667667D02*
X11802619Y-17658143D01*
X11840714Y-17658143D01*
X11859762Y-17667667D01*
X11869286Y-17677190D01*
X11878809Y-17696238D01*
X11878809Y-17753381D01*
X11869286Y-17772429D01*
X11859762Y-17781952D01*
X11840714Y-17791476D01*
X11802619Y-17791476D01*
X11783571Y-17781952D01*
X11993095Y-17791476D02*
X11974048Y-17781952D01*
X11964524Y-17762905D01*
X11964524Y-17591476D01*
X12155000Y-17791476D02*
X12155000Y-17686714D01*
X12145476Y-17667667D01*
X12126428Y-17658143D01*
X12088333Y-17658143D01*
X12069286Y-17667667D01*
X12155000Y-17781952D02*
X12135952Y-17791476D01*
X12088333Y-17791476D01*
X12069286Y-17781952D01*
X12059762Y-17762905D01*
X12059762Y-17743857D01*
X12069286Y-17724810D01*
X12088333Y-17715286D01*
X12135952Y-17715286D01*
X12155000Y-17705762D01*
X12221667Y-17658143D02*
X12297857Y-17658143D01*
X12250238Y-17591476D02*
X12250238Y-17762905D01*
X12259762Y-17781952D01*
X12278809Y-17791476D01*
X12297857Y-17791476D01*
X12440714Y-17781952D02*
X12421667Y-17791476D01*
X12383571Y-17791476D01*
X12364524Y-17781952D01*
X12355000Y-17762905D01*
X12355000Y-17686714D01*
X12364524Y-17667667D01*
X12383571Y-17658143D01*
X12421667Y-17658143D01*
X12440714Y-17667667D01*
X12450238Y-17686714D01*
X12450238Y-17705762D01*
X12355000Y-17724810D01*
X12621667Y-17791476D02*
X12621667Y-17591476D01*
X12621667Y-17781952D02*
X12602619Y-17791476D01*
X12564524Y-17791476D01*
X12545476Y-17781952D01*
X12535952Y-17772429D01*
X12526428Y-17753381D01*
X12526428Y-17696238D01*
X12535952Y-17677190D01*
X12545476Y-17667667D01*
X12564524Y-17658143D01*
X12602619Y-17658143D01*
X12621667Y-17667667D01*
X12697857Y-17867667D02*
X12707381Y-17858143D01*
X12726428Y-17829571D01*
X12735952Y-17810524D01*
X12745476Y-17781952D01*
X12755000Y-17734333D01*
X12755000Y-17696238D01*
X12745476Y-17648619D01*
X12735952Y-17620048D01*
X12726428Y-17601000D01*
X12707381Y-17572429D01*
X12697857Y-17562905D01*
D18*
X5770000Y-17883500D02*
X5945000Y-18058500D01*
X5945000Y-17883500D02*
X5770000Y-18058500D01*
X5945000Y-17971000D02*
G75*
G03*
X5945000Y-17971000I-87500J0D01*
G01*
D12*
X6307381Y-18061476D02*
X6193095Y-18061476D01*
X6250238Y-18061476D02*
X6250238Y-17861476D01*
X6231190Y-17890048D01*
X6212143Y-17909095D01*
X6193095Y-17918619D01*
X6393095Y-18042429D02*
X6402619Y-18051952D01*
X6393095Y-18061476D01*
X6383571Y-18051952D01*
X6393095Y-18042429D01*
X6393095Y-18061476D01*
X6469286Y-17861476D02*
X6602619Y-17861476D01*
X6516905Y-18061476D01*
X6774048Y-17861476D02*
X6678809Y-17861476D01*
X6669286Y-17956714D01*
X6678809Y-17947190D01*
X6697857Y-17937667D01*
X6745476Y-17937667D01*
X6764524Y-17947190D01*
X6774048Y-17956714D01*
X6783571Y-17975762D01*
X6783571Y-18023381D01*
X6774048Y-18042429D01*
X6764524Y-18051952D01*
X6745476Y-18061476D01*
X6697857Y-18061476D01*
X6678809Y-18051952D01*
X6669286Y-18042429D01*
X6907381Y-17861476D02*
X6926428Y-17861476D01*
X6945476Y-17871000D01*
X6955000Y-17880524D01*
X6964524Y-17899571D01*
X6974048Y-17937667D01*
X6974048Y-17985286D01*
X6964524Y-18023381D01*
X6955000Y-18042429D01*
X6945476Y-18051952D01*
X6926428Y-18061476D01*
X6907381Y-18061476D01*
X6888333Y-18051952D01*
X6878809Y-18042429D01*
X6869286Y-18023381D01*
X6859762Y-17985286D01*
X6859762Y-17937667D01*
X6869286Y-17899571D01*
X6878809Y-17880524D01*
X6888333Y-17871000D01*
X6907381Y-17861476D01*
X7059762Y-18061476D02*
X7059762Y-17928143D01*
X7059762Y-17947190D02*
X7069286Y-17937667D01*
X7088333Y-17928143D01*
X7116905Y-17928143D01*
X7135952Y-17937667D01*
X7145476Y-17956714D01*
X7145476Y-18061476D01*
X7145476Y-17956714D02*
X7155000Y-17937667D01*
X7174048Y-17928143D01*
X7202619Y-17928143D01*
X7221667Y-17937667D01*
X7231190Y-17956714D01*
X7231190Y-18061476D01*
X7326428Y-18061476D02*
X7326428Y-17928143D01*
X7326428Y-17947190D02*
X7335952Y-17937667D01*
X7355000Y-17928143D01*
X7383571Y-17928143D01*
X7402619Y-17937667D01*
X7412143Y-17956714D01*
X7412143Y-18061476D01*
X7412143Y-17956714D02*
X7421667Y-17937667D01*
X7440714Y-17928143D01*
X7469286Y-17928143D01*
X7488333Y-17937667D01*
X7497857Y-17956714D01*
X7497857Y-18061476D01*
X7888333Y-17851952D02*
X7716905Y-18109095D01*
X8145476Y-17861476D02*
X8164524Y-17861476D01*
X8183571Y-17871000D01*
X8193095Y-17880524D01*
X8202619Y-17899571D01*
X8212143Y-17937667D01*
X8212143Y-17985286D01*
X8202619Y-18023381D01*
X8193095Y-18042429D01*
X8183571Y-18051952D01*
X8164524Y-18061476D01*
X8145476Y-18061476D01*
X8126428Y-18051952D01*
X8116905Y-18042429D01*
X8107381Y-18023381D01*
X8097857Y-17985286D01*
X8097857Y-17937667D01*
X8107381Y-17899571D01*
X8116905Y-17880524D01*
X8126428Y-17871000D01*
X8145476Y-17861476D01*
X8297857Y-18042429D02*
X8307381Y-18051952D01*
X8297857Y-18061476D01*
X8288333Y-18051952D01*
X8297857Y-18042429D01*
X8297857Y-18061476D01*
X8431190Y-17861476D02*
X8450238Y-17861476D01*
X8469286Y-17871000D01*
X8478810Y-17880524D01*
X8488333Y-17899571D01*
X8497857Y-17937667D01*
X8497857Y-17985286D01*
X8488333Y-18023381D01*
X8478810Y-18042429D01*
X8469286Y-18051952D01*
X8450238Y-18061476D01*
X8431190Y-18061476D01*
X8412143Y-18051952D01*
X8402619Y-18042429D01*
X8393095Y-18023381D01*
X8383571Y-17985286D01*
X8383571Y-17937667D01*
X8393095Y-17899571D01*
X8402619Y-17880524D01*
X8412143Y-17871000D01*
X8431190Y-17861476D01*
X8669286Y-17861476D02*
X8631190Y-17861476D01*
X8612143Y-17871000D01*
X8602619Y-17880524D01*
X8583571Y-17909095D01*
X8574048Y-17947190D01*
X8574048Y-18023381D01*
X8583571Y-18042429D01*
X8593095Y-18051952D01*
X8612143Y-18061476D01*
X8650238Y-18061476D01*
X8669286Y-18051952D01*
X8678810Y-18042429D01*
X8688333Y-18023381D01*
X8688333Y-17975762D01*
X8678810Y-17956714D01*
X8669286Y-17947190D01*
X8650238Y-17937667D01*
X8612143Y-17937667D01*
X8593095Y-17947190D01*
X8583571Y-17956714D01*
X8574048Y-17975762D01*
X8802619Y-17947190D02*
X8783571Y-17937667D01*
X8774048Y-17928143D01*
X8764524Y-17909095D01*
X8764524Y-17899571D01*
X8774048Y-17880524D01*
X8783571Y-17871000D01*
X8802619Y-17861476D01*
X8840714Y-17861476D01*
X8859762Y-17871000D01*
X8869286Y-17880524D01*
X8878810Y-17899571D01*
X8878810Y-17909095D01*
X8869286Y-17928143D01*
X8859762Y-17937667D01*
X8840714Y-17947190D01*
X8802619Y-17947190D01*
X8783571Y-17956714D01*
X8774048Y-17966238D01*
X8764524Y-17985286D01*
X8764524Y-18023381D01*
X8774048Y-18042429D01*
X8783571Y-18051952D01*
X8802619Y-18061476D01*
X8840714Y-18061476D01*
X8859762Y-18051952D01*
X8869286Y-18042429D01*
X8878810Y-18023381D01*
X8878810Y-17985286D01*
X8869286Y-17966238D01*
X8859762Y-17956714D01*
X8840714Y-17947190D01*
X8974048Y-18061476D02*
X9012143Y-18061476D01*
X9031190Y-18051952D01*
X9040714Y-18042429D01*
X9059762Y-18013857D01*
X9069286Y-17975762D01*
X9069286Y-17899571D01*
X9059762Y-17880524D01*
X9050238Y-17871000D01*
X9031190Y-17861476D01*
X8993095Y-17861476D01*
X8974048Y-17871000D01*
X8964524Y-17880524D01*
X8955000Y-17899571D01*
X8955000Y-17947190D01*
X8964524Y-17966238D01*
X8974048Y-17975762D01*
X8993095Y-17985286D01*
X9031190Y-17985286D01*
X9050238Y-17975762D01*
X9059762Y-17966238D01*
X9069286Y-17947190D01*
X9145476Y-17861476D02*
X9145476Y-17899571D01*
X9221667Y-17861476D02*
X9221667Y-17899571D01*
X9516905Y-18137667D02*
X9507381Y-18128143D01*
X9488333Y-18099571D01*
X9478810Y-18080524D01*
X9469286Y-18051952D01*
X9459762Y-18004333D01*
X9459762Y-17966238D01*
X9469286Y-17918619D01*
X9478810Y-17890048D01*
X9488333Y-17871000D01*
X9507381Y-17842429D01*
X9516905Y-17832905D01*
X9697857Y-18061476D02*
X9583571Y-18061476D01*
X9640714Y-18061476D02*
X9640714Y-17861476D01*
X9621667Y-17890048D01*
X9602619Y-17909095D01*
X9583571Y-17918619D01*
X9764524Y-17861476D02*
X9897857Y-17861476D01*
X9812143Y-18061476D01*
X10059762Y-17928143D02*
X10059762Y-18061476D01*
X10012143Y-17851952D02*
X9964524Y-17994810D01*
X10088333Y-17994810D01*
X10316905Y-18061476D02*
X10316905Y-17861476D01*
X10402619Y-18061476D02*
X10402619Y-17956714D01*
X10393095Y-17937667D01*
X10374048Y-17928143D01*
X10345476Y-17928143D01*
X10326429Y-17937667D01*
X10316905Y-17947190D01*
X10526429Y-18061476D02*
X10507381Y-18051952D01*
X10497857Y-18042429D01*
X10488333Y-18023381D01*
X10488333Y-17966238D01*
X10497857Y-17947190D01*
X10507381Y-17937667D01*
X10526429Y-17928143D01*
X10555000Y-17928143D01*
X10574048Y-17937667D01*
X10583571Y-17947190D01*
X10593095Y-17966238D01*
X10593095Y-18023381D01*
X10583571Y-18042429D01*
X10574048Y-18051952D01*
X10555000Y-18061476D01*
X10526429Y-18061476D01*
X10707381Y-18061476D02*
X10688333Y-18051952D01*
X10678810Y-18032905D01*
X10678810Y-17861476D01*
X10859762Y-18051952D02*
X10840714Y-18061476D01*
X10802619Y-18061476D01*
X10783571Y-18051952D01*
X10774048Y-18032905D01*
X10774048Y-17956714D01*
X10783571Y-17937667D01*
X10802619Y-17928143D01*
X10840714Y-17928143D01*
X10859762Y-17937667D01*
X10869286Y-17956714D01*
X10869286Y-17975762D01*
X10774048Y-17994810D01*
X10945476Y-18051952D02*
X10964524Y-18061476D01*
X11002619Y-18061476D01*
X11021667Y-18051952D01*
X11031190Y-18032905D01*
X11031190Y-18023381D01*
X11021667Y-18004333D01*
X11002619Y-17994810D01*
X10974048Y-17994810D01*
X10955000Y-17985286D01*
X10945476Y-17966238D01*
X10945476Y-17956714D01*
X10955000Y-17937667D01*
X10974048Y-17928143D01*
X11002619Y-17928143D01*
X11021667Y-17937667D01*
X11097857Y-18137667D02*
X11107381Y-18128143D01*
X11126429Y-18099571D01*
X11135952Y-18080524D01*
X11145476Y-18051952D01*
X11155000Y-18004333D01*
X11155000Y-17966238D01*
X11145476Y-17918619D01*
X11135952Y-17890048D01*
X11126429Y-17871000D01*
X11107381Y-17842429D01*
X11097857Y-17832905D01*
X11459762Y-18137667D02*
X11450238Y-18128143D01*
X11431190Y-18099571D01*
X11421667Y-18080524D01*
X11412143Y-18051952D01*
X11402619Y-18004333D01*
X11402619Y-17966238D01*
X11412143Y-17918619D01*
X11421667Y-17890048D01*
X11431190Y-17871000D01*
X11450238Y-17842429D01*
X11459762Y-17832905D01*
X11535952Y-17928143D02*
X11535952Y-18061476D01*
X11535952Y-17947190D02*
X11545476Y-17937667D01*
X11564524Y-17928143D01*
X11593095Y-17928143D01*
X11612143Y-17937667D01*
X11621667Y-17956714D01*
X11621667Y-18061476D01*
X11745476Y-18061476D02*
X11726428Y-18051952D01*
X11716905Y-18042429D01*
X11707381Y-18023381D01*
X11707381Y-17966238D01*
X11716905Y-17947190D01*
X11726428Y-17937667D01*
X11745476Y-17928143D01*
X11774048Y-17928143D01*
X11793095Y-17937667D01*
X11802619Y-17947190D01*
X11812143Y-17966238D01*
X11812143Y-18023381D01*
X11802619Y-18042429D01*
X11793095Y-18051952D01*
X11774048Y-18061476D01*
X11745476Y-18061476D01*
X11869286Y-17928143D02*
X11945476Y-17928143D01*
X11897857Y-17861476D02*
X11897857Y-18032905D01*
X11907381Y-18051952D01*
X11926428Y-18061476D01*
X11945476Y-18061476D01*
X12164524Y-17928143D02*
X12164524Y-18128143D01*
X12164524Y-17937667D02*
X12183571Y-17928143D01*
X12221667Y-17928143D01*
X12240714Y-17937667D01*
X12250238Y-17947190D01*
X12259762Y-17966238D01*
X12259762Y-18023381D01*
X12250238Y-18042429D01*
X12240714Y-18051952D01*
X12221667Y-18061476D01*
X12183571Y-18061476D01*
X12164524Y-18051952D01*
X12374048Y-18061476D02*
X12355000Y-18051952D01*
X12345476Y-18032905D01*
X12345476Y-17861476D01*
X12535952Y-18061476D02*
X12535952Y-17956714D01*
X12526428Y-17937667D01*
X12507381Y-17928143D01*
X12469286Y-17928143D01*
X12450238Y-17937667D01*
X12535952Y-18051952D02*
X12516905Y-18061476D01*
X12469286Y-18061476D01*
X12450238Y-18051952D01*
X12440714Y-18032905D01*
X12440714Y-18013857D01*
X12450238Y-17994810D01*
X12469286Y-17985286D01*
X12516905Y-17985286D01*
X12535952Y-17975762D01*
X12602619Y-17928143D02*
X12678809Y-17928143D01*
X12631190Y-17861476D02*
X12631190Y-18032905D01*
X12640714Y-18051952D01*
X12659762Y-18061476D01*
X12678809Y-18061476D01*
X12821667Y-18051952D02*
X12802619Y-18061476D01*
X12764524Y-18061476D01*
X12745476Y-18051952D01*
X12735952Y-18032905D01*
X12735952Y-17956714D01*
X12745476Y-17937667D01*
X12764524Y-17928143D01*
X12802619Y-17928143D01*
X12821667Y-17937667D01*
X12831190Y-17956714D01*
X12831190Y-17975762D01*
X12735952Y-17994810D01*
X13002619Y-18061476D02*
X13002619Y-17861476D01*
X13002619Y-18051952D02*
X12983571Y-18061476D01*
X12945476Y-18061476D01*
X12926428Y-18051952D01*
X12916905Y-18042429D01*
X12907381Y-18023381D01*
X12907381Y-17966238D01*
X12916905Y-17947190D01*
X12926428Y-17937667D01*
X12945476Y-17928143D01*
X12983571Y-17928143D01*
X13002619Y-17937667D01*
X13078809Y-18137667D02*
X13088333Y-18128143D01*
X13107381Y-18099571D01*
X13116905Y-18080524D01*
X13126428Y-18051952D01*
X13135952Y-18004333D01*
X13135952Y-17966238D01*
X13126428Y-17918619D01*
X13116905Y-17890048D01*
X13107381Y-17871000D01*
X13088333Y-17842429D01*
X13078809Y-17832905D01*
X5745000Y-18166000D02*
X5945000Y-18366000D01*
X5945000Y-18166000D02*
X5745000Y-18366000D01*
X5845000Y-18166000D02*
X5845000Y-18366000D01*
X5745000Y-18266000D02*
X5945000Y-18266000D01*
X6183571Y-18156476D02*
X6307381Y-18156476D01*
X6240714Y-18232667D01*
X6269286Y-18232667D01*
X6288333Y-18242190D01*
X6297857Y-18251714D01*
X6307381Y-18270762D01*
X6307381Y-18318381D01*
X6297857Y-18337429D01*
X6288333Y-18346952D01*
X6269286Y-18356476D01*
X6212143Y-18356476D01*
X6193095Y-18346952D01*
X6183571Y-18337429D01*
X6393095Y-18337429D02*
X6402619Y-18346952D01*
X6393095Y-18356476D01*
X6383571Y-18346952D01*
X6393095Y-18337429D01*
X6393095Y-18356476D01*
X6526428Y-18156476D02*
X6545476Y-18156476D01*
X6564524Y-18166000D01*
X6574048Y-18175524D01*
X6583571Y-18194571D01*
X6593095Y-18232667D01*
X6593095Y-18280286D01*
X6583571Y-18318381D01*
X6574048Y-18337429D01*
X6564524Y-18346952D01*
X6545476Y-18356476D01*
X6526428Y-18356476D01*
X6507381Y-18346952D01*
X6497857Y-18337429D01*
X6488333Y-18318381D01*
X6478809Y-18280286D01*
X6478809Y-18232667D01*
X6488333Y-18194571D01*
X6497857Y-18175524D01*
X6507381Y-18166000D01*
X6526428Y-18156476D01*
X6716905Y-18156476D02*
X6735952Y-18156476D01*
X6755000Y-18166000D01*
X6764524Y-18175524D01*
X6774048Y-18194571D01*
X6783571Y-18232667D01*
X6783571Y-18280286D01*
X6774048Y-18318381D01*
X6764524Y-18337429D01*
X6755000Y-18346952D01*
X6735952Y-18356476D01*
X6716905Y-18356476D01*
X6697857Y-18346952D01*
X6688333Y-18337429D01*
X6678809Y-18318381D01*
X6669286Y-18280286D01*
X6669286Y-18232667D01*
X6678809Y-18194571D01*
X6688333Y-18175524D01*
X6697857Y-18166000D01*
X6716905Y-18156476D01*
X6907381Y-18156476D02*
X6926428Y-18156476D01*
X6945476Y-18166000D01*
X6955000Y-18175524D01*
X6964524Y-18194571D01*
X6974048Y-18232667D01*
X6974048Y-18280286D01*
X6964524Y-18318381D01*
X6955000Y-18337429D01*
X6945476Y-18346952D01*
X6926428Y-18356476D01*
X6907381Y-18356476D01*
X6888333Y-18346952D01*
X6878809Y-18337429D01*
X6869286Y-18318381D01*
X6859762Y-18280286D01*
X6859762Y-18232667D01*
X6869286Y-18194571D01*
X6878809Y-18175524D01*
X6888333Y-18166000D01*
X6907381Y-18156476D01*
X7059762Y-18356476D02*
X7059762Y-18223143D01*
X7059762Y-18242190D02*
X7069286Y-18232667D01*
X7088333Y-18223143D01*
X7116905Y-18223143D01*
X7135952Y-18232667D01*
X7145476Y-18251714D01*
X7145476Y-18356476D01*
X7145476Y-18251714D02*
X7155000Y-18232667D01*
X7174048Y-18223143D01*
X7202619Y-18223143D01*
X7221667Y-18232667D01*
X7231190Y-18251714D01*
X7231190Y-18356476D01*
X7326428Y-18356476D02*
X7326428Y-18223143D01*
X7326428Y-18242190D02*
X7335952Y-18232667D01*
X7355000Y-18223143D01*
X7383571Y-18223143D01*
X7402619Y-18232667D01*
X7412143Y-18251714D01*
X7412143Y-18356476D01*
X7412143Y-18251714D02*
X7421667Y-18232667D01*
X7440714Y-18223143D01*
X7469286Y-18223143D01*
X7488333Y-18232667D01*
X7497857Y-18251714D01*
X7497857Y-18356476D01*
X7888333Y-18146952D02*
X7716905Y-18404095D01*
X8145476Y-18156476D02*
X8164524Y-18156476D01*
X8183571Y-18166000D01*
X8193095Y-18175524D01*
X8202619Y-18194571D01*
X8212143Y-18232667D01*
X8212143Y-18280286D01*
X8202619Y-18318381D01*
X8193095Y-18337429D01*
X8183571Y-18346952D01*
X8164524Y-18356476D01*
X8145476Y-18356476D01*
X8126428Y-18346952D01*
X8116905Y-18337429D01*
X8107381Y-18318381D01*
X8097857Y-18280286D01*
X8097857Y-18232667D01*
X8107381Y-18194571D01*
X8116905Y-18175524D01*
X8126428Y-18166000D01*
X8145476Y-18156476D01*
X8297857Y-18337429D02*
X8307381Y-18346952D01*
X8297857Y-18356476D01*
X8288333Y-18346952D01*
X8297857Y-18337429D01*
X8297857Y-18356476D01*
X8497857Y-18356476D02*
X8383571Y-18356476D01*
X8440714Y-18356476D02*
X8440714Y-18156476D01*
X8421667Y-18185048D01*
X8402619Y-18204095D01*
X8383571Y-18213619D01*
X8688333Y-18356476D02*
X8574048Y-18356476D01*
X8631190Y-18356476D02*
X8631190Y-18156476D01*
X8612143Y-18185048D01*
X8593095Y-18204095D01*
X8574048Y-18213619D01*
X8802619Y-18242190D02*
X8783571Y-18232667D01*
X8774048Y-18223143D01*
X8764524Y-18204095D01*
X8764524Y-18194571D01*
X8774048Y-18175524D01*
X8783571Y-18166000D01*
X8802619Y-18156476D01*
X8840714Y-18156476D01*
X8859762Y-18166000D01*
X8869286Y-18175524D01*
X8878810Y-18194571D01*
X8878810Y-18204095D01*
X8869286Y-18223143D01*
X8859762Y-18232667D01*
X8840714Y-18242190D01*
X8802619Y-18242190D01*
X8783571Y-18251714D01*
X8774048Y-18261238D01*
X8764524Y-18280286D01*
X8764524Y-18318381D01*
X8774048Y-18337429D01*
X8783571Y-18346952D01*
X8802619Y-18356476D01*
X8840714Y-18356476D01*
X8859762Y-18346952D01*
X8869286Y-18337429D01*
X8878810Y-18318381D01*
X8878810Y-18280286D01*
X8869286Y-18261238D01*
X8859762Y-18251714D01*
X8840714Y-18242190D01*
X9069286Y-18356476D02*
X8955000Y-18356476D01*
X9012143Y-18356476D02*
X9012143Y-18156476D01*
X8993095Y-18185048D01*
X8974048Y-18204095D01*
X8955000Y-18213619D01*
X9145476Y-18156476D02*
X9145476Y-18194571D01*
X9221667Y-18156476D02*
X9221667Y-18194571D01*
X9516905Y-18432667D02*
X9507381Y-18423143D01*
X9488333Y-18394571D01*
X9478810Y-18375524D01*
X9469286Y-18346952D01*
X9459762Y-18299333D01*
X9459762Y-18261238D01*
X9469286Y-18213619D01*
X9478810Y-18185048D01*
X9488333Y-18166000D01*
X9507381Y-18137429D01*
X9516905Y-18127905D01*
X9697857Y-18356476D02*
X9583571Y-18356476D01*
X9640714Y-18356476D02*
X9640714Y-18156476D01*
X9621667Y-18185048D01*
X9602619Y-18204095D01*
X9583571Y-18213619D01*
X9764524Y-18156476D02*
X9897857Y-18156476D01*
X9812143Y-18356476D01*
X10059762Y-18223143D02*
X10059762Y-18356476D01*
X10012143Y-18146952D02*
X9964524Y-18289810D01*
X10088333Y-18289810D01*
X10316905Y-18356476D02*
X10316905Y-18156476D01*
X10402619Y-18356476D02*
X10402619Y-18251714D01*
X10393095Y-18232667D01*
X10374048Y-18223143D01*
X10345476Y-18223143D01*
X10326429Y-18232667D01*
X10316905Y-18242190D01*
X10526429Y-18356476D02*
X10507381Y-18346952D01*
X10497857Y-18337429D01*
X10488333Y-18318381D01*
X10488333Y-18261238D01*
X10497857Y-18242190D01*
X10507381Y-18232667D01*
X10526429Y-18223143D01*
X10555000Y-18223143D01*
X10574048Y-18232667D01*
X10583571Y-18242190D01*
X10593095Y-18261238D01*
X10593095Y-18318381D01*
X10583571Y-18337429D01*
X10574048Y-18346952D01*
X10555000Y-18356476D01*
X10526429Y-18356476D01*
X10707381Y-18356476D02*
X10688333Y-18346952D01*
X10678810Y-18327905D01*
X10678810Y-18156476D01*
X10859762Y-18346952D02*
X10840714Y-18356476D01*
X10802619Y-18356476D01*
X10783571Y-18346952D01*
X10774048Y-18327905D01*
X10774048Y-18251714D01*
X10783571Y-18232667D01*
X10802619Y-18223143D01*
X10840714Y-18223143D01*
X10859762Y-18232667D01*
X10869286Y-18251714D01*
X10869286Y-18270762D01*
X10774048Y-18289810D01*
X10945476Y-18346952D02*
X10964524Y-18356476D01*
X11002619Y-18356476D01*
X11021667Y-18346952D01*
X11031190Y-18327905D01*
X11031190Y-18318381D01*
X11021667Y-18299333D01*
X11002619Y-18289810D01*
X10974048Y-18289810D01*
X10955000Y-18280286D01*
X10945476Y-18261238D01*
X10945476Y-18251714D01*
X10955000Y-18232667D01*
X10974048Y-18223143D01*
X11002619Y-18223143D01*
X11021667Y-18232667D01*
X11097857Y-18432667D02*
X11107381Y-18423143D01*
X11126429Y-18394571D01*
X11135952Y-18375524D01*
X11145476Y-18346952D01*
X11155000Y-18299333D01*
X11155000Y-18261238D01*
X11145476Y-18213619D01*
X11135952Y-18185048D01*
X11126429Y-18166000D01*
X11107381Y-18137429D01*
X11097857Y-18127905D01*
X11459762Y-18432667D02*
X11450238Y-18423143D01*
X11431190Y-18394571D01*
X11421667Y-18375524D01*
X11412143Y-18346952D01*
X11402619Y-18299333D01*
X11402619Y-18261238D01*
X11412143Y-18213619D01*
X11421667Y-18185048D01*
X11431190Y-18166000D01*
X11450238Y-18137429D01*
X11459762Y-18127905D01*
X11535952Y-18223143D02*
X11535952Y-18356476D01*
X11535952Y-18242190D02*
X11545476Y-18232667D01*
X11564524Y-18223143D01*
X11593095Y-18223143D01*
X11612143Y-18232667D01*
X11621667Y-18251714D01*
X11621667Y-18356476D01*
X11745476Y-18356476D02*
X11726428Y-18346952D01*
X11716905Y-18337429D01*
X11707381Y-18318381D01*
X11707381Y-18261238D01*
X11716905Y-18242190D01*
X11726428Y-18232667D01*
X11745476Y-18223143D01*
X11774048Y-18223143D01*
X11793095Y-18232667D01*
X11802619Y-18242190D01*
X11812143Y-18261238D01*
X11812143Y-18318381D01*
X11802619Y-18337429D01*
X11793095Y-18346952D01*
X11774048Y-18356476D01*
X11745476Y-18356476D01*
X11869286Y-18223143D02*
X11945476Y-18223143D01*
X11897857Y-18156476D02*
X11897857Y-18327905D01*
X11907381Y-18346952D01*
X11926428Y-18356476D01*
X11945476Y-18356476D01*
X12164524Y-18223143D02*
X12164524Y-18423143D01*
X12164524Y-18232667D02*
X12183571Y-18223143D01*
X12221667Y-18223143D01*
X12240714Y-18232667D01*
X12250238Y-18242190D01*
X12259762Y-18261238D01*
X12259762Y-18318381D01*
X12250238Y-18337429D01*
X12240714Y-18346952D01*
X12221667Y-18356476D01*
X12183571Y-18356476D01*
X12164524Y-18346952D01*
X12374048Y-18356476D02*
X12355000Y-18346952D01*
X12345476Y-18327905D01*
X12345476Y-18156476D01*
X12535952Y-18356476D02*
X12535952Y-18251714D01*
X12526428Y-18232667D01*
X12507381Y-18223143D01*
X12469286Y-18223143D01*
X12450238Y-18232667D01*
X12535952Y-18346952D02*
X12516905Y-18356476D01*
X12469286Y-18356476D01*
X12450238Y-18346952D01*
X12440714Y-18327905D01*
X12440714Y-18308857D01*
X12450238Y-18289810D01*
X12469286Y-18280286D01*
X12516905Y-18280286D01*
X12535952Y-18270762D01*
X12602619Y-18223143D02*
X12678809Y-18223143D01*
X12631190Y-18156476D02*
X12631190Y-18327905D01*
X12640714Y-18346952D01*
X12659762Y-18356476D01*
X12678809Y-18356476D01*
X12821667Y-18346952D02*
X12802619Y-18356476D01*
X12764524Y-18356476D01*
X12745476Y-18346952D01*
X12735952Y-18327905D01*
X12735952Y-18251714D01*
X12745476Y-18232667D01*
X12764524Y-18223143D01*
X12802619Y-18223143D01*
X12821667Y-18232667D01*
X12831190Y-18251714D01*
X12831190Y-18270762D01*
X12735952Y-18289810D01*
X13002619Y-18356476D02*
X13002619Y-18156476D01*
X13002619Y-18346952D02*
X12983571Y-18356476D01*
X12945476Y-18356476D01*
X12926428Y-18346952D01*
X12916905Y-18337429D01*
X12907381Y-18318381D01*
X12907381Y-18261238D01*
X12916905Y-18242190D01*
X12926428Y-18232667D01*
X12945476Y-18223143D01*
X12983571Y-18223143D01*
X13002619Y-18232667D01*
X13078809Y-18432667D02*
X13088333Y-18423143D01*
X13107381Y-18394571D01*
X13116905Y-18375524D01*
X13126428Y-18346952D01*
X13135952Y-18299333D01*
X13135952Y-18261238D01*
X13126428Y-18213619D01*
X13116905Y-18185048D01*
X13107381Y-18166000D01*
X13088333Y-18137429D01*
X13078809Y-18127905D01*
X5745000Y-18486000D02*
X5945000Y-18686000D01*
X5945000Y-18486000D02*
X5745000Y-18686000D01*
X5915711Y-18656711D02*
X5915711Y-18515289D01*
X5774289Y-18515289D01*
X5774289Y-18656711D01*
X5915711Y-18656711D01*
X6183571Y-18476476D02*
X6307381Y-18476476D01*
X6240714Y-18552667D01*
X6269286Y-18552667D01*
X6288333Y-18562190D01*
X6297857Y-18571714D01*
X6307381Y-18590762D01*
X6307381Y-18638381D01*
X6297857Y-18657429D01*
X6288333Y-18666952D01*
X6269286Y-18676476D01*
X6212143Y-18676476D01*
X6193095Y-18666952D01*
X6183571Y-18657429D01*
X6393095Y-18657429D02*
X6402619Y-18666952D01*
X6393095Y-18676476D01*
X6383571Y-18666952D01*
X6393095Y-18657429D01*
X6393095Y-18676476D01*
X6526428Y-18476476D02*
X6545476Y-18476476D01*
X6564524Y-18486000D01*
X6574048Y-18495524D01*
X6583571Y-18514571D01*
X6593095Y-18552667D01*
X6593095Y-18600286D01*
X6583571Y-18638381D01*
X6574048Y-18657429D01*
X6564524Y-18666952D01*
X6545476Y-18676476D01*
X6526428Y-18676476D01*
X6507381Y-18666952D01*
X6497857Y-18657429D01*
X6488333Y-18638381D01*
X6478809Y-18600286D01*
X6478809Y-18552667D01*
X6488333Y-18514571D01*
X6497857Y-18495524D01*
X6507381Y-18486000D01*
X6526428Y-18476476D01*
X6774048Y-18476476D02*
X6678809Y-18476476D01*
X6669286Y-18571714D01*
X6678809Y-18562190D01*
X6697857Y-18552667D01*
X6745476Y-18552667D01*
X6764524Y-18562190D01*
X6774048Y-18571714D01*
X6783571Y-18590762D01*
X6783571Y-18638381D01*
X6774048Y-18657429D01*
X6764524Y-18666952D01*
X6745476Y-18676476D01*
X6697857Y-18676476D01*
X6678809Y-18666952D01*
X6669286Y-18657429D01*
X6907381Y-18476476D02*
X6926428Y-18476476D01*
X6945476Y-18486000D01*
X6955000Y-18495524D01*
X6964524Y-18514571D01*
X6974048Y-18552667D01*
X6974048Y-18600286D01*
X6964524Y-18638381D01*
X6955000Y-18657429D01*
X6945476Y-18666952D01*
X6926428Y-18676476D01*
X6907381Y-18676476D01*
X6888333Y-18666952D01*
X6878809Y-18657429D01*
X6869286Y-18638381D01*
X6859762Y-18600286D01*
X6859762Y-18552667D01*
X6869286Y-18514571D01*
X6878809Y-18495524D01*
X6888333Y-18486000D01*
X6907381Y-18476476D01*
X7059762Y-18676476D02*
X7059762Y-18543143D01*
X7059762Y-18562190D02*
X7069286Y-18552667D01*
X7088333Y-18543143D01*
X7116905Y-18543143D01*
X7135952Y-18552667D01*
X7145476Y-18571714D01*
X7145476Y-18676476D01*
X7145476Y-18571714D02*
X7155000Y-18552667D01*
X7174048Y-18543143D01*
X7202619Y-18543143D01*
X7221667Y-18552667D01*
X7231190Y-18571714D01*
X7231190Y-18676476D01*
X7326428Y-18676476D02*
X7326428Y-18543143D01*
X7326428Y-18562190D02*
X7335952Y-18552667D01*
X7355000Y-18543143D01*
X7383571Y-18543143D01*
X7402619Y-18552667D01*
X7412143Y-18571714D01*
X7412143Y-18676476D01*
X7412143Y-18571714D02*
X7421667Y-18552667D01*
X7440714Y-18543143D01*
X7469286Y-18543143D01*
X7488333Y-18552667D01*
X7497857Y-18571714D01*
X7497857Y-18676476D01*
X7888333Y-18466952D02*
X7716905Y-18724095D01*
X8145476Y-18476476D02*
X8164524Y-18476476D01*
X8183571Y-18486000D01*
X8193095Y-18495524D01*
X8202619Y-18514571D01*
X8212143Y-18552667D01*
X8212143Y-18600286D01*
X8202619Y-18638381D01*
X8193095Y-18657429D01*
X8183571Y-18666952D01*
X8164524Y-18676476D01*
X8145476Y-18676476D01*
X8126428Y-18666952D01*
X8116905Y-18657429D01*
X8107381Y-18638381D01*
X8097857Y-18600286D01*
X8097857Y-18552667D01*
X8107381Y-18514571D01*
X8116905Y-18495524D01*
X8126428Y-18486000D01*
X8145476Y-18476476D01*
X8297857Y-18657429D02*
X8307381Y-18666952D01*
X8297857Y-18676476D01*
X8288333Y-18666952D01*
X8297857Y-18657429D01*
X8297857Y-18676476D01*
X8497857Y-18676476D02*
X8383571Y-18676476D01*
X8440714Y-18676476D02*
X8440714Y-18476476D01*
X8421667Y-18505048D01*
X8402619Y-18524095D01*
X8383571Y-18533619D01*
X8574048Y-18495524D02*
X8583571Y-18486000D01*
X8602619Y-18476476D01*
X8650238Y-18476476D01*
X8669286Y-18486000D01*
X8678810Y-18495524D01*
X8688333Y-18514571D01*
X8688333Y-18533619D01*
X8678810Y-18562190D01*
X8564524Y-18676476D01*
X8688333Y-18676476D01*
X8812143Y-18476476D02*
X8831190Y-18476476D01*
X8850238Y-18486000D01*
X8859762Y-18495524D01*
X8869286Y-18514571D01*
X8878810Y-18552667D01*
X8878810Y-18600286D01*
X8869286Y-18638381D01*
X8859762Y-18657429D01*
X8850238Y-18666952D01*
X8831190Y-18676476D01*
X8812143Y-18676476D01*
X8793095Y-18666952D01*
X8783571Y-18657429D01*
X8774048Y-18638381D01*
X8764524Y-18600286D01*
X8764524Y-18552667D01*
X8774048Y-18514571D01*
X8783571Y-18495524D01*
X8793095Y-18486000D01*
X8812143Y-18476476D01*
X9069286Y-18676476D02*
X8955000Y-18676476D01*
X9012143Y-18676476D02*
X9012143Y-18476476D01*
X8993095Y-18505048D01*
X8974048Y-18524095D01*
X8955000Y-18533619D01*
X9145476Y-18476476D02*
X9145476Y-18514571D01*
X9221667Y-18476476D02*
X9221667Y-18514571D01*
X9516905Y-18752667D02*
X9507381Y-18743143D01*
X9488333Y-18714571D01*
X9478810Y-18695524D01*
X9469286Y-18666952D01*
X9459762Y-18619333D01*
X9459762Y-18581238D01*
X9469286Y-18533619D01*
X9478810Y-18505048D01*
X9488333Y-18486000D01*
X9507381Y-18457429D01*
X9516905Y-18447905D01*
X9697857Y-18676476D02*
X9583571Y-18676476D01*
X9640714Y-18676476D02*
X9640714Y-18476476D01*
X9621667Y-18505048D01*
X9602619Y-18524095D01*
X9583571Y-18533619D01*
X9821667Y-18476476D02*
X9840714Y-18476476D01*
X9859762Y-18486000D01*
X9869286Y-18495524D01*
X9878810Y-18514571D01*
X9888333Y-18552667D01*
X9888333Y-18600286D01*
X9878810Y-18638381D01*
X9869286Y-18657429D01*
X9859762Y-18666952D01*
X9840714Y-18676476D01*
X9821667Y-18676476D01*
X9802619Y-18666952D01*
X9793095Y-18657429D01*
X9783571Y-18638381D01*
X9774048Y-18600286D01*
X9774048Y-18552667D01*
X9783571Y-18514571D01*
X9793095Y-18495524D01*
X9802619Y-18486000D01*
X9821667Y-18476476D01*
X10126429Y-18676476D02*
X10126429Y-18476476D01*
X10212143Y-18676476D02*
X10212143Y-18571714D01*
X10202619Y-18552667D01*
X10183571Y-18543143D01*
X10155000Y-18543143D01*
X10135952Y-18552667D01*
X10126429Y-18562190D01*
X10335952Y-18676476D02*
X10316905Y-18666952D01*
X10307381Y-18657429D01*
X10297857Y-18638381D01*
X10297857Y-18581238D01*
X10307381Y-18562190D01*
X10316905Y-18552667D01*
X10335952Y-18543143D01*
X10364524Y-18543143D01*
X10383571Y-18552667D01*
X10393095Y-18562190D01*
X10402619Y-18581238D01*
X10402619Y-18638381D01*
X10393095Y-18657429D01*
X10383571Y-18666952D01*
X10364524Y-18676476D01*
X10335952Y-18676476D01*
X10516905Y-18676476D02*
X10497857Y-18666952D01*
X10488333Y-18647905D01*
X10488333Y-18476476D01*
X10669286Y-18666952D02*
X10650238Y-18676476D01*
X10612143Y-18676476D01*
X10593095Y-18666952D01*
X10583571Y-18647905D01*
X10583571Y-18571714D01*
X10593095Y-18552667D01*
X10612143Y-18543143D01*
X10650238Y-18543143D01*
X10669286Y-18552667D01*
X10678810Y-18571714D01*
X10678810Y-18590762D01*
X10583571Y-18609810D01*
X10755000Y-18666952D02*
X10774048Y-18676476D01*
X10812143Y-18676476D01*
X10831190Y-18666952D01*
X10840714Y-18647905D01*
X10840714Y-18638381D01*
X10831190Y-18619333D01*
X10812143Y-18609810D01*
X10783571Y-18609810D01*
X10764524Y-18600286D01*
X10755000Y-18581238D01*
X10755000Y-18571714D01*
X10764524Y-18552667D01*
X10783571Y-18543143D01*
X10812143Y-18543143D01*
X10831190Y-18552667D01*
X10907381Y-18752667D02*
X10916905Y-18743143D01*
X10935952Y-18714571D01*
X10945476Y-18695524D01*
X10955000Y-18666952D01*
X10964524Y-18619333D01*
X10964524Y-18581238D01*
X10955000Y-18533619D01*
X10945476Y-18505048D01*
X10935952Y-18486000D01*
X10916905Y-18457429D01*
X10907381Y-18447905D01*
X11269286Y-18752667D02*
X11259762Y-18743143D01*
X11240714Y-18714571D01*
X11231190Y-18695524D01*
X11221667Y-18666952D01*
X11212143Y-18619333D01*
X11212143Y-18581238D01*
X11221667Y-18533619D01*
X11231190Y-18505048D01*
X11240714Y-18486000D01*
X11259762Y-18457429D01*
X11269286Y-18447905D01*
X11345476Y-18543143D02*
X11345476Y-18676476D01*
X11345476Y-18562190D02*
X11355000Y-18552667D01*
X11374048Y-18543143D01*
X11402619Y-18543143D01*
X11421667Y-18552667D01*
X11431190Y-18571714D01*
X11431190Y-18676476D01*
X11555000Y-18676476D02*
X11535952Y-18666952D01*
X11526428Y-18657429D01*
X11516905Y-18638381D01*
X11516905Y-18581238D01*
X11526428Y-18562190D01*
X11535952Y-18552667D01*
X11555000Y-18543143D01*
X11583571Y-18543143D01*
X11602619Y-18552667D01*
X11612143Y-18562190D01*
X11621667Y-18581238D01*
X11621667Y-18638381D01*
X11612143Y-18657429D01*
X11602619Y-18666952D01*
X11583571Y-18676476D01*
X11555000Y-18676476D01*
X11678809Y-18543143D02*
X11755000Y-18543143D01*
X11707381Y-18476476D02*
X11707381Y-18647905D01*
X11716905Y-18666952D01*
X11735952Y-18676476D01*
X11755000Y-18676476D01*
X11974048Y-18543143D02*
X11974048Y-18743143D01*
X11974048Y-18552667D02*
X11993095Y-18543143D01*
X12031190Y-18543143D01*
X12050238Y-18552667D01*
X12059762Y-18562190D01*
X12069286Y-18581238D01*
X12069286Y-18638381D01*
X12059762Y-18657429D01*
X12050238Y-18666952D01*
X12031190Y-18676476D01*
X11993095Y-18676476D01*
X11974048Y-18666952D01*
X12183571Y-18676476D02*
X12164524Y-18666952D01*
X12155000Y-18647905D01*
X12155000Y-18476476D01*
X12345476Y-18676476D02*
X12345476Y-18571714D01*
X12335952Y-18552667D01*
X12316905Y-18543143D01*
X12278809Y-18543143D01*
X12259762Y-18552667D01*
X12345476Y-18666952D02*
X12326428Y-18676476D01*
X12278809Y-18676476D01*
X12259762Y-18666952D01*
X12250238Y-18647905D01*
X12250238Y-18628857D01*
X12259762Y-18609810D01*
X12278809Y-18600286D01*
X12326428Y-18600286D01*
X12345476Y-18590762D01*
X12412143Y-18543143D02*
X12488333Y-18543143D01*
X12440714Y-18476476D02*
X12440714Y-18647905D01*
X12450238Y-18666952D01*
X12469286Y-18676476D01*
X12488333Y-18676476D01*
X12631190Y-18666952D02*
X12612143Y-18676476D01*
X12574048Y-18676476D01*
X12555000Y-18666952D01*
X12545476Y-18647905D01*
X12545476Y-18571714D01*
X12555000Y-18552667D01*
X12574048Y-18543143D01*
X12612143Y-18543143D01*
X12631190Y-18552667D01*
X12640714Y-18571714D01*
X12640714Y-18590762D01*
X12545476Y-18609810D01*
X12812143Y-18676476D02*
X12812143Y-18476476D01*
X12812143Y-18666952D02*
X12793095Y-18676476D01*
X12755000Y-18676476D01*
X12735952Y-18666952D01*
X12726428Y-18657429D01*
X12716905Y-18638381D01*
X12716905Y-18581238D01*
X12726428Y-18562190D01*
X12735952Y-18552667D01*
X12755000Y-18543143D01*
X12793095Y-18543143D01*
X12812143Y-18552667D01*
X12888333Y-18752667D02*
X12897857Y-18743143D01*
X12916905Y-18714571D01*
X12926428Y-18695524D01*
X12935952Y-18666952D01*
X12945476Y-18619333D01*
X12945476Y-18581238D01*
X12935952Y-18533619D01*
X12926428Y-18505048D01*
X12916905Y-18486000D01*
X12897857Y-18457429D01*
X12888333Y-18447905D01*
X5745000Y-18806000D02*
X5945000Y-19006000D01*
X5945000Y-18806000D02*
X5745000Y-19006000D01*
X5845000Y-19006000D02*
X5945000Y-18906000D01*
X5845000Y-18806000D01*
X5745000Y-18906000D01*
X5845000Y-19006000D01*
X6288333Y-18863143D02*
X6288333Y-18996476D01*
X6240714Y-18786952D02*
X6193095Y-18929810D01*
X6316905Y-18929810D01*
X6393095Y-18977429D02*
X6402619Y-18986952D01*
X6393095Y-18996476D01*
X6383571Y-18986952D01*
X6393095Y-18977429D01*
X6393095Y-18996476D01*
X6526428Y-18796476D02*
X6545476Y-18796476D01*
X6564524Y-18806000D01*
X6574048Y-18815524D01*
X6583571Y-18834571D01*
X6593095Y-18872667D01*
X6593095Y-18920286D01*
X6583571Y-18958381D01*
X6574048Y-18977429D01*
X6564524Y-18986952D01*
X6545476Y-18996476D01*
X6526428Y-18996476D01*
X6507381Y-18986952D01*
X6497857Y-18977429D01*
X6488333Y-18958381D01*
X6478809Y-18920286D01*
X6478809Y-18872667D01*
X6488333Y-18834571D01*
X6497857Y-18815524D01*
X6507381Y-18806000D01*
X6526428Y-18796476D01*
X6716905Y-18796476D02*
X6735952Y-18796476D01*
X6755000Y-18806000D01*
X6764524Y-18815524D01*
X6774048Y-18834571D01*
X6783571Y-18872667D01*
X6783571Y-18920286D01*
X6774048Y-18958381D01*
X6764524Y-18977429D01*
X6755000Y-18986952D01*
X6735952Y-18996476D01*
X6716905Y-18996476D01*
X6697857Y-18986952D01*
X6688333Y-18977429D01*
X6678809Y-18958381D01*
X6669286Y-18920286D01*
X6669286Y-18872667D01*
X6678809Y-18834571D01*
X6688333Y-18815524D01*
X6697857Y-18806000D01*
X6716905Y-18796476D01*
X6907381Y-18796476D02*
X6926428Y-18796476D01*
X6945476Y-18806000D01*
X6955000Y-18815524D01*
X6964524Y-18834571D01*
X6974048Y-18872667D01*
X6974048Y-18920286D01*
X6964524Y-18958381D01*
X6955000Y-18977429D01*
X6945476Y-18986952D01*
X6926428Y-18996476D01*
X6907381Y-18996476D01*
X6888333Y-18986952D01*
X6878809Y-18977429D01*
X6869286Y-18958381D01*
X6859762Y-18920286D01*
X6859762Y-18872667D01*
X6869286Y-18834571D01*
X6878809Y-18815524D01*
X6888333Y-18806000D01*
X6907381Y-18796476D01*
X7059762Y-18996476D02*
X7059762Y-18863143D01*
X7059762Y-18882190D02*
X7069286Y-18872667D01*
X7088333Y-18863143D01*
X7116905Y-18863143D01*
X7135952Y-18872667D01*
X7145476Y-18891714D01*
X7145476Y-18996476D01*
X7145476Y-18891714D02*
X7155000Y-18872667D01*
X7174048Y-18863143D01*
X7202619Y-18863143D01*
X7221667Y-18872667D01*
X7231190Y-18891714D01*
X7231190Y-18996476D01*
X7326428Y-18996476D02*
X7326428Y-18863143D01*
X7326428Y-18882190D02*
X7335952Y-18872667D01*
X7355000Y-18863143D01*
X7383571Y-18863143D01*
X7402619Y-18872667D01*
X7412143Y-18891714D01*
X7412143Y-18996476D01*
X7412143Y-18891714D02*
X7421667Y-18872667D01*
X7440714Y-18863143D01*
X7469286Y-18863143D01*
X7488333Y-18872667D01*
X7497857Y-18891714D01*
X7497857Y-18996476D01*
X7888333Y-18786952D02*
X7716905Y-19044095D01*
X8145476Y-18796476D02*
X8164524Y-18796476D01*
X8183571Y-18806000D01*
X8193095Y-18815524D01*
X8202619Y-18834571D01*
X8212143Y-18872667D01*
X8212143Y-18920286D01*
X8202619Y-18958381D01*
X8193095Y-18977429D01*
X8183571Y-18986952D01*
X8164524Y-18996476D01*
X8145476Y-18996476D01*
X8126428Y-18986952D01*
X8116905Y-18977429D01*
X8107381Y-18958381D01*
X8097857Y-18920286D01*
X8097857Y-18872667D01*
X8107381Y-18834571D01*
X8116905Y-18815524D01*
X8126428Y-18806000D01*
X8145476Y-18796476D01*
X8297857Y-18977429D02*
X8307381Y-18986952D01*
X8297857Y-18996476D01*
X8288333Y-18986952D01*
X8297857Y-18977429D01*
X8297857Y-18996476D01*
X8497857Y-18996476D02*
X8383571Y-18996476D01*
X8440714Y-18996476D02*
X8440714Y-18796476D01*
X8421667Y-18825048D01*
X8402619Y-18844095D01*
X8383571Y-18853619D01*
X8678810Y-18796476D02*
X8583571Y-18796476D01*
X8574048Y-18891714D01*
X8583571Y-18882190D01*
X8602619Y-18872667D01*
X8650238Y-18872667D01*
X8669286Y-18882190D01*
X8678810Y-18891714D01*
X8688333Y-18910762D01*
X8688333Y-18958381D01*
X8678810Y-18977429D01*
X8669286Y-18986952D01*
X8650238Y-18996476D01*
X8602619Y-18996476D01*
X8583571Y-18986952D01*
X8574048Y-18977429D01*
X8755000Y-18796476D02*
X8888333Y-18796476D01*
X8802619Y-18996476D01*
X9059762Y-18796476D02*
X8964524Y-18796476D01*
X8955000Y-18891714D01*
X8964524Y-18882190D01*
X8983571Y-18872667D01*
X9031190Y-18872667D01*
X9050238Y-18882190D01*
X9059762Y-18891714D01*
X9069286Y-18910762D01*
X9069286Y-18958381D01*
X9059762Y-18977429D01*
X9050238Y-18986952D01*
X9031190Y-18996476D01*
X8983571Y-18996476D01*
X8964524Y-18986952D01*
X8955000Y-18977429D01*
X9145476Y-18796476D02*
X9145476Y-18834571D01*
X9221667Y-18796476D02*
X9221667Y-18834571D01*
X9516905Y-19072667D02*
X9507381Y-19063143D01*
X9488333Y-19034571D01*
X9478810Y-19015524D01*
X9469286Y-18986952D01*
X9459762Y-18939333D01*
X9459762Y-18901238D01*
X9469286Y-18853619D01*
X9478810Y-18825048D01*
X9488333Y-18806000D01*
X9507381Y-18777429D01*
X9516905Y-18767905D01*
X9602619Y-18996476D02*
X9640714Y-18996476D01*
X9659762Y-18986952D01*
X9669286Y-18977429D01*
X9688333Y-18948857D01*
X9697857Y-18910762D01*
X9697857Y-18834571D01*
X9688333Y-18815524D01*
X9678810Y-18806000D01*
X9659762Y-18796476D01*
X9621667Y-18796476D01*
X9602619Y-18806000D01*
X9593095Y-18815524D01*
X9583571Y-18834571D01*
X9583571Y-18882190D01*
X9593095Y-18901238D01*
X9602619Y-18910762D01*
X9621667Y-18920286D01*
X9659762Y-18920286D01*
X9678810Y-18910762D01*
X9688333Y-18901238D01*
X9697857Y-18882190D01*
X9764524Y-18796476D02*
X9897857Y-18796476D01*
X9812143Y-18996476D01*
X10126429Y-18996476D02*
X10126429Y-18796476D01*
X10212143Y-18996476D02*
X10212143Y-18891714D01*
X10202619Y-18872667D01*
X10183571Y-18863143D01*
X10155000Y-18863143D01*
X10135952Y-18872667D01*
X10126429Y-18882190D01*
X10335952Y-18996476D02*
X10316905Y-18986952D01*
X10307381Y-18977429D01*
X10297857Y-18958381D01*
X10297857Y-18901238D01*
X10307381Y-18882190D01*
X10316905Y-18872667D01*
X10335952Y-18863143D01*
X10364524Y-18863143D01*
X10383571Y-18872667D01*
X10393095Y-18882190D01*
X10402619Y-18901238D01*
X10402619Y-18958381D01*
X10393095Y-18977429D01*
X10383571Y-18986952D01*
X10364524Y-18996476D01*
X10335952Y-18996476D01*
X10516905Y-18996476D02*
X10497857Y-18986952D01*
X10488333Y-18967905D01*
X10488333Y-18796476D01*
X10669286Y-18986952D02*
X10650238Y-18996476D01*
X10612143Y-18996476D01*
X10593095Y-18986952D01*
X10583571Y-18967905D01*
X10583571Y-18891714D01*
X10593095Y-18872667D01*
X10612143Y-18863143D01*
X10650238Y-18863143D01*
X10669286Y-18872667D01*
X10678810Y-18891714D01*
X10678810Y-18910762D01*
X10583571Y-18929810D01*
X10755000Y-18986952D02*
X10774048Y-18996476D01*
X10812143Y-18996476D01*
X10831190Y-18986952D01*
X10840714Y-18967905D01*
X10840714Y-18958381D01*
X10831190Y-18939333D01*
X10812143Y-18929810D01*
X10783571Y-18929810D01*
X10764524Y-18920286D01*
X10755000Y-18901238D01*
X10755000Y-18891714D01*
X10764524Y-18872667D01*
X10783571Y-18863143D01*
X10812143Y-18863143D01*
X10831190Y-18872667D01*
X10907381Y-19072667D02*
X10916905Y-19063143D01*
X10935952Y-19034571D01*
X10945476Y-19015524D01*
X10955000Y-18986952D01*
X10964524Y-18939333D01*
X10964524Y-18901238D01*
X10955000Y-18853619D01*
X10945476Y-18825048D01*
X10935952Y-18806000D01*
X10916905Y-18777429D01*
X10907381Y-18767905D01*
X11269286Y-19072667D02*
X11259762Y-19063143D01*
X11240714Y-19034571D01*
X11231190Y-19015524D01*
X11221667Y-18986952D01*
X11212143Y-18939333D01*
X11212143Y-18901238D01*
X11221667Y-18853619D01*
X11231190Y-18825048D01*
X11240714Y-18806000D01*
X11259762Y-18777429D01*
X11269286Y-18767905D01*
X11345476Y-18863143D02*
X11345476Y-18996476D01*
X11345476Y-18882190D02*
X11355000Y-18872667D01*
X11374048Y-18863143D01*
X11402619Y-18863143D01*
X11421667Y-18872667D01*
X11431190Y-18891714D01*
X11431190Y-18996476D01*
X11555000Y-18996476D02*
X11535952Y-18986952D01*
X11526428Y-18977429D01*
X11516905Y-18958381D01*
X11516905Y-18901238D01*
X11526428Y-18882190D01*
X11535952Y-18872667D01*
X11555000Y-18863143D01*
X11583571Y-18863143D01*
X11602619Y-18872667D01*
X11612143Y-18882190D01*
X11621667Y-18901238D01*
X11621667Y-18958381D01*
X11612143Y-18977429D01*
X11602619Y-18986952D01*
X11583571Y-18996476D01*
X11555000Y-18996476D01*
X11678809Y-18863143D02*
X11755000Y-18863143D01*
X11707381Y-18796476D02*
X11707381Y-18967905D01*
X11716905Y-18986952D01*
X11735952Y-18996476D01*
X11755000Y-18996476D01*
X11974048Y-18863143D02*
X11974048Y-19063143D01*
X11974048Y-18872667D02*
X11993095Y-18863143D01*
X12031190Y-18863143D01*
X12050238Y-18872667D01*
X12059762Y-18882190D01*
X12069286Y-18901238D01*
X12069286Y-18958381D01*
X12059762Y-18977429D01*
X12050238Y-18986952D01*
X12031190Y-18996476D01*
X11993095Y-18996476D01*
X11974048Y-18986952D01*
X12183571Y-18996476D02*
X12164524Y-18986952D01*
X12155000Y-18967905D01*
X12155000Y-18796476D01*
X12345476Y-18996476D02*
X12345476Y-18891714D01*
X12335952Y-18872667D01*
X12316905Y-18863143D01*
X12278809Y-18863143D01*
X12259762Y-18872667D01*
X12345476Y-18986952D02*
X12326428Y-18996476D01*
X12278809Y-18996476D01*
X12259762Y-18986952D01*
X12250238Y-18967905D01*
X12250238Y-18948857D01*
X12259762Y-18929810D01*
X12278809Y-18920286D01*
X12326428Y-18920286D01*
X12345476Y-18910762D01*
X12412143Y-18863143D02*
X12488333Y-18863143D01*
X12440714Y-18796476D02*
X12440714Y-18967905D01*
X12450238Y-18986952D01*
X12469286Y-18996476D01*
X12488333Y-18996476D01*
X12631190Y-18986952D02*
X12612143Y-18996476D01*
X12574048Y-18996476D01*
X12555000Y-18986952D01*
X12545476Y-18967905D01*
X12545476Y-18891714D01*
X12555000Y-18872667D01*
X12574048Y-18863143D01*
X12612143Y-18863143D01*
X12631190Y-18872667D01*
X12640714Y-18891714D01*
X12640714Y-18910762D01*
X12545476Y-18929810D01*
X12812143Y-18996476D02*
X12812143Y-18796476D01*
X12812143Y-18986952D02*
X12793095Y-18996476D01*
X12755000Y-18996476D01*
X12735952Y-18986952D01*
X12726428Y-18977429D01*
X12716905Y-18958381D01*
X12716905Y-18901238D01*
X12726428Y-18882190D01*
X12735952Y-18872667D01*
X12755000Y-18863143D01*
X12793095Y-18863143D01*
X12812143Y-18872667D01*
X12888333Y-19072667D02*
X12897857Y-19063143D01*
X12916905Y-19034571D01*
X12926428Y-19015524D01*
X12935952Y-18986952D01*
X12945476Y-18939333D01*
X12945476Y-18901238D01*
X12935952Y-18853619D01*
X12926428Y-18825048D01*
X12916905Y-18806000D01*
X12897857Y-18777429D01*
X12888333Y-18767905D01*
M02*
