%TF.GenerationSoftware,KiCad,Pcbnew,(6.0.7)*%
%TF.CreationDate,2022-09-11T22:01:50-05:00*%
%TF.ProjectId,PyKey87,50794b65-7938-4372-9e6b-696361645f70,rev?*%
%TF.SameCoordinates,Original*%
%TF.FileFunction,Drillmap*%
%TF.FilePolarity,Positive*%
%FSLAX45Y45*%
G04 Gerber Fmt 4.5, Leading zero omitted, Abs format (unit mm)*
G04 Created by KiCad (PCBNEW (6.0.7)) date 2022-09-11 22:01:50*
%MOMM*%
%LPD*%
G01*
G04 APERTURE LIST*
%ADD10C,0.100000*%
%ADD11C,0.099060*%
%ADD12C,0.200000*%
%ADD13C,0.030480*%
%ADD14C,0.035000*%
%ADD15C,0.060000*%
%ADD16C,0.220000*%
G04 APERTURE END LIST*
D10*
X41200000Y-4200000D02*
G75*
G03*
X41000000Y-4000000I-200000J0D01*
G01*
X41000000Y-16000000D02*
G75*
G03*
X41200000Y-15800000I0J200000D01*
G01*
X5950000Y-15800000D02*
G75*
G03*
X6150000Y-16000000I200000J0D01*
G01*
X6150000Y-4000000D02*
G75*
G03*
X5950000Y-4200000I0J-200000D01*
G01*
D11*
X6150000Y-4000000D02*
X41000000Y-4000000D01*
X6150000Y-16000000D02*
X41000000Y-16000000D01*
X41200000Y-15800000D02*
X41200000Y-4200000D01*
X5950000Y-4200000D02*
X5950000Y-15800000D01*
D12*
D13*
X6271260Y-5652260D02*
X6301740Y-5682740D01*
X6301740Y-5652260D02*
X6271260Y-5682740D01*
X6271260Y-5779260D02*
X6301740Y-5809740D01*
X6301740Y-5779260D02*
X6271260Y-5809740D01*
X6525260Y-4382260D02*
X6555740Y-4412740D01*
X6555740Y-4382260D02*
X6525260Y-4412740D01*
X6525260Y-4572760D02*
X6555740Y-4603240D01*
X6555740Y-4572760D02*
X6525260Y-4603240D01*
X6525260Y-5779260D02*
X6555740Y-5809740D01*
X6555740Y-5779260D02*
X6525260Y-5809740D01*
X6525260Y-10351260D02*
X6555740Y-10381740D01*
X6555740Y-10351260D02*
X6525260Y-10381740D01*
X6598919Y-6807960D02*
X6629399Y-6838440D01*
X6629399Y-6807960D02*
X6598919Y-6838440D01*
X6779260Y-7176260D02*
X6809740Y-7206740D01*
X6809740Y-7176260D02*
X6779260Y-7206740D01*
X6779260Y-7176260D02*
X6809740Y-7206740D01*
X6809740Y-7176260D02*
X6779260Y-7206740D01*
X6842760Y-14516860D02*
X6873240Y-14547340D01*
X6873240Y-14516860D02*
X6842760Y-14547340D01*
X6895212Y-14388972D02*
X6925692Y-14419452D01*
X6925692Y-14388972D02*
X6895212Y-14419452D01*
X7096760Y-8674860D02*
X7127240Y-8705340D01*
X7127240Y-8674860D02*
X7096760Y-8705340D01*
X7147560Y-8458960D02*
X7178040Y-8489440D01*
X7178040Y-8458960D02*
X7147560Y-8489440D01*
X7312660Y-10135360D02*
X7343140Y-10165840D01*
X7343140Y-10135360D02*
X7312660Y-10165840D01*
X7350760Y-8001760D02*
X7381240Y-8032240D01*
X7381240Y-8001760D02*
X7350760Y-8032240D01*
X7414260Y-14161042D02*
X7444740Y-14191522D01*
X7444740Y-14161042D02*
X7414260Y-14191522D01*
X7414261Y-5652261D02*
X7444741Y-5682741D01*
X7444741Y-5652261D02*
X7414261Y-5682741D01*
X7503160Y-13932660D02*
X7533640Y-13963140D01*
X7533640Y-13932660D02*
X7503160Y-13963140D01*
X7528560Y-8204960D02*
X7559040Y-8235440D01*
X7559040Y-8204960D02*
X7528560Y-8235440D01*
X7668260Y-4468760D02*
X7698740Y-4499240D01*
X7698740Y-4468760D02*
X7668260Y-4499240D01*
X7668260Y-6795260D02*
X7698740Y-6825740D01*
X7698740Y-6795260D02*
X7668260Y-6825740D01*
X7713980Y-13782800D02*
X7744460Y-13813280D01*
X7744460Y-13782800D02*
X7713980Y-13813280D01*
X7719060Y-12141960D02*
X7749540Y-12172440D01*
X7749540Y-12141960D02*
X7719060Y-12172440D01*
X7833360Y-12446760D02*
X7863840Y-12477240D01*
X7863840Y-12446760D02*
X7833360Y-12477240D01*
X7846060Y-14389860D02*
X7876540Y-14420340D01*
X7876540Y-14389860D02*
X7846060Y-14420340D01*
X7922260Y-4636260D02*
X7952740Y-4666740D01*
X7952740Y-4636260D02*
X7922260Y-4666740D01*
X7922260Y-12129260D02*
X7952740Y-12159740D01*
X7952740Y-12129260D02*
X7922260Y-12159740D01*
X7947660Y-8128760D02*
X7978140Y-8159240D01*
X7978140Y-8128760D02*
X7947660Y-8159240D01*
X7998460Y-10097260D02*
X8028940Y-10127740D01*
X8028940Y-10097260D02*
X7998460Y-10127740D01*
X8008620Y-8568180D02*
X8039100Y-8598660D01*
X8039100Y-8568180D02*
X8008620Y-8598660D01*
X8049261Y-5271260D02*
X8079741Y-5301740D01*
X8079741Y-5271260D02*
X8049261Y-5301740D01*
X8240749Y-11948919D02*
X8271229Y-11979399D01*
X8271229Y-11948919D02*
X8240749Y-11979399D01*
X8290699Y-5004699D02*
X8321179Y-5035179D01*
X8321179Y-5004699D02*
X8290699Y-5035179D01*
X8303260Y-6160260D02*
X8333740Y-6190740D01*
X8333740Y-6160260D02*
X8303260Y-6190740D01*
X8313420Y-10549380D02*
X8343900Y-10579860D01*
X8343900Y-10549380D02*
X8313420Y-10579860D01*
X8366760Y-13526260D02*
X8397240Y-13556740D01*
X8397240Y-13526260D02*
X8366760Y-13556740D01*
X8430260Y-7049260D02*
X8460740Y-7079740D01*
X8460740Y-7049260D02*
X8430260Y-7079740D01*
X8458860Y-4964060D02*
X8489340Y-4994540D01*
X8489340Y-4964060D02*
X8458860Y-4994540D01*
X8557260Y-6922260D02*
X8587740Y-6952740D01*
X8587740Y-6922260D02*
X8557260Y-6952740D01*
X8636660Y-4128260D02*
X8667140Y-4158740D01*
X8667140Y-4128260D02*
X8636660Y-4158740D01*
X8636660Y-4379860D02*
X8667140Y-4410340D01*
X8667140Y-4379860D02*
X8636660Y-4410340D01*
X8636660Y-4595760D02*
X8667140Y-4626240D01*
X8667140Y-4595760D02*
X8636660Y-4626240D01*
X8811260Y-6642860D02*
X8841740Y-6673340D01*
X8841740Y-6642860D02*
X8811260Y-6673340D01*
X8811260Y-8319260D02*
X8841740Y-8349740D01*
X8841740Y-8319260D02*
X8811260Y-8349740D01*
X8836660Y-12497560D02*
X8867140Y-12528040D01*
X8867140Y-12497560D02*
X8836660Y-12528040D01*
X8839860Y-4964060D02*
X8870340Y-4994540D01*
X8870340Y-4964060D02*
X8839860Y-4994540D01*
X9053760Y-11073960D02*
X9084240Y-11104440D01*
X9084240Y-11073960D02*
X9053760Y-11104440D01*
X9065260Y-4976760D02*
X9095740Y-5007240D01*
X9095740Y-4976760D02*
X9065260Y-5007240D01*
X9141460Y-12815060D02*
X9171940Y-12845540D01*
X9171940Y-12815060D02*
X9141460Y-12845540D01*
X9230360Y-13996160D02*
X9260840Y-14026640D01*
X9260840Y-13996160D02*
X9230360Y-14026640D01*
X9230360Y-14389860D02*
X9260840Y-14420340D01*
X9260840Y-14389860D02*
X9230360Y-14420340D01*
X9230360Y-14580360D02*
X9260840Y-14610840D01*
X9260840Y-14580360D02*
X9230360Y-14610840D01*
X9331960Y-8598660D02*
X9362440Y-8629140D01*
X9362440Y-8598660D02*
X9331960Y-8629140D01*
X9433560Y-8204960D02*
X9464040Y-8235440D01*
X9464040Y-8204960D02*
X9433560Y-8235440D01*
X9458960Y-8865360D02*
X9489440Y-8895840D01*
X9489440Y-8865360D02*
X9458960Y-8895840D01*
X9471660Y-8662160D02*
X9502140Y-8692640D01*
X9502140Y-8662160D02*
X9471660Y-8692640D01*
X9509760Y-8128760D02*
X9540240Y-8159240D01*
X9540240Y-8128760D02*
X9509760Y-8159240D01*
X9662160Y-13424660D02*
X9692640Y-13455140D01*
X9692640Y-13424660D02*
X9662160Y-13455140D01*
X9700260Y-5525250D02*
X9730740Y-5555730D01*
X9730740Y-5525250D02*
X9700260Y-5555730D01*
X9700260Y-5906260D02*
X9730740Y-5936740D01*
X9730740Y-5906260D02*
X9700260Y-5936740D01*
X9827260Y-4763260D02*
X9857740Y-4793740D01*
X9857740Y-4763260D02*
X9827260Y-4793740D01*
X9827260Y-6160260D02*
X9857740Y-6190740D01*
X9857740Y-6160260D02*
X9827260Y-6190740D01*
X9827260Y-6922260D02*
X9857740Y-6952740D01*
X9857740Y-6922260D02*
X9827260Y-6952740D01*
X9954260Y-6668260D02*
X9984740Y-6698740D01*
X9984740Y-6668260D02*
X9954260Y-6698740D01*
X9954260Y-7049250D02*
X9984740Y-7079730D01*
X9984740Y-7049250D02*
X9954260Y-7079730D01*
X9954260Y-10554460D02*
X9984740Y-10584940D01*
X9984740Y-10554460D02*
X9954260Y-10584940D01*
X9966960Y-10757660D02*
X9997440Y-10788140D01*
X9997440Y-10757660D02*
X9966960Y-10788140D01*
X10017760Y-8128760D02*
X10048240Y-8159240D01*
X10048240Y-8128760D02*
X10017760Y-8159240D01*
X10081260Y-6668260D02*
X10111740Y-6698740D01*
X10111740Y-6668260D02*
X10081260Y-6698740D01*
X10106660Y-12561060D02*
X10137140Y-12591540D01*
X10137140Y-12561060D02*
X10106660Y-12591540D01*
X10208260Y-6922260D02*
X10238740Y-6952740D01*
X10238740Y-6922260D02*
X10208260Y-6952740D01*
X10208260Y-13526260D02*
X10238740Y-13556740D01*
X10238740Y-13526260D02*
X10208260Y-13556740D01*
X10213340Y-14356840D02*
X10243820Y-14387320D01*
X10243820Y-14356840D02*
X10213340Y-14387320D01*
X10335260Y-4382260D02*
X10365740Y-4412740D01*
X10365740Y-4382260D02*
X10335260Y-4412740D01*
X10335260Y-4636260D02*
X10365740Y-4666740D01*
X10365740Y-4636260D02*
X10335260Y-4666740D01*
X10398760Y-6719060D02*
X10429240Y-6749540D01*
X10429240Y-6719060D02*
X10398760Y-6749540D01*
X10411460Y-10097260D02*
X10441940Y-10127740D01*
X10441940Y-10097260D02*
X10411460Y-10127740D01*
X10449560Y-8707880D02*
X10480040Y-8738360D01*
X10480040Y-8707880D02*
X10449560Y-8738360D01*
X10474960Y-14110460D02*
X10505440Y-14140940D01*
X10505440Y-14110460D02*
X10474960Y-14140940D01*
X10589260Y-8573260D02*
X10619740Y-8603740D01*
X10619740Y-8573260D02*
X10589260Y-8603740D01*
X10638231Y-13749276D02*
X10668711Y-13779756D01*
X10668711Y-13749276D02*
X10638231Y-13779756D01*
X10868660Y-12004801D02*
X10899140Y-12035281D01*
X10899140Y-12004801D02*
X10868660Y-12035281D01*
X10881360Y-12484860D02*
X10911840Y-12515340D01*
X10911840Y-12484860D02*
X10881360Y-12515340D01*
X10894060Y-12675360D02*
X10924540Y-12705840D01*
X10924540Y-12675360D02*
X10894060Y-12705840D01*
X10919460Y-10523980D02*
X10949940Y-10554460D01*
X10949940Y-10523980D02*
X10919460Y-10554460D01*
X11071860Y-8128760D02*
X11102340Y-8159240D01*
X11102340Y-8128760D02*
X11071860Y-8159240D01*
X11097260Y-9716260D02*
X11127740Y-9746740D01*
X11127740Y-9716260D02*
X11097260Y-9746740D01*
X11238370Y-5652260D02*
X11268850Y-5682740D01*
X11268850Y-5652260D02*
X11238370Y-5682740D01*
X11313160Y-8674860D02*
X11343640Y-8705340D01*
X11343640Y-8674860D02*
X11313160Y-8705340D01*
X11351260Y-8217660D02*
X11381740Y-8248140D01*
X11381740Y-8217660D02*
X11351260Y-8248140D01*
X11376660Y-8852660D02*
X11407140Y-8883140D01*
X11407140Y-8852660D02*
X11376660Y-8883140D01*
X11402060Y-14209519D02*
X11432540Y-14239999D01*
X11432540Y-14209519D02*
X11402060Y-14239999D01*
X11554460Y-14593060D02*
X11584940Y-14623540D01*
X11584940Y-14593060D02*
X11554460Y-14623540D01*
X11630660Y-14453360D02*
X11661140Y-14483840D01*
X11661140Y-14453360D02*
X11630660Y-14483840D01*
X11783060Y-10744960D02*
X11813540Y-10775440D01*
X11813540Y-10744960D02*
X11783060Y-10775440D01*
X11795760Y-12827760D02*
X11826240Y-12858240D01*
X11826240Y-12827760D02*
X11795760Y-12858240D01*
X11821160Y-10554460D02*
X11851640Y-10584940D01*
X11851640Y-10554460D02*
X11821160Y-10584940D01*
X11986260Y-6668260D02*
X12016740Y-6698740D01*
X12016740Y-6668260D02*
X11986260Y-6698740D01*
X11986260Y-6922260D02*
X12016740Y-6952740D01*
X12016740Y-6922260D02*
X11986260Y-6952740D01*
X11998960Y-12497560D02*
X12029440Y-12528040D01*
X12029440Y-12497560D02*
X11998960Y-12528040D01*
X12151360Y-8128760D02*
X12181840Y-8159240D01*
X12181840Y-8128760D02*
X12151360Y-8159240D01*
X12227560Y-12815060D02*
X12258040Y-12845540D01*
X12258040Y-12815060D02*
X12227560Y-12845540D01*
X12240260Y-4382260D02*
X12270740Y-4412740D01*
X12270740Y-4382260D02*
X12240260Y-4412740D01*
X12240260Y-6706360D02*
X12270740Y-6736840D01*
X12270740Y-6706360D02*
X12240260Y-6736840D01*
X12240260Y-13932663D02*
X12270740Y-13963143D01*
X12270740Y-13932663D02*
X12240260Y-13963143D01*
X12280900Y-8568180D02*
X12311380Y-8598660D01*
X12311380Y-8568180D02*
X12280900Y-8598660D01*
X12303760Y-10097260D02*
X12334240Y-10127740D01*
X12334240Y-10097260D02*
X12303760Y-10127740D01*
X12352911Y-13969879D02*
X12383391Y-14000359D01*
X12383391Y-13969879D02*
X12352911Y-14000359D01*
X12494260Y-13526260D02*
X12524740Y-13556740D01*
X12524740Y-13526260D02*
X12494260Y-13556740D01*
X12672060Y-14415260D02*
X12702540Y-14445740D01*
X12702540Y-14415260D02*
X12672060Y-14445740D01*
X12773660Y-12004801D02*
X12804140Y-12035281D01*
X12804140Y-12004801D02*
X12773660Y-12035281D01*
X12799060Y-12484860D02*
X12829540Y-12515340D01*
X12829540Y-12484860D02*
X12799060Y-12515340D01*
X12799060Y-12662660D02*
X12829540Y-12693140D01*
X12829540Y-12662660D02*
X12799060Y-12693140D01*
X12799060Y-13765020D02*
X12829540Y-13795500D01*
X12829540Y-13765020D02*
X12799060Y-13795500D01*
X12839700Y-10534140D02*
X12870180Y-10564620D01*
X12870180Y-10534140D02*
X12839700Y-10564620D01*
X12887960Y-8128760D02*
X12918440Y-8159240D01*
X12918440Y-8128760D02*
X12887960Y-8159240D01*
X13129260Y-5652260D02*
X13159740Y-5682740D01*
X13159740Y-5652260D02*
X13129260Y-5682740D01*
X13256260Y-8865360D02*
X13286740Y-8895840D01*
X13286740Y-8865360D02*
X13256260Y-8895840D01*
X13268960Y-8204960D02*
X13299440Y-8235440D01*
X13299440Y-8204960D02*
X13268960Y-8235440D01*
X13268960Y-8687560D02*
X13299440Y-8718040D01*
X13299440Y-8687560D02*
X13268960Y-8718040D01*
X13662660Y-12827760D02*
X13693140Y-12858240D01*
X13693140Y-12827760D02*
X13662660Y-12858240D01*
X13700760Y-10757660D02*
X13731240Y-10788140D01*
X13731240Y-10757660D02*
X13700760Y-10788140D01*
X13738860Y-10592560D02*
X13769340Y-10623040D01*
X13769340Y-10592560D02*
X13738860Y-10623040D01*
X13764260Y-4763260D02*
X13794740Y-4793740D01*
X13794740Y-4763260D02*
X13764260Y-4793740D01*
X13764260Y-6414260D02*
X13794740Y-6444740D01*
X13794740Y-6414260D02*
X13764260Y-6444740D01*
X13891260Y-6795260D02*
X13921740Y-6825740D01*
X13921740Y-6795260D02*
X13891260Y-6825740D01*
X13891260Y-7049260D02*
X13921740Y-7079740D01*
X13921740Y-7049260D02*
X13891260Y-7079740D01*
X13903960Y-12484860D02*
X13934440Y-12515340D01*
X13934440Y-12484860D02*
X13903960Y-12515340D01*
X13954760Y-8128760D02*
X13985240Y-8159240D01*
X13985240Y-8128760D02*
X13954760Y-8159240D01*
X14145260Y-4382260D02*
X14175740Y-4412740D01*
X14175740Y-4382260D02*
X14145260Y-4412740D01*
X14145260Y-12815060D02*
X14175740Y-12845540D01*
X14175740Y-12815060D02*
X14145260Y-12845540D01*
X14183360Y-10097260D02*
X14213840Y-10127740D01*
X14213840Y-10097260D02*
X14183360Y-10127740D01*
X14221460Y-6757160D02*
X14251940Y-6787640D01*
X14251940Y-6757160D02*
X14221460Y-6787640D01*
X14272260Y-8669780D02*
X14302740Y-8700260D01*
X14302740Y-8669780D02*
X14272260Y-8700260D01*
X14424660Y-13945360D02*
X14455140Y-13975840D01*
X14455140Y-13945360D02*
X14424660Y-13975840D01*
X14577060Y-13780260D02*
X14607540Y-13810740D01*
X14607540Y-13780260D02*
X14577060Y-13810740D01*
X14678660Y-12004801D02*
X14709140Y-12035281D01*
X14709140Y-12004801D02*
X14678660Y-12035281D01*
X14691360Y-12484860D02*
X14721840Y-12515340D01*
X14721840Y-12484860D02*
X14691360Y-12515340D01*
X14691360Y-12649960D02*
X14721840Y-12680440D01*
X14721840Y-12649960D02*
X14691360Y-12680440D01*
X14732000Y-10549380D02*
X14762480Y-10579860D01*
X14762480Y-10549380D02*
X14732000Y-10579860D01*
X14792960Y-8128760D02*
X14823440Y-8159240D01*
X14823440Y-8128760D02*
X14792960Y-8159240D01*
X14881860Y-13958060D02*
X14912340Y-13988540D01*
X14912340Y-13958060D02*
X14881860Y-13988540D01*
X15034260Y-5652260D02*
X15064740Y-5682740D01*
X15064740Y-5652260D02*
X15034260Y-5682740D01*
X15161260Y-8204960D02*
X15191740Y-8235440D01*
X15191740Y-8204960D02*
X15161260Y-8235440D01*
X15173960Y-8674860D02*
X15204440Y-8705340D01*
X15204440Y-8674860D02*
X15173960Y-8705340D01*
X15173960Y-8839960D02*
X15204440Y-8870440D01*
X15204440Y-8839960D02*
X15173960Y-8870440D01*
X15618460Y-10592560D02*
X15648940Y-10623040D01*
X15648940Y-10592560D02*
X15618460Y-10623040D01*
X15618460Y-12827760D02*
X15648940Y-12858240D01*
X15648940Y-12827760D02*
X15618460Y-12858240D01*
X15643860Y-10757660D02*
X15674340Y-10788140D01*
X15674340Y-10757660D02*
X15643860Y-10788140D01*
X15669260Y-7049260D02*
X15699740Y-7079740D01*
X15699740Y-7049260D02*
X15669260Y-7079740D01*
X15796260Y-6795260D02*
X15826740Y-6825740D01*
X15826740Y-6795260D02*
X15796260Y-6825740D01*
X15796260Y-7049260D02*
X15826740Y-7079740D01*
X15826740Y-7049260D02*
X15796260Y-7079740D01*
X15796260Y-7811260D02*
X15826740Y-7841740D01*
X15826740Y-7811260D02*
X15796260Y-7841740D01*
X15796260Y-8128760D02*
X15826740Y-8159240D01*
X15826740Y-8128760D02*
X15796260Y-8159240D01*
X15796260Y-12472160D02*
X15826740Y-12502640D01*
X15826740Y-12472160D02*
X15796260Y-12502640D01*
X15796260Y-15685260D02*
X15826740Y-15715740D01*
X15826740Y-15685260D02*
X15796260Y-15715740D01*
X15872460Y-14694660D02*
X15902940Y-14725140D01*
X15902940Y-14694660D02*
X15872460Y-14725140D01*
X15872460Y-14796260D02*
X15902940Y-14826740D01*
X15902940Y-14796260D02*
X15872460Y-14826740D01*
X15885160Y-15154401D02*
X15915640Y-15184881D01*
X15915640Y-15154401D02*
X15885160Y-15184881D01*
X15885160Y-15291560D02*
X15915640Y-15322040D01*
X15915640Y-15291560D02*
X15885160Y-15322040D01*
X15961360Y-14351760D02*
X15991840Y-14382240D01*
X15991840Y-14351760D02*
X15961360Y-14382240D01*
X16050260Y-4382260D02*
X16080740Y-4412740D01*
X16080740Y-4382260D02*
X16050260Y-4412740D01*
X16050260Y-12815060D02*
X16080740Y-12845540D01*
X16080740Y-12815060D02*
X16050260Y-12845540D01*
X16113760Y-10097260D02*
X16144240Y-10127740D01*
X16144240Y-10097260D02*
X16113760Y-10127740D01*
X16126460Y-6757160D02*
X16156940Y-6787640D01*
X16156940Y-6757160D02*
X16126460Y-6787640D01*
X16192500Y-8687560D02*
X16222980Y-8718040D01*
X16222980Y-8687560D02*
X16192500Y-8718040D01*
X16425293Y-15044293D02*
X16455773Y-15074773D01*
X16455773Y-15044293D02*
X16425293Y-15074773D01*
X16520160Y-15748760D02*
X16550640Y-15779240D01*
X16550640Y-15748760D02*
X16520160Y-15779240D01*
X16558260Y-15304260D02*
X16588740Y-15334740D01*
X16588740Y-15304260D02*
X16558260Y-15334740D01*
X16570960Y-12649960D02*
X16601440Y-12680440D01*
X16601440Y-12649960D02*
X16570960Y-12680440D01*
X16583660Y-12004801D02*
X16614140Y-12035281D01*
X16614140Y-12004801D02*
X16583660Y-12035281D01*
X16609060Y-12472160D02*
X16639540Y-12502640D01*
X16639540Y-12472160D02*
X16609060Y-12502640D01*
X16649700Y-10574780D02*
X16680180Y-10605260D01*
X16680180Y-10574780D02*
X16649700Y-10605260D01*
X16659860Y-8128760D02*
X16690340Y-8159240D01*
X16690340Y-8128760D02*
X16659860Y-8159240D01*
X16697960Y-15748760D02*
X16728440Y-15779240D01*
X16728440Y-15748760D02*
X16697960Y-15779240D01*
X16708119Y-14232382D02*
X16738599Y-14262862D01*
X16738599Y-14232382D02*
X16708119Y-14262862D01*
X16710660Y-13869160D02*
X16741140Y-13899640D01*
X16741140Y-13869160D02*
X16710660Y-13899640D01*
X16736060Y-14770860D02*
X16766540Y-14801340D01*
X16766540Y-14770860D02*
X16736060Y-14801340D01*
X16771619Y-14298603D02*
X16802099Y-14329083D01*
X16802099Y-14298603D02*
X16771619Y-14329083D01*
X16799560Y-8128760D02*
X16830040Y-8159240D01*
X16830040Y-8128760D02*
X16799560Y-8159240D01*
X16812258Y-15304260D02*
X16842738Y-15334740D01*
X16842738Y-15304260D02*
X16812258Y-15334740D01*
X16812260Y-9335260D02*
X16842740Y-9365740D01*
X16842740Y-9335260D02*
X16812260Y-9365740D01*
X16812260Y-15380461D02*
X16842740Y-15410941D01*
X16842740Y-15380461D02*
X16812260Y-15410941D01*
X16816973Y-14130383D02*
X16847453Y-14160863D01*
X16847453Y-14130383D02*
X16816973Y-14160863D01*
X16837660Y-14034260D02*
X16868140Y-14064740D01*
X16868140Y-14034260D02*
X16837660Y-14064740D01*
X16908782Y-15273780D02*
X16939262Y-15304260D01*
X16939262Y-15273780D02*
X16908782Y-15304260D01*
X16939260Y-5652260D02*
X16969740Y-5682740D01*
X16969740Y-5652260D02*
X16939260Y-5682740D01*
X16959260Y-15391260D02*
X16989740Y-15421740D01*
X16989740Y-15391260D02*
X16959260Y-15421740D01*
X16978963Y-14210248D02*
X17009443Y-14240728D01*
X17009443Y-14210248D02*
X16978963Y-14240728D01*
X17050594Y-13853910D02*
X17081074Y-13884390D01*
X17081074Y-13853910D02*
X17050594Y-13884390D01*
X17066260Y-8204960D02*
X17096740Y-8235440D01*
X17096740Y-8204960D02*
X17066260Y-8235440D01*
X17066260Y-8674860D02*
X17096740Y-8705340D01*
X17096740Y-8674860D02*
X17066260Y-8705340D01*
X17066260Y-8839960D02*
X17096740Y-8870440D01*
X17096740Y-8839960D02*
X17066260Y-8870440D01*
X17066260Y-15354260D02*
X17096740Y-15384740D01*
X17096740Y-15354260D02*
X17066260Y-15384740D01*
X17066260Y-15748760D02*
X17096740Y-15779240D01*
X17096740Y-15748760D02*
X17066260Y-15779240D01*
X17118000Y-14237460D02*
X17148480Y-14267940D01*
X17148480Y-14237460D02*
X17118000Y-14267940D01*
X17125806Y-13866152D02*
X17156286Y-13896632D01*
X17156286Y-13866152D02*
X17125806Y-13896632D01*
X17180836Y-14842871D02*
X17211316Y-14873351D01*
X17211316Y-14842871D02*
X17180836Y-14873351D01*
X17193260Y-15685260D02*
X17223740Y-15715740D01*
X17223740Y-15685260D02*
X17193260Y-15715740D01*
X17203422Y-15304260D02*
X17233902Y-15334740D01*
X17233902Y-15304260D02*
X17203422Y-15334740D01*
X17225097Y-14205797D02*
X17255577Y-14236277D01*
X17255577Y-14205797D02*
X17225097Y-14236277D01*
X17294860Y-14300960D02*
X17325340Y-14331440D01*
X17325340Y-14300960D02*
X17294860Y-14331440D01*
X17307560Y-14212060D02*
X17338040Y-14242540D01*
X17338040Y-14212060D02*
X17307560Y-14242540D01*
X17320260Y-11367260D02*
X17350740Y-11397740D01*
X17350740Y-11367260D02*
X17320260Y-11397740D01*
X17320260Y-15304260D02*
X17350740Y-15334740D01*
X17350740Y-15304260D02*
X17320260Y-15334740D01*
X17382872Y-15823307D02*
X17413352Y-15853787D01*
X17413352Y-15823307D02*
X17382872Y-15853787D01*
X17409160Y-14326360D02*
X17439640Y-14356840D01*
X17439640Y-14326360D02*
X17409160Y-14356840D01*
X17437100Y-15232632D02*
X17467580Y-15263112D01*
X17467580Y-15232632D02*
X17437100Y-15263112D01*
X17445559Y-14801134D02*
X17476039Y-14831614D01*
X17476039Y-14801134D02*
X17445559Y-14831614D01*
X17445559Y-14986613D02*
X17476039Y-15017093D01*
X17476039Y-14986613D02*
X17445559Y-15017093D01*
X17447260Y-12129260D02*
X17477740Y-12159740D01*
X17477740Y-12129260D02*
X17447260Y-12159740D01*
X17447261Y-6033260D02*
X17477741Y-6063740D01*
X17477741Y-6033260D02*
X17447261Y-6063740D01*
X17474615Y-15113760D02*
X17505095Y-15144240D01*
X17505095Y-15113760D02*
X17474615Y-15144240D01*
X17498060Y-14300960D02*
X17528540Y-14331440D01*
X17528540Y-14300960D02*
X17498060Y-14331440D01*
X17510760Y-12827760D02*
X17541240Y-12858240D01*
X17541240Y-12827760D02*
X17510760Y-12858240D01*
X17523460Y-10567160D02*
X17553940Y-10597640D01*
X17553940Y-10567160D02*
X17523460Y-10597640D01*
X17529381Y-15177260D02*
X17559861Y-15207740D01*
X17559861Y-15177260D02*
X17529381Y-15207740D01*
X17548860Y-10757660D02*
X17579340Y-10788140D01*
X17579340Y-10757660D02*
X17548860Y-10788140D01*
X17574260Y-4509260D02*
X17604740Y-4539740D01*
X17604740Y-4509260D02*
X17574260Y-4539740D01*
X17574260Y-4890260D02*
X17604740Y-4920740D01*
X17604740Y-4890260D02*
X17574260Y-4920740D01*
X17599660Y-14300960D02*
X17630140Y-14331440D01*
X17630140Y-14300960D02*
X17599660Y-14331440D01*
X17650460Y-12484860D02*
X17680940Y-12515340D01*
X17680940Y-12484860D02*
X17650460Y-12515340D01*
X17675860Y-14313660D02*
X17706340Y-14344140D01*
X17706340Y-14313660D02*
X17675860Y-14344140D01*
X17703801Y-6795260D02*
X17734281Y-6825740D01*
X17734281Y-6795260D02*
X17703801Y-6825740D01*
X17703801Y-7049260D02*
X17734281Y-7079740D01*
X17734281Y-7049260D02*
X17703801Y-7079740D01*
X17723167Y-14437167D02*
X17753647Y-14467647D01*
X17753647Y-14437167D02*
X17723167Y-14467647D01*
X17790160Y-15240760D02*
X17820640Y-15271240D01*
X17820640Y-15240760D02*
X17790160Y-15271240D01*
X17876939Y-14362339D02*
X17907419Y-14392819D01*
X17907419Y-14362339D02*
X17876939Y-14392819D01*
X17929477Y-14503777D02*
X17959957Y-14534257D01*
X17959957Y-14503777D02*
X17929477Y-14534257D01*
X17942560Y-12815060D02*
X17973040Y-12845540D01*
X17973040Y-12815060D02*
X17942560Y-12845540D01*
X17955260Y-13653260D02*
X17985740Y-13683740D01*
X17985740Y-13653260D02*
X17955260Y-13683740D01*
X18006060Y-10097260D02*
X18036540Y-10127740D01*
X18036540Y-10097260D02*
X18006060Y-10127740D01*
X18044160Y-6769860D02*
X18074640Y-6800340D01*
X18074640Y-6769860D02*
X18044160Y-6800340D01*
X18076213Y-15334738D02*
X18106693Y-15365218D01*
X18106693Y-15334738D02*
X18076213Y-15365218D01*
X18082260Y-4763260D02*
X18112740Y-4793740D01*
X18112740Y-4763260D02*
X18082260Y-4793740D01*
X18082260Y-5906260D02*
X18112740Y-5936740D01*
X18112740Y-5906260D02*
X18082260Y-5936740D01*
X18183860Y-8700260D02*
X18214340Y-8730740D01*
X18214340Y-8700260D02*
X18183860Y-8730740D01*
X18194019Y-12891260D02*
X18224499Y-12921740D01*
X18224499Y-12891260D02*
X18194019Y-12921740D01*
X18282919Y-15088360D02*
X18313399Y-15118840D01*
X18313399Y-15088360D02*
X18282919Y-15118840D01*
X18348960Y-14377160D02*
X18379440Y-14407640D01*
X18379440Y-14377160D02*
X18348960Y-14407640D01*
X18361660Y-14694660D02*
X18392140Y-14725140D01*
X18392140Y-14694660D02*
X18361660Y-14725140D01*
X18488660Y-12459460D02*
X18519140Y-12489940D01*
X18519140Y-12459460D02*
X18488660Y-12489940D01*
X18501360Y-12004801D02*
X18531840Y-12035281D01*
X18531840Y-12004801D02*
X18501360Y-12035281D01*
X18501360Y-12675360D02*
X18531840Y-12705840D01*
X18531840Y-12675360D02*
X18501360Y-12705840D01*
X18590260Y-10732260D02*
X18620740Y-10762740D01*
X18620740Y-10732260D02*
X18590260Y-10762740D01*
X18597978Y-15752978D02*
X18628458Y-15783458D01*
X18628458Y-15752978D02*
X18597978Y-15783458D01*
X18641060Y-8128760D02*
X18671540Y-8159240D01*
X18671540Y-8128760D02*
X18641060Y-8159240D01*
X18653760Y-10592560D02*
X18684240Y-10623040D01*
X18684240Y-10592560D02*
X18653760Y-10623040D01*
X18742660Y-14389860D02*
X18773140Y-14420340D01*
X18773140Y-14389860D02*
X18742660Y-14420340D01*
X18958560Y-8687560D02*
X18989040Y-8718040D01*
X18989040Y-8687560D02*
X18958560Y-8718040D01*
X18971260Y-4382260D02*
X19001740Y-4412740D01*
X19001740Y-4382260D02*
X18971260Y-4412740D01*
X18971260Y-8852660D02*
X19001740Y-8883140D01*
X19001740Y-8852660D02*
X18971260Y-8883140D01*
X18983960Y-8204960D02*
X19014440Y-8235440D01*
X19014440Y-8204960D02*
X18983960Y-8235440D01*
X19456401Y-10582730D02*
X19486881Y-10613210D01*
X19486881Y-10582730D02*
X19456401Y-10613210D01*
X19456401Y-10757660D02*
X19486881Y-10788140D01*
X19486881Y-10757660D02*
X19456401Y-10788140D01*
X19479260Y-11367260D02*
X19509740Y-11397740D01*
X19509740Y-11367260D02*
X19479260Y-11397740D01*
X19491960Y-12827760D02*
X19522440Y-12858240D01*
X19522440Y-12827760D02*
X19491960Y-12858240D01*
X19606260Y-6795260D02*
X19636740Y-6825740D01*
X19636740Y-6795260D02*
X19606260Y-6825740D01*
X19606260Y-7049260D02*
X19636740Y-7079740D01*
X19636740Y-7049260D02*
X19606260Y-7079740D01*
X19657060Y-12510260D02*
X19687540Y-12540740D01*
X19687540Y-12510260D02*
X19657060Y-12540740D01*
X19784060Y-14402560D02*
X19814540Y-14433040D01*
X19814540Y-14402560D02*
X19784060Y-14433040D01*
X19822160Y-14250160D02*
X19852640Y-14280640D01*
X19852640Y-14250160D02*
X19822160Y-14280640D01*
X19847560Y-12812519D02*
X19878040Y-12842999D01*
X19878040Y-12812519D02*
X19847560Y-12842999D01*
X19860260Y-5652260D02*
X19890740Y-5682740D01*
X19890740Y-5652260D02*
X19860260Y-5682740D01*
X19911060Y-6757160D02*
X19941540Y-6787640D01*
X19941540Y-6757160D02*
X19911060Y-6787640D01*
X19919105Y-14120619D02*
X19949585Y-14151099D01*
X19949585Y-14120619D02*
X19919105Y-14151099D01*
X19923760Y-10097260D02*
X19954240Y-10127740D01*
X19954240Y-10097260D02*
X19923760Y-10127740D01*
X19987260Y-8128760D02*
X20017740Y-8159240D01*
X20017740Y-8128760D02*
X19987260Y-8159240D01*
X19999960Y-8672320D02*
X20030440Y-8702800D01*
X20030440Y-8672320D02*
X19999960Y-8702800D01*
X20007393Y-14116492D02*
X20037873Y-14146972D01*
X20037873Y-14116492D02*
X20007393Y-14146972D01*
X20211163Y-13874232D02*
X20241643Y-13904712D01*
X20241643Y-13874232D02*
X20211163Y-13904712D01*
X20342860Y-15164560D02*
X20373340Y-15195040D01*
X20373340Y-15164560D02*
X20342860Y-15195040D01*
X20393660Y-12004801D02*
X20424140Y-12035281D01*
X20424140Y-12004801D02*
X20393660Y-12035281D01*
X20406360Y-12484860D02*
X20436840Y-12515340D01*
X20436840Y-12484860D02*
X20406360Y-12515340D01*
X20431760Y-12675360D02*
X20462240Y-12705840D01*
X20462240Y-12675360D02*
X20431760Y-12705840D01*
X20495260Y-10732260D02*
X20525740Y-10762740D01*
X20525740Y-10732260D02*
X20495260Y-10762740D01*
X20533360Y-8128760D02*
X20563840Y-8159240D01*
X20563840Y-8128760D02*
X20533360Y-8159240D01*
X20546060Y-10567160D02*
X20576540Y-10597640D01*
X20576540Y-10567160D02*
X20546060Y-10597640D01*
X20876260Y-4382260D02*
X20906740Y-4412740D01*
X20906740Y-4382260D02*
X20876260Y-4412740D01*
X20888960Y-8204960D02*
X20919440Y-8235440D01*
X20919440Y-8204960D02*
X20888960Y-8235440D01*
X20898560Y-8671760D02*
X20929040Y-8702240D01*
X20929040Y-8671760D02*
X20898560Y-8702240D01*
X20901660Y-8839960D02*
X20932140Y-8870440D01*
X20932140Y-8839960D02*
X20901660Y-8870440D01*
X21003260Y-15431260D02*
X21033740Y-15461740D01*
X21033740Y-15431260D02*
X21003260Y-15461740D01*
X21308060Y-10579860D02*
X21338540Y-10610340D01*
X21338540Y-10579860D02*
X21308060Y-10610340D01*
X21308060Y-10744960D02*
X21338540Y-10775440D01*
X21338540Y-10744960D02*
X21308060Y-10775440D01*
X21308060Y-12827760D02*
X21338540Y-12858240D01*
X21338540Y-12827760D02*
X21308060Y-12858240D01*
X21498560Y-12472160D02*
X21529040Y-12502640D01*
X21529040Y-12472160D02*
X21498560Y-12502640D01*
X21511260Y-6795260D02*
X21541740Y-6825740D01*
X21541740Y-6795260D02*
X21511260Y-6825740D01*
X21511260Y-7049260D02*
X21541740Y-7079740D01*
X21541740Y-7049260D02*
X21511260Y-7079740D01*
X21751149Y-5652260D02*
X21781629Y-5682740D01*
X21781629Y-5652260D02*
X21751149Y-5682740D01*
X21765260Y-12497560D02*
X21795740Y-12528040D01*
X21795740Y-12497560D02*
X21765260Y-12528040D01*
X21765260Y-12815060D02*
X21795740Y-12845540D01*
X21795740Y-12815060D02*
X21765260Y-12845540D01*
X21816060Y-10097260D02*
X21846540Y-10127740D01*
X21846540Y-10097260D02*
X21816060Y-10127740D01*
X21841460Y-8128760D02*
X21871940Y-8159240D01*
X21871940Y-8128760D02*
X21841460Y-8159240D01*
X21854160Y-6769860D02*
X21884640Y-6800340D01*
X21884640Y-6769860D02*
X21854160Y-6800340D01*
X21907500Y-8695180D02*
X21937980Y-8725660D01*
X21937980Y-8695180D02*
X21907500Y-8725660D01*
X21917660Y-14161260D02*
X21948140Y-14191740D01*
X21948140Y-14161260D02*
X21917660Y-14191740D01*
X22120860Y-12497560D02*
X22151340Y-12528040D01*
X22151340Y-12497560D02*
X22120860Y-12528040D01*
X22146260Y-13818360D02*
X22176740Y-13848840D01*
X22176740Y-13818360D02*
X22146260Y-13848840D01*
X22311360Y-12004801D02*
X22341840Y-12035281D01*
X22341840Y-12004801D02*
X22311360Y-12035281D01*
X22324060Y-12662660D02*
X22354540Y-12693140D01*
X22354540Y-12662660D02*
X22324060Y-12693140D01*
X22385020Y-10567160D02*
X22415500Y-10597640D01*
X22415500Y-10567160D02*
X22385020Y-10597640D01*
X22438360Y-8128760D02*
X22468840Y-8159240D01*
X22468840Y-8128760D02*
X22438360Y-8159240D01*
X22527260Y-4763260D02*
X22557740Y-4793740D01*
X22557740Y-4763260D02*
X22527260Y-4793740D01*
X22527260Y-5906260D02*
X22557740Y-5936740D01*
X22557740Y-5906260D02*
X22527260Y-5936740D01*
X22781260Y-4382260D02*
X22811740Y-4412740D01*
X22811740Y-4382260D02*
X22781260Y-4412740D01*
X22781260Y-8204960D02*
X22811740Y-8235440D01*
X22811740Y-8204960D02*
X22781260Y-8235440D01*
X22781260Y-8674860D02*
X22811740Y-8705340D01*
X22811740Y-8674860D02*
X22781260Y-8705340D01*
X22793960Y-8852660D02*
X22824440Y-8883140D01*
X22824440Y-8852660D02*
X22793960Y-8883140D01*
X23213060Y-10567160D02*
X23243540Y-10597640D01*
X23243540Y-10567160D02*
X23213060Y-10597640D01*
X23238460Y-10732260D02*
X23268940Y-10762740D01*
X23268940Y-10732260D02*
X23238460Y-10762740D01*
X23263860Y-12827760D02*
X23294340Y-12858240D01*
X23294340Y-12827760D02*
X23263860Y-12858240D01*
X23390860Y-12484860D02*
X23421340Y-12515340D01*
X23421340Y-12484860D02*
X23390860Y-12515340D01*
X23670260Y-5652260D02*
X23700740Y-5682740D01*
X23700740Y-5652260D02*
X23670260Y-5682740D01*
X23682960Y-8128760D02*
X23713440Y-8159240D01*
X23713440Y-8128760D02*
X23682960Y-8159240D01*
X23682960Y-12815060D02*
X23713440Y-12845540D01*
X23713440Y-12815060D02*
X23682960Y-12845540D01*
X23721060Y-10097260D02*
X23751540Y-10127740D01*
X23751540Y-10097260D02*
X23721060Y-10127740D01*
X23733760Y-6782560D02*
X23764240Y-6813040D01*
X23764240Y-6782560D02*
X23733760Y-6813040D01*
X23817580Y-8669780D02*
X23848060Y-8700260D01*
X23848060Y-8669780D02*
X23817580Y-8700260D01*
X23924260Y-14669260D02*
X23954740Y-14699740D01*
X23954740Y-14669260D02*
X23924260Y-14699740D01*
X23924260Y-14796260D02*
X23954740Y-14826740D01*
X23954740Y-14796260D02*
X23924260Y-14826740D01*
X23924260Y-14923260D02*
X23954740Y-14953740D01*
X23954740Y-14923260D02*
X23924260Y-14953740D01*
X23957134Y-13727558D02*
X23987614Y-13758038D01*
X23987614Y-13727558D02*
X23957134Y-13758038D01*
X24203660Y-12675360D02*
X24234140Y-12705840D01*
X24234140Y-12675360D02*
X24203660Y-12705840D01*
X24216360Y-12004801D02*
X24246840Y-12035281D01*
X24246840Y-12004801D02*
X24216360Y-12035281D01*
X24229060Y-12497560D02*
X24259540Y-12528040D01*
X24259540Y-12497560D02*
X24229060Y-12528040D01*
X24305260Y-8128760D02*
X24335740Y-8159240D01*
X24335740Y-8128760D02*
X24305260Y-8159240D01*
X24343360Y-10579860D02*
X24373840Y-10610340D01*
X24373840Y-10579860D02*
X24343360Y-10610340D01*
X24559260Y-15177260D02*
X24589740Y-15207740D01*
X24589740Y-15177260D02*
X24559260Y-15207740D01*
X24559260Y-15304260D02*
X24589740Y-15334740D01*
X24589740Y-15304260D02*
X24559260Y-15334740D01*
X24673560Y-8204960D02*
X24704040Y-8235440D01*
X24704040Y-8204960D02*
X24673560Y-8235440D01*
X24673560Y-8674860D02*
X24704040Y-8705340D01*
X24704040Y-8674860D02*
X24673560Y-8705340D01*
X24686260Y-4382260D02*
X24716740Y-4412740D01*
X24716740Y-4382260D02*
X24686260Y-4412740D01*
X24686260Y-8865360D02*
X24716740Y-8895840D01*
X24716740Y-8865360D02*
X24686260Y-8895840D01*
X24813260Y-14161260D02*
X24843740Y-14191740D01*
X24843740Y-14161260D02*
X24813260Y-14191740D01*
X24940260Y-14288262D02*
X24970740Y-14318742D01*
X24970740Y-14288262D02*
X24940260Y-14318742D01*
X25067260Y-7049260D02*
X25097740Y-7079740D01*
X25097740Y-7049260D02*
X25067260Y-7079740D01*
X25067260Y-14306044D02*
X25097740Y-14336524D01*
X25097740Y-14306044D02*
X25067260Y-14336524D01*
X25067260Y-15050260D02*
X25097740Y-15080740D01*
X25097740Y-15050260D02*
X25067260Y-15080740D01*
X25130758Y-8128760D02*
X25161238Y-8159240D01*
X25161238Y-8128760D02*
X25130758Y-8159240D01*
X25168860Y-10605260D02*
X25199340Y-10635740D01*
X25199340Y-10605260D02*
X25168860Y-10635740D01*
X25168860Y-10757660D02*
X25199340Y-10788140D01*
X25199340Y-10757660D02*
X25168860Y-10788140D01*
X25194260Y-7049260D02*
X25224740Y-7079740D01*
X25224740Y-7049260D02*
X25194260Y-7079740D01*
X25194260Y-12827760D02*
X25224740Y-12858240D01*
X25224740Y-12827760D02*
X25194260Y-12858240D01*
X25308560Y-12484860D02*
X25339040Y-12515340D01*
X25339040Y-12484860D02*
X25308560Y-12515340D01*
X25321260Y-6795260D02*
X25351740Y-6825740D01*
X25351740Y-6795260D02*
X25321260Y-6825740D01*
X25321260Y-7049260D02*
X25351740Y-7079740D01*
X25351740Y-7049260D02*
X25321260Y-7079740D01*
X25448260Y-14011400D02*
X25478740Y-14041880D01*
X25478740Y-14011400D02*
X25448260Y-14041880D01*
X25569158Y-14011400D02*
X25599638Y-14041880D01*
X25599638Y-14011400D02*
X25569158Y-14041880D01*
X25575260Y-5652260D02*
X25605740Y-5682740D01*
X25605740Y-5652260D02*
X25575260Y-5682740D01*
X25587960Y-12815060D02*
X25618440Y-12845540D01*
X25618440Y-12815060D02*
X25587960Y-12845540D01*
X25613360Y-10097260D02*
X25643840Y-10127740D01*
X25643840Y-10097260D02*
X25613360Y-10127740D01*
X25664160Y-6757160D02*
X25694640Y-6787640D01*
X25694640Y-6757160D02*
X25664160Y-6787640D01*
X25702260Y-13653260D02*
X25732740Y-13683740D01*
X25732740Y-13653260D02*
X25702260Y-13683740D01*
X25720040Y-8682480D02*
X25750520Y-8712960D01*
X25750520Y-8682480D02*
X25720040Y-8712960D01*
X25829260Y-4763260D02*
X25859740Y-4793740D01*
X25859740Y-4763260D02*
X25829260Y-4793740D01*
X25841960Y-14580360D02*
X25872440Y-14610840D01*
X25872440Y-14580360D02*
X25841960Y-14610840D01*
X25880060Y-14377160D02*
X25910540Y-14407640D01*
X25910540Y-14377160D02*
X25880060Y-14407640D01*
X25905460Y-13749776D02*
X25935940Y-13780256D01*
X25935940Y-13749776D02*
X25905460Y-13780256D01*
X26083260Y-8573260D02*
X26113740Y-8603740D01*
X26113740Y-8573260D02*
X26083260Y-8603740D01*
X26095960Y-12675360D02*
X26126440Y-12705840D01*
X26126440Y-12675360D02*
X26095960Y-12705840D01*
X26108660Y-12004801D02*
X26139140Y-12035281D01*
X26139140Y-12004801D02*
X26108660Y-12035281D01*
X26137160Y-12481760D02*
X26167640Y-12512240D01*
X26167640Y-12481760D02*
X26137160Y-12512240D01*
X26210260Y-5918270D02*
X26240740Y-5948750D01*
X26240740Y-5918270D02*
X26210260Y-5948750D01*
X26222960Y-8128760D02*
X26253440Y-8159240D01*
X26253440Y-8128760D02*
X26222960Y-8159240D01*
X26248360Y-10605260D02*
X26278840Y-10635740D01*
X26278840Y-10605260D02*
X26248360Y-10635740D01*
X26337260Y-5522720D02*
X26367740Y-5553200D01*
X26367740Y-5522720D02*
X26337260Y-5553200D01*
X26433779Y-5936741D02*
X26464259Y-5967221D01*
X26464259Y-5936741D02*
X26433779Y-5967221D01*
X26553160Y-8839960D02*
X26583640Y-8870440D01*
X26583640Y-8839960D02*
X26553160Y-8870440D01*
X26591260Y-4890260D02*
X26621740Y-4920740D01*
X26621740Y-4890260D02*
X26591260Y-4920740D01*
X26603960Y-8204960D02*
X26634440Y-8235440D01*
X26634440Y-8204960D02*
X26603960Y-8235440D01*
X26616660Y-8687560D02*
X26647140Y-8718040D01*
X26647140Y-8687560D02*
X26616660Y-8718040D01*
X26845260Y-5652260D02*
X26875740Y-5682740D01*
X26875740Y-5652260D02*
X26845260Y-5682740D01*
X26845260Y-6033260D02*
X26875740Y-6063740D01*
X26875740Y-6033260D02*
X26845260Y-6063740D01*
X26857960Y-14694660D02*
X26888440Y-14725140D01*
X26888440Y-14694660D02*
X26857960Y-14725140D01*
X26934160Y-14402560D02*
X26964640Y-14433040D01*
X26964640Y-14402560D02*
X26934160Y-14433040D01*
X27048460Y-10757660D02*
X27078940Y-10788140D01*
X27078940Y-10757660D02*
X27048460Y-10788140D01*
X27048460Y-12827760D02*
X27078940Y-12858240D01*
X27078940Y-12827760D02*
X27048460Y-12858240D01*
X27061160Y-10567160D02*
X27091640Y-10597640D01*
X27091640Y-10567160D02*
X27061160Y-10597640D01*
X27175460Y-12484860D02*
X27205940Y-12515340D01*
X27205940Y-12484860D02*
X27175460Y-12515340D01*
X27228801Y-6795260D02*
X27259281Y-6825740D01*
X27259281Y-6795260D02*
X27228801Y-6825740D01*
X27228801Y-7049260D02*
X27259281Y-7079740D01*
X27259281Y-7049260D02*
X27228801Y-7079740D01*
X27442160Y-8128760D02*
X27472640Y-8159240D01*
X27472640Y-8128760D02*
X27442160Y-8159240D01*
X27480260Y-4382260D02*
X27510740Y-4412740D01*
X27510740Y-4382260D02*
X27480260Y-4412740D01*
X27480260Y-12815060D02*
X27510740Y-12845540D01*
X27510740Y-12815060D02*
X27480260Y-12845540D01*
X27503120Y-13983463D02*
X27533600Y-14013943D01*
X27533600Y-13983463D02*
X27503120Y-14013943D01*
X27531060Y-10097260D02*
X27561540Y-10127740D01*
X27561540Y-10097260D02*
X27531060Y-10127740D01*
X27553360Y-6766760D02*
X27583840Y-6797240D01*
X27583840Y-6766760D02*
X27553360Y-6797240D01*
X27632660Y-8700260D02*
X27663140Y-8730740D01*
X27663140Y-8700260D02*
X27632660Y-8730740D01*
X27734260Y-14034260D02*
X27764740Y-14064740D01*
X27764740Y-14034260D02*
X27734260Y-14064740D01*
X27759660Y-13780257D02*
X27790140Y-13810737D01*
X27790140Y-13780257D02*
X27759660Y-13810737D01*
X28013660Y-12472160D02*
X28044140Y-12502640D01*
X28044140Y-12472160D02*
X28013660Y-12502640D01*
X28026360Y-12004801D02*
X28056840Y-12035281D01*
X28056840Y-12004801D02*
X28026360Y-12035281D01*
X28051760Y-12662660D02*
X28082240Y-12693140D01*
X28082240Y-12662660D02*
X28051760Y-12693140D01*
X28074620Y-10587480D02*
X28105100Y-10617960D01*
X28105100Y-10587480D02*
X28074620Y-10617960D01*
X28102560Y-8128760D02*
X28133040Y-8159240D01*
X28133040Y-8128760D02*
X28102560Y-8159240D01*
X28280360Y-14402560D02*
X28310840Y-14433040D01*
X28310840Y-14402560D02*
X28280360Y-14433040D01*
X28280360Y-14593060D02*
X28310840Y-14623540D01*
X28310840Y-14593060D02*
X28280360Y-14623540D01*
X28369260Y-5779260D02*
X28399740Y-5809740D01*
X28399740Y-5779260D02*
X28369260Y-5809740D01*
X28496260Y-8852660D02*
X28526740Y-8883140D01*
X28526740Y-8852660D02*
X28496260Y-8883140D01*
X28500070Y-8204960D02*
X28530550Y-8235440D01*
X28530550Y-8204960D02*
X28500070Y-8235440D01*
X28508960Y-8662160D02*
X28539440Y-8692640D01*
X28539440Y-8662160D02*
X28508960Y-8692640D01*
X28953460Y-10757660D02*
X28983940Y-10788140D01*
X28983940Y-10757660D02*
X28953460Y-10788140D01*
X28966160Y-10554460D02*
X28996640Y-10584940D01*
X28996640Y-10554460D02*
X28966160Y-10584940D01*
X29016960Y-12827760D02*
X29047440Y-12858240D01*
X29047440Y-12827760D02*
X29016960Y-12858240D01*
X29131260Y-6795260D02*
X29161740Y-6825740D01*
X29161740Y-6795260D02*
X29131260Y-6825740D01*
X29131260Y-7049260D02*
X29161740Y-7079740D01*
X29161740Y-7049260D02*
X29131260Y-7079740D01*
X29194760Y-12510260D02*
X29225240Y-12540740D01*
X29225240Y-12510260D02*
X29194760Y-12540740D01*
X29258260Y-14732760D02*
X29288740Y-14763240D01*
X29288740Y-14732760D02*
X29258260Y-14763240D01*
X29283660Y-14389860D02*
X29314140Y-14420340D01*
X29314140Y-14389860D02*
X29283660Y-14420340D01*
X29385260Y-4382260D02*
X29415740Y-4412740D01*
X29415740Y-4382260D02*
X29385260Y-4412740D01*
X29385260Y-12815060D02*
X29415740Y-12845540D01*
X29415740Y-12815060D02*
X29385260Y-12845540D01*
X29423360Y-6757160D02*
X29453840Y-6787640D01*
X29453840Y-6757160D02*
X29423360Y-6787640D01*
X29436060Y-10097260D02*
X29466540Y-10127740D01*
X29466540Y-10097260D02*
X29436060Y-10127740D01*
X29499560Y-8128760D02*
X29530040Y-8159240D01*
X29530040Y-8128760D02*
X29499560Y-8159240D01*
X29522420Y-8669780D02*
X29552900Y-8700260D01*
X29552900Y-8669780D02*
X29522420Y-8700260D01*
X29677360Y-13805660D02*
X29707840Y-13836140D01*
X29707840Y-13805660D02*
X29677360Y-13836140D01*
X29870399Y-13653260D02*
X29900879Y-13683740D01*
X29900879Y-13653260D02*
X29870399Y-13683740D01*
X29931360Y-12004801D02*
X29961840Y-12035281D01*
X29961840Y-12004801D02*
X29931360Y-12035281D01*
X29944505Y-13762516D02*
X29974985Y-13792996D01*
X29974985Y-13762516D02*
X29944505Y-13792996D01*
X30058360Y-10579860D02*
X30088840Y-10610340D01*
X30088840Y-10579860D02*
X30058360Y-10610340D01*
X30083760Y-8128760D02*
X30114240Y-8159240D01*
X30114240Y-8128760D02*
X30083760Y-8159240D01*
X30274260Y-12510260D02*
X30304740Y-12540740D01*
X30304740Y-12510260D02*
X30274260Y-12540740D01*
X30274264Y-5779260D02*
X30304744Y-5809740D01*
X30304744Y-5779260D02*
X30274264Y-5809740D01*
X30388560Y-8204960D02*
X30419040Y-8235440D01*
X30419040Y-8204960D02*
X30388560Y-8235440D01*
X30413960Y-8865360D02*
X30444440Y-8895840D01*
X30444440Y-8865360D02*
X30413960Y-8895840D01*
X30436260Y-8671760D02*
X30466740Y-8702240D01*
X30466740Y-8671760D02*
X30436260Y-8702240D01*
X30642560Y-14389860D02*
X30673040Y-14420340D01*
X30673040Y-14389860D02*
X30642560Y-14420340D01*
X30655260Y-4509260D02*
X30685740Y-4539740D01*
X30685740Y-4509260D02*
X30655260Y-4539740D01*
X30655260Y-10109960D02*
X30685740Y-10140440D01*
X30685740Y-10109960D02*
X30655260Y-10140440D01*
X30667960Y-14580360D02*
X30698440Y-14610840D01*
X30698440Y-14580360D02*
X30667960Y-14610840D01*
X31036260Y-6033260D02*
X31066740Y-6063740D01*
X31066740Y-6033260D02*
X31036260Y-6063740D01*
X31145809Y-8121576D02*
X31176289Y-8152056D01*
X31176289Y-8121576D02*
X31145809Y-8152056D01*
X31290260Y-4382260D02*
X31320740Y-4412740D01*
X31320740Y-4382260D02*
X31290260Y-4412740D01*
X31414720Y-8667240D02*
X31445200Y-8697720D01*
X31445200Y-8667240D02*
X31414720Y-8697720D01*
X31582360Y-12662660D02*
X31612840Y-12693140D01*
X31612840Y-12662660D02*
X31582360Y-12693140D01*
X31671260Y-14707360D02*
X31701740Y-14737840D01*
X31701740Y-14707360D02*
X31671260Y-14737840D01*
X31734760Y-14364460D02*
X31765240Y-14394940D01*
X31765240Y-14364460D02*
X31734760Y-14394940D01*
X32052260Y-6795260D02*
X32082740Y-6825740D01*
X32082740Y-6795260D02*
X32052260Y-6825740D01*
X32052260Y-7049260D02*
X32082740Y-7079740D01*
X32082740Y-7049260D02*
X32052260Y-7079740D01*
X32090360Y-10770360D02*
X32120840Y-10800840D01*
X32120840Y-10770360D02*
X32090360Y-10800840D01*
X32103060Y-10592560D02*
X32133540Y-10623040D01*
X32133540Y-10592560D02*
X32103060Y-10623040D01*
X32179260Y-5779260D02*
X32209740Y-5809740D01*
X32209740Y-5779260D02*
X32179260Y-5809740D01*
X32293560Y-6769860D02*
X32324040Y-6800340D01*
X32324040Y-6769860D02*
X32293560Y-6800340D01*
X32623760Y-12573760D02*
X32654240Y-12604240D01*
X32654240Y-12573760D02*
X32623760Y-12604240D01*
X32687260Y-10097260D02*
X32717740Y-10127740D01*
X32717740Y-10097260D02*
X32687260Y-10127740D01*
X32687260Y-12827760D02*
X32717740Y-12858240D01*
X32717740Y-12827760D02*
X32687260Y-12858240D01*
X32725360Y-8852660D02*
X32755840Y-8883140D01*
X32755840Y-8852660D02*
X32725360Y-8883140D01*
X32763460Y-8662160D02*
X32793940Y-8692640D01*
X32793940Y-8662160D02*
X32763460Y-8692640D01*
X32816800Y-11730480D02*
X32847280Y-11760960D01*
X32847280Y-11730480D02*
X32816800Y-11760960D01*
X32905700Y-12522960D02*
X32936180Y-12553440D01*
X32936180Y-12522960D02*
X32905700Y-12553440D01*
X32936180Y-12009880D02*
X32966660Y-12040360D01*
X32966660Y-12009880D02*
X32936180Y-12040360D01*
X32953960Y-12807439D02*
X32984440Y-12837919D01*
X32984440Y-12807439D02*
X32953960Y-12837919D01*
X32992060Y-14580360D02*
X33022540Y-14610840D01*
X33022540Y-14580360D02*
X32992060Y-14610840D01*
X33004760Y-14364460D02*
X33035240Y-14394940D01*
X33035240Y-14364460D02*
X33004760Y-14394940D01*
X33027620Y-12248640D02*
X33058100Y-12279120D01*
X33058100Y-12248640D02*
X33027620Y-12279120D01*
X33195260Y-4382260D02*
X33225740Y-4412740D01*
X33225740Y-4382260D02*
X33195260Y-4412740D01*
X33195260Y-7938260D02*
X33225740Y-7968740D01*
X33225740Y-7938260D02*
X33195260Y-7968740D01*
X33230820Y-10958320D02*
X33261300Y-10988800D01*
X33261300Y-10958320D02*
X33230820Y-10988800D01*
X33246060Y-8204960D02*
X33276540Y-8235440D01*
X33276540Y-8204960D02*
X33246060Y-8235440D01*
X33276540Y-12848080D02*
X33307020Y-12878560D01*
X33307020Y-12848080D02*
X33276540Y-12878560D01*
X33342580Y-10607800D02*
X33373060Y-10638280D01*
X33373060Y-10607800D02*
X33342580Y-10638280D01*
X33449260Y-9843260D02*
X33479740Y-9873740D01*
X33479740Y-9843260D02*
X33449260Y-9873740D01*
X33520380Y-13168120D02*
X33550860Y-13198600D01*
X33550860Y-13168120D02*
X33520380Y-13198600D01*
X33525460Y-10943080D02*
X33555940Y-10973560D01*
X33555940Y-10943080D02*
X33525460Y-10973560D01*
X33703260Y-8382760D02*
X33733740Y-8413240D01*
X33733740Y-8382760D02*
X33703260Y-8413240D01*
X33785810Y-8681210D02*
X33816290Y-8711690D01*
X33816290Y-8681210D02*
X33785810Y-8711690D01*
X33792160Y-7341360D02*
X33822640Y-7371840D01*
X33822640Y-7341360D02*
X33792160Y-7371840D01*
X33792160Y-11468860D02*
X33822640Y-11499340D01*
X33822640Y-11468860D02*
X33792160Y-11499340D01*
X34023300Y-14405100D02*
X34053780Y-14435580D01*
X34053780Y-14405100D02*
X34023300Y-14435580D01*
X34084260Y-5779260D02*
X34114740Y-5809740D01*
X34114740Y-5779260D02*
X34084260Y-5809740D01*
X34084260Y-14745460D02*
X34114740Y-14775940D01*
X34114740Y-14745460D02*
X34084260Y-14775940D01*
X34437320Y-7107680D02*
X34467800Y-7138160D01*
X34467800Y-7107680D02*
X34437320Y-7138160D01*
X34490660Y-11943840D02*
X34521140Y-11974320D01*
X34521140Y-11943840D02*
X34490660Y-11974320D01*
X34556700Y-8248140D02*
X34587180Y-8278620D01*
X34587180Y-8248140D02*
X34556700Y-8278620D01*
X34564320Y-7625840D02*
X34594800Y-7656320D01*
X34594800Y-7625840D02*
X34564320Y-7656320D01*
X34592260Y-4509260D02*
X34622740Y-4539740D01*
X34622740Y-4509260D02*
X34592260Y-4539740D01*
X34637980Y-8745980D02*
X34668460Y-8776460D01*
X34668460Y-8745980D02*
X34637980Y-8776460D01*
X34665920Y-9449560D02*
X34696400Y-9480040D01*
X34696400Y-9449560D02*
X34665920Y-9480040D01*
X34952940Y-12860780D02*
X34983420Y-12891260D01*
X34983420Y-12860780D02*
X34952940Y-12891260D01*
X34973260Y-5906260D02*
X35003740Y-5936740D01*
X35003740Y-5906260D02*
X34973260Y-5936740D01*
X34973260Y-8446260D02*
X35003740Y-8476740D01*
X35003740Y-8446260D02*
X34973260Y-8476740D01*
X34975800Y-13160500D02*
X35006280Y-13190980D01*
X35006280Y-13160500D02*
X34975800Y-13190980D01*
X35100260Y-9208260D02*
X35130740Y-9238740D01*
X35130740Y-9208260D02*
X35100260Y-9238740D01*
X35100260Y-11367260D02*
X35130740Y-11397740D01*
X35130740Y-11367260D02*
X35100260Y-11397740D01*
X35100260Y-12764258D02*
X35130740Y-12794738D01*
X35130740Y-12764258D02*
X35100260Y-12794738D01*
X35156140Y-7034020D02*
X35186620Y-7064500D01*
X35186620Y-7034020D02*
X35156140Y-7064500D01*
X35189160Y-13160500D02*
X35219640Y-13190980D01*
X35219640Y-13160500D02*
X35189160Y-13190980D01*
X35196780Y-10684000D02*
X35227260Y-10714480D01*
X35227260Y-10684000D02*
X35196780Y-10714480D01*
X35199320Y-13503400D02*
X35229800Y-13533880D01*
X35229800Y-13503400D02*
X35199320Y-13533880D01*
X35201860Y-12017500D02*
X35232340Y-12047980D01*
X35232340Y-12017500D02*
X35201860Y-12047980D01*
X35214560Y-9731500D02*
X35245040Y-9761980D01*
X35245040Y-9731500D02*
X35214560Y-9761980D01*
X35227260Y-13907260D02*
X35257740Y-13937740D01*
X35257740Y-13907260D02*
X35227260Y-13937740D01*
X35227260Y-14034260D02*
X35257740Y-14064740D01*
X35257740Y-14034260D02*
X35227260Y-14064740D01*
X35354260Y-6795260D02*
X35384740Y-6825740D01*
X35384740Y-6795260D02*
X35354260Y-6825740D01*
X35354260Y-7049260D02*
X35384740Y-7079740D01*
X35384740Y-7049260D02*
X35354260Y-7079740D01*
X35354260Y-9081260D02*
X35384740Y-9111740D01*
X35384740Y-9081260D02*
X35354260Y-9111740D01*
X35354260Y-13145260D02*
X35384740Y-13175740D01*
X35384740Y-13145260D02*
X35354260Y-13175740D01*
X35608260Y-4382260D02*
X35638740Y-4412740D01*
X35638740Y-4382260D02*
X35608260Y-4412740D01*
X35608260Y-6795260D02*
X35638740Y-6825740D01*
X35638740Y-6795260D02*
X35608260Y-6825740D01*
X35608260Y-8700260D02*
X35638740Y-8730740D01*
X35638740Y-8700260D02*
X35608260Y-8730740D01*
X35608260Y-8890760D02*
X35638740Y-8921240D01*
X35638740Y-8890760D02*
X35608260Y-8921240D01*
X35608260Y-13272260D02*
X35638740Y-13302740D01*
X35638740Y-13272260D02*
X35608260Y-13302740D01*
X35608260Y-14415260D02*
X35638740Y-14445740D01*
X35638740Y-14415260D02*
X35608260Y-14445740D01*
X35671760Y-14605760D02*
X35702240Y-14636240D01*
X35702240Y-14605760D02*
X35671760Y-14636240D01*
X35862260Y-7176260D02*
X35892740Y-7206740D01*
X35892740Y-7176260D02*
X35862260Y-7206740D01*
X36370260Y-11494260D02*
X36400740Y-11524740D01*
X36400740Y-11494260D02*
X36370260Y-11524740D01*
X36497260Y-5779260D02*
X36527740Y-5809740D01*
X36527740Y-5779260D02*
X36497260Y-5809740D01*
X36497260Y-9970260D02*
X36527740Y-10000740D01*
X36527740Y-9970260D02*
X36497260Y-10000740D01*
X36581080Y-8182100D02*
X36611560Y-8212580D01*
X36611560Y-8182100D02*
X36581080Y-8212580D01*
X36878260Y-14034260D02*
X36908740Y-14064740D01*
X36908740Y-14034260D02*
X36878260Y-14064740D01*
X36878260Y-14161260D02*
X36908740Y-14191740D01*
X36908740Y-14161260D02*
X36878260Y-14191740D01*
X36878260Y-14669260D02*
X36908740Y-14699740D01*
X36908740Y-14669260D02*
X36878260Y-14699740D01*
X37132260Y-14161260D02*
X37162740Y-14191740D01*
X37162740Y-14161260D02*
X37132260Y-14191740D01*
X37132260Y-14161260D02*
X37162740Y-14191740D01*
X37162740Y-14161260D02*
X37132260Y-14191740D01*
X37259260Y-6795260D02*
X37289740Y-6825740D01*
X37289740Y-6795260D02*
X37259260Y-6825740D01*
X37259260Y-7049260D02*
X37289740Y-7079740D01*
X37289740Y-7049260D02*
X37259260Y-7079740D01*
X37259260Y-8700260D02*
X37289740Y-8730740D01*
X37289740Y-8700260D02*
X37259260Y-8730740D01*
X37259260Y-8954260D02*
X37289740Y-8984740D01*
X37289740Y-8954260D02*
X37259260Y-8984740D01*
X37259260Y-14415260D02*
X37289740Y-14445740D01*
X37289740Y-14415260D02*
X37259260Y-14445740D01*
X37259260Y-14669260D02*
X37289740Y-14699740D01*
X37289740Y-14669260D02*
X37259260Y-14699740D01*
X37513260Y-4382260D02*
X37543740Y-4412740D01*
X37543740Y-4382260D02*
X37513260Y-4412740D01*
X37513260Y-6795260D02*
X37543740Y-6825740D01*
X37543740Y-6795260D02*
X37513260Y-6825740D01*
X37513260Y-8700260D02*
X37543740Y-8730740D01*
X37543740Y-8700260D02*
X37513260Y-8730740D01*
X37513260Y-12510260D02*
X37543740Y-12540740D01*
X37543740Y-12510260D02*
X37513260Y-12540740D01*
X37513260Y-14415260D02*
X37543740Y-14445740D01*
X37543740Y-14415260D02*
X37513260Y-14445740D01*
X37576760Y-12700760D02*
X37607240Y-12731240D01*
X37607240Y-12700760D02*
X37576760Y-12731240D01*
X37767260Y-12891260D02*
X37797740Y-12921740D01*
X37797740Y-12891260D02*
X37767260Y-12921740D01*
X38275260Y-5779260D02*
X38305740Y-5809740D01*
X38305740Y-5779260D02*
X38275260Y-5809740D01*
X38402260Y-9967719D02*
X38432740Y-9998199D01*
X38432740Y-9967719D02*
X38402260Y-9998199D01*
X38402260Y-13780260D02*
X38432740Y-13810740D01*
X38432740Y-13780260D02*
X38402260Y-13810740D01*
X38498780Y-8192260D02*
X38529260Y-8222740D01*
X38529260Y-8192260D02*
X38498780Y-8222740D01*
X38719760Y-12446760D02*
X38750240Y-12477240D01*
X38750240Y-12446760D02*
X38719760Y-12477240D01*
X38783260Y-4509260D02*
X38813740Y-4539740D01*
X38813740Y-4509260D02*
X38783260Y-4539740D01*
X38905179Y-14161260D02*
X38935659Y-14191740D01*
X38935659Y-14161260D02*
X38905179Y-14191740D01*
X38910253Y-14415260D02*
X38940733Y-14445740D01*
X38940733Y-14415260D02*
X38910253Y-14445740D01*
X39037260Y-5906260D02*
X39067740Y-5936740D01*
X39067740Y-5906260D02*
X39037260Y-5936740D01*
X39037260Y-7176260D02*
X39067740Y-7206740D01*
X39067740Y-7176260D02*
X39037260Y-7206740D01*
X39037260Y-8319258D02*
X39067740Y-8349738D01*
X39067740Y-8319258D02*
X39037260Y-8349738D01*
X39037260Y-8700260D02*
X39067740Y-8730740D01*
X39067740Y-8700260D02*
X39037260Y-8730740D01*
X39037260Y-8954260D02*
X39067740Y-8984740D01*
X39067740Y-8954260D02*
X39037260Y-8984740D01*
X39164260Y-6795260D02*
X39194740Y-6825740D01*
X39194740Y-6795260D02*
X39164260Y-6825740D01*
X39164260Y-7684260D02*
X39194740Y-7714740D01*
X39194740Y-7684260D02*
X39164260Y-7714740D01*
X39164260Y-8700260D02*
X39194740Y-8730740D01*
X39194740Y-8700260D02*
X39164260Y-8730740D01*
X39164260Y-9589260D02*
X39194740Y-9619740D01*
X39194740Y-9589260D02*
X39164260Y-9619740D01*
X39164260Y-14161260D02*
X39194740Y-14191740D01*
X39194740Y-14161260D02*
X39164260Y-14191740D01*
X39291260Y-15177260D02*
X39321740Y-15207740D01*
X39321740Y-15177260D02*
X39291260Y-15207740D01*
X39418260Y-4382260D02*
X39448740Y-4412740D01*
X39448740Y-4382260D02*
X39418260Y-4412740D01*
X39418260Y-6795260D02*
X39448740Y-6825740D01*
X39448740Y-6795260D02*
X39418260Y-6825740D01*
X39418260Y-8700260D02*
X39448740Y-8730740D01*
X39448740Y-8700260D02*
X39418260Y-8730740D01*
X39418260Y-13780260D02*
X39448740Y-13810740D01*
X39448740Y-13780260D02*
X39418260Y-13810740D01*
X39418260Y-14415260D02*
X39448740Y-14445740D01*
X39448740Y-14415260D02*
X39418260Y-14445740D01*
X40180260Y-5779258D02*
X40210740Y-5809738D01*
X40210740Y-5779258D02*
X40180260Y-5809738D01*
X40180260Y-9970260D02*
X40210740Y-10000740D01*
X40210740Y-9970260D02*
X40180260Y-10000740D01*
X40264157Y-8192258D02*
X40294637Y-8222738D01*
X40294637Y-8192258D02*
X40264157Y-8222738D01*
X40561260Y-6795260D02*
X40591740Y-6825740D01*
X40591740Y-6795260D02*
X40561260Y-6825740D01*
X40561260Y-8687560D02*
X40591740Y-8718040D01*
X40591740Y-8687560D02*
X40561260Y-8718040D01*
X40815260Y-6033260D02*
X40845740Y-6063740D01*
X40845740Y-6033260D02*
X40815260Y-6063740D01*
D14*
X16869900Y-14671300D02*
G75*
G03*
X16869900Y-14671300I-17500J0D01*
G01*
X16869900Y-14798800D02*
G75*
G03*
X16869900Y-14798800I-17500J0D01*
G01*
X16869900Y-14926300D02*
G75*
G03*
X16869900Y-14926300I-17500J0D01*
G01*
X16997400Y-14671300D02*
G75*
G03*
X16997400Y-14671300I-17500J0D01*
G01*
X16997400Y-14798800D02*
G75*
G03*
X16997400Y-14798800I-17500J0D01*
G01*
X16997400Y-14926300D02*
G75*
G03*
X16997400Y-14926300I-17500J0D01*
G01*
X17124900Y-14671300D02*
G75*
G03*
X17124900Y-14671300I-17500J0D01*
G01*
X17124900Y-14798800D02*
G75*
G03*
X17124900Y-14798800I-17500J0D01*
G01*
X17124900Y-14926300D02*
G75*
G03*
X17124900Y-14926300I-17500J0D01*
G01*
D15*
X8207200Y-4260100D02*
X8207200Y-4320100D01*
X8177200Y-4290100D02*
X8237200Y-4290100D01*
D12*
X8177200Y-4260100D02*
X8177200Y-4320100D01*
X8237200Y-4260100D02*
X8237200Y-4320100D01*
X8177200Y-4320100D02*
G75*
G03*
X8237200Y-4320100I30000J0D01*
G01*
X8237200Y-4260100D02*
G75*
G03*
X8177200Y-4260100I-30000J0D01*
G01*
D15*
X8207200Y-4678100D02*
X8207200Y-4738100D01*
X8177200Y-4708100D02*
X8237200Y-4708100D01*
D12*
X8177200Y-4653100D02*
X8177200Y-4763100D01*
X8237200Y-4653100D02*
X8237200Y-4763100D01*
X8177200Y-4763100D02*
G75*
G03*
X8237200Y-4763100I30000J0D01*
G01*
X8237200Y-4653100D02*
G75*
G03*
X8177200Y-4653100I-30000J0D01*
G01*
D15*
X9071200Y-4260100D02*
X9071200Y-4320100D01*
X9041200Y-4290100D02*
X9101200Y-4290100D01*
D12*
X9041200Y-4260100D02*
X9041200Y-4320100D01*
X9101200Y-4260100D02*
X9101200Y-4320100D01*
X9041200Y-4320100D02*
G75*
G03*
X9101200Y-4320100I30000J0D01*
G01*
X9101200Y-4260100D02*
G75*
G03*
X9041200Y-4260100I-30000J0D01*
G01*
D15*
X9071200Y-4678100D02*
X9071200Y-4738100D01*
X9041200Y-4708100D02*
X9101200Y-4708100D01*
D12*
X9041200Y-4653100D02*
X9041200Y-4763100D01*
X9101200Y-4653100D02*
X9101200Y-4763100D01*
X9041200Y-4763100D02*
G75*
G03*
X9101200Y-4763100I30000J0D01*
G01*
X9101200Y-4653100D02*
G75*
G03*
X9041200Y-4653100I-30000J0D01*
G01*
D10*
X17637556Y-15646956D02*
X17637556Y-15576244D01*
X17566844Y-15576244D01*
X17566844Y-15646956D01*
X17637556Y-15646956D01*
X17891556Y-15646956D02*
X17891556Y-15576244D01*
X17820844Y-15576244D01*
X17820844Y-15646956D01*
X17891556Y-15646956D01*
X18145556Y-15646956D02*
X18145556Y-15576244D01*
X18074844Y-15576244D01*
X18074844Y-15646956D01*
X18145556Y-15646956D01*
X36039856Y-10782856D02*
X36039856Y-10712144D01*
X35969144Y-10712144D01*
X35969144Y-10782856D01*
X36039856Y-10782856D01*
X36039856Y-11036856D02*
X36039856Y-10966144D01*
X35969144Y-10966144D01*
X35969144Y-11036856D01*
X36039856Y-11036856D01*
X36039856Y-11290856D02*
X36039856Y-11220144D01*
X35969144Y-11220144D01*
X35969144Y-11290856D01*
X36039856Y-11290856D01*
X36039856Y-11544856D02*
X36039856Y-11474144D01*
X35969144Y-11474144D01*
X35969144Y-11544856D01*
X36039856Y-11544856D01*
D16*
X6540500Y-6285500D02*
X6650500Y-6175500D01*
X6540500Y-6065500D01*
X6430500Y-6175500D01*
X6540500Y-6285500D01*
X6540500Y-13397500D02*
X6650500Y-13287500D01*
X6540500Y-13177500D01*
X6430500Y-13287500D01*
X6540500Y-13397500D01*
X19036500Y-11111500D02*
X19146500Y-11001500D01*
X19036500Y-10891500D01*
X18926500Y-11001500D01*
X19036500Y-11111500D01*
X23304500Y-6285500D02*
X23414500Y-6175500D01*
X23304500Y-6065500D01*
X23194500Y-6175500D01*
X23304500Y-6285500D01*
X23304500Y-15302500D02*
X23414500Y-15192500D01*
X23304500Y-15082500D01*
X23194500Y-15192500D01*
X23304500Y-15302500D01*
X34637500Y-10857500D02*
X34747500Y-10747500D01*
X34637500Y-10637500D01*
X34527500Y-10747500D01*
X34637500Y-10857500D01*
X40249500Y-6285500D02*
X40359500Y-6175500D01*
X40249500Y-6065500D01*
X40139500Y-6175500D01*
X40249500Y-6285500D01*
X40249500Y-13397500D02*
X40359500Y-13287500D01*
X40249500Y-13177500D01*
X40139500Y-13287500D01*
X40249500Y-13397500D01*
D12*
X6202619Y-16315476D02*
X6202619Y-16115476D01*
X6250238Y-16115476D01*
X6278809Y-16125000D01*
X6297857Y-16144048D01*
X6307381Y-16163095D01*
X6316905Y-16201190D01*
X6316905Y-16229762D01*
X6307381Y-16267857D01*
X6297857Y-16286905D01*
X6278809Y-16305952D01*
X6250238Y-16315476D01*
X6202619Y-16315476D01*
X6402619Y-16315476D02*
X6402619Y-16182143D01*
X6402619Y-16220238D02*
X6412143Y-16201190D01*
X6421667Y-16191667D01*
X6440714Y-16182143D01*
X6459762Y-16182143D01*
X6526428Y-16315476D02*
X6526428Y-16182143D01*
X6526428Y-16115476D02*
X6516905Y-16125000D01*
X6526428Y-16134524D01*
X6535952Y-16125000D01*
X6526428Y-16115476D01*
X6526428Y-16134524D01*
X6650238Y-16315476D02*
X6631190Y-16305952D01*
X6621667Y-16286905D01*
X6621667Y-16115476D01*
X6755000Y-16315476D02*
X6735952Y-16305952D01*
X6726428Y-16286905D01*
X6726428Y-16115476D01*
X6983571Y-16315476D02*
X6983571Y-16115476D01*
X7050238Y-16258333D01*
X7116905Y-16115476D01*
X7116905Y-16315476D01*
X7297857Y-16315476D02*
X7297857Y-16210714D01*
X7288333Y-16191667D01*
X7269286Y-16182143D01*
X7231190Y-16182143D01*
X7212143Y-16191667D01*
X7297857Y-16305952D02*
X7278809Y-16315476D01*
X7231190Y-16315476D01*
X7212143Y-16305952D01*
X7202619Y-16286905D01*
X7202619Y-16267857D01*
X7212143Y-16248809D01*
X7231190Y-16239286D01*
X7278809Y-16239286D01*
X7297857Y-16229762D01*
X7393095Y-16182143D02*
X7393095Y-16382143D01*
X7393095Y-16191667D02*
X7412143Y-16182143D01*
X7450238Y-16182143D01*
X7469286Y-16191667D01*
X7478809Y-16201190D01*
X7488333Y-16220238D01*
X7488333Y-16277381D01*
X7478809Y-16296428D01*
X7469286Y-16305952D01*
X7450238Y-16315476D01*
X7412143Y-16315476D01*
X7393095Y-16305952D01*
X7574048Y-16296428D02*
X7583571Y-16305952D01*
X7574048Y-16315476D01*
X7564524Y-16305952D01*
X7574048Y-16296428D01*
X7574048Y-16315476D01*
X7574048Y-16191667D02*
X7583571Y-16201190D01*
X7574048Y-16210714D01*
X7564524Y-16201190D01*
X7574048Y-16191667D01*
X7574048Y-16210714D01*
D13*
X5914520Y-16629760D02*
X5945000Y-16660240D01*
X5945000Y-16629760D02*
X5914520Y-16660240D01*
D12*
X6240714Y-16535476D02*
X6259762Y-16535476D01*
X6278809Y-16545000D01*
X6288333Y-16554524D01*
X6297857Y-16573571D01*
X6307381Y-16611667D01*
X6307381Y-16659286D01*
X6297857Y-16697381D01*
X6288333Y-16716428D01*
X6278809Y-16725952D01*
X6259762Y-16735476D01*
X6240714Y-16735476D01*
X6221667Y-16725952D01*
X6212143Y-16716428D01*
X6202619Y-16697381D01*
X6193095Y-16659286D01*
X6193095Y-16611667D01*
X6202619Y-16573571D01*
X6212143Y-16554524D01*
X6221667Y-16545000D01*
X6240714Y-16535476D01*
X6393095Y-16716428D02*
X6402619Y-16725952D01*
X6393095Y-16735476D01*
X6383571Y-16725952D01*
X6393095Y-16716428D01*
X6393095Y-16735476D01*
X6469286Y-16535476D02*
X6593095Y-16535476D01*
X6526428Y-16611667D01*
X6555000Y-16611667D01*
X6574048Y-16621190D01*
X6583571Y-16630714D01*
X6593095Y-16649762D01*
X6593095Y-16697381D01*
X6583571Y-16716428D01*
X6574048Y-16725952D01*
X6555000Y-16735476D01*
X6497857Y-16735476D01*
X6478809Y-16725952D01*
X6469286Y-16716428D01*
X6716905Y-16535476D02*
X6735952Y-16535476D01*
X6755000Y-16545000D01*
X6764524Y-16554524D01*
X6774048Y-16573571D01*
X6783571Y-16611667D01*
X6783571Y-16659286D01*
X6774048Y-16697381D01*
X6764524Y-16716428D01*
X6755000Y-16725952D01*
X6735952Y-16735476D01*
X6716905Y-16735476D01*
X6697857Y-16725952D01*
X6688333Y-16716428D01*
X6678809Y-16697381D01*
X6669286Y-16659286D01*
X6669286Y-16611667D01*
X6678809Y-16573571D01*
X6688333Y-16554524D01*
X6697857Y-16545000D01*
X6716905Y-16535476D01*
X6964524Y-16535476D02*
X6869286Y-16535476D01*
X6859762Y-16630714D01*
X6869286Y-16621190D01*
X6888333Y-16611667D01*
X6935952Y-16611667D01*
X6955000Y-16621190D01*
X6964524Y-16630714D01*
X6974048Y-16649762D01*
X6974048Y-16697381D01*
X6964524Y-16716428D01*
X6955000Y-16725952D01*
X6935952Y-16735476D01*
X6888333Y-16735476D01*
X6869286Y-16725952D01*
X6859762Y-16716428D01*
X7059762Y-16735476D02*
X7059762Y-16602143D01*
X7059762Y-16621190D02*
X7069286Y-16611667D01*
X7088333Y-16602143D01*
X7116905Y-16602143D01*
X7135952Y-16611667D01*
X7145476Y-16630714D01*
X7145476Y-16735476D01*
X7145476Y-16630714D02*
X7155000Y-16611667D01*
X7174048Y-16602143D01*
X7202619Y-16602143D01*
X7221667Y-16611667D01*
X7231190Y-16630714D01*
X7231190Y-16735476D01*
X7326428Y-16735476D02*
X7326428Y-16602143D01*
X7326428Y-16621190D02*
X7335952Y-16611667D01*
X7355000Y-16602143D01*
X7383571Y-16602143D01*
X7402619Y-16611667D01*
X7412143Y-16630714D01*
X7412143Y-16735476D01*
X7412143Y-16630714D02*
X7421667Y-16611667D01*
X7440714Y-16602143D01*
X7469286Y-16602143D01*
X7488333Y-16611667D01*
X7497857Y-16630714D01*
X7497857Y-16735476D01*
X7888333Y-16525952D02*
X7716905Y-16783095D01*
X8145476Y-16535476D02*
X8164524Y-16535476D01*
X8183571Y-16545000D01*
X8193095Y-16554524D01*
X8202619Y-16573571D01*
X8212143Y-16611667D01*
X8212143Y-16659286D01*
X8202619Y-16697381D01*
X8193095Y-16716428D01*
X8183571Y-16725952D01*
X8164524Y-16735476D01*
X8145476Y-16735476D01*
X8126428Y-16725952D01*
X8116905Y-16716428D01*
X8107381Y-16697381D01*
X8097857Y-16659286D01*
X8097857Y-16611667D01*
X8107381Y-16573571D01*
X8116905Y-16554524D01*
X8126428Y-16545000D01*
X8145476Y-16535476D01*
X8297857Y-16716428D02*
X8307381Y-16725952D01*
X8297857Y-16735476D01*
X8288333Y-16725952D01*
X8297857Y-16716428D01*
X8297857Y-16735476D01*
X8431190Y-16535476D02*
X8450238Y-16535476D01*
X8469286Y-16545000D01*
X8478810Y-16554524D01*
X8488333Y-16573571D01*
X8497857Y-16611667D01*
X8497857Y-16659286D01*
X8488333Y-16697381D01*
X8478810Y-16716428D01*
X8469286Y-16725952D01*
X8450238Y-16735476D01*
X8431190Y-16735476D01*
X8412143Y-16725952D01*
X8402619Y-16716428D01*
X8393095Y-16697381D01*
X8383571Y-16659286D01*
X8383571Y-16611667D01*
X8393095Y-16573571D01*
X8402619Y-16554524D01*
X8412143Y-16545000D01*
X8431190Y-16535476D01*
X8688333Y-16735476D02*
X8574048Y-16735476D01*
X8631190Y-16735476D02*
X8631190Y-16535476D01*
X8612143Y-16564048D01*
X8593095Y-16583095D01*
X8574048Y-16592619D01*
X8764524Y-16554524D02*
X8774048Y-16545000D01*
X8793095Y-16535476D01*
X8840714Y-16535476D01*
X8859762Y-16545000D01*
X8869286Y-16554524D01*
X8878810Y-16573571D01*
X8878810Y-16592619D01*
X8869286Y-16621190D01*
X8755000Y-16735476D01*
X8878810Y-16735476D01*
X9002619Y-16535476D02*
X9021667Y-16535476D01*
X9040714Y-16545000D01*
X9050238Y-16554524D01*
X9059762Y-16573571D01*
X9069286Y-16611667D01*
X9069286Y-16659286D01*
X9059762Y-16697381D01*
X9050238Y-16716428D01*
X9040714Y-16725952D01*
X9021667Y-16735476D01*
X9002619Y-16735476D01*
X8983571Y-16725952D01*
X8974048Y-16716428D01*
X8964524Y-16697381D01*
X8955000Y-16659286D01*
X8955000Y-16611667D01*
X8964524Y-16573571D01*
X8974048Y-16554524D01*
X8983571Y-16545000D01*
X9002619Y-16535476D01*
X9145476Y-16535476D02*
X9145476Y-16573571D01*
X9221667Y-16535476D02*
X9221667Y-16573571D01*
X9516905Y-16811667D02*
X9507381Y-16802143D01*
X9488333Y-16773571D01*
X9478810Y-16754524D01*
X9469286Y-16725952D01*
X9459762Y-16678333D01*
X9459762Y-16640238D01*
X9469286Y-16592619D01*
X9478810Y-16564048D01*
X9488333Y-16545000D01*
X9507381Y-16516428D01*
X9516905Y-16506905D01*
X9688333Y-16535476D02*
X9593095Y-16535476D01*
X9583571Y-16630714D01*
X9593095Y-16621190D01*
X9612143Y-16611667D01*
X9659762Y-16611667D01*
X9678810Y-16621190D01*
X9688333Y-16630714D01*
X9697857Y-16649762D01*
X9697857Y-16697381D01*
X9688333Y-16716428D01*
X9678810Y-16725952D01*
X9659762Y-16735476D01*
X9612143Y-16735476D01*
X9593095Y-16725952D01*
X9583571Y-16716428D01*
X9878810Y-16535476D02*
X9783571Y-16535476D01*
X9774048Y-16630714D01*
X9783571Y-16621190D01*
X9802619Y-16611667D01*
X9850238Y-16611667D01*
X9869286Y-16621190D01*
X9878810Y-16630714D01*
X9888333Y-16649762D01*
X9888333Y-16697381D01*
X9878810Y-16716428D01*
X9869286Y-16725952D01*
X9850238Y-16735476D01*
X9802619Y-16735476D01*
X9783571Y-16725952D01*
X9774048Y-16716428D01*
X10002619Y-16621190D02*
X9983571Y-16611667D01*
X9974048Y-16602143D01*
X9964524Y-16583095D01*
X9964524Y-16573571D01*
X9974048Y-16554524D01*
X9983571Y-16545000D01*
X10002619Y-16535476D01*
X10040714Y-16535476D01*
X10059762Y-16545000D01*
X10069286Y-16554524D01*
X10078810Y-16573571D01*
X10078810Y-16583095D01*
X10069286Y-16602143D01*
X10059762Y-16611667D01*
X10040714Y-16621190D01*
X10002619Y-16621190D01*
X9983571Y-16630714D01*
X9974048Y-16640238D01*
X9964524Y-16659286D01*
X9964524Y-16697381D01*
X9974048Y-16716428D01*
X9983571Y-16725952D01*
X10002619Y-16735476D01*
X10040714Y-16735476D01*
X10059762Y-16725952D01*
X10069286Y-16716428D01*
X10078810Y-16697381D01*
X10078810Y-16659286D01*
X10069286Y-16640238D01*
X10059762Y-16630714D01*
X10040714Y-16621190D01*
X10316905Y-16735476D02*
X10316905Y-16535476D01*
X10402619Y-16735476D02*
X10402619Y-16630714D01*
X10393095Y-16611667D01*
X10374048Y-16602143D01*
X10345476Y-16602143D01*
X10326429Y-16611667D01*
X10316905Y-16621190D01*
X10526429Y-16735476D02*
X10507381Y-16725952D01*
X10497857Y-16716428D01*
X10488333Y-16697381D01*
X10488333Y-16640238D01*
X10497857Y-16621190D01*
X10507381Y-16611667D01*
X10526429Y-16602143D01*
X10555000Y-16602143D01*
X10574048Y-16611667D01*
X10583571Y-16621190D01*
X10593095Y-16640238D01*
X10593095Y-16697381D01*
X10583571Y-16716428D01*
X10574048Y-16725952D01*
X10555000Y-16735476D01*
X10526429Y-16735476D01*
X10707381Y-16735476D02*
X10688333Y-16725952D01*
X10678810Y-16706905D01*
X10678810Y-16535476D01*
X10859762Y-16725952D02*
X10840714Y-16735476D01*
X10802619Y-16735476D01*
X10783571Y-16725952D01*
X10774048Y-16706905D01*
X10774048Y-16630714D01*
X10783571Y-16611667D01*
X10802619Y-16602143D01*
X10840714Y-16602143D01*
X10859762Y-16611667D01*
X10869286Y-16630714D01*
X10869286Y-16649762D01*
X10774048Y-16668809D01*
X10945476Y-16725952D02*
X10964524Y-16735476D01*
X11002619Y-16735476D01*
X11021667Y-16725952D01*
X11031190Y-16706905D01*
X11031190Y-16697381D01*
X11021667Y-16678333D01*
X11002619Y-16668809D01*
X10974048Y-16668809D01*
X10955000Y-16659286D01*
X10945476Y-16640238D01*
X10945476Y-16630714D01*
X10955000Y-16611667D01*
X10974048Y-16602143D01*
X11002619Y-16602143D01*
X11021667Y-16611667D01*
X11097857Y-16811667D02*
X11107381Y-16802143D01*
X11126429Y-16773571D01*
X11135952Y-16754524D01*
X11145476Y-16725952D01*
X11155000Y-16678333D01*
X11155000Y-16640238D01*
X11145476Y-16592619D01*
X11135952Y-16564048D01*
X11126429Y-16545000D01*
X11107381Y-16516428D01*
X11097857Y-16506905D01*
D14*
X5945000Y-16909000D02*
G75*
G03*
X5945000Y-16909000I-17500J0D01*
G01*
D12*
X6240714Y-16799476D02*
X6259762Y-16799476D01*
X6278809Y-16809000D01*
X6288333Y-16818524D01*
X6297857Y-16837571D01*
X6307381Y-16875667D01*
X6307381Y-16923286D01*
X6297857Y-16961381D01*
X6288333Y-16980429D01*
X6278809Y-16989952D01*
X6259762Y-16999476D01*
X6240714Y-16999476D01*
X6221667Y-16989952D01*
X6212143Y-16980429D01*
X6202619Y-16961381D01*
X6193095Y-16923286D01*
X6193095Y-16875667D01*
X6202619Y-16837571D01*
X6212143Y-16818524D01*
X6221667Y-16809000D01*
X6240714Y-16799476D01*
X6393095Y-16980429D02*
X6402619Y-16989952D01*
X6393095Y-16999476D01*
X6383571Y-16989952D01*
X6393095Y-16980429D01*
X6393095Y-16999476D01*
X6469286Y-16799476D02*
X6593095Y-16799476D01*
X6526428Y-16875667D01*
X6555000Y-16875667D01*
X6574048Y-16885190D01*
X6583571Y-16894714D01*
X6593095Y-16913762D01*
X6593095Y-16961381D01*
X6583571Y-16980429D01*
X6574048Y-16989952D01*
X6555000Y-16999476D01*
X6497857Y-16999476D01*
X6478809Y-16989952D01*
X6469286Y-16980429D01*
X6774048Y-16799476D02*
X6678809Y-16799476D01*
X6669286Y-16894714D01*
X6678809Y-16885190D01*
X6697857Y-16875667D01*
X6745476Y-16875667D01*
X6764524Y-16885190D01*
X6774048Y-16894714D01*
X6783571Y-16913762D01*
X6783571Y-16961381D01*
X6774048Y-16980429D01*
X6764524Y-16989952D01*
X6745476Y-16999476D01*
X6697857Y-16999476D01*
X6678809Y-16989952D01*
X6669286Y-16980429D01*
X6907381Y-16799476D02*
X6926428Y-16799476D01*
X6945476Y-16809000D01*
X6955000Y-16818524D01*
X6964524Y-16837571D01*
X6974048Y-16875667D01*
X6974048Y-16923286D01*
X6964524Y-16961381D01*
X6955000Y-16980429D01*
X6945476Y-16989952D01*
X6926428Y-16999476D01*
X6907381Y-16999476D01*
X6888333Y-16989952D01*
X6878809Y-16980429D01*
X6869286Y-16961381D01*
X6859762Y-16923286D01*
X6859762Y-16875667D01*
X6869286Y-16837571D01*
X6878809Y-16818524D01*
X6888333Y-16809000D01*
X6907381Y-16799476D01*
X7059762Y-16999476D02*
X7059762Y-16866143D01*
X7059762Y-16885190D02*
X7069286Y-16875667D01*
X7088333Y-16866143D01*
X7116905Y-16866143D01*
X7135952Y-16875667D01*
X7145476Y-16894714D01*
X7145476Y-16999476D01*
X7145476Y-16894714D02*
X7155000Y-16875667D01*
X7174048Y-16866143D01*
X7202619Y-16866143D01*
X7221667Y-16875667D01*
X7231190Y-16894714D01*
X7231190Y-16999476D01*
X7326428Y-16999476D02*
X7326428Y-16866143D01*
X7326428Y-16885190D02*
X7335952Y-16875667D01*
X7355000Y-16866143D01*
X7383571Y-16866143D01*
X7402619Y-16875667D01*
X7412143Y-16894714D01*
X7412143Y-16999476D01*
X7412143Y-16894714D02*
X7421667Y-16875667D01*
X7440714Y-16866143D01*
X7469286Y-16866143D01*
X7488333Y-16875667D01*
X7497857Y-16894714D01*
X7497857Y-16999476D01*
X7888333Y-16789952D02*
X7716905Y-17047095D01*
X8145476Y-16799476D02*
X8164524Y-16799476D01*
X8183571Y-16809000D01*
X8193095Y-16818524D01*
X8202619Y-16837571D01*
X8212143Y-16875667D01*
X8212143Y-16923286D01*
X8202619Y-16961381D01*
X8193095Y-16980429D01*
X8183571Y-16989952D01*
X8164524Y-16999476D01*
X8145476Y-16999476D01*
X8126428Y-16989952D01*
X8116905Y-16980429D01*
X8107381Y-16961381D01*
X8097857Y-16923286D01*
X8097857Y-16875667D01*
X8107381Y-16837571D01*
X8116905Y-16818524D01*
X8126428Y-16809000D01*
X8145476Y-16799476D01*
X8297857Y-16980429D02*
X8307381Y-16989952D01*
X8297857Y-16999476D01*
X8288333Y-16989952D01*
X8297857Y-16980429D01*
X8297857Y-16999476D01*
X8431190Y-16799476D02*
X8450238Y-16799476D01*
X8469286Y-16809000D01*
X8478810Y-16818524D01*
X8488333Y-16837571D01*
X8497857Y-16875667D01*
X8497857Y-16923286D01*
X8488333Y-16961381D01*
X8478810Y-16980429D01*
X8469286Y-16989952D01*
X8450238Y-16999476D01*
X8431190Y-16999476D01*
X8412143Y-16989952D01*
X8402619Y-16980429D01*
X8393095Y-16961381D01*
X8383571Y-16923286D01*
X8383571Y-16875667D01*
X8393095Y-16837571D01*
X8402619Y-16818524D01*
X8412143Y-16809000D01*
X8431190Y-16799476D01*
X8688333Y-16999476D02*
X8574048Y-16999476D01*
X8631190Y-16999476D02*
X8631190Y-16799476D01*
X8612143Y-16828048D01*
X8593095Y-16847095D01*
X8574048Y-16856619D01*
X8755000Y-16799476D02*
X8878810Y-16799476D01*
X8812143Y-16875667D01*
X8840714Y-16875667D01*
X8859762Y-16885190D01*
X8869286Y-16894714D01*
X8878810Y-16913762D01*
X8878810Y-16961381D01*
X8869286Y-16980429D01*
X8859762Y-16989952D01*
X8840714Y-16999476D01*
X8783571Y-16999476D01*
X8764524Y-16989952D01*
X8755000Y-16980429D01*
X8993095Y-16885190D02*
X8974048Y-16875667D01*
X8964524Y-16866143D01*
X8955000Y-16847095D01*
X8955000Y-16837571D01*
X8964524Y-16818524D01*
X8974048Y-16809000D01*
X8993095Y-16799476D01*
X9031190Y-16799476D01*
X9050238Y-16809000D01*
X9059762Y-16818524D01*
X9069286Y-16837571D01*
X9069286Y-16847095D01*
X9059762Y-16866143D01*
X9050238Y-16875667D01*
X9031190Y-16885190D01*
X8993095Y-16885190D01*
X8974048Y-16894714D01*
X8964524Y-16904238D01*
X8955000Y-16923286D01*
X8955000Y-16961381D01*
X8964524Y-16980429D01*
X8974048Y-16989952D01*
X8993095Y-16999476D01*
X9031190Y-16999476D01*
X9050238Y-16989952D01*
X9059762Y-16980429D01*
X9069286Y-16961381D01*
X9069286Y-16923286D01*
X9059762Y-16904238D01*
X9050238Y-16894714D01*
X9031190Y-16885190D01*
X9145476Y-16799476D02*
X9145476Y-16837571D01*
X9221667Y-16799476D02*
X9221667Y-16837571D01*
X9516905Y-17075667D02*
X9507381Y-17066143D01*
X9488333Y-17037571D01*
X9478810Y-17018524D01*
X9469286Y-16989952D01*
X9459762Y-16942333D01*
X9459762Y-16904238D01*
X9469286Y-16856619D01*
X9478810Y-16828048D01*
X9488333Y-16809000D01*
X9507381Y-16780429D01*
X9516905Y-16770905D01*
X9602619Y-16999476D02*
X9640714Y-16999476D01*
X9659762Y-16989952D01*
X9669286Y-16980429D01*
X9688333Y-16951857D01*
X9697857Y-16913762D01*
X9697857Y-16837571D01*
X9688333Y-16818524D01*
X9678810Y-16809000D01*
X9659762Y-16799476D01*
X9621667Y-16799476D01*
X9602619Y-16809000D01*
X9593095Y-16818524D01*
X9583571Y-16837571D01*
X9583571Y-16885190D01*
X9593095Y-16904238D01*
X9602619Y-16913762D01*
X9621667Y-16923286D01*
X9659762Y-16923286D01*
X9678810Y-16913762D01*
X9688333Y-16904238D01*
X9697857Y-16885190D01*
X9935952Y-16999476D02*
X9935952Y-16799476D01*
X10021667Y-16999476D02*
X10021667Y-16894714D01*
X10012143Y-16875667D01*
X9993095Y-16866143D01*
X9964524Y-16866143D01*
X9945476Y-16875667D01*
X9935952Y-16885190D01*
X10145476Y-16999476D02*
X10126429Y-16989952D01*
X10116905Y-16980429D01*
X10107381Y-16961381D01*
X10107381Y-16904238D01*
X10116905Y-16885190D01*
X10126429Y-16875667D01*
X10145476Y-16866143D01*
X10174048Y-16866143D01*
X10193095Y-16875667D01*
X10202619Y-16885190D01*
X10212143Y-16904238D01*
X10212143Y-16961381D01*
X10202619Y-16980429D01*
X10193095Y-16989952D01*
X10174048Y-16999476D01*
X10145476Y-16999476D01*
X10326429Y-16999476D02*
X10307381Y-16989952D01*
X10297857Y-16970905D01*
X10297857Y-16799476D01*
X10478810Y-16989952D02*
X10459762Y-16999476D01*
X10421667Y-16999476D01*
X10402619Y-16989952D01*
X10393095Y-16970905D01*
X10393095Y-16894714D01*
X10402619Y-16875667D01*
X10421667Y-16866143D01*
X10459762Y-16866143D01*
X10478810Y-16875667D01*
X10488333Y-16894714D01*
X10488333Y-16913762D01*
X10393095Y-16932810D01*
X10564524Y-16989952D02*
X10583571Y-16999476D01*
X10621667Y-16999476D01*
X10640714Y-16989952D01*
X10650238Y-16970905D01*
X10650238Y-16961381D01*
X10640714Y-16942333D01*
X10621667Y-16932810D01*
X10593095Y-16932810D01*
X10574048Y-16923286D01*
X10564524Y-16904238D01*
X10564524Y-16894714D01*
X10574048Y-16875667D01*
X10593095Y-16866143D01*
X10621667Y-16866143D01*
X10640714Y-16875667D01*
X10716905Y-17075667D02*
X10726429Y-17066143D01*
X10745476Y-17037571D01*
X10755000Y-17018524D01*
X10764524Y-16989952D01*
X10774048Y-16942333D01*
X10774048Y-16904238D01*
X10764524Y-16856619D01*
X10755000Y-16828048D01*
X10745476Y-16809000D01*
X10726429Y-16780429D01*
X10716905Y-16770905D01*
D15*
X5915000Y-17143000D02*
X5915000Y-17203000D01*
X5885000Y-17173000D02*
X5945000Y-17173000D01*
D12*
X6240714Y-17063476D02*
X6259762Y-17063476D01*
X6278809Y-17073000D01*
X6288333Y-17082524D01*
X6297857Y-17101571D01*
X6307381Y-17139667D01*
X6307381Y-17187286D01*
X6297857Y-17225381D01*
X6288333Y-17244429D01*
X6278809Y-17253952D01*
X6259762Y-17263476D01*
X6240714Y-17263476D01*
X6221667Y-17253952D01*
X6212143Y-17244429D01*
X6202619Y-17225381D01*
X6193095Y-17187286D01*
X6193095Y-17139667D01*
X6202619Y-17101571D01*
X6212143Y-17082524D01*
X6221667Y-17073000D01*
X6240714Y-17063476D01*
X6393095Y-17244429D02*
X6402619Y-17253952D01*
X6393095Y-17263476D01*
X6383571Y-17253952D01*
X6393095Y-17244429D01*
X6393095Y-17263476D01*
X6574048Y-17063476D02*
X6535952Y-17063476D01*
X6516905Y-17073000D01*
X6507381Y-17082524D01*
X6488333Y-17111095D01*
X6478809Y-17149190D01*
X6478809Y-17225381D01*
X6488333Y-17244429D01*
X6497857Y-17253952D01*
X6516905Y-17263476D01*
X6555000Y-17263476D01*
X6574048Y-17253952D01*
X6583571Y-17244429D01*
X6593095Y-17225381D01*
X6593095Y-17177762D01*
X6583571Y-17158714D01*
X6574048Y-17149190D01*
X6555000Y-17139667D01*
X6516905Y-17139667D01*
X6497857Y-17149190D01*
X6488333Y-17158714D01*
X6478809Y-17177762D01*
X6716905Y-17063476D02*
X6735952Y-17063476D01*
X6755000Y-17073000D01*
X6764524Y-17082524D01*
X6774048Y-17101571D01*
X6783571Y-17139667D01*
X6783571Y-17187286D01*
X6774048Y-17225381D01*
X6764524Y-17244429D01*
X6755000Y-17253952D01*
X6735952Y-17263476D01*
X6716905Y-17263476D01*
X6697857Y-17253952D01*
X6688333Y-17244429D01*
X6678809Y-17225381D01*
X6669286Y-17187286D01*
X6669286Y-17139667D01*
X6678809Y-17101571D01*
X6688333Y-17082524D01*
X6697857Y-17073000D01*
X6716905Y-17063476D01*
X6907381Y-17063476D02*
X6926428Y-17063476D01*
X6945476Y-17073000D01*
X6955000Y-17082524D01*
X6964524Y-17101571D01*
X6974048Y-17139667D01*
X6974048Y-17187286D01*
X6964524Y-17225381D01*
X6955000Y-17244429D01*
X6945476Y-17253952D01*
X6926428Y-17263476D01*
X6907381Y-17263476D01*
X6888333Y-17253952D01*
X6878809Y-17244429D01*
X6869286Y-17225381D01*
X6859762Y-17187286D01*
X6859762Y-17139667D01*
X6869286Y-17101571D01*
X6878809Y-17082524D01*
X6888333Y-17073000D01*
X6907381Y-17063476D01*
X7059762Y-17263476D02*
X7059762Y-17130143D01*
X7059762Y-17149190D02*
X7069286Y-17139667D01*
X7088333Y-17130143D01*
X7116905Y-17130143D01*
X7135952Y-17139667D01*
X7145476Y-17158714D01*
X7145476Y-17263476D01*
X7145476Y-17158714D02*
X7155000Y-17139667D01*
X7174048Y-17130143D01*
X7202619Y-17130143D01*
X7221667Y-17139667D01*
X7231190Y-17158714D01*
X7231190Y-17263476D01*
X7326428Y-17263476D02*
X7326428Y-17130143D01*
X7326428Y-17149190D02*
X7335952Y-17139667D01*
X7355000Y-17130143D01*
X7383571Y-17130143D01*
X7402619Y-17139667D01*
X7412143Y-17158714D01*
X7412143Y-17263476D01*
X7412143Y-17158714D02*
X7421667Y-17139667D01*
X7440714Y-17130143D01*
X7469286Y-17130143D01*
X7488333Y-17139667D01*
X7497857Y-17158714D01*
X7497857Y-17263476D01*
X7888333Y-17053952D02*
X7716905Y-17311095D01*
X8145476Y-17063476D02*
X8164524Y-17063476D01*
X8183571Y-17073000D01*
X8193095Y-17082524D01*
X8202619Y-17101571D01*
X8212143Y-17139667D01*
X8212143Y-17187286D01*
X8202619Y-17225381D01*
X8193095Y-17244429D01*
X8183571Y-17253952D01*
X8164524Y-17263476D01*
X8145476Y-17263476D01*
X8126428Y-17253952D01*
X8116905Y-17244429D01*
X8107381Y-17225381D01*
X8097857Y-17187286D01*
X8097857Y-17139667D01*
X8107381Y-17101571D01*
X8116905Y-17082524D01*
X8126428Y-17073000D01*
X8145476Y-17063476D01*
X8297857Y-17244429D02*
X8307381Y-17253952D01*
X8297857Y-17263476D01*
X8288333Y-17253952D01*
X8297857Y-17244429D01*
X8297857Y-17263476D01*
X8431190Y-17063476D02*
X8450238Y-17063476D01*
X8469286Y-17073000D01*
X8478810Y-17082524D01*
X8488333Y-17101571D01*
X8497857Y-17139667D01*
X8497857Y-17187286D01*
X8488333Y-17225381D01*
X8478810Y-17244429D01*
X8469286Y-17253952D01*
X8450238Y-17263476D01*
X8431190Y-17263476D01*
X8412143Y-17253952D01*
X8402619Y-17244429D01*
X8393095Y-17225381D01*
X8383571Y-17187286D01*
X8383571Y-17139667D01*
X8393095Y-17101571D01*
X8402619Y-17082524D01*
X8412143Y-17073000D01*
X8431190Y-17063476D01*
X8574048Y-17082524D02*
X8583571Y-17073000D01*
X8602619Y-17063476D01*
X8650238Y-17063476D01*
X8669286Y-17073000D01*
X8678810Y-17082524D01*
X8688333Y-17101571D01*
X8688333Y-17120619D01*
X8678810Y-17149190D01*
X8564524Y-17263476D01*
X8688333Y-17263476D01*
X8755000Y-17063476D02*
X8878810Y-17063476D01*
X8812143Y-17139667D01*
X8840714Y-17139667D01*
X8859762Y-17149190D01*
X8869286Y-17158714D01*
X8878810Y-17177762D01*
X8878810Y-17225381D01*
X8869286Y-17244429D01*
X8859762Y-17253952D01*
X8840714Y-17263476D01*
X8783571Y-17263476D01*
X8764524Y-17253952D01*
X8755000Y-17244429D01*
X9050238Y-17063476D02*
X9012143Y-17063476D01*
X8993095Y-17073000D01*
X8983571Y-17082524D01*
X8964524Y-17111095D01*
X8955000Y-17149190D01*
X8955000Y-17225381D01*
X8964524Y-17244429D01*
X8974048Y-17253952D01*
X8993095Y-17263476D01*
X9031190Y-17263476D01*
X9050238Y-17253952D01*
X9059762Y-17244429D01*
X9069286Y-17225381D01*
X9069286Y-17177762D01*
X9059762Y-17158714D01*
X9050238Y-17149190D01*
X9031190Y-17139667D01*
X8993095Y-17139667D01*
X8974048Y-17149190D01*
X8964524Y-17158714D01*
X8955000Y-17177762D01*
X9145476Y-17063476D02*
X9145476Y-17101571D01*
X9221667Y-17063476D02*
X9221667Y-17101571D01*
X9516905Y-17339667D02*
X9507381Y-17330143D01*
X9488333Y-17301571D01*
X9478810Y-17282524D01*
X9469286Y-17253952D01*
X9459762Y-17206333D01*
X9459762Y-17168238D01*
X9469286Y-17120619D01*
X9478810Y-17092048D01*
X9488333Y-17073000D01*
X9507381Y-17044429D01*
X9516905Y-17034905D01*
X9631190Y-17063476D02*
X9650238Y-17063476D01*
X9669286Y-17073000D01*
X9678810Y-17082524D01*
X9688333Y-17101571D01*
X9697857Y-17139667D01*
X9697857Y-17187286D01*
X9688333Y-17225381D01*
X9678810Y-17244429D01*
X9669286Y-17253952D01*
X9650238Y-17263476D01*
X9631190Y-17263476D01*
X9612143Y-17253952D01*
X9602619Y-17244429D01*
X9593095Y-17225381D01*
X9583571Y-17187286D01*
X9583571Y-17139667D01*
X9593095Y-17101571D01*
X9602619Y-17082524D01*
X9612143Y-17073000D01*
X9631190Y-17063476D01*
X9935952Y-17263476D02*
X9935952Y-17063476D01*
X10021667Y-17263476D02*
X10021667Y-17158714D01*
X10012143Y-17139667D01*
X9993095Y-17130143D01*
X9964524Y-17130143D01*
X9945476Y-17139667D01*
X9935952Y-17149190D01*
X10145476Y-17263476D02*
X10126429Y-17253952D01*
X10116905Y-17244429D01*
X10107381Y-17225381D01*
X10107381Y-17168238D01*
X10116905Y-17149190D01*
X10126429Y-17139667D01*
X10145476Y-17130143D01*
X10174048Y-17130143D01*
X10193095Y-17139667D01*
X10202619Y-17149190D01*
X10212143Y-17168238D01*
X10212143Y-17225381D01*
X10202619Y-17244429D01*
X10193095Y-17253952D01*
X10174048Y-17263476D01*
X10145476Y-17263476D01*
X10326429Y-17263476D02*
X10307381Y-17253952D01*
X10297857Y-17234905D01*
X10297857Y-17063476D01*
X10478810Y-17253952D02*
X10459762Y-17263476D01*
X10421667Y-17263476D01*
X10402619Y-17253952D01*
X10393095Y-17234905D01*
X10393095Y-17158714D01*
X10402619Y-17139667D01*
X10421667Y-17130143D01*
X10459762Y-17130143D01*
X10478810Y-17139667D01*
X10488333Y-17158714D01*
X10488333Y-17177762D01*
X10393095Y-17196810D01*
X10564524Y-17253952D02*
X10583571Y-17263476D01*
X10621667Y-17263476D01*
X10640714Y-17253952D01*
X10650238Y-17234905D01*
X10650238Y-17225381D01*
X10640714Y-17206333D01*
X10621667Y-17196810D01*
X10593095Y-17196810D01*
X10574048Y-17187286D01*
X10564524Y-17168238D01*
X10564524Y-17158714D01*
X10574048Y-17139667D01*
X10593095Y-17130143D01*
X10621667Y-17130143D01*
X10640714Y-17139667D01*
X10888333Y-17187286D02*
X11040714Y-17187286D01*
X10964524Y-17263476D02*
X10964524Y-17111095D01*
X11374048Y-17130143D02*
X11374048Y-17263476D01*
X11326428Y-17053952D02*
X11278809Y-17196810D01*
X11402619Y-17196810D01*
X11621667Y-17253952D02*
X11640714Y-17263476D01*
X11678809Y-17263476D01*
X11697857Y-17253952D01*
X11707381Y-17234905D01*
X11707381Y-17225381D01*
X11697857Y-17206333D01*
X11678809Y-17196810D01*
X11650238Y-17196810D01*
X11631190Y-17187286D01*
X11621667Y-17168238D01*
X11621667Y-17158714D01*
X11631190Y-17139667D01*
X11650238Y-17130143D01*
X11678809Y-17130143D01*
X11697857Y-17139667D01*
X11821667Y-17263476D02*
X11802619Y-17253952D01*
X11793095Y-17234905D01*
X11793095Y-17063476D01*
X11926428Y-17263476D02*
X11907381Y-17253952D01*
X11897857Y-17244429D01*
X11888333Y-17225381D01*
X11888333Y-17168238D01*
X11897857Y-17149190D01*
X11907381Y-17139667D01*
X11926428Y-17130143D01*
X11955000Y-17130143D01*
X11974048Y-17139667D01*
X11983571Y-17149190D01*
X11993095Y-17168238D01*
X11993095Y-17225381D01*
X11983571Y-17244429D01*
X11974048Y-17253952D01*
X11955000Y-17263476D01*
X11926428Y-17263476D01*
X12050238Y-17130143D02*
X12126428Y-17130143D01*
X12078809Y-17063476D02*
X12078809Y-17234905D01*
X12088333Y-17253952D01*
X12107381Y-17263476D01*
X12126428Y-17263476D01*
X12183571Y-17253952D02*
X12202619Y-17263476D01*
X12240714Y-17263476D01*
X12259762Y-17253952D01*
X12269286Y-17234905D01*
X12269286Y-17225381D01*
X12259762Y-17206333D01*
X12240714Y-17196810D01*
X12212143Y-17196810D01*
X12193095Y-17187286D01*
X12183571Y-17168238D01*
X12183571Y-17158714D01*
X12193095Y-17139667D01*
X12212143Y-17130143D01*
X12240714Y-17130143D01*
X12259762Y-17139667D01*
X12335952Y-17339667D02*
X12345476Y-17330143D01*
X12364524Y-17301571D01*
X12374048Y-17282524D01*
X12383571Y-17253952D01*
X12393095Y-17206333D01*
X12393095Y-17168238D01*
X12383571Y-17120619D01*
X12374048Y-17092048D01*
X12364524Y-17073000D01*
X12345476Y-17044429D01*
X12335952Y-17034905D01*
D10*
X5930356Y-17472356D02*
X5930356Y-17401644D01*
X5859644Y-17401644D01*
X5859644Y-17472356D01*
X5930356Y-17472356D01*
D12*
X6307381Y-17527476D02*
X6193095Y-17527476D01*
X6250238Y-17527476D02*
X6250238Y-17327476D01*
X6231190Y-17356048D01*
X6212143Y-17375095D01*
X6193095Y-17384619D01*
X6393095Y-17508429D02*
X6402619Y-17517952D01*
X6393095Y-17527476D01*
X6383571Y-17517952D01*
X6393095Y-17508429D01*
X6393095Y-17527476D01*
X6526428Y-17327476D02*
X6545476Y-17327476D01*
X6564524Y-17337000D01*
X6574048Y-17346524D01*
X6583571Y-17365571D01*
X6593095Y-17403667D01*
X6593095Y-17451286D01*
X6583571Y-17489381D01*
X6574048Y-17508429D01*
X6564524Y-17517952D01*
X6545476Y-17527476D01*
X6526428Y-17527476D01*
X6507381Y-17517952D01*
X6497857Y-17508429D01*
X6488333Y-17489381D01*
X6478809Y-17451286D01*
X6478809Y-17403667D01*
X6488333Y-17365571D01*
X6497857Y-17346524D01*
X6507381Y-17337000D01*
X6526428Y-17327476D01*
X6716905Y-17327476D02*
X6735952Y-17327476D01*
X6755000Y-17337000D01*
X6764524Y-17346524D01*
X6774048Y-17365571D01*
X6783571Y-17403667D01*
X6783571Y-17451286D01*
X6774048Y-17489381D01*
X6764524Y-17508429D01*
X6755000Y-17517952D01*
X6735952Y-17527476D01*
X6716905Y-17527476D01*
X6697857Y-17517952D01*
X6688333Y-17508429D01*
X6678809Y-17489381D01*
X6669286Y-17451286D01*
X6669286Y-17403667D01*
X6678809Y-17365571D01*
X6688333Y-17346524D01*
X6697857Y-17337000D01*
X6716905Y-17327476D01*
X6907381Y-17327476D02*
X6926428Y-17327476D01*
X6945476Y-17337000D01*
X6955000Y-17346524D01*
X6964524Y-17365571D01*
X6974048Y-17403667D01*
X6974048Y-17451286D01*
X6964524Y-17489381D01*
X6955000Y-17508429D01*
X6945476Y-17517952D01*
X6926428Y-17527476D01*
X6907381Y-17527476D01*
X6888333Y-17517952D01*
X6878809Y-17508429D01*
X6869286Y-17489381D01*
X6859762Y-17451286D01*
X6859762Y-17403667D01*
X6869286Y-17365571D01*
X6878809Y-17346524D01*
X6888333Y-17337000D01*
X6907381Y-17327476D01*
X7059762Y-17527476D02*
X7059762Y-17394143D01*
X7059762Y-17413190D02*
X7069286Y-17403667D01*
X7088333Y-17394143D01*
X7116905Y-17394143D01*
X7135952Y-17403667D01*
X7145476Y-17422714D01*
X7145476Y-17527476D01*
X7145476Y-17422714D02*
X7155000Y-17403667D01*
X7174048Y-17394143D01*
X7202619Y-17394143D01*
X7221667Y-17403667D01*
X7231190Y-17422714D01*
X7231190Y-17527476D01*
X7326428Y-17527476D02*
X7326428Y-17394143D01*
X7326428Y-17413190D02*
X7335952Y-17403667D01*
X7355000Y-17394143D01*
X7383571Y-17394143D01*
X7402619Y-17403667D01*
X7412143Y-17422714D01*
X7412143Y-17527476D01*
X7412143Y-17422714D02*
X7421667Y-17403667D01*
X7440714Y-17394143D01*
X7469286Y-17394143D01*
X7488333Y-17403667D01*
X7497857Y-17422714D01*
X7497857Y-17527476D01*
X7888333Y-17317952D02*
X7716905Y-17575095D01*
X8145476Y-17327476D02*
X8164524Y-17327476D01*
X8183571Y-17337000D01*
X8193095Y-17346524D01*
X8202619Y-17365571D01*
X8212143Y-17403667D01*
X8212143Y-17451286D01*
X8202619Y-17489381D01*
X8193095Y-17508429D01*
X8183571Y-17517952D01*
X8164524Y-17527476D01*
X8145476Y-17527476D01*
X8126428Y-17517952D01*
X8116905Y-17508429D01*
X8107381Y-17489381D01*
X8097857Y-17451286D01*
X8097857Y-17403667D01*
X8107381Y-17365571D01*
X8116905Y-17346524D01*
X8126428Y-17337000D01*
X8145476Y-17327476D01*
X8297857Y-17508429D02*
X8307381Y-17517952D01*
X8297857Y-17527476D01*
X8288333Y-17517952D01*
X8297857Y-17508429D01*
X8297857Y-17527476D01*
X8431190Y-17327476D02*
X8450238Y-17327476D01*
X8469286Y-17337000D01*
X8478810Y-17346524D01*
X8488333Y-17365571D01*
X8497857Y-17403667D01*
X8497857Y-17451286D01*
X8488333Y-17489381D01*
X8478810Y-17508429D01*
X8469286Y-17517952D01*
X8450238Y-17527476D01*
X8431190Y-17527476D01*
X8412143Y-17517952D01*
X8402619Y-17508429D01*
X8393095Y-17489381D01*
X8383571Y-17451286D01*
X8383571Y-17403667D01*
X8393095Y-17365571D01*
X8402619Y-17346524D01*
X8412143Y-17337000D01*
X8431190Y-17327476D01*
X8564524Y-17327476D02*
X8688333Y-17327476D01*
X8621667Y-17403667D01*
X8650238Y-17403667D01*
X8669286Y-17413190D01*
X8678810Y-17422714D01*
X8688333Y-17441762D01*
X8688333Y-17489381D01*
X8678810Y-17508429D01*
X8669286Y-17517952D01*
X8650238Y-17527476D01*
X8593095Y-17527476D01*
X8574048Y-17517952D01*
X8564524Y-17508429D01*
X8783571Y-17527476D02*
X8821667Y-17527476D01*
X8840714Y-17517952D01*
X8850238Y-17508429D01*
X8869286Y-17479857D01*
X8878810Y-17441762D01*
X8878810Y-17365571D01*
X8869286Y-17346524D01*
X8859762Y-17337000D01*
X8840714Y-17327476D01*
X8802619Y-17327476D01*
X8783571Y-17337000D01*
X8774048Y-17346524D01*
X8764524Y-17365571D01*
X8764524Y-17413190D01*
X8774048Y-17432238D01*
X8783571Y-17441762D01*
X8802619Y-17451286D01*
X8840714Y-17451286D01*
X8859762Y-17441762D01*
X8869286Y-17432238D01*
X8878810Y-17413190D01*
X9050238Y-17394143D02*
X9050238Y-17527476D01*
X9002619Y-17317952D02*
X8955000Y-17460810D01*
X9078810Y-17460810D01*
X9145476Y-17327476D02*
X9145476Y-17365571D01*
X9221667Y-17327476D02*
X9221667Y-17365571D01*
X9516905Y-17603667D02*
X9507381Y-17594143D01*
X9488333Y-17565571D01*
X9478810Y-17546524D01*
X9469286Y-17517952D01*
X9459762Y-17470333D01*
X9459762Y-17432238D01*
X9469286Y-17384619D01*
X9478810Y-17356048D01*
X9488333Y-17337000D01*
X9507381Y-17308429D01*
X9516905Y-17298905D01*
X9574048Y-17327476D02*
X9707381Y-17327476D01*
X9621667Y-17527476D01*
X9935952Y-17527476D02*
X9935952Y-17327476D01*
X10021667Y-17527476D02*
X10021667Y-17422714D01*
X10012143Y-17403667D01*
X9993095Y-17394143D01*
X9964524Y-17394143D01*
X9945476Y-17403667D01*
X9935952Y-17413190D01*
X10145476Y-17527476D02*
X10126429Y-17517952D01*
X10116905Y-17508429D01*
X10107381Y-17489381D01*
X10107381Y-17432238D01*
X10116905Y-17413190D01*
X10126429Y-17403667D01*
X10145476Y-17394143D01*
X10174048Y-17394143D01*
X10193095Y-17403667D01*
X10202619Y-17413190D01*
X10212143Y-17432238D01*
X10212143Y-17489381D01*
X10202619Y-17508429D01*
X10193095Y-17517952D01*
X10174048Y-17527476D01*
X10145476Y-17527476D01*
X10326429Y-17527476D02*
X10307381Y-17517952D01*
X10297857Y-17498905D01*
X10297857Y-17327476D01*
X10478810Y-17517952D02*
X10459762Y-17527476D01*
X10421667Y-17527476D01*
X10402619Y-17517952D01*
X10393095Y-17498905D01*
X10393095Y-17422714D01*
X10402619Y-17403667D01*
X10421667Y-17394143D01*
X10459762Y-17394143D01*
X10478810Y-17403667D01*
X10488333Y-17422714D01*
X10488333Y-17441762D01*
X10393095Y-17460810D01*
X10564524Y-17517952D02*
X10583571Y-17527476D01*
X10621667Y-17527476D01*
X10640714Y-17517952D01*
X10650238Y-17498905D01*
X10650238Y-17489381D01*
X10640714Y-17470333D01*
X10621667Y-17460810D01*
X10593095Y-17460810D01*
X10574048Y-17451286D01*
X10564524Y-17432238D01*
X10564524Y-17422714D01*
X10574048Y-17403667D01*
X10593095Y-17394143D01*
X10621667Y-17394143D01*
X10640714Y-17403667D01*
X10716905Y-17603667D02*
X10726429Y-17594143D01*
X10745476Y-17565571D01*
X10755000Y-17546524D01*
X10764524Y-17517952D01*
X10774048Y-17470333D01*
X10774048Y-17432238D01*
X10764524Y-17384619D01*
X10755000Y-17356048D01*
X10745476Y-17337000D01*
X10726429Y-17308429D01*
X10716905Y-17298905D01*
X5845000Y-17801000D02*
X5945000Y-17701000D01*
X5845000Y-17601000D01*
X5745000Y-17701000D01*
X5845000Y-17801000D01*
X6193095Y-17610524D02*
X6202619Y-17601000D01*
X6221667Y-17591476D01*
X6269286Y-17591476D01*
X6288333Y-17601000D01*
X6297857Y-17610524D01*
X6307381Y-17629571D01*
X6307381Y-17648619D01*
X6297857Y-17677190D01*
X6183571Y-17791476D01*
X6307381Y-17791476D01*
X6393095Y-17772429D02*
X6402619Y-17781952D01*
X6393095Y-17791476D01*
X6383571Y-17781952D01*
X6393095Y-17772429D01*
X6393095Y-17791476D01*
X6478809Y-17610524D02*
X6488333Y-17601000D01*
X6507381Y-17591476D01*
X6555000Y-17591476D01*
X6574048Y-17601000D01*
X6583571Y-17610524D01*
X6593095Y-17629571D01*
X6593095Y-17648619D01*
X6583571Y-17677190D01*
X6469286Y-17791476D01*
X6593095Y-17791476D01*
X6716905Y-17591476D02*
X6735952Y-17591476D01*
X6755000Y-17601000D01*
X6764524Y-17610524D01*
X6774048Y-17629571D01*
X6783571Y-17667667D01*
X6783571Y-17715286D01*
X6774048Y-17753381D01*
X6764524Y-17772429D01*
X6755000Y-17781952D01*
X6735952Y-17791476D01*
X6716905Y-17791476D01*
X6697857Y-17781952D01*
X6688333Y-17772429D01*
X6678809Y-17753381D01*
X6669286Y-17715286D01*
X6669286Y-17667667D01*
X6678809Y-17629571D01*
X6688333Y-17610524D01*
X6697857Y-17601000D01*
X6716905Y-17591476D01*
X6907381Y-17591476D02*
X6926428Y-17591476D01*
X6945476Y-17601000D01*
X6955000Y-17610524D01*
X6964524Y-17629571D01*
X6974048Y-17667667D01*
X6974048Y-17715286D01*
X6964524Y-17753381D01*
X6955000Y-17772429D01*
X6945476Y-17781952D01*
X6926428Y-17791476D01*
X6907381Y-17791476D01*
X6888333Y-17781952D01*
X6878809Y-17772429D01*
X6869286Y-17753381D01*
X6859762Y-17715286D01*
X6859762Y-17667667D01*
X6869286Y-17629571D01*
X6878809Y-17610524D01*
X6888333Y-17601000D01*
X6907381Y-17591476D01*
X7059762Y-17791476D02*
X7059762Y-17658143D01*
X7059762Y-17677190D02*
X7069286Y-17667667D01*
X7088333Y-17658143D01*
X7116905Y-17658143D01*
X7135952Y-17667667D01*
X7145476Y-17686714D01*
X7145476Y-17791476D01*
X7145476Y-17686714D02*
X7155000Y-17667667D01*
X7174048Y-17658143D01*
X7202619Y-17658143D01*
X7221667Y-17667667D01*
X7231190Y-17686714D01*
X7231190Y-17791476D01*
X7326428Y-17791476D02*
X7326428Y-17658143D01*
X7326428Y-17677190D02*
X7335952Y-17667667D01*
X7355000Y-17658143D01*
X7383571Y-17658143D01*
X7402619Y-17667667D01*
X7412143Y-17686714D01*
X7412143Y-17791476D01*
X7412143Y-17686714D02*
X7421667Y-17667667D01*
X7440714Y-17658143D01*
X7469286Y-17658143D01*
X7488333Y-17667667D01*
X7497857Y-17686714D01*
X7497857Y-17791476D01*
X7888333Y-17581952D02*
X7716905Y-17839095D01*
X8145476Y-17591476D02*
X8164524Y-17591476D01*
X8183571Y-17601000D01*
X8193095Y-17610524D01*
X8202619Y-17629571D01*
X8212143Y-17667667D01*
X8212143Y-17715286D01*
X8202619Y-17753381D01*
X8193095Y-17772429D01*
X8183571Y-17781952D01*
X8164524Y-17791476D01*
X8145476Y-17791476D01*
X8126428Y-17781952D01*
X8116905Y-17772429D01*
X8107381Y-17753381D01*
X8097857Y-17715286D01*
X8097857Y-17667667D01*
X8107381Y-17629571D01*
X8116905Y-17610524D01*
X8126428Y-17601000D01*
X8145476Y-17591476D01*
X8297857Y-17772429D02*
X8307381Y-17781952D01*
X8297857Y-17791476D01*
X8288333Y-17781952D01*
X8297857Y-17772429D01*
X8297857Y-17791476D01*
X8431190Y-17591476D02*
X8450238Y-17591476D01*
X8469286Y-17601000D01*
X8478810Y-17610524D01*
X8488333Y-17629571D01*
X8497857Y-17667667D01*
X8497857Y-17715286D01*
X8488333Y-17753381D01*
X8478810Y-17772429D01*
X8469286Y-17781952D01*
X8450238Y-17791476D01*
X8431190Y-17791476D01*
X8412143Y-17781952D01*
X8402619Y-17772429D01*
X8393095Y-17753381D01*
X8383571Y-17715286D01*
X8383571Y-17667667D01*
X8393095Y-17629571D01*
X8402619Y-17610524D01*
X8412143Y-17601000D01*
X8431190Y-17591476D01*
X8612143Y-17677190D02*
X8593095Y-17667667D01*
X8583571Y-17658143D01*
X8574048Y-17639095D01*
X8574048Y-17629571D01*
X8583571Y-17610524D01*
X8593095Y-17601000D01*
X8612143Y-17591476D01*
X8650238Y-17591476D01*
X8669286Y-17601000D01*
X8678810Y-17610524D01*
X8688333Y-17629571D01*
X8688333Y-17639095D01*
X8678810Y-17658143D01*
X8669286Y-17667667D01*
X8650238Y-17677190D01*
X8612143Y-17677190D01*
X8593095Y-17686714D01*
X8583571Y-17696238D01*
X8574048Y-17715286D01*
X8574048Y-17753381D01*
X8583571Y-17772429D01*
X8593095Y-17781952D01*
X8612143Y-17791476D01*
X8650238Y-17791476D01*
X8669286Y-17781952D01*
X8678810Y-17772429D01*
X8688333Y-17753381D01*
X8688333Y-17715286D01*
X8678810Y-17696238D01*
X8669286Y-17686714D01*
X8650238Y-17677190D01*
X8859762Y-17591476D02*
X8821667Y-17591476D01*
X8802619Y-17601000D01*
X8793095Y-17610524D01*
X8774048Y-17639095D01*
X8764524Y-17677190D01*
X8764524Y-17753381D01*
X8774048Y-17772429D01*
X8783571Y-17781952D01*
X8802619Y-17791476D01*
X8840714Y-17791476D01*
X8859762Y-17781952D01*
X8869286Y-17772429D01*
X8878810Y-17753381D01*
X8878810Y-17705762D01*
X8869286Y-17686714D01*
X8859762Y-17677190D01*
X8840714Y-17667667D01*
X8802619Y-17667667D01*
X8783571Y-17677190D01*
X8774048Y-17686714D01*
X8764524Y-17705762D01*
X9050238Y-17591476D02*
X9012143Y-17591476D01*
X8993095Y-17601000D01*
X8983571Y-17610524D01*
X8964524Y-17639095D01*
X8955000Y-17677190D01*
X8955000Y-17753381D01*
X8964524Y-17772429D01*
X8974048Y-17781952D01*
X8993095Y-17791476D01*
X9031190Y-17791476D01*
X9050238Y-17781952D01*
X9059762Y-17772429D01*
X9069286Y-17753381D01*
X9069286Y-17705762D01*
X9059762Y-17686714D01*
X9050238Y-17677190D01*
X9031190Y-17667667D01*
X8993095Y-17667667D01*
X8974048Y-17677190D01*
X8964524Y-17686714D01*
X8955000Y-17705762D01*
X9145476Y-17591476D02*
X9145476Y-17629571D01*
X9221667Y-17591476D02*
X9221667Y-17629571D01*
X9516905Y-17867667D02*
X9507381Y-17858143D01*
X9488333Y-17829571D01*
X9478810Y-17810524D01*
X9469286Y-17781952D01*
X9459762Y-17734333D01*
X9459762Y-17696238D01*
X9469286Y-17648619D01*
X9478810Y-17620048D01*
X9488333Y-17601000D01*
X9507381Y-17572429D01*
X9516905Y-17562905D01*
X9621667Y-17677190D02*
X9602619Y-17667667D01*
X9593095Y-17658143D01*
X9583571Y-17639095D01*
X9583571Y-17629571D01*
X9593095Y-17610524D01*
X9602619Y-17601000D01*
X9621667Y-17591476D01*
X9659762Y-17591476D01*
X9678810Y-17601000D01*
X9688333Y-17610524D01*
X9697857Y-17629571D01*
X9697857Y-17639095D01*
X9688333Y-17658143D01*
X9678810Y-17667667D01*
X9659762Y-17677190D01*
X9621667Y-17677190D01*
X9602619Y-17686714D01*
X9593095Y-17696238D01*
X9583571Y-17715286D01*
X9583571Y-17753381D01*
X9593095Y-17772429D01*
X9602619Y-17781952D01*
X9621667Y-17791476D01*
X9659762Y-17791476D01*
X9678810Y-17781952D01*
X9688333Y-17772429D01*
X9697857Y-17753381D01*
X9697857Y-17715286D01*
X9688333Y-17696238D01*
X9678810Y-17686714D01*
X9659762Y-17677190D01*
X9935952Y-17791476D02*
X9935952Y-17591476D01*
X10021667Y-17791476D02*
X10021667Y-17686714D01*
X10012143Y-17667667D01*
X9993095Y-17658143D01*
X9964524Y-17658143D01*
X9945476Y-17667667D01*
X9935952Y-17677190D01*
X10145476Y-17791476D02*
X10126429Y-17781952D01*
X10116905Y-17772429D01*
X10107381Y-17753381D01*
X10107381Y-17696238D01*
X10116905Y-17677190D01*
X10126429Y-17667667D01*
X10145476Y-17658143D01*
X10174048Y-17658143D01*
X10193095Y-17667667D01*
X10202619Y-17677190D01*
X10212143Y-17696238D01*
X10212143Y-17753381D01*
X10202619Y-17772429D01*
X10193095Y-17781952D01*
X10174048Y-17791476D01*
X10145476Y-17791476D01*
X10326429Y-17791476D02*
X10307381Y-17781952D01*
X10297857Y-17762905D01*
X10297857Y-17591476D01*
X10478810Y-17781952D02*
X10459762Y-17791476D01*
X10421667Y-17791476D01*
X10402619Y-17781952D01*
X10393095Y-17762905D01*
X10393095Y-17686714D01*
X10402619Y-17667667D01*
X10421667Y-17658143D01*
X10459762Y-17658143D01*
X10478810Y-17667667D01*
X10488333Y-17686714D01*
X10488333Y-17705762D01*
X10393095Y-17724810D01*
X10564524Y-17781952D02*
X10583571Y-17791476D01*
X10621667Y-17791476D01*
X10640714Y-17781952D01*
X10650238Y-17762905D01*
X10650238Y-17753381D01*
X10640714Y-17734333D01*
X10621667Y-17724810D01*
X10593095Y-17724810D01*
X10574048Y-17715286D01*
X10564524Y-17696238D01*
X10564524Y-17686714D01*
X10574048Y-17667667D01*
X10593095Y-17658143D01*
X10621667Y-17658143D01*
X10640714Y-17667667D01*
X10716905Y-17867667D02*
X10726429Y-17858143D01*
X10745476Y-17829571D01*
X10755000Y-17810524D01*
X10764524Y-17781952D01*
X10774048Y-17734333D01*
X10774048Y-17696238D01*
X10764524Y-17648619D01*
X10755000Y-17620048D01*
X10745476Y-17601000D01*
X10726429Y-17572429D01*
X10716905Y-17562905D01*
M02*
